<svg width="18" height="20" viewBox="0 0 18 20" fill="none" xmlns="http://www.w3.org/2000/svg">
<g clip-path="url(#clip0_949_3798)">
<path d="M14.62 19.2C13.536 20.252 12.34 20.088 11.2 19.592C9.98797 19.086 8.87997 19.054 7.59997 19.592C6.00597 20.28 5.15997 20.08 4.19997 19.2C-1.22003 13.62 -0.420029 5.12 5.73997 4.8C7.23397 4.88 8.27997 5.626 9.15997 5.688C10.468 5.422 11.72 4.66001 13.12 4.76001C14.802 4.896 16.06 5.56 16.9 6.754C13.44 8.83399 14.26 13.394 17.438 14.674C16.802 16.344 15.986 17.994 14.618 19.214L14.62 19.2ZM9.03997 4.74001C8.87797 2.26001 10.888 0.220019 13.2 0.0200195C13.518 2.88001 10.6 5.02 9.03997 4.74001Z" fill="#101623"/>
</g>
<defs>
<clipPath id="clip0_949_3798">
<rect width="16.84" height="20" fill="white" transform="translate(0.579956)"/>
</clipPath>
</defs>
</svg>
