<svg width="24" height="24" viewBox="0 0 24 24" fill="none" xmlns="http://www.w3.org/2000/svg">
<path d="M6.17339 12.0506C6.17339 12.0506 4.28125 10.8214 4.28125 8.78571C4.28125 6.75 5.63279 5.39286 7.5625 5.39286C9.49221 5.39286 11.9935 7.61645 10.1875 11.5C8.88153 14.3082 6.50675 14.5439 4.88757 14.6339H3.22984M13.9347 14.0945C14.869 13.6332 16.1035 12.5938 17.0433 9.67061C17.5784 8.00608 18.0898 6.80576 19.2986 5.91751M13.9347 14.0945C13.3042 14.4059 11.9935 14.583 11.9935 14.583C11.9935 14.583 11.7104 14.6339 11.3496 14.6339M13.9347 14.0945V21M22 5.03279C21.8072 5.03293 20.9701 5.17871 20.9701 5.17871C20.9701 5.17871 19.9849 5.35717 19.2986 5.91751M19.2986 5.91751V21M19.2986 21H21.9633M19.2986 21H13.9347M13.9347 21H8.67149M8.67149 21V16.9286M8.67149 21H3.22984M1 21H3.22984M3.22984 21V14.6339M1 14.6339H3.22984M14.5326 8.88197C14.879 7.50306 15.6764 5.92421 16.3741 5.0488M18.1605 3.29571C18.5801 2.94343 19.8015 2 21.9894 2" stroke="#83109F" stroke-width="1.5" stroke-linecap="round" stroke-linejoin="round"/>
</svg>
