<svg width="24" height="24" viewBox="0 0 24 24" fill="none" xmlns="http://www.w3.org/2000/svg">
<path d="M4.25 12C4.25 7.71979 7.71979 4.25 12 4.25C16.2802 4.25 19.75 7.71979 19.75 12C19.75 16.2802 16.2802 19.75 12 19.75C11.5325 19.75 11.0752 19.7087 10.6315 19.6297C10.2237 19.5571 9.83422 19.8288 9.76161 20.2366C9.689 20.6444 9.96073 21.0338 10.3685 21.1065C10.8986 21.2008 11.4439 21.25 12 21.25C17.1086 21.25 21.25 17.1086 21.25 12C21.25 6.89137 17.1086 2.75 12 2.75C6.89137 2.75 2.75 6.89137 2.75 12C2.75 12.2631 2.76101 12.5239 2.78261 12.7818C2.81719 13.1945 3.17984 13.5011 3.5926 13.4665C4.00537 13.4319 4.31195 13.0693 4.27737 12.6565C4.25926 12.4402 4.25 12.2213 4.25 12Z" fill="#13193A"/>
<path d="M1.25 15.5C1.25 15.0858 1.58579 14.75 2 14.75H6.5C6.91421 14.75 7.25 15.0858 7.25 15.5C7.25 15.9142 6.91421 16.25 6.5 16.25H2C1.58579 16.25 1.25 15.9142 1.25 15.5Z" fill="#13193A"/>
<path d="M3.75 18.5C3.75 18.0858 4.08579 17.75 4.5 17.75H8C8.41421 17.75 8.75 18.0858 8.75 18.5C8.75 18.9142 8.41421 19.25 8 19.25H4.5C4.08579 19.25 3.75 18.9142 3.75 18.5Z" fill="#13193A"/>
<path d="M12.2125 7.84998C12.6267 7.84998 12.9625 8.18576 12.9625 8.59998V12.4113C12.963 12.4404 12.9618 12.4694 12.959 12.4982C12.9367 12.7285 12.8103 12.9282 12.6274 13.0499C12.5977 13.0697 12.5664 13.0874 12.5339 13.1028L9.99789 14.3708C9.6274 14.5561 9.1769 14.4059 8.99166 14.0354C8.80641 13.6649 8.95658 13.2144 9.32707 13.0292L11.4625 11.9615V8.59998C11.4625 8.18576 11.7983 7.84998 12.2125 7.84998Z" fill="#13193A"/>
</svg>
