<svg width="25" height="24" viewBox="0 0 25 24" fill="none" xmlns="http://www.w3.org/2000/svg">
<g clip-path="url(#clip0_4665_748)">
<path d="M8.24161 21.0995L8.34534 21.1285C8.70337 21.2249 9.08192 21.1944 9.42155 21.0419C9.76117 20.8894 10.0426 20.6235 10.2218 20.286C10.4046 19.9597 10.685 19.7052 11.02 19.5615C11.355 19.4178 11.7259 19.393 12.0758 19.4908C12.4256 19.5886 12.7349 19.8037 12.9562 20.1029C13.1775 20.402 13.2984 20.7688 13.3003 21.1467C13.2937 21.5325 13.4101 21.9096 13.6312 22.2189C13.8522 22.5281 14.1654 22.752 14.5216 22.8554L14.6254 22.8844C15.6835 23.1789 16.8103 23.0234 17.7587 22.452C18.7071 21.8806 19.3996 20.9401 19.6843 19.8367L23.1054 6.51402C23.2755 5.85151 23.1864 5.14561 22.8578 4.55162C22.5291 3.95763 21.9878 3.5242 21.3529 3.34668L19.6532 2.87145C19.2952 2.77514 18.9166 2.80563 18.577 2.95814C18.2374 3.11064 17.9559 3.37652 17.7768 3.71404C17.594 4.04029 17.3135 4.29483 16.9786 4.4385C16.6436 4.58217 16.2726 4.60701 15.9228 4.5092C15.573 4.41139 15.2636 4.19634 15.0424 3.89715C14.8211 3.59795 14.7002 3.23118 14.6982 2.85327C14.7048 2.46752 14.5885 2.0904 14.3674 1.78113C14.1464 1.47186 13.8331 1.24796 13.4769 1.14456L11.7772 0.669336C11.1423 0.491817 10.4659 0.584749 9.89661 0.927689C9.32737 1.27063 8.912 1.83549 8.74188 2.498L5.32083 15.8207C5.03866 16.9248 5.1877 18.1006 5.73525 19.0902C6.2828 20.0799 7.18416 20.8025 8.24161 21.0995V21.0995ZM11.3496 2.33467L13.0462 2.86525C13.0522 3.62424 13.298 4.35997 13.7455 4.95833C14.193 5.55669 14.8172 5.98426 15.5214 6.17472C16.2255 6.36519 16.9701 6.3079 17.6399 6.01176C18.3096 5.71561 18.867 5.19716 19.2256 4.53679L20.9253 5.01201C21.1369 5.07119 21.3173 5.21566 21.4269 5.41366C21.5364 5.61166 21.5661 5.84696 21.5094 6.06779L20.6542 9.39846L19.0582 8.95223C18.8466 8.89306 18.6211 8.92403 18.4313 9.03835C18.2416 9.15266 18.1031 9.34095 18.0464 9.56179C17.9897 9.78262 18.0194 10.0179 18.129 10.2159C18.2385 10.4139 18.419 10.5584 18.6306 10.6176L20.2265 11.0638L18.0884 19.3904C17.9182 20.053 17.5029 20.6178 16.9336 20.9608C16.3644 21.3037 15.6879 21.3966 15.053 21.2191L14.9524 21.1347C14.9458 20.3802 14.7028 19.6486 14.2605 19.0517C13.8181 18.4547 13.2008 18.0252 12.5026 17.8287C11.793 17.637 11.0429 17.6925 10.3664 17.9866C9.68981 18.2807 9.12386 18.7974 8.75462 19.4581L8.66924 19.4342C8.03433 19.2567 7.49301 18.8233 7.16436 18.2293C6.83571 17.6353 6.74665 16.9294 6.91677 16.2669L9.05493 7.94022L10.6509 8.38644C10.8625 8.44561 11.088 8.41464 11.2777 8.30032C11.4675 8.18601 11.606 7.99772 11.6627 7.77689C11.7194 7.55605 11.6897 7.32075 11.5801 7.12276C11.4706 6.92476 11.2901 6.78028 11.0785 6.72111L9.48256 6.27489L10.3378 2.94422C10.3945 2.72339 10.533 2.5351 10.7227 2.42079C10.9125 2.30647 11.138 2.2755 11.3496 2.33467Z" fill="#83109F"/>
<path d="M6.81418 22.5557L6.70713 22.5647C5.61544 22.655 4.53402 22.2897 3.70007 21.5491C2.86612 20.8084 2.34774 19.7529 2.25862 18.614L1.19878 4.86576C1.14608 4.18209 1.3558 3.50457 1.78182 2.98225C2.20784 2.45993 2.81526 2.13561 3.47044 2.08061L5.22441 1.93338C5.59323 1.9061 5.96028 2.00741 6.26794 2.22138C6.5756 2.43536 6.80644 2.7499 6.92423 3.11561C7.04757 3.47094 7.27939 3.77413 7.58401 3.97855L7.01518 5.61498C6.90856 5.56016 6.80447 5.49919 6.7034 5.43218C6.08947 5.02513 5.62139 4.41807 5.37177 3.70515L3.60292 3.79914C3.38453 3.81747 3.18205 3.92558 3.04005 4.09968C2.89804 4.27379 2.82813 4.49963 2.8457 4.72752L3.11066 8.16457L4.75758 8.02633C4.97598 8.008 5.19241 8.08095 5.35926 8.22913C5.52611 8.37731 5.62972 8.58859 5.64728 8.81648C5.66485 9.04437 5.59494 9.27021 5.45294 9.44431C5.31093 9.61842 5.10846 9.72653 4.89006 9.74486L3.24314 9.8831L3.90554 18.4757C3.95825 19.1594 4.26906 19.7932 4.76962 20.2378C5.27017 20.6823 5.91946 20.9012 6.57465 20.8462L8.06792 21.7637C7.99287 21.8854 7.9031 21.9976 7.80016 22.0974C7.52924 22.3599 7.18242 22.5211 6.81418 22.5557Z" fill="#83109F"/>
<path d="M13.8424 9.28086L15.4384 9.72708C15.65 9.78626 15.8755 9.75528 16.0652 9.64096C16.255 9.52665 16.3934 9.33836 16.4501 9.11752C16.5069 8.89669 16.4772 8.66139 16.3676 8.46339C16.2581 8.26539 16.0776 8.12092 15.866 8.06174L14.2701 7.61552C14.0584 7.55635 13.8329 7.58732 13.6432 7.70164C13.4534 7.81595 13.315 8.00424 13.2583 8.22508C13.2016 8.44592 13.2312 8.68121 13.3408 8.87921C13.4503 9.07721 13.6308 9.22169 13.8424 9.28086Z" fill="#83109F"/>
</g>
<defs>
<clipPath id="clip0_4665_748">
<rect width="24" height="24" fill="white" transform="translate(0.5)"/>
</clipPath>
</defs>
</svg>
