<svg width="32" height="32" viewBox="0 0 32 32" fill="none" xmlns="http://www.w3.org/2000/svg">
<path fill-rule="evenodd" clip-rule="evenodd" d="M11.9993 9.33266C7.99935 9.33266 6.66602 13.3327 6.66602 16.666C6.66602 20.666 9.33268 26.666 11.9993 26.666C13.45 26.6047 14.238 25.9993 15.9993 25.9993C17.7487 25.9993 17.9993 26.666 19.9993 26.666C21.9993 26.666 25.3327 22.666 25.3327 19.9993C25.2953 19.986 22.0367 19.462 21.9993 15.9993C21.974 13.106 25.2207 12.0607 25.3327 11.9993C23.9687 10.01 21.398 9.38199 20.666 9.33266C18.7553 9.18466 16.8927 10.666 15.9993 10.666C15.0927 10.666 13.466 9.33266 11.9993 9.33266Z" stroke="#2F2B3D" stroke-opacity="0.9" stroke-width="1.5" stroke-linecap="round" stroke-linejoin="round"/>
<path d="M16 5.33268C17.4728 5.33268 18.6667 4.13878 18.6667 2.66602C17.1939 2.66602 16 3.85992 16 5.33268" stroke="#2F2B3D" stroke-opacity="0.9" stroke-width="1.5" stroke-linecap="round" stroke-linejoin="round"/>
</svg>
