<svg width="12" height="12" viewBox="0 0 12 12" fill="none" xmlns="http://www.w3.org/2000/svg">
<path fill-rule="evenodd" clip-rule="evenodd" d="M11.8337 5.99935C11.8337 9.22101 9.22199 11.8327 6.00033 11.8327C2.77866 11.8327 0.166992 9.22101 0.166992 5.99935C0.166992 2.77769 2.77866 0.166016 6.00033 0.166016C9.22199 0.166016 11.8337 2.77769 11.8337 5.99935ZM7.95961 7.95859C7.78875 8.12944 7.51174 8.12944 7.34089 7.95859L6.00033 6.61803L4.65977 7.9586C4.48891 8.12945 4.2119 8.12945 4.04105 7.9586C3.87019 7.78774 3.87019 7.51073 4.04105 7.33988L5.38161 5.99931L4.04106 4.65876C3.8702 4.4879 3.8702 4.21089 4.04106 4.04004C4.21191 3.86919 4.48892 3.86919 4.65978 4.04004L6.00033 5.38059L7.34088 4.04005C7.51173 3.86919 7.78874 3.86919 7.9596 4.04005C8.13045 4.2109 8.13045 4.48791 7.9596 4.65876L6.61905 5.99931L7.95961 7.33987C8.13046 7.51073 8.13046 7.78774 7.95961 7.95859Z" fill="#F83333"/>
</svg>
