<svg width="17" height="16" viewBox="0 0 17 16" fill="none" xmlns="http://www.w3.org/2000/svg">
<path fill-rule="evenodd" clip-rule="evenodd" d="M8.52604 14.6668C12.2079 14.6668 15.1927 11.6821 15.1927 8.00016C15.1927 4.31826 12.2079 1.3335 8.52604 1.3335C4.84414 1.3335 1.85938 4.31826 1.85938 8.00016C1.85938 11.6821 4.84414 14.6668 8.52604 14.6668ZM11.5874 6.30716C11.7569 6.08918 11.7177 5.77504 11.4997 5.60551C11.2817 5.43598 10.9676 5.47524 10.798 5.69322L8.1267 9.12779C8.0673 9.20416 7.95557 9.21407 7.88365 9.14935L6.19386 7.62854C5.98861 7.44381 5.67246 7.46045 5.48773 7.6657C5.303 7.87096 5.31964 8.1871 5.5249 8.37183L7.21468 9.89264C7.7181 10.3457 8.50024 10.2763 8.91605 9.74173L11.5874 6.30716Z" fill="#2DCC70"/>
</svg>
