<svg width="70" height="40" viewBox="0 0 70 40" fill="none" xmlns="http://www.w3.org/2000/svg">
<rect width="70" height="40" rx="6" fill="#F1F2F4"/>
<path fill-rule="evenodd" clip-rule="evenodd" d="M16.4457 13.8396C16.5944 13.8366 16.8264 13.8604 16.993 13.8961C17.1536 13.9259 17.3856 13.9884 17.5075 14.03C17.6295 14.0746 17.8912 14.1877 18.0875 14.2829C18.2839 14.3781 18.6259 14.5774 18.846 14.7232C19.0661 14.8689 19.3606 15.0772 19.5004 15.1873C19.6402 15.2973 19.9049 15.5234 20.0893 15.69C20.2767 15.8566 20.5444 16.1214 20.6872 16.2761C20.827 16.4308 21.0203 16.645 21.1095 16.7521C21.2017 16.8592 21.3772 17.0794 21.4962 17.243C21.6182 17.4066 21.7936 17.6625 21.8829 17.8082C21.9751 17.954 22.1119 18.2009 22.1892 18.3527C22.2636 18.5014 22.3677 18.7275 22.4153 18.8495C22.4629 18.9714 22.5313 19.1767 22.564 19.3046C22.5967 19.4296 22.6384 19.6557 22.6533 19.8015C22.6711 19.974 22.6681 20.1644 22.6473 20.337C22.6324 20.4827 22.5848 20.7178 22.5462 20.8576C22.5045 20.9974 22.4094 21.2562 22.332 21.4377C22.2547 21.6192 22.0881 21.9405 21.9602 22.1517C21.8323 22.3629 21.633 22.6693 21.5141 22.827C21.3951 22.9847 21.172 23.2643 21.0173 23.4458C20.8627 23.6303 20.5682 23.9426 20.363 24.142C20.1577 24.3413 19.8424 24.6239 19.664 24.7697C19.4825 24.9184 19.2238 25.1178 19.084 25.2159C18.9442 25.3141 18.6765 25.4837 18.4891 25.5938C18.3017 25.7068 18.0072 25.8555 17.8347 25.9269C17.6622 26.0013 17.4094 26.0935 17.2696 26.1322C17.1298 26.1739 16.8948 26.2215 16.7491 26.2363C16.5825 26.2572 16.3862 26.2601 16.2285 26.2423C16.0887 26.2304 15.8627 26.1887 15.7229 26.153C15.5831 26.1173 15.3719 26.0489 15.2529 26.0013C15.1369 25.9537 14.9139 25.8526 14.7622 25.7782C14.6134 25.7009 14.3666 25.564 14.2208 25.4718C14.0721 25.3825 13.8193 25.207 13.6557 25.085C13.4921 24.966 13.272 24.7905 13.1649 24.6983C13.0578 24.609 12.8496 24.4246 12.7039 24.2877C12.5552 24.1539 12.2934 23.8861 12.1179 23.6927C11.9424 23.4994 11.7104 23.2286 11.6004 23.0888C11.4903 22.949 11.2821 22.6545 11.1364 22.4343C10.9906 22.2142 10.7913 21.8721 10.6962 21.6757C10.601 21.4794 10.488 21.2176 10.4433 21.0956C10.4017 20.9736 10.3392 20.7416 10.3095 20.5839C10.2768 20.4232 10.25 20.1882 10.25 20.0633C10.25 19.9353 10.2678 19.7182 10.2916 19.5783C10.3154 19.4385 10.3838 19.1856 10.4433 19.0131C10.5058 18.8405 10.6307 18.546 10.7259 18.3586C10.8241 18.1712 10.9639 17.9153 11.0412 17.7934C11.1215 17.6714 11.291 17.4245 11.4249 17.243C11.5587 17.0615 11.7878 16.7759 11.9365 16.6034C12.0852 16.4308 12.3707 16.1303 12.573 15.934C12.7753 15.7376 13.0816 15.461 13.2541 15.3211C13.4267 15.1813 13.6587 14.9998 13.7747 14.9195C13.8877 14.8392 14.081 14.7083 14.206 14.631C14.3279 14.5536 14.5837 14.4108 14.7711 14.3156C14.9585 14.2174 15.2529 14.0895 15.4255 14.03C15.598 13.9705 15.8389 13.9051 15.9608 13.8813C16.0828 13.8604 16.2999 13.8396 16.4427 13.8396H16.4457ZM15.7407 17.7725C15.6247 17.832 15.4195 17.9689 15.2797 18.073C15.1399 18.1771 14.9258 18.3675 14.8038 18.4954C14.6789 18.6263 14.5064 18.8316 14.4201 18.9536C14.3339 19.0756 14.2179 19.263 14.1643 19.3701C14.1108 19.4772 14.0453 19.6378 14.0186 19.7271C13.9918 19.8163 13.971 19.9651 13.971 20.0543C13.971 20.1555 14.0037 20.3102 14.0543 20.456C14.0989 20.5869 14.197 20.7951 14.2744 20.9171C14.3487 21.0391 14.4528 21.1938 14.5064 21.2592C14.5569 21.3247 14.6938 21.4764 14.8127 21.5984C14.9317 21.7203 15.128 21.8988 15.25 21.997C15.3719 22.0922 15.5593 22.2201 15.6664 22.2796C15.7735 22.3391 15.9252 22.4135 16.0084 22.4432C16.0887 22.473 16.2226 22.5117 16.3059 22.5265C16.413 22.5474 16.5111 22.5444 16.6628 22.5146C16.7788 22.4908 16.9632 22.4254 17.0792 22.3718C17.1952 22.3153 17.3618 22.2201 17.451 22.1606C17.5403 22.1011 17.7187 21.9643 17.8436 21.8572C17.9715 21.7501 18.1649 21.5567 18.272 21.4318C18.379 21.3038 18.5159 21.1253 18.5753 21.0361C18.6348 20.9468 18.73 20.7802 18.7865 20.6642C18.8401 20.5512 18.9055 20.3637 18.9293 20.2477C18.959 20.096 18.962 19.9978 18.9412 19.8907C18.9263 19.8104 18.8877 19.6765 18.8579 19.5932C18.8282 19.5129 18.7538 19.3582 18.6943 19.2511C18.6348 19.144 18.5069 18.9566 18.4118 18.8346C18.3136 18.7126 18.1619 18.5401 18.0727 18.4508C17.9834 18.3616 17.8377 18.2277 17.7485 18.1533C17.6592 18.076 17.4778 17.9481 17.3469 17.8677C17.216 17.7874 17.0019 17.6833 16.871 17.6387C16.7104 17.5821 16.5736 17.5554 16.4546 17.5583C16.3564 17.5583 16.2018 17.5821 16.1125 17.6119C16.0233 17.6387 15.8567 17.713 15.7407 17.7725Z" fill="#0E5FFA"/>
<path d="M38.8528 14.0024C38.9479 13.937 39.1145 13.8537 39.2216 13.815C39.3673 13.7644 39.4804 13.7466 39.6826 13.7466C39.8313 13.7466 40.0247 13.7674 40.1139 13.7912C40.2031 13.815 40.3519 13.8715 40.4411 13.9162C40.5303 13.9638 40.6909 14.0857 40.798 14.1928C40.9051 14.2999 41.027 14.4606 41.0746 14.5498C41.1193 14.6391 41.1758 14.7878 41.1996 14.8771C41.2234 14.9663 41.2442 15.1418 41.2442 15.2638C41.2442 15.3858 41.2234 15.5613 41.1996 15.6506C41.1758 15.7398 41.1193 15.8886 41.0746 15.9778C41.027 16.0671 40.9051 16.2277 40.798 16.3348C40.6909 16.4419 40.5303 16.5639 40.4411 16.6115C40.3519 16.6561 40.2031 16.7126 40.1139 16.7364C40.0247 16.7602 39.8432 16.7811 39.7124 16.7811C39.5815 16.7811 39.4 16.7602 39.3108 16.7364C39.2216 16.7126 39.0729 16.6561 38.9836 16.6115C38.8944 16.5639 38.7397 16.4479 38.6416 16.3497C38.5434 16.2515 38.4215 16.0909 38.3679 15.9927C38.3174 15.8945 38.2519 15.7339 38.2281 15.6357C38.2014 15.5375 38.1805 15.3709 38.1805 15.2638C38.1805 15.1567 38.2014 14.9901 38.2281 14.8919C38.2519 14.7938 38.3144 14.6391 38.362 14.5498C38.4096 14.4606 38.4988 14.3267 38.5613 14.2523C38.6237 14.178 38.7546 14.0649 38.8528 14.0024Z" fill="#373737"/>
<path d="M51.3274 26.063V19.9494V13.8358H53.7664V17.3314C53.7664 19.2533 53.7753 20.827 53.7872 20.8241C53.8021 20.8241 54.3434 20.1696 56.1757 17.9116H59.0906L57.5885 19.756C56.2411 21.4131 56.0894 21.6065 56.1281 21.6541C56.1489 21.6809 56.9609 22.6626 57.9335 23.8318C58.9062 25.0039 59.7212 25.9856 59.7449 26.0124C59.7866 26.063 59.7212 26.066 56.8152 26.063L55.3131 24.2631C54.4862 23.2725 53.8021 22.4633 53.7902 22.4633C53.7753 22.4633 53.7664 23.2725 53.7664 26.063H51.3274Z" fill="#373737"/>
<path d="M28.5137 17.8372C28.6535 17.8074 28.8588 17.7747 28.9748 17.7598C29.0908 17.7479 29.3704 17.742 29.5994 17.7479C29.8284 17.7569 30.1437 17.7836 30.2984 17.8104C30.4531 17.8342 30.7356 17.9086 30.923 17.9711C31.1104 18.0306 31.3513 18.1258 31.4584 18.1793C31.5655 18.2329 31.7648 18.3489 31.9046 18.4411C32.0444 18.5303 32.2853 18.7297 32.44 18.8784C32.5946 19.0301 32.8058 19.2741 32.9099 19.4169C33.014 19.5627 33.1687 19.8215 33.2579 19.994C33.3442 20.1666 33.4631 20.4462 33.5197 20.6188C33.5762 20.7913 33.6297 20.9669 33.6595 21.0948H31.1163L31.0122 20.8955C30.9557 20.7854 30.8278 20.6099 30.7267 20.5028C30.6285 20.3957 30.4739 20.2588 30.3846 20.2023C30.2954 20.1458 30.1229 20.0684 30.0009 20.0297C29.8314 19.9762 29.7065 19.9583 29.4804 19.9554C29.3168 19.9554 29.1086 19.9702 29.0194 19.9911C28.9302 20.0119 28.7547 20.0773 28.6327 20.1368C28.4662 20.2142 28.3561 20.2945 28.2014 20.4522C28.0676 20.5861 27.9516 20.7408 27.8832 20.8717C27.8237 20.9877 27.7434 21.193 27.7077 21.3328C27.6512 21.541 27.6393 21.66 27.6422 22.0022C27.6422 22.3294 27.6571 22.4692 27.7077 22.6566C27.7404 22.7875 27.8207 22.9958 27.8802 23.1178C27.9575 23.2754 28.0497 23.4004 28.1985 23.5491C28.3353 23.686 28.478 23.7901 28.603 23.8526C28.7101 23.9061 28.8826 23.9686 28.9896 23.9924C29.0967 24.0192 29.302 24.04 29.4507 24.04C29.5994 24.04 29.8046 24.0192 29.9117 23.9924C30.0188 23.9686 30.1854 23.9032 30.2805 23.8526C30.3787 23.799 30.5244 23.6979 30.6047 23.6235C30.688 23.5491 30.81 23.4093 30.8784 23.3111C30.9498 23.213 31.0301 23.0821 31.1163 22.9095H33.6595L33.6416 22.9779C33.6327 23.0136 33.5851 23.1713 33.5345 23.326C33.4869 23.4807 33.3858 23.7366 33.3144 23.8913C33.2401 24.046 33.0913 24.3078 32.9843 24.4714C32.8623 24.6558 32.672 24.8819 32.4875 25.0664C32.321 25.23 32.08 25.4383 31.9492 25.5275C31.8183 25.6168 31.5982 25.7447 31.4584 25.8131C31.3186 25.8815 31.0985 25.9737 30.9676 26.0184C30.8367 26.063 30.6018 26.1255 30.4471 26.1582C30.2924 26.1909 30.0039 26.2266 29.8076 26.2385C29.6113 26.2504 29.296 26.2504 29.1086 26.2385C28.9212 26.2266 28.6327 26.1879 28.4691 26.1522C28.3055 26.1165 28.0438 26.0392 27.8891 25.9827C27.7344 25.9232 27.5322 25.8399 27.443 25.7952C27.3537 25.7506 27.1515 25.6287 26.9968 25.5245C26.8421 25.4204 26.5953 25.2211 26.4495 25.0813C26.3038 24.9414 26.1104 24.7272 26.0182 24.6053C25.926 24.4833 25.7951 24.2899 25.7327 24.1739C25.6672 24.0579 25.5631 23.8437 25.5007 23.6979C25.4382 23.5521 25.346 23.2844 25.3014 23.1029C25.2538 22.9214 25.2003 22.609 25.1824 22.4038C25.1616 22.1866 25.1527 21.9159 25.1675 21.7493C25.1765 21.5946 25.2062 21.3596 25.227 21.2287C25.2508 21.0978 25.3044 20.8687 25.346 20.7229C25.3876 20.5771 25.4947 20.3094 25.581 20.1279C25.6672 19.9464 25.8041 19.6995 25.8873 19.5775C25.9706 19.4556 26.1134 19.2681 26.2056 19.161C26.3008 19.0539 26.4644 18.8903 26.5744 18.7951C26.6845 18.6999 26.8808 18.5482 27.0117 18.4619C27.1425 18.3757 27.3567 18.2507 27.4876 18.1853C27.6184 18.1198 27.8445 18.0276 27.9932 17.977C28.1419 17.9264 28.3739 17.864 28.5137 17.8372Z" fill="#373737"/>
<path d="M45.3042 17.8312C45.4351 17.8074 45.6374 17.7747 45.7504 17.7628C45.8634 17.7509 46.0657 17.739 46.1966 17.739C46.3274 17.736 46.5624 17.7479 46.7171 17.7628C46.8717 17.7807 47.1067 17.8134 47.2376 17.8402C47.3685 17.8669 47.5767 17.9205 47.6986 17.9621C47.8206 18.0008 48.0407 18.0901 48.1894 18.1615C48.3381 18.2299 48.5582 18.3548 48.6802 18.4381C48.8021 18.5184 48.9895 18.6612 49.0966 18.7564C49.2037 18.8487 49.3613 19.0063 49.4505 19.1105C49.5368 19.2116 49.6885 19.4169 49.7867 19.5627C49.8848 19.7084 50.0157 19.9375 50.0781 20.0684C50.1406 20.1993 50.2388 20.4462 50.2953 20.6188C50.3518 20.7913 50.4083 20.9669 50.4351 21.0948L47.9217 21.0978L47.77 20.8508C47.6838 20.711 47.5291 20.5206 47.4131 20.4105C47.2852 20.2886 47.1335 20.1785 47.0145 20.122C46.9074 20.0714 46.7468 20.0149 46.6576 19.9911C46.5684 19.9702 46.375 19.9554 46.2263 19.9554C46.0776 19.9554 45.8842 19.9732 45.795 19.994C45.7058 20.0149 45.5303 20.0773 45.4083 20.1339C45.2418 20.2142 45.1317 20.2945 44.977 20.4522C44.864 20.5682 44.7272 20.7437 44.6737 20.8419C44.6231 20.9401 44.5517 21.1126 44.519 21.2287C44.4833 21.3447 44.4417 21.5589 44.4238 21.7047C44.403 21.8951 44.403 22.0646 44.4268 22.2848C44.4446 22.4573 44.4952 22.7042 44.5398 22.8351C44.5815 22.966 44.6796 23.1654 44.7569 23.2814C44.8313 23.3974 44.9592 23.5462 45.0395 23.6146C45.1198 23.686 45.2715 23.7871 45.3786 23.8437C45.4857 23.9002 45.6582 23.9686 45.7653 23.9924C45.8723 24.0192 46.0776 24.04 46.2263 24.04C46.375 24.04 46.5773 24.0192 46.6814 23.9954C46.7825 23.9716 46.9491 23.9091 47.0502 23.8585C47.1751 23.7961 47.3149 23.686 47.4607 23.5372C47.6034 23.3944 47.7224 23.2368 47.892 22.9095H50.4351L50.4172 22.9928C50.4083 23.0374 50.3518 23.213 50.2953 23.3855C50.2388 23.5581 50.1138 23.8526 50.0157 24.04C49.9205 24.2274 49.7539 24.4952 49.6498 24.635C49.5457 24.7748 49.3435 25.0009 49.1977 25.1408C49.052 25.2806 48.8259 25.465 48.695 25.5513C48.5642 25.6376 48.3441 25.7655 48.2043 25.8309C48.0645 25.8964 47.8325 25.9916 47.6838 26.0392C47.535 26.0868 47.2614 26.1522 47.074 26.185C46.842 26.2236 46.5892 26.2445 46.2858 26.2445C46.0419 26.2474 45.7266 26.2326 45.5868 26.2117C45.447 26.1939 45.2061 26.1433 45.0514 26.1017C44.8967 26.063 44.6499 25.9797 44.5011 25.9172C44.3524 25.8547 44.1383 25.7506 44.0252 25.6852C43.9122 25.6197 43.71 25.4829 43.5791 25.3847C43.4482 25.2895 43.2281 25.0902 43.0913 24.9444C42.9545 24.7986 42.7581 24.5517 42.654 24.397C42.5529 24.2423 42.4161 24.0013 42.3507 23.8615C42.2882 23.7217 42.199 23.5015 42.1573 23.3706C42.1127 23.2397 42.0592 23.0345 42.0324 22.9184C42.0086 22.7994 41.9729 22.5436 41.9551 22.3532C41.9342 22.1033 41.9342 21.901 41.9551 21.6541C41.9729 21.4607 42.0145 21.187 42.0443 21.0442C42.074 20.8984 42.1305 20.6961 42.1633 20.589C42.199 20.4819 42.306 20.235 42.4042 20.0387C42.5023 19.8423 42.6659 19.5686 42.77 19.4288C42.8771 19.289 43.0883 19.0539 43.24 18.9082C43.3947 18.7624 43.6326 18.5631 43.7724 18.4708C43.9122 18.3786 44.1531 18.2418 44.3078 18.1674C44.4625 18.096 44.6975 18.0008 44.8283 17.9562C44.9592 17.9145 45.1734 17.858 45.3042 17.8312Z" fill="#373737"/>
<path d="M34.5518 26.063V19.9494V13.8358H36.9908V26.063H34.5518Z" fill="#373737"/>
<path d="M38.478 26.063V21.9873V17.9116H40.9467V26.063H38.478Z" fill="#373737"/>
</svg>
