<svg width="55" height="55" viewBox="0 0 55 55" fill="none" xmlns="http://www.w3.org/2000/svg">
<path d="M22.0362 0.482562C22.7366 0.349857 23.6905 0.180961 24.1493 0.12064C24.6081 0.0603202 26.0571 0.012064 27.3491 0C28.7739 0 30.2108 0.0603202 30.9715 0.156833C31.6718 0.253345 32.7827 0.44637 33.4468 0.591138C34.1109 0.735907 35.3908 1.09783 36.2843 1.39943C37.1778 1.68897 38.6751 2.30423 39.6048 2.76267C40.5346 3.20904 41.9232 4.00526 42.6839 4.51195C43.4446 5.01864 44.5313 5.82694 45.0988 6.29743C45.6663 6.78 46.4995 7.55209 46.9704 8.01053C47.4292 8.48103 48.202 9.31345 48.685 9.88046C49.1559 10.4475 49.9649 11.5332 50.472 12.2933C50.9791 13.0533 51.764 14.4407 52.2228 15.3696C52.6817 16.2985 53.2975 17.7945 53.5873 18.6872C53.8891 19.58 54.2514 20.8587 54.3963 21.5223C54.5412 22.1858 54.7344 23.356 54.831 24.116C54.9276 24.8761 55 26.3961 55 27.494C55 28.5918 54.9396 29.9792 54.8672 30.5703C54.8068 31.1614 54.6378 32.2231 54.4929 32.9228C54.36 33.6225 54.0703 34.7807 53.8529 35.5166C53.6235 36.2525 53.2009 37.4347 52.8869 38.1707C52.5851 38.9066 52.0779 39.9561 51.7761 40.5231C51.4742 41.0902 50.8705 42.0915 50.4237 42.755C49.989 43.4185 49.2283 44.456 48.7212 45.0472C48.2261 45.6383 47.3568 46.5914 46.7892 47.1463C46.2217 47.7012 45.3282 48.5095 44.7969 48.9318C44.2656 49.3661 43.2634 50.0899 42.5631 50.5484C41.8628 51.0189 40.5346 51.7668 39.6048 52.2253C38.6751 52.6837 37.1778 53.299 36.2843 53.5885C35.3908 53.8901 34.1109 54.252 33.4468 54.3968C32.7827 54.5416 31.6114 54.7346 30.8507 54.8311C30.09 54.9276 28.5686 55 27.4698 55C26.371 55 24.9824 54.9397 24.3908 54.8673C23.7991 54.807 22.7366 54.6381 22.0362 54.4933C21.3359 54.3606 20.1767 54.0711 19.4402 53.8539C18.7036 53.6247 17.5203 53.2025 16.7838 52.8888C16.0472 52.5872 14.9967 52.0805 14.4292 51.7789C13.8617 51.4773 12.8595 50.8741 12.1954 50.4277C11.5313 49.9934 10.5049 49.2334 9.90121 48.7267C9.29748 48.2321 8.35565 47.3635 7.80022 46.7964C7.24479 46.2294 6.43578 45.3367 6.01317 44.8059C5.57849 44.2751 4.85401 43.2737 4.39517 42.574C3.92426 41.8743 3.19978 40.5955 2.77717 39.739C2.35456 38.8824 1.8112 37.6278 1.5697 36.9642C1.32821 36.3007 0.965971 35.1667 0.784852 34.4308C0.603732 33.6949 0.350165 32.5609 0.229418 31.8973C0.0482986 30.9322 0.0120746 30.0515 0 27.494C0 24.9002 0.0482986 24.0678 0.229418 23.0906C0.350165 22.4271 0.603732 21.293 0.784852 20.5571C0.965971 19.8212 1.32821 18.6872 1.5697 18.0237C1.8112 17.3602 2.35456 16.1176 2.77717 15.249C3.19978 14.3803 3.96048 13.0533 4.46762 12.2933C4.97475 11.5332 5.78375 10.4475 6.25467 9.88046C6.73765 9.31345 7.51043 8.48103 7.96926 8.01053C8.4281 7.55209 9.29748 6.75587 9.90121 6.26124C10.5049 5.75455 11.5313 4.99452 12.1954 4.56021C12.8595 4.11384 13.8617 3.51064 14.4292 3.20904C14.9967 2.90744 16.0472 2.40075 16.7838 2.09914C17.5203 1.78548 18.7036 1.36324 19.4402 1.13402C20.1767 0.916868 21.3359 0.627331 22.0362 0.482562Z" fill="#FEDA2C"/>
<path d="M23.3568 6.68445C23.9243 6.57587 24.842 6.44317 25.4095 6.38285C25.977 6.32253 26.786 6.27427 27.2207 6.26221C27.6554 6.26221 28.5972 6.31046 29.3338 6.37078C30.0703 6.44317 31.1812 6.61206 31.8091 6.73271C32.437 6.86541 33.4754 7.14288 34.1033 7.34797C34.7312 7.55306 35.9024 8.03562 36.6993 8.42167C37.4962 8.80772 38.6071 9.43505 39.1746 9.80904C39.7421 10.1951 40.6115 10.8465 41.1066 11.2567C41.6016 11.6669 42.4106 12.439 42.9057 12.9578C43.3887 13.4765 44.0769 14.2969 44.415 14.7553C44.7652 15.2137 45.2965 16.01 45.6104 16.5046C45.9123 16.9992 46.3832 17.8678 46.6488 18.4348C46.9024 19.0018 47.3129 20.0032 47.5424 20.6667C47.7718 21.3302 48.0736 22.4401 48.2185 23.1398C48.3634 23.8395 48.5445 25.0821 48.617 25.9145C48.7257 27.0486 48.7136 27.8207 48.617 29.0512C48.5325 29.9439 48.3634 31.1986 48.2306 31.8259C48.0857 32.4533 47.7838 33.539 47.5544 34.2387C47.325 34.9385 46.9145 35.9639 46.6488 36.5309C46.3832 37.0979 45.9123 37.9665 45.6104 38.4612C45.2965 38.9558 44.7652 39.74 44.415 40.2104C44.0769 40.6809 43.3887 41.4892 42.9057 42.008C42.4106 42.5267 41.6016 43.2988 41.1066 43.709C40.6115 44.1192 39.7421 44.7707 39.1746 45.1567C38.6071 45.5307 37.4962 46.158 36.6993 46.5441C35.9024 46.9301 34.7312 47.4127 34.1033 47.6178C33.4754 47.8229 32.437 48.1003 31.8091 48.233C31.1812 48.3657 29.9496 48.5346 29.0923 48.6191C27.8848 48.7277 27.1483 48.7277 25.8925 48.6191C24.999 48.5346 23.7432 48.3657 23.1153 48.221C22.4875 48.0883 21.3766 47.7867 20.64 47.5333C19.9035 47.292 18.7202 46.7974 17.9836 46.4234C17.2471 46.0494 16.1966 45.4463 15.6291 45.0723C15.0616 44.6983 14.0835 43.9262 13.4556 43.3833C12.8278 42.8284 11.9101 41.9115 11.4271 41.3565C10.9441 40.7895 10.2196 39.8365 9.82117 39.2453C9.41063 38.6542 8.77067 37.5081 8.38428 36.7119C7.9979 35.9156 7.50284 34.7213 7.29757 34.0578C7.0923 33.3943 6.81458 32.3568 6.69383 31.7656C6.56101 31.1745 6.40404 30.0284 6.31952 29.2322C6.24707 28.3997 6.22292 27.2175 6.27122 26.4574C6.31952 25.7215 6.45234 24.5392 6.57309 23.8033C6.69383 23.0674 7.01985 21.8007 7.29757 20.9683C7.56321 20.1359 8.08242 18.8691 8.43258 18.1332C8.79482 17.3973 9.39855 16.3478 9.77287 15.7807C10.1593 15.2137 10.8113 14.3451 11.2218 13.8505C11.6324 13.3559 12.4051 12.5476 12.9243 12.053C13.4436 11.5704 14.2646 10.8827 14.7235 10.5449C15.1823 10.1951 15.9792 9.66427 16.4743 9.3506C16.9694 9.049 17.875 8.56644 18.4666 8.28897C19.0583 8.01149 20.1812 7.57719 20.9419 7.33591C21.7026 7.08256 22.7893 6.79303 23.3568 6.68445Z" fill="#FCAA17"/>
<path d="M22.578 20.917C22.6384 20.8928 23.7251 18.7213 25.0171 16.0913C26.297 13.4614 27.3837 11.314 27.432 11.314C27.4682 11.314 28.567 13.4614 29.859 16.0913C31.151 18.7213 32.2377 20.8928 32.2739 20.9049C32.3102 20.929 34.5923 21.2789 37.3453 21.677C40.0983 22.0751 42.5011 22.4491 42.6823 22.4973C42.9962 22.5939 42.8634 22.7386 39.1565 26.3337C37.0313 28.3967 35.2926 30.158 35.2926 30.2545C35.2926 30.351 35.7031 32.7759 36.1982 35.623C36.6932 38.4701 37.0796 40.8226 37.0676 40.8226C37.0555 40.8347 34.882 39.7127 27.4441 35.804L22.6384 38.3254C20.0061 39.7127 17.8327 40.8468 17.8206 40.8347C17.8085 40.8226 18.207 38.446 18.702 35.5627C19.1971 32.6794 19.5956 30.2666 19.5956 30.1942C19.5956 30.1218 17.8568 28.3967 15.7437 26.3337C12.0731 22.7748 11.904 22.5939 12.2059 22.4973C12.387 22.4491 14.7778 22.0872 17.5066 21.6891C20.2476 21.2909 22.5297 20.9411 22.578 20.917Z" fill="#FEDA2C"/>
</svg>
