<svg width="24" height="24" viewBox="0 0 24 24" fill="none" xmlns="http://www.w3.org/2000/svg">
<path d="M3 15.5H20" stroke="#83109F" stroke-width="1.5" stroke-linecap="round" stroke-linejoin="round"/>
<path d="M3 19.5H17" stroke="#83109F" stroke-width="1.5" stroke-linecap="round" stroke-linejoin="round"/>
<path fill-rule="evenodd" clip-rule="evenodd" d="M17.0004 9.01213L15.449 9.82497C15.3551 9.87384 15.2417 9.86558 15.1559 9.80363C15.07 9.74168 15.0265 9.63662 15.0433 9.53212L15.3397 7.81L14.0847 6.59073C14.0083 6.51685 13.9807 6.40583 14.0137 6.30477C14.0467 6.20371 14.1344 6.13032 14.2397 6.11574L15.974 5.86431L16.7497 4.29791C16.797 4.20275 16.8941 4.14258 17.0004 4.14258C17.1067 4.14258 17.2038 4.20275 17.2511 4.29791L18.0268 5.86431L19.7611 6.11574C19.8661 6.13084 19.9534 6.20423 19.9862 6.30505C20.0191 6.40587 19.9919 6.51662 19.9161 6.59073L18.6611 7.81L18.9568 9.5314C18.9749 9.63613 18.9319 9.74203 18.8458 9.80441C18.7598 9.86678 18.6457 9.87476 18.5518 9.82497L17.0004 9.01213Z" stroke="#83109F" stroke-width="1.5" stroke-linecap="round" stroke-linejoin="round"/>
<path fill-rule="evenodd" clip-rule="evenodd" d="M7.00041 9.01213L5.44901 9.82497C5.35511 9.87384 5.24169 9.86558 5.15586 9.80363C5.07004 9.74168 5.02648 9.63662 5.0433 9.53212L5.33972 7.81L4.08474 6.59073C4.00831 6.51685 3.98074 6.40583 4.01372 6.30477C4.04669 6.20371 4.13444 6.13032 4.23974 6.11574L5.974 5.86431L6.7497 4.29791C6.79702 4.20275 6.89414 4.14258 7.00041 4.14258C7.10669 4.14258 7.20381 4.20275 7.25113 4.29791L8.02683 5.86431L9.76109 6.11574C9.86606 6.13084 9.95335 6.20423 9.98625 6.30505C10.0191 6.40587 9.99195 6.51662 9.91609 6.59073L8.66111 7.81L8.95682 9.5314C8.97492 9.63613 8.93186 9.74203 8.84581 9.80441C8.75976 9.86678 8.64572 9.87476 8.55182 9.82497L7.00041 9.01213Z" fill="#83109F" stroke="#83109F" stroke-width="1.5" stroke-linecap="round" stroke-linejoin="round"/>
</svg>
