<svg width="225" height="219" viewBox="0 0 225 219" fill="none" xmlns="http://www.w3.org/2000/svg">
<g clip-path="url(#clip0_2789_25581)">
<path d="M34.8463 100.631L37.2517 102.914C38.037 103.658 39.0842 104.093 40.1795 104.131C41.2747 104.169 42.3353 103.806 43.1448 103.117C66.7238 83.0533 101.806 82.6542 123.069 102.809C143.658 122.328 144.157 154.359 125.25 176.946C124.046 178.375 123.448 180.189 123.571 182.039C123.694 183.89 124.529 185.645 125.916 186.966L125.999 187.041C126.416 187.437 126.912 187.75 127.456 187.96C128.001 188.17 128.582 188.273 129.164 188.263C129.747 188.252 130.319 188.128 130.845 187.899C131.371 187.67 131.841 187.339 132.225 186.928C157.75 159.432 158.035 118.602 132.155 94.068C106.275 69.5337 63.5253 70.1037 34.9184 94.6784C34.4897 95.0486 34.1463 95.4998 33.9092 96.0047C33.6722 96.5095 33.5464 97.0572 33.5396 97.6144C33.5329 98.1716 33.6453 98.7266 33.8699 99.2453C34.0946 99.7641 34.4268 100.236 34.8463 100.631Z" fill="#08BDC9"/>
<path d="M30.3329 89.595L33.1828 92.2944C33.9324 93.0079 34.9314 93.4281 35.9725 93.4678C37.0136 93.5075 38.017 93.1636 38.7747 92.5075C67.4702 67.4603 111.002 67.0234 137.478 92.1101C163.955 117.197 163.816 158.742 137.782 186.309C137.1 187.036 136.747 187.996 136.795 188.99C136.844 189.983 137.29 190.934 138.043 191.645L140.893 194.344C141.285 194.716 141.749 195.012 142.258 195.212C142.767 195.413 143.309 195.515 143.853 195.511C144.396 195.508 144.93 195.4 145.421 195.194C145.913 194.987 146.352 194.687 146.712 194.31C161.227 179.065 169.432 159.772 169.908 139.566C170.419 118.072 162.129 98.1149 146.567 83.3722C131.005 68.6296 110.043 60.8705 87.5194 61.5072C66.3446 62.114 46.1908 70.0821 30.3266 84.0407C29.9343 84.3873 29.6222 84.8086 29.4093 85.279C29.1963 85.7495 29.0869 86.2595 29.0875 86.7784C29.0881 87.2973 29.1987 87.8143 29.4127 88.2983C29.6268 88.7824 29.9398 89.2234 30.3329 89.595Z" fill="#FFD02C"/>
<path d="M27.0846 79.5474L28.7917 81.1668C29.6559 81.9881 30.8071 82.4708 32.0064 82.5147C33.2057 82.5586 34.3606 82.1603 35.2315 81.4026C51.118 67.4919 71.263 59.5527 92.427 58.9544C115.01 58.3136 136.033 66.0962 151.639 80.8806C167.244 95.6649 175.553 115.674 175.041 137.227C174.562 157.423 166.39 176.705 151.93 191.967C151.144 192.803 150.735 193.906 150.788 195.049C150.842 196.191 151.354 197.286 152.219 198.104L153.927 199.723C154.383 200.154 154.922 200.496 155.513 200.728C156.103 200.959 156.733 201.076 157.363 201.071C157.994 201.066 158.612 200.939 159.182 200.697C159.751 200.456 160.259 200.106 160.676 199.667C177.308 182.176 186.712 160.049 187.26 136.872C187.845 112.206 178.331 89.2986 160.471 72.3757C142.612 55.4527 118.542 46.5407 92.6968 47.2796C68.4164 47.9725 45.2993 57.1069 27.0944 73.1072C26.6378 73.5077 26.2741 73.9951 26.0253 74.5401C25.7765 75.0851 25.6478 75.6762 25.6469 76.278C25.6459 76.8798 25.7728 77.4798 26.0199 78.0417C26.267 78.6036 26.6292 79.1158 27.0846 79.5474Z" fill="#08BDC9"/>
</g>
<defs>
<clipPath id="clip0_2789_25581">
<rect width="198.179" height="124.215" fill="white" transform="matrix(-0.751669 -0.65954 -0.717175 0.696894 238.26 131.647)"/>
</clipPath>
</defs>
</svg>
