<svg width="24" height="24" viewBox="0 0 24 24" fill="none" xmlns="http://www.w3.org/2000/svg">
<path fill-rule="evenodd" clip-rule="evenodd" d="M7.26967 4.79349V5.77966L4.44263 6.30909C2.51906 6.66933 1.25173 8.52073 1.61197 10.4443L3.37499 19.8583C3.73523 21.7819 5.58663 23.0492 7.5102 22.689L15.3552 21.2198C16.9991 20.9119 18.1637 19.515 18.2428 17.9146H18.7945C20.7516 17.9146 22.338 16.3282 22.338 14.3711V10.042C22.338 9.7518 22.3045 9.44818 22.2151 9.14372C21.8129 7.77492 20.9824 5.86881 19.9526 4.29156C19.4377 3.50287 18.8531 2.76563 18.2225 2.21729C17.6025 1.67823 16.8547 1.25 16.0272 1.25H10.8132C8.85614 1.25 7.26967 2.83647 7.26967 4.79349ZM15.3845 2.75H10.8132C9.68457 2.75 8.76967 3.6649 8.76967 4.79349V5.49874L8.91354 5.4718C8.93337 5.46713 8.95355 5.46323 8.97405 5.46014C8.97687 5.45971 8.97972 5.45929 8.9826 5.45886L9.56757 5.34931C10.3809 5.19699 11.1948 5.48024 11.9034 5.89597C12.6242 6.31886 13.3345 6.9359 13.9858 7.61632C15.2883 8.97706 16.4555 10.6977 17.1028 11.9691C17.2467 12.2519 17.3355 12.5442 17.389 12.8294L18.0604 16.4146L18.7945 16.4146C19.9231 16.4146 20.838 15.4997 20.838 14.3711V10.2985L16.8436 7.51667L16.8378 7.51247C16.5752 7.32205 16.3758 7.1289 16.1775 6.8684C15.6808 6.21595 15.6642 5.57875 15.7692 5.01949C15.8065 4.82069 15.8633 4.6126 15.9119 4.43418C15.9239 4.39045 15.9353 4.3485 15.9459 4.30891C16.0042 4.09002 16.0501 3.89394 16.0719 3.69283C16.1498 2.97392 15.7654 2.77662 15.5965 2.76558C15.5387 2.7618 15.5056 2.75883 15.4788 2.75641C15.4484 2.75368 15.426 2.75166 15.3845 2.75ZM9.22794 6.93899L4.71874 7.78346C3.60944 7.99121 2.87859 9.05889 3.08634 10.1682L4.84936 19.5822C5.05711 20.6915 6.12478 21.4223 7.23408 21.2146L15.0791 19.7454C16.1884 19.5377 16.9192 18.47 16.7115 17.3607L15.9619 13.3579L11.5219 11.3581L11.5155 11.3551C11.2223 11.2162 10.9907 11.0631 10.7478 10.8435C10.1396 10.2937 10.0059 9.67043 10.0062 9.1014C10.0063 8.89912 10.0238 8.68415 10.0387 8.49981C10.0424 8.45483 10.046 8.41113 10.049 8.37044C10.0661 8.14454 10.0751 7.94336 10.0595 7.74168C10.0038 7.0207 9.58956 6.89756 9.42159 6.91778C9.36403 6.92471 9.331 6.92787 9.30419 6.93044C9.27845 6.9329 9.25842 6.93482 9.22794 6.93899ZM14.9487 11.2564L12.1514 9.9965C11.991 9.92006 11.8837 9.84831 11.7537 9.73083C11.5539 9.55014 11.506 9.39198 11.5062 9.10212C11.5062 8.9661 11.5172 8.83026 11.5312 8.65551C11.5355 8.60211 11.5401 8.54507 11.5448 8.48329C11.5633 8.23766 11.5797 7.94462 11.5551 7.62602C11.5503 7.56448 11.5437 7.50371 11.5354 7.44378C11.9784 7.75807 12.4413 8.17208 12.9022 8.65356C13.6635 9.44891 14.3788 10.3853 14.9487 11.2564ZM17.5774 3.67249C17.5745 3.73267 17.5698 3.79335 17.5632 3.85445C17.5288 4.17213 17.4587 4.45715 17.3953 4.69517C17.3793 4.75504 17.3643 4.81026 17.3503 4.86196C17.3043 5.03112 17.2685 5.16263 17.2434 5.29632C17.1899 5.5812 17.2078 5.74546 17.371 5.95986C17.4771 6.09925 17.5694 6.18953 17.713 6.29418L20.2288 8.0463C19.829 7.08527 19.2984 6.03339 18.6966 5.11161C18.3327 4.55428 17.9545 4.06271 17.5774 3.67249Z" fill="#33383E"/>
</svg>
