<svg width="24" height="24" viewBox="0 0 24 24" fill="none" xmlns="http://www.w3.org/2000/svg">
<path d="M18.2504 5.00037C18.2504 4.58615 18.5862 4.25037 19.0004 4.25037H19.0124C19.4266 4.25037 19.7624 4.58615 19.7624 5.00037C19.7624 5.41458 19.4266 5.75037 19.0124 5.75037H19.0004C18.5862 5.75037 18.2504 5.41458 18.2504 5.00037Z" fill="#212121"/>
<path fill-rule="evenodd" clip-rule="evenodd" d="M15.25 5C15.25 2.96578 16.7784 1.25 19 1.25C21.2216 1.25 22.75 2.96578 22.75 5C22.75 6.41967 22.3356 7.82106 21.7039 8.88406C21.103 9.8952 20.1575 10.8269 19 10.8269C17.8425 10.8269 16.897 9.8952 16.2961 8.88406C15.6644 7.82106 15.25 6.41967 15.25 5ZM19 2.75C17.653 2.75 16.75 3.74735 16.75 5C16.75 6.14685 17.0901 7.28392 17.5856 8.11775C18.112 9.00344 18.6666 9.32692 19 9.32692C19.3335 9.32692 19.888 9.00344 20.4144 8.11775C20.9099 7.28392 21.25 6.14685 21.25 5C21.25 3.74735 20.347 2.75 19 2.75Z" fill="#212121"/>
<path d="M19.0303 13.7803C19.3232 13.4874 19.3232 13.0126 19.0303 12.7197C18.7374 12.4268 18.2626 12.4268 17.9697 12.7197L10.2197 20.4697C9.92678 20.7626 9.92678 21.2374 10.2197 21.5303C10.5126 21.8232 10.9874 21.8232 11.2803 21.5303L19.0303 13.7803Z" fill="#212121"/>
<path fill-rule="evenodd" clip-rule="evenodd" d="M5.75 12.25C4.64543 12.25 3.75 13.1454 3.75 14.25C3.75 15.3546 4.64543 16.25 5.75 16.25C6.85457 16.25 7.75 15.3546 7.75 14.25C7.75 13.1454 6.85457 12.25 5.75 12.25ZM5.25 14.25C5.25 13.9739 5.47386 13.75 5.75 13.75C6.02614 13.75 6.25 13.9739 6.25 14.25C6.25 14.5261 6.02614 14.75 5.75 14.75C5.47386 14.75 5.25 14.5261 5.25 14.25Z" fill="#212121"/>
<path fill-rule="evenodd" clip-rule="evenodd" d="M1.25 14.2143C1.25 11.782 3.08886 9.75 5.74971 9.75C8.41057 9.75 10.2494 11.782 10.2494 14.2143C10.2494 15.9409 9.73996 17.6455 8.96655 18.9346C8.22319 20.1736 7.09003 21.25 5.74971 21.25C4.4094 21.25 3.27624 20.1736 2.53288 18.9346C1.75947 17.6455 1.25 15.9409 1.25 14.2143ZM5.74971 11.25C3.95015 11.25 2.75 12.5771 2.75 14.2143C2.75 15.6652 3.1836 17.1036 3.81915 18.1629C4.48475 19.2723 5.22645 19.75 5.74971 19.75C6.27298 19.75 7.01468 19.2723 7.68028 18.1629C8.31583 17.1036 8.74943 15.6652 8.74943 14.2143C8.74943 12.5771 7.54928 11.25 5.74971 11.25Z" fill="#212121"/>
</svg>
