<svg width="24" height="24" viewBox="0 0 24 24" fill="none" xmlns="http://www.w3.org/2000/svg">
<path d="M13.815 11.8789H4" stroke="#212121" stroke-width="1.5" stroke-linecap="round" stroke-linejoin="round"/>
<path d="M20.0017 11.8789H17.457" stroke="#212121" stroke-width="1.5" stroke-linecap="round" stroke-linejoin="round"/>
<path d="M15.634 13.6938C16.6378 13.6938 17.4516 12.88 17.4516 11.8762C17.4516 10.8724 16.6378 10.0586 15.634 10.0586C14.6302 10.0586 13.8164 10.8724 13.8164 11.8762C13.8164 12.88 14.6302 13.6938 15.634 13.6938Z" stroke="#212121" stroke-width="1.5" stroke-linecap="round" stroke-linejoin="round"/>
<path d="M7.9987 5.82031H4" stroke="#212121" stroke-width="1.5" stroke-linecap="round" stroke-linejoin="round"/>
<path d="M7.9987 18.418H4" stroke="#212121" stroke-width="1.5" stroke-linecap="round" stroke-linejoin="round"/>
<path d="M20.0015 5.82031H11.6406" stroke="#212121" stroke-width="1.5" stroke-linecap="round" stroke-linejoin="round"/>
<path d="M20.0015 18.418H11.6406" stroke="#212121" stroke-width="1.5" stroke-linecap="round" stroke-linejoin="round"/>
<path d="M9.81759 7.63518C10.8214 7.63518 11.6352 6.82142 11.6352 5.81759C11.6352 4.81376 10.8214 4 9.81759 4C8.81376 4 8 4.81376 8 5.81759C8 6.82142 8.81376 7.63518 9.81759 7.63518Z" stroke="#212121" stroke-width="1.5" stroke-linecap="round" stroke-linejoin="round"/>
<path d="M9.81759 20.2348C10.8214 20.2348 11.6352 19.421 11.6352 18.4172C11.6352 17.4134 10.8214 16.5996 9.81759 16.5996C8.81376 16.5996 8 17.4134 8 18.4172C8 19.421 8.81376 20.2348 9.81759 20.2348Z" stroke="#212121" stroke-width="1.5" stroke-linecap="round" stroke-linejoin="round"/>
</svg>
