<svg width="18" height="18" viewBox="0 0 18 18" fill="none" xmlns="http://www.w3.org/2000/svg">
<path d="M17.9008 8.61003C17.9001 4.0293 14.3389 0.250883 9.79711 0.011911C5.25529 -0.227061 1.32265 3.15707 0.848055 7.71278C0.373458 12.2685 3.52304 16.4011 8.01519 17.1168V11.0992H5.84463V8.61003H8.01519V6.71287C8.01519 4.55469 9.29177 3.36258 11.2443 3.36258C11.8855 3.37154 12.5253 3.42766 13.1584 3.5305V5.64993H12.08C11.7078 5.60014 11.3333 5.72355 11.0623 5.98531C10.7913 6.24707 10.6532 6.61877 10.687 6.99543V8.61003H13.0584L12.6791 11.0992H10.687V17.1168C14.842 16.4548 17.9014 12.8469 17.9008 8.61003Z" fill="#CACCD1"/>
</svg>
