<svg width="35" height="35" viewBox="0 0 35 35" fill="none" xmlns="http://www.w3.org/2000/svg">
<path d="M29.0851 15.6147C30.2306 16.468 30.2306 18.3898 29.1568 19.2432L26.1348 20.9544L21.6562 17.4289L26.1458 13.9707L29.0851 15.6147Z" fill="#FFC801"/>
<path d="M26.1585 20.9374L26.1578 20.9367H26.1571L21.6525 17.4304L21.6511 17.4291L21.6504 17.4297L21.6484 17.4277L21.6325 17.4398L5.04492 30.0735V30.6015C5.04486 31.2989 5.20808 32.0428 5.7651 32.3011C6.49902 32.6415 7.56982 31.9763 7.56982 31.9763L26.1585 20.9374Z" fill="#F93647"/>
<path d="M21.6325 17.4402L5.04492 30.074V4.52344L21.6286 17.4349L21.6325 17.4402Z" fill="#00D3FF"/>
<path d="M5.04492 4.2678V4.52346L21.6285 17.4349L21.6325 17.4402L21.6484 17.4282L21.6498 17.4275L21.6564 17.4222L26.146 13.99C26.146 13.99 11.7071 5.35772 7.52134 2.86815C7.33926 2.75984 6.9029 2.48512 6.37969 2.65645C5.75288 2.86178 5.04492 3.60739 5.04492 4.2678Z" fill="#00EF77"/>
</svg>
