<svg width="24" height="24" viewBox="0 0 24 24" fill="none" xmlns="http://www.w3.org/2000/svg">
<path d="M20.0278 14.1051C20.3221 13.8137 20.3244 13.3388 20.0329 13.0445C19.7414 12.7502 19.2665 12.7479 18.9722 13.0394L20.0278 14.1051ZM12 21.0003L11.4722 21.5331C11.7645 21.8226 12.2355 21.8226 12.5278 21.5331L12 21.0003ZM5.02777 13.0394C4.73346 12.7479 4.2586 12.7502 3.96712 13.0445C3.67564 13.3388 3.67793 13.8137 3.97223 14.1051L5.02777 13.0394ZM3.97642 14.1093C4.27327 14.3982 4.7481 14.3917 5.03698 14.0949C5.32585 13.798 5.31938 13.3232 5.02252 13.0343L3.97642 14.1093ZM11.9995 7.00583L11.3975 7.45322C11.5386 7.64301 11.7609 7.75517 11.9974 7.75582C12.2339 7.75648 12.4568 7.64557 12.5989 7.45656L11.9995 7.00583ZM18.9739 13.0428C18.6784 13.333 18.6741 13.8079 18.9644 14.1034C19.2547 14.3989 19.7295 14.4031 20.025 14.1129L18.9739 13.0428ZM18.9722 13.0394L11.4722 20.4674L12.5278 21.5331L20.0278 14.1051L18.9722 13.0394ZM12.5278 20.4674L5.02777 13.0394L3.97223 14.1051L11.4722 21.5331L12.5278 20.4674ZM5.02252 13.0343C3.87612 11.9188 3.45319 10.254 3.92812 8.72654L2.49577 8.28118C1.8532 10.3477 2.42541 12.6001 3.97642 14.1093L5.02252 13.0343ZM3.92812 8.72654C4.40306 7.19909 5.69542 6.06767 7.27226 5.79886L7.02019 4.32019C4.88682 4.68387 3.13833 6.21462 2.49577 8.28118L3.92812 8.72654ZM7.27226 5.79886C8.84911 5.53005 10.4433 6.16939 11.3975 7.45322L12.6014 6.55844C11.3105 4.82149 9.15357 3.95651 7.02019 4.32019L7.27226 5.79886ZM12.5989 7.45656C13.5571 6.18223 15.1479 5.55138 16.719 5.8227L16.9743 4.34458C14.8487 3.9775 12.6964 4.831 11.4 6.55509L12.5989 7.45656ZM16.719 5.8227C18.2902 6.09403 19.5773 7.22187 20.0526 8.74376L21.4844 8.2966C20.8413 6.23757 19.0999 4.71167 16.9743 4.34458L16.719 5.8227ZM20.0526 8.74376C20.5279 10.2656 20.1114 11.9255 18.9739 13.0428L20.025 14.1129C21.5639 12.6013 22.1274 10.3556 21.4844 8.2966L20.0526 8.74376Z" fill="#33383E"/>
</svg>
