<svg width="18" height="17" viewBox="0 0 18 17" fill="none" xmlns="http://www.w3.org/2000/svg">
<path fill-rule="evenodd" clip-rule="evenodd" d="M5.66083 0.49982C6.52483 0.460631 6.80057 0.451172 9.00039 0.451172C11.2002 0.451172 11.476 0.460631 12.34 0.49982C13.6569 0.559954 14.8128 0.882921 15.7409 1.81196C16.6694 2.74133 16.9917 3.89875 17.0518 5.21629C17.0909 6.08114 17.1004 6.35715 17.1004 8.55914C17.1004 10.7611 17.0909 11.0371 17.0518 11.902C16.9917 13.2202 16.6691 14.3773 15.7409 15.3063C14.8125 16.2357 13.6559 16.5583 12.34 16.6185C11.476 16.6576 11.2002 16.6671 9.00039 16.6671C6.80057 16.6671 6.52483 16.6576 5.66083 16.6185C4.3439 16.5583 3.18797 16.2354 2.25984 15.3063C1.33138 14.3769 1.00907 13.2195 0.948991 11.902C0.909841 11.0371 0.900391 10.7611 0.900391 8.55914C0.900391 6.35715 0.909841 6.08114 0.948991 5.21629C1.00907 3.89807 1.33172 2.741 2.25984 1.81196C3.1883 0.882583 4.34458 0.559954 5.66083 0.49982ZM12.2735 1.95925C11.4193 1.92006 11.1631 1.91196 9.00039 1.91196C6.83769 1.91196 6.58153 1.9204 5.72732 1.95925C4.8056 2.00148 3.95004 2.18628 3.29192 2.84505C2.63379 3.50382 2.44918 4.36022 2.40699 5.28284C2.36784 6.1379 2.35974 6.39431 2.35974 8.55914C2.35974 10.724 2.36818 10.9804 2.40699 11.8354C2.44918 12.758 2.63379 13.6145 3.29192 14.2732C3.95004 14.932 4.8056 15.1168 5.72732 15.159C6.58119 15.1982 6.83736 15.2063 9.00039 15.2063C11.1634 15.2063 11.4196 15.1979 12.2735 15.159C13.1952 15.1168 14.0507 14.932 14.7089 14.2732C15.367 13.6145 15.5516 12.758 15.5938 11.8354C15.6329 10.9804 15.641 10.724 15.641 8.55914C15.641 6.39431 15.6326 6.1379 15.5938 5.28284C15.5516 4.36022 15.367 3.50382 14.7089 2.84505C14.0507 2.18628 13.1952 2.00148 12.2735 1.95925Z" fill="#CACCD1"/>
<path fill-rule="evenodd" clip-rule="evenodd" d="M5.31836 8.92703C5.31836 6.68819 7.13139 4.87305 9.36836 4.87305C11.6053 4.87305 13.4184 6.68787 13.4184 8.92703C13.4184 11.1662 11.6053 12.981 9.36836 12.981C7.13139 12.981 5.31836 11.1659 5.31836 8.92703ZM6.73938 8.92652C6.73938 10.3798 7.91652 11.5581 9.3684 11.5581C10.8203 11.5581 11.9974 10.3798 11.9974 8.92652C11.9974 7.47322 10.8203 6.29492 9.3684 6.29492C7.91652 6.29492 6.73938 7.47322 6.73938 8.92652Z" fill="#CACCD1"/>
<ellipse cx="13.0499" cy="4.50602" rx="1.10455" ry="1.10563" fill="#CACCD1"/>
</svg>
