<svg width="24" height="24" viewBox="0 0 24 24" fill="none" xmlns="http://www.w3.org/2000/svg">
<path d="M20.0278 14.1051C20.3221 13.8137 20.3244 13.3388 20.0329 13.0445C19.7414 12.7502 19.2665 12.7479 18.9722 13.0394L20.0278 14.1051ZM12 21.0003L11.4722 21.5331C11.7645 21.8226 12.2355 21.8226 12.5278 21.5331L12 21.0003ZM5.02777 13.0394C4.73346 12.7479 4.2586 12.7502 3.96712 13.0445C3.67564 13.3388 3.67793 13.8137 3.97223 14.1051L5.02777 13.0394ZM3.97446 14.1093C4.27132 14.3982 4.74615 14.3917 5.03502 14.0949C5.3239 13.798 5.31742 13.3232 5.02056 13.0343L3.97446 14.1093ZM11.9975 7.00583L11.3956 7.45322C11.5366 7.64301 11.7589 7.75517 11.9954 7.75582C12.2319 7.75648 12.4548 7.64557 12.597 7.45656L11.9975 7.00583ZM18.972 13.0428C18.6765 13.333 18.6722 13.8079 18.9624 14.1034C19.2527 14.3989 19.7276 14.4031 20.0231 14.1129L18.972 13.0428ZM18.9722 13.0394L11.4722 20.4674L12.5278 21.5331L20.0278 14.1051L18.9722 13.0394ZM12.5278 20.4674L5.02777 13.0394L3.97223 14.1051L11.4722 21.5331L12.5278 20.4674ZM5.02056 13.0343C3.87417 11.9188 3.45123 10.254 3.92617 8.72654L2.49381 8.28118C1.85125 10.3477 2.42345 12.6001 3.97446 14.1093L5.02056 13.0343ZM3.92617 8.72654C4.40111 7.19909 5.69347 6.06767 7.27031 5.79886L7.01824 4.32019C4.88486 4.68387 3.13638 6.21462 2.49381 8.28118L3.92617 8.72654ZM7.27031 5.79886C8.84715 5.53005 10.4414 6.16939 11.3956 7.45322L12.5995 6.55844C11.3085 4.82149 9.15161 3.95651 7.01824 4.32019L7.27031 5.79886ZM12.597 7.45656C13.5551 6.18223 15.146 5.55138 16.7171 5.8227L16.9723 4.34458C14.8467 3.9775 12.6944 4.831 11.3981 6.55509L12.597 7.45656ZM16.7171 5.8227C18.2882 6.09403 19.5753 7.22187 20.0506 8.74376L21.4824 8.2966C20.8394 6.23757 19.098 4.71167 16.9723 4.34458L16.7171 5.8227ZM20.0506 8.74376C20.5259 10.2656 20.1094 11.9255 18.972 13.0428L20.0231 14.1129C21.562 12.6013 22.1255 10.3556 21.4824 8.2966L20.0506 8.74376Z" fill="#212121"/>
</svg>
