<svg width="16" height="17" viewBox="0 0 16 17" fill="none" xmlns="http://www.w3.org/2000/svg">
<path fill-rule="evenodd" clip-rule="evenodd" d="M0.753774 0.451172H15.1454C15.5052 0.451172 15.7996 0.755221 15.7996 1.12684V15.9914C15.7996 16.3631 15.5052 16.6671 15.1454 16.6671H0.753774C0.393983 16.6671 0.0996094 16.3631 0.0996094 15.9914V1.12684C0.0996094 0.755221 0.393983 0.451172 0.753774 0.451172ZM2.42188 14.2676H4.74417V6.53125H2.42188V14.2676ZM3.59943 5.48506C2.84714 5.48506 2.25839 4.87697 2.25839 4.09995C2.25839 3.32294 2.84714 2.71484 3.59943 2.71484C4.35172 2.71484 4.94047 3.32294 4.94047 4.09995C4.94047 4.84318 4.35172 5.48506 3.59943 5.48506ZM11.155 14.2691H13.4446V10.0124C13.4446 7.91789 13.0194 6.33008 10.6644 6.33008C9.55232 6.33008 8.76732 6.97196 8.47295 7.58006H8.44024V6.53278H6.21608V14.2691H8.53836V10.4516C8.53836 9.43813 8.73461 8.45842 9.94482 8.45842C11.155 8.45842 11.155 9.60705 11.155 10.5192V14.2691Z" fill="#CACCD1"/>
</svg>
