<svg width="24" height="24" viewBox="0 0 24 24" fill="none" xmlns="http://www.w3.org/2000/svg">
<path fill-rule="evenodd" clip-rule="evenodd" d="M10.4062 4.20046C10.4062 3.13296 11.2716 2.26758 12.3391 2.26758H19.8933C21.1381 2.26758 21.8676 3.66875 21.1538 4.68849L19.5788 6.9384C19.5695 6.95169 19.5695 6.96937 19.5788 6.98266L21.1538 9.23256C21.8676 10.2523 21.1381 11.6535 19.8933 11.6535L11.9062 11.6535V17.2124C11.9062 17.6266 11.5705 17.9624 11.1562 17.9624C10.742 17.9624 10.4062 17.6266 10.4062 17.2124V4.20046ZM19.8933 10.1535L11.9062 10.1535V4.20046C11.9062 3.96139 12.1001 3.76758 12.3391 3.76758H19.8933C19.9022 3.76758 19.9085 3.76925 19.9085 3.76925L19.9132 3.77135C19.9165 3.77343 19.9225 3.7787 19.9275 3.78835C19.9326 3.79799 19.9334 3.80595 19.9333 3.80983L19.9323 3.81487C19.9323 3.81487 19.93 3.82104 19.9249 3.8283L18.35 6.07821C17.9792 6.60797 17.9792 7.31308 18.35 7.84285L19.9249 10.0928C19.93 10.1 19.9323 10.1062 19.9323 10.1062L19.9329 10.1084L19.9333 10.1112C19.9334 10.1151 19.9326 10.1231 19.9275 10.1327C19.9225 10.1424 19.9165 10.1476 19.9132 10.1497L19.9105 10.1511L19.9085 10.1518C19.9085 10.1518 19.9022 10.1535 19.8933 10.1535Z" fill="#212121"/>
<path fill-rule="evenodd" clip-rule="evenodd" d="M7.61899 17.0747C8.02796 17.009 8.30622 16.6242 8.2405 16.2152C8.17479 15.8063 7.78998 15.528 7.38101 15.5937C6.00074 15.8155 4.7991 16.1401 3.9215 16.5536C3.48433 16.7597 3.08932 17.0054 2.79336 17.3026C2.495 17.6023 2.25 18.0055 2.25 18.4998C2.25 19.2356 2.77883 19.7604 3.29556 20.0998C3.84282 20.4592 4.58516 20.754 5.43531 20.9902C7.14614 21.4654 9.46684 21.7498 12 21.7498C14.5332 21.7498 16.8539 21.4654 18.5647 20.9902C19.4148 20.754 20.1572 20.4592 20.7044 20.0998C21.2212 19.7604 21.75 19.2356 21.75 18.4998C21.75 18.0055 21.505 17.6023 21.2066 17.3026C20.9107 17.0054 20.5157 16.7597 20.0785 16.5536C19.2009 16.1401 17.9993 15.8155 16.619 15.5937C16.21 15.528 15.8252 15.8063 15.7595 16.2152C15.6938 16.6242 15.972 17.009 16.381 17.0747C17.6908 17.2852 18.7392 17.5807 19.4391 17.9105C19.7906 18.0762 20.0162 18.233 20.1437 18.361C20.2157 18.4333 20.2401 18.4789 20.2477 18.4984C20.2362 18.529 20.1762 18.6521 19.881 18.846C19.5174 19.0848 18.9418 19.3286 18.1632 19.5449C16.6167 19.9745 14.4374 20.2498 12 20.2498C9.5626 20.2498 7.3833 19.9745 5.83677 19.5449C5.05823 19.3286 4.48256 19.0848 4.11897 18.846C3.82378 18.6521 3.76379 18.529 3.75227 18.4984C3.75995 18.4789 3.78427 18.4333 3.8563 18.361C3.98376 18.233 4.20935 18.0762 4.56092 17.9105C5.26079 17.5807 6.30915 17.2852 7.61899 17.0747ZM20.2503 18.5059C20.2505 18.5083 20.251 18.5095 20.251 18.5095L20.2508 18.5082L20.2503 18.5059Z" fill="#212121"/>
</svg>
