<svg width="18" height="18" viewBox="0 0 18 18" fill="none" xmlns="http://www.w3.org/2000/svg">
<path fill-rule="evenodd" clip-rule="evenodd" d="M6.01465 6.00004C6.01465 4.35115 7.35134 3.01447 9.00023 3.01447C10.6491 3.01447 11.9858 4.35115 11.9858 6.00004C11.9858 7.64893 10.6491 8.98562 9.00023 8.98562C7.35134 8.98562 6.01465 7.64893 6.01465 6.00004ZM9.00023 4.13947C7.97266 4.13947 7.13965 4.97247 7.13965 6.00004C7.13965 7.02761 7.97266 7.86062 9.00023 7.86062C10.0278 7.86062 10.8608 7.02761 10.8608 6.00004C10.8608 4.97247 10.0278 4.13947 9.00023 4.13947Z" fill="#212121"/>
<path fill-rule="evenodd" clip-rule="evenodd" d="M9.09643 0.9375C6.03467 0.9375 3.9375 3.28536 3.9375 6.09643C3.9375 8.16487 4.54338 10.2086 5.45801 11.7477C6.34953 13.2478 7.64521 14.4375 9.09643 14.4375C10.5476 14.4375 11.8433 13.2478 12.7348 11.7477C13.6495 10.2086 14.2554 8.16487 14.2554 6.09643C14.2554 3.28536 12.1582 0.9375 9.09643 0.9375ZM5.0625 6.09643C5.0625 3.87154 6.69056 2.0625 9.09643 2.0625C11.5023 2.0625 13.1304 3.87154 13.1304 6.09643C13.1304 7.96025 12.5802 9.80578 11.7677 11.1729C10.9321 12.579 9.92959 13.3125 9.09643 13.3125C8.26326 13.3125 7.26073 12.579 6.42513 11.1729C5.61264 9.80578 5.0625 7.96025 5.0625 6.09643Z" fill="#212121"/>
<path d="M4.12863 12.9328C4.2348 13.2247 4.08419 13.5475 3.79223 13.6536C3.40558 13.7942 3.13288 13.9378 2.96702 14.0705C2.88622 14.1351 2.84559 14.1855 2.82678 14.2168C2.81791 14.2315 2.81465 14.2407 2.81351 14.2445C2.8125 14.2479 2.8125 14.25 2.8125 14.25C2.8125 14.25 2.8125 14.2521 2.81351 14.2555C2.81465 14.2593 2.81791 14.2685 2.82678 14.2832C2.84559 14.3145 2.88622 14.3649 2.96702 14.4295C3.13072 14.5605 3.39851 14.702 3.77722 14.8409C4.49016 15.0535 5.5 15.2703 6.66291 15.416C7.41007 15.4907 8.20807 15.5625 9 15.5625C9.79438 15.5625 10.5949 15.4902 11.344 15.4153C11.351 15.4146 11.3579 15.414 11.3649 15.4136C12.5218 15.3413 13.5101 15.1251 14.1911 14.8527L14.199 14.8497L14.2078 14.8464C14.5944 14.7058 14.8671 14.5622 15.033 14.4295C15.1138 14.3649 15.1544 14.3145 15.1732 14.2832C15.1821 14.2685 15.1854 14.2593 15.1865 14.2555C15.1875 14.2521 15.1875 14.25 15.1875 14.25C15.1875 14.25 15.1875 14.2479 15.1865 14.2445C15.1854 14.2407 15.1821 14.2315 15.1732 14.2168C15.1544 14.1855 15.1138 14.1351 15.033 14.0705C14.8671 13.9378 14.5944 13.7942 14.2078 13.6536C13.9158 13.5475 13.7652 13.2247 13.8714 12.9328C13.9775 12.6408 14.3003 12.4902 14.5922 12.5964C15.0306 12.7558 15.4329 12.9497 15.7358 13.192C16.0366 13.4327 16.3125 13.7836 16.3125 14.25C16.3125 14.7164 16.0366 15.0673 15.7358 15.308C15.4348 15.5488 15.0357 15.7418 14.6006 15.9006C13.7847 16.2255 12.6803 16.4577 11.4456 16.5357C10.6973 16.6105 9.85169 16.6875 9 16.6875C8.14438 16.6875 7.29488 16.6098 6.54403 16.5347L6.53023 16.5332C5.30453 16.3799 4.2232 16.1492 3.43837 15.9138C3.42807 15.9107 3.41787 15.9073 3.40777 15.9036C2.96942 15.7442 2.56712 15.5503 2.26423 15.308C1.96343 15.0673 1.6875 14.7164 1.6875 14.25C1.6875 13.7836 1.96343 13.4327 2.26423 13.192C2.56712 12.9497 2.96942 12.7558 3.40777 12.5964C3.69973 12.4902 4.02247 12.6408 4.12863 12.9328Z" fill="#212121"/>
</svg>
