<svg width="127" height="50" viewBox="0 0 127 50" fill="none" xmlns="http://www.w3.org/2000/svg">
<path fill-rule="evenodd" clip-rule="evenodd" d="M123.282 16.8713C122.67 17.3578 122.176 17.9763 121.836 18.6807C121.496 19.385 121.319 20.157 121.319 20.9391C121.319 21.7211 121.496 22.4931 121.836 23.1975C122.176 23.9018 122.67 24.5203 123.282 25.0069C122.67 25.4934 122.176 26.1119 121.836 26.8163C121.496 27.5206 121.319 28.2926 121.319 29.0747C121.319 29.8567 121.496 30.6287 121.836 31.3331C122.176 32.0374 122.67 32.6559 123.282 33.1425C122.712 33.5949 122.243 34.1623 121.907 34.8076C121.57 35.453 121.373 36.162 121.328 36.8885C121.283 37.6151 121.391 38.343 121.646 39.0249C121.901 39.7068 122.296 40.3276 122.806 40.8469C121.427 41.3972 120.187 42.2455 119.175 43.3312C118.163 44.4169 117.403 45.713 116.95 47.1267H9.40543C8.95435 45.7118 8.19523 44.4146 7.18269 43.3283C6.17015 42.242 4.92939 41.3937 3.5497 40.8445C4.50137 39.8734 5.03571 38.5687 5.03865 37.2091C5.03683 36.4273 4.85925 35.6559 4.51905 34.952C4.17885 34.248 3.68472 33.6296 3.07324 33.1425C3.68577 32.6536 4.18047 32.0332 4.52069 31.3272C4.86091 30.6212 5.03793 29.8477 5.03865 29.064C5.034 28.285 4.85507 27.517 4.51499 26.8162C4.1749 26.1154 3.68228 25.4996 3.07324 25.014C3.68478 24.5264 4.1789 23.9075 4.5191 23.2032C4.85929 22.4989 5.03685 21.7272 5.03865 20.945C5.03791 20.162 4.86084 19.3892 4.5206 18.684C4.18035 17.9787 3.68567 17.3592 3.07324 16.8713C3.68496 16.3833 4.17918 15.764 4.51938 15.0593C4.85957 14.3546 5.03703 13.5824 5.03865 12.7999C5.0361 11.4409 4.50165 10.1368 3.5497 9.16687C4.92929 8.61678 6.1699 7.76793 7.18238 6.68131C8.19485 5.59469 8.95406 4.29729 9.40543 2.88232H116.95C117.402 4.29765 118.162 5.59538 119.175 6.68237C120.187 7.76935 121.428 8.61863 122.808 9.16925C122.298 9.68832 121.903 10.3089 121.648 10.9906C121.394 11.6724 121.285 12.4001 121.33 13.1264C121.375 13.8528 121.573 14.5616 121.909 15.2067C122.246 15.8519 122.715 16.419 123.285 16.8713H123.282Z" fill="#66297D"/>
<path fill-rule="evenodd" clip-rule="evenodd" d="M126.358 10.4822V6.98971C124.519 6.94327 122.767 6.19202 121.466 4.89119C120.165 3.59036 119.413 1.83936 119.366 0H6.98971C6.94325 1.83915 6.19192 3.59014 4.89103 4.89103C3.59014 6.19192 1.83915 6.94325 0 6.98971L0 10.4822C0.583121 10.5277 1.12766 10.7914 1.52504 11.2205C1.92242 11.6497 2.14346 12.2129 2.14408 12.7978C2.14411 13.3833 1.92342 13.9474 1.52602 14.3775C1.12863 14.8075 0.583737 15.072 0 15.1182L0 18.6202C0.582918 18.6662 1.12713 18.9301 1.52441 19.3591C1.92168 19.7882 2.14291 20.351 2.14408 20.9358C2.14462 21.5212 1.92404 22.0853 1.52648 22.5151C1.12893 22.9449 0.583735 23.2087 0 23.2538L0 26.7534C0.582101 26.7994 1.12564 27.0625 1.5228 27.4906C1.91996 27.9186 2.14171 28.4803 2.14408 29.0642C2.14402 29.6493 1.92317 30.2128 1.52567 30.6421C1.12818 31.0714 0.583324 31.3348 0 31.3798L0 34.8818C0.583735 34.9269 1.12893 35.1907 1.52648 35.6205C1.92404 36.0503 2.14462 36.6144 2.14408 37.1998C2.14346 37.7847 1.92242 38.3479 1.52504 38.7771C1.12766 39.2062 0.583121 39.4699 0 39.5154L0 43.0103C1.83915 43.0567 3.59014 43.8081 4.89103 45.109C6.19192 46.4099 6.94325 48.1609 6.98971 50H119.366C119.416 48.163 120.169 46.4152 121.47 45.1173C122.771 43.8194 124.521 43.0703 126.358 43.0246V39.525C125.775 39.4791 125.231 39.2153 124.834 38.7861C124.438 38.3569 124.217 37.7939 124.217 37.2094C124.217 36.6248 124.438 36.0618 124.834 35.6326C125.231 35.2034 125.775 34.9396 126.358 34.8937V31.3917C125.772 31.3497 125.224 31.0874 124.824 30.6575C124.424 30.2277 124.201 29.6622 124.201 29.0749C124.201 28.4877 124.424 27.9222 124.824 27.4924C125.224 27.0625 125.772 26.8002 126.358 26.7581V23.2561C125.775 23.2103 125.23 22.9462 124.833 22.5166C124.436 22.0869 124.215 21.5233 124.215 20.9382C124.215 20.353 124.436 19.7894 124.833 19.3598C125.23 18.9301 125.775 18.666 126.358 18.6202V15.1205C125.775 15.0747 125.23 14.8106 124.833 14.381C124.436 13.9513 124.215 13.3877 124.215 12.8026C124.215 12.2174 124.436 11.6538 124.833 11.2242C125.23 10.7945 125.775 10.5304 126.358 10.4846V10.4822ZM123.84 24.7999L124.119 25.0143L123.83 25.2168C123.206 25.6496 122.695 26.2273 122.343 26.9005C121.99 27.5737 121.806 28.3222 121.806 29.0821C121.806 29.842 121.99 30.5905 122.343 31.2637C122.695 31.9369 123.206 32.5146 123.83 32.9474L124.119 33.1499L123.83 33.3524C123.242 33.7597 122.754 34.2961 122.404 34.9208C122.054 35.5454 121.852 36.2418 121.812 36.9566C121.773 37.6714 121.897 38.3858 122.176 39.0453C122.454 39.7047 122.88 40.2917 123.421 40.7614L123.742 41.0401L123.342 41.1807C121.922 41.6815 120.64 42.5107 119.602 43.6008C118.563 44.6908 117.796 46.0109 117.365 47.4533L117.312 47.6296H9.03612L8.98371 47.4485C8.55221 46.0067 7.78638 44.6871 6.74856 43.5971C5.71073 42.5071 4.43023 41.6775 3.01124 41.1759L2.62055 41.0306L2.93739 40.7519C3.44288 40.3101 3.84839 39.7656 4.1269 39.1547C4.40542 38.5439 4.55054 37.8807 4.5526 37.2094C4.5479 36.4504 4.36058 35.7037 4.00646 35.0324C3.65235 34.361 3.14186 33.7848 2.51811 33.3524L2.22746 33.1523L2.51811 32.9474C3.14357 32.5112 3.65435 31.9303 4.00693 31.2542C4.35951 30.5781 4.54345 29.8268 4.54307 29.0642C4.54057 28.3046 4.35527 27.5566 4.00282 26.8837C3.65037 26.2107 3.14112 25.6324 2.51811 25.1977L2.22746 25.0143L2.51811 24.8094C3.14122 24.3754 3.65059 23.7976 4.00307 23.125C4.35556 22.4523 4.54078 21.7047 4.54307 20.9453C4.5408 20.1862 4.35556 19.4389 4.00306 18.7667C3.65056 18.0944 3.14118 17.5171 2.51811 17.0836L2.22746 16.8811L2.51811 16.6762C3.14141 16.2418 3.65087 15.6636 4.00335 14.9905C4.35584 14.3175 4.54097 13.5694 4.54307 12.8097C4.54114 12.1387 4.39605 11.4758 4.11752 10.8653C3.83898 10.2548 3.4334 9.71082 2.92786 9.26958L2.62055 8.97894L3.02077 8.84077C4.43837 8.33855 5.71733 7.50865 6.75352 6.41864C7.78972 5.32863 8.55385 4.00933 8.98371 2.56813L9.03612 2.38708H117.319L117.372 2.56813C117.804 4.01025 118.57 5.33002 119.608 6.42003C120.646 7.51003 121.927 8.33945 123.347 8.84077L123.747 8.97894L123.428 9.26244C122.887 9.73229 122.46 10.3197 122.181 10.9797C121.902 11.6397 121.778 12.3548 121.817 13.0703C121.857 13.7858 122.06 14.4827 122.411 15.1077C122.761 15.7327 123.25 16.2692 123.84 16.6762L124.128 16.8787L123.84 17.0836C123.215 17.5158 122.705 18.0931 122.352 18.7659C122 19.4387 121.816 20.1869 121.816 20.9465C121.816 21.7061 122 22.4543 122.352 23.1271C122.705 23.7999 123.215 24.3771 123.84 24.8094V24.7999Z" fill="#66297D"/>
<path fill-rule="evenodd" clip-rule="evenodd" d="M121.319 29.064C121.322 29.8457 121.5 30.6168 121.84 31.3208C122.18 32.0249 122.672 32.644 123.282 33.1329C122.712 33.5854 122.243 34.1527 121.907 34.7981C121.57 35.4435 121.373 36.1525 121.328 36.879C121.283 37.6056 121.391 38.3334 121.646 39.0154C121.901 39.6973 122.296 40.3181 122.806 40.8373C121.427 41.3876 120.187 42.236 119.175 43.3217C118.163 44.4073 117.403 45.7034 116.95 47.1171H9.40543C8.95314 45.704 8.19346 44.4087 7.18099 43.3241C6.16852 42.2396 4.92839 41.3928 3.5497 40.8445C4.50137 39.8734 5.03571 38.5687 5.03865 37.2091C5.03683 36.4273 4.85925 35.6559 4.51905 34.952C4.17885 34.248 3.68472 33.6296 3.07324 33.1425C3.68577 32.6536 4.18047 32.0332 4.52069 31.3272C4.86091 30.6212 5.03793 29.8477 5.03865 29.064C5.034 28.285 4.85507 27.517 4.51499 26.8162C4.1749 26.1154 3.68228 25.4996 3.07324 25.014C3.68478 24.5264 4.1789 23.9075 4.5191 23.2032C4.85929 22.4989 5.03685 21.7272 5.03865 20.945C5.03791 20.162 4.86084 19.3892 4.5206 18.684C4.18035 17.9787 3.68567 17.3592 3.07324 16.8713C3.68496 16.3833 4.17918 15.764 4.51938 15.0593C4.85957 14.3546 5.03703 13.5824 5.03865 12.7999C5.0361 11.4409 4.50165 10.1368 3.5497 9.16687C4.92929 8.61679 6.1699 7.76793 7.18238 6.68131C8.19485 5.59469 8.95406 4.29729 9.40543 2.88232H116.95C117.402 4.29765 118.162 5.59538 119.175 6.68237C120.187 7.76935 121.428 8.61863 122.808 9.16925C122.298 9.68832 121.903 10.3089 121.648 10.9906C121.394 11.6724 121.285 12.4001 121.33 13.1264C121.375 13.8528 121.573 14.5616 121.909 15.2067C122.246 15.8519 122.715 16.419 123.285 16.8713C122.673 17.3578 122.178 17.9763 121.838 18.6807C121.498 19.385 121.322 20.157 121.322 20.9391C121.322 21.7211 121.498 22.4931 121.838 23.1975C122.178 23.9018 122.673 24.5203 123.285 25.0069C122.675 25.4935 122.182 26.1105 121.842 26.8125C121.502 27.5146 121.323 28.2839 121.319 29.064Z" fill="#66297D"/>
<path fill-rule="evenodd" clip-rule="evenodd" d="M123.282 16.8713C122.67 17.3578 122.176 17.9763 121.836 18.6807C121.496 19.385 121.319 20.157 121.319 20.9391C121.319 21.7211 121.496 22.4931 121.836 23.1975C122.176 23.9018 122.67 24.5203 123.282 25.0069C122.67 25.4934 122.176 26.1119 121.836 26.8163C121.496 27.5206 121.319 28.2926 121.319 29.0747C121.319 29.8567 121.496 30.6287 121.836 31.3331C122.176 32.0374 122.67 32.6559 123.282 33.1425C122.712 33.5949 122.243 34.1623 121.907 34.8076C121.57 35.453 121.373 36.162 121.328 36.8885C121.283 37.6151 121.391 38.343 121.646 39.0249C121.901 39.7068 122.296 40.3276 122.806 40.8469C121.427 41.3972 120.187 42.2455 119.175 43.3312C118.163 44.4169 117.403 45.713 116.95 47.1267H9.40543C8.95435 45.7118 8.19523 44.4146 7.18269 43.3283C6.17015 42.242 4.92939 41.3937 3.5497 40.8445C4.50137 39.8734 5.03571 38.5687 5.03865 37.2091C5.03683 36.4273 4.85925 35.6559 4.51905 34.952C4.17885 34.248 3.68472 33.6296 3.07324 33.1425C3.68577 32.6536 4.18047 32.0332 4.52069 31.3272C4.86091 30.6212 5.03793 29.8477 5.03865 29.064C5.034 28.285 4.85507 27.517 4.51499 26.8162C4.1749 26.1154 3.68228 25.4996 3.07324 25.014C3.68478 24.5264 4.1789 23.9075 4.5191 23.2032C4.85929 22.4989 5.03685 21.7272 5.03865 20.945C5.03791 20.162 4.86084 19.3892 4.5206 18.684C4.18035 17.9787 3.68567 17.3592 3.07324 16.8713C3.68496 16.3833 4.17918 15.764 4.51938 15.0593C4.85957 14.3546 5.03703 13.5824 5.03865 12.7999C5.0361 11.4409 4.50165 10.1368 3.5497 9.16687C4.92929 8.61678 6.1699 7.76793 7.18238 6.68131C8.19485 5.59469 8.95406 4.29729 9.40543 2.88232H116.95C117.402 4.29765 118.162 5.59538 119.175 6.68237C120.187 7.76935 121.428 8.61863 122.808 9.16925C122.298 9.68832 121.903 10.3089 121.648 10.9906C121.394 11.6724 121.285 12.4001 121.33 13.1264C121.375 13.8528 121.573 14.5616 121.909 15.2067C122.246 15.8519 122.715 16.419 123.285 16.8713H123.282Z" fill="#66297D"/>
<path fill-rule="evenodd" clip-rule="evenodd" d="M126.358 10.4822V6.98971C124.519 6.94327 122.767 6.19202 121.466 4.89119C120.165 3.59036 119.413 1.83936 119.366 0H6.98971C6.94325 1.83915 6.19192 3.59014 4.89103 4.89103C3.59014 6.19192 1.83915 6.94325 0 6.98971L0 10.4822C0.583121 10.5277 1.12766 10.7914 1.52504 11.2205C1.92242 11.6497 2.14346 12.2129 2.14408 12.7978C2.14411 13.3833 1.92342 13.9474 1.52602 14.3775C1.12863 14.8075 0.583737 15.072 0 15.1182L0 18.6202C0.582918 18.6662 1.12713 18.9301 1.52441 19.3591C1.92168 19.7882 2.14291 20.351 2.14408 20.9358C2.14462 21.5212 1.92404 22.0853 1.52648 22.5151C1.12893 22.9449 0.583735 23.2087 0 23.2538L0 26.7534C0.582101 26.7994 1.12564 27.0625 1.5228 27.4906C1.91996 27.9186 2.14171 28.4803 2.14408 29.0642C2.14402 29.6493 1.92317 30.2128 1.52567 30.6421C1.12818 31.0714 0.583324 31.3348 0 31.3798L0 34.8818C0.583735 34.9269 1.12893 35.1907 1.52648 35.6205C1.92404 36.0503 2.14462 36.6144 2.14408 37.1998C2.14346 37.7847 1.92242 38.3479 1.52504 38.7771C1.12766 39.2062 0.583121 39.4699 0 39.5154L0 43.0103C1.83915 43.0567 3.59014 43.8081 4.89103 45.109C6.19192 46.4099 6.94325 48.1609 6.98971 50H119.366C119.416 48.163 120.169 46.4152 121.47 45.1173C122.771 43.8194 124.521 43.0703 126.358 43.0246V39.525C125.775 39.4791 125.231 39.2153 124.834 38.7861C124.438 38.3569 124.217 37.7939 124.217 37.2094C124.217 36.6248 124.438 36.0618 124.834 35.6326C125.231 35.2034 125.775 34.9396 126.358 34.8937V31.3917C125.772 31.3497 125.224 31.0874 124.824 30.6575C124.424 30.2277 124.201 29.6622 124.201 29.0749C124.201 28.4877 124.424 27.9222 124.824 27.4924C125.224 27.0625 125.772 26.8002 126.358 26.7581V23.2561C125.775 23.2103 125.23 22.9462 124.833 22.5166C124.436 22.0869 124.215 21.5233 124.215 20.9382C124.215 20.353 124.436 19.7894 124.833 19.3598C125.23 18.9301 125.775 18.666 126.358 18.6202V15.1205C125.775 15.0747 125.23 14.8106 124.833 14.381C124.436 13.9513 124.215 13.3877 124.215 12.8026C124.215 12.2174 124.436 11.6538 124.833 11.2242C125.23 10.7945 125.775 10.5304 126.358 10.4846V10.4822ZM123.84 24.7999L124.119 25.0143L123.83 25.2168C123.206 25.6496 122.695 26.2273 122.343 26.9005C121.99 27.5737 121.806 28.3222 121.806 29.0821C121.806 29.842 121.99 30.5905 122.343 31.2637C122.695 31.9369 123.206 32.5146 123.83 32.9474L124.119 33.1499L123.83 33.3524C123.242 33.7597 122.754 34.2961 122.404 34.9208C122.054 35.5454 121.852 36.2418 121.812 36.9566C121.773 37.6714 121.897 38.3858 122.176 39.0453C122.454 39.7047 122.88 40.2917 123.421 40.7614L123.742 41.0401L123.342 41.1807C121.922 41.6815 120.64 42.5107 119.602 43.6008C118.563 44.6908 117.796 46.0109 117.365 47.4533L117.312 47.6296H9.03612L8.98371 47.4485C8.55221 46.0067 7.78638 44.6871 6.74856 43.5971C5.71073 42.5071 4.43023 41.6775 3.01124 41.1759L2.62055 41.0306L2.93739 40.7519C3.44288 40.3101 3.84839 39.7656 4.1269 39.1547C4.40542 38.5439 4.55054 37.8807 4.5526 37.2094C4.5479 36.4504 4.36058 35.7037 4.00646 35.0324C3.65235 34.361 3.14186 33.7848 2.51811 33.3524L2.22746 33.1523L2.51811 32.9474C3.14357 32.5112 3.65435 31.9303 4.00693 31.2542C4.35951 30.5781 4.54345 29.8268 4.54307 29.0642C4.54057 28.3046 4.35527 27.5566 4.00282 26.8837C3.65037 26.2107 3.14112 25.6324 2.51811 25.1977L2.22746 25.0143L2.51811 24.8094C3.14122 24.3754 3.65059 23.7976 4.00307 23.125C4.35556 22.4523 4.54078 21.7047 4.54307 20.9453C4.5408 20.1862 4.35556 19.4389 4.00306 18.7667C3.65056 18.0944 3.14118 17.5171 2.51811 17.0836L2.22746 16.8811L2.51811 16.6762C3.14141 16.2418 3.65087 15.6636 4.00335 14.9905C4.35584 14.3175 4.54097 13.5694 4.54307 12.8097C4.54114 12.1387 4.39605 11.4758 4.11752 10.8653C3.83898 10.2548 3.4334 9.71082 2.92786 9.26958L2.62055 8.97894L3.02077 8.84077C4.43837 8.33855 5.71733 7.50865 6.75352 6.41864C7.78972 5.32863 8.55385 4.00933 8.98371 2.56813L9.03612 2.38708H117.319L117.372 2.56813C117.804 4.01025 118.57 5.33002 119.608 6.42003C120.646 7.51003 121.927 8.33945 123.347 8.84077L123.747 8.97894L123.428 9.26244C122.887 9.73229 122.46 10.3197 122.181 10.9797C121.902 11.6397 121.778 12.3548 121.817 13.0703C121.857 13.7858 122.06 14.4827 122.411 15.1077C122.761 15.7327 123.25 16.2692 123.84 16.6762L124.128 16.8787L123.84 17.0836C123.215 17.5158 122.705 18.0931 122.352 18.7659C122 19.4387 121.816 20.1869 121.816 20.9465C121.816 21.7061 122 22.4543 122.352 23.1271C122.705 23.7999 123.215 24.3771 123.84 24.8094V24.7999Z" fill="#66297D"/>
<path fill-rule="evenodd" clip-rule="evenodd" d="M123.84 25.2099L124.118 25.0146L123.83 24.8097C123.206 24.3774 122.695 23.8002 122.343 23.1274C121.99 22.4546 121.806 21.7064 121.806 20.9468C121.806 20.1872 121.99 19.439 122.343 18.7662C122.695 18.0934 123.206 17.5162 123.83 17.0839L124.118 16.879L123.84 16.6765C123.251 16.2694 122.763 15.7332 122.414 15.1088C122.064 14.4845 121.862 13.7885 121.822 13.074C121.782 12.3595 121.906 11.6454 122.184 10.9861C122.463 10.3268 122.888 9.7398 123.428 9.26989L123.747 8.98639L123.347 8.84822C121.927 8.34691 120.646 7.51749 119.608 6.42748C118.57 5.33748 117.803 4.0177 117.372 2.57559L117.319 2.39453H9.03595L8.98354 2.57559C8.55175 4.01648 7.78573 5.33501 6.74787 6.42379C5.71001 7.51257 4.42965 8.34082 3.01108 8.84107L2.62038 8.97925L2.93722 9.26036C3.44276 9.7016 3.84834 10.2456 4.12688 10.8561C4.40542 11.4666 4.5505 12.1295 4.55243 12.8005C4.55079 13.5627 4.36493 14.3132 4.01069 14.9881C3.65645 15.663 3.14432 16.2422 2.51794 16.6765L2.22729 16.8814L2.51794 17.0839C3.14101 17.5174 3.65039 18.0948 4.00289 18.767C4.35539 19.4392 4.54063 20.1866 4.5429 20.9456C4.54061 21.705 4.35539 22.4526 4.0029 23.1253C3.65042 23.7979 3.14106 24.3757 2.51794 24.8097L2.22729 25.0146L2.51794 25.2171C3.13833 25.6499 3.64595 26.2252 3.99827 26.8946C4.35059 27.564 4.53735 28.3081 4.5429 29.0645C4.54022 29.8238 4.35482 30.5714 4.00237 31.2439C3.64992 31.9165 3.14077 32.4943 2.51794 32.9286L2.22729 33.1335L2.51794 33.3336C3.14124 33.7681 3.6507 34.3463 4.00318 35.0193C4.35567 35.6923 4.5408 36.4404 4.5429 37.2001C4.54085 37.8715 4.39572 38.5347 4.11721 39.1455C3.83869 39.7564 3.43318 40.3008 2.9277 40.7426L2.62038 41.0309L3.02061 41.1691C4.43959 41.6707 5.72009 42.5003 6.75792 43.5902C7.79574 44.6802 8.56157 45.9998 8.99307 47.4417L9.04548 47.6228H117.322L117.374 47.4465C117.806 46.004 118.572 44.684 119.611 43.5939C120.65 42.5039 121.931 41.6747 123.351 41.1738L123.752 41.0333L123.43 40.7545C122.89 40.2848 122.464 39.6978 122.185 39.0384C121.906 38.379 121.782 37.6646 121.821 36.9498C121.861 36.2349 122.063 35.5386 122.413 34.9139C122.763 34.2893 123.251 33.7528 123.84 33.3456L124.128 33.1431L123.84 32.9406C123.215 32.5077 122.705 31.93 122.352 31.2569C122 30.5837 121.816 29.8351 121.816 29.0753C121.816 28.3154 122 27.5668 122.352 26.8936C122.705 26.2205 123.215 25.6428 123.84 25.2099ZM121.319 29.0645C121.322 29.8462 121.5 30.6173 121.84 31.3214C122.179 32.0255 122.672 32.6446 123.282 33.1335C122.712 33.586 122.243 34.1533 121.907 34.7987C121.57 35.4441 121.373 36.153 121.328 36.8796C121.283 37.6061 121.391 38.334 121.646 39.0159C121.9 39.6979 122.296 40.3187 122.806 40.8379C121.427 41.3882 120.187 42.2366 119.175 43.3223C118.162 44.4079 117.403 45.704 116.95 47.1177H9.40521C8.95291 45.7046 8.19323 44.4093 7.18076 43.3247C6.16829 42.2402 4.92816 41.3933 3.54948 40.8451C4.50114 39.874 5.03548 38.5693 5.03843 37.2097C5.03661 36.4279 4.85903 35.6565 4.51882 34.9525C4.17862 34.2486 3.6845 33.6302 3.07302 33.1431C3.68555 32.6542 4.18024 32.0338 4.52046 31.3277C4.86068 30.6217 5.03771 29.8482 5.03843 29.0645C5.03378 28.2856 4.85485 27.5176 4.51476 26.8168C4.17467 26.116 3.68205 25.5002 3.07302 25.0146C3.68455 24.527 4.17868 23.9081 4.51887 23.2038C4.85906 22.4995 5.03662 21.7278 5.03843 20.9456C5.03768 20.1626 4.86062 19.3898 4.52037 18.6846C4.18013 17.9793 3.68544 17.3598 3.07302 16.8719C3.68474 16.3838 4.17896 15.7646 4.51915 15.0599C4.85934 14.3552 5.03681 13.583 5.03843 12.8005C5.03587 11.4414 4.50143 10.1374 3.54948 9.16745C4.92907 8.61737 6.16967 7.76852 7.18215 6.68189C8.19463 5.59527 8.95383 4.29787 9.40521 2.88291H116.95C117.402 4.29823 118.162 5.59596 119.174 6.68295C120.187 7.76993 121.428 8.61922 122.808 9.16983C122.298 9.6889 121.903 10.3095 121.648 10.9912C121.394 11.673 121.285 12.4006 121.33 13.127C121.375 13.8534 121.572 14.5622 121.909 15.2073C122.246 15.8525 122.714 16.4196 123.285 16.8719C122.672 17.3584 122.178 17.9769 121.838 18.6813C121.498 19.3856 121.321 20.1576 121.321 20.9397C121.321 21.7217 121.498 22.4937 121.838 23.198C122.178 23.9024 122.672 24.5209 123.285 25.0075C122.675 25.4941 122.182 26.111 121.842 26.8131C121.502 27.5151 121.323 28.2845 121.319 29.0645Z" fill="#F6D73B"/>
<path fill-rule="evenodd" clip-rule="evenodd" d="M121.319 29.064C121.322 29.8457 121.5 30.6168 121.84 31.3208C122.18 32.0249 122.672 32.644 123.282 33.1329C122.712 33.5854 122.243 34.1527 121.907 34.7981C121.57 35.4435 121.373 36.1525 121.328 36.879C121.283 37.6056 121.391 38.3334 121.646 39.0154C121.901 39.6973 122.296 40.3181 122.806 40.8373C121.427 41.3876 120.187 42.236 119.175 43.3217C118.163 44.4073 117.403 45.7034 116.95 47.1171H9.40543C8.95314 45.704 8.19346 44.4087 7.18099 43.3241C6.16852 42.2396 4.92839 41.3928 3.5497 40.8445C4.50137 39.8734 5.03571 38.5687 5.03865 37.2091C5.03683 36.4273 4.85925 35.6559 4.51905 34.952C4.17885 34.248 3.68472 33.6296 3.07324 33.1425C3.68577 32.6536 4.18047 32.0332 4.52069 31.3272C4.86091 30.6212 5.03793 29.8477 5.03865 29.064C5.034 28.285 4.85507 27.517 4.51499 26.8162C4.1749 26.1154 3.68228 25.4996 3.07324 25.014C3.68478 24.5264 4.1789 23.9075 4.5191 23.2032C4.85929 22.4989 5.03685 21.7272 5.03865 20.945C5.03791 20.162 4.86084 19.3892 4.5206 18.684C4.18035 17.9787 3.68567 17.3592 3.07324 16.8713C3.68496 16.3833 4.17918 15.764 4.51938 15.0593C4.85957 14.3546 5.03703 13.5824 5.03865 12.7999C5.0361 11.4409 4.50165 10.1368 3.5497 9.16687C4.92929 8.61679 6.1699 7.76793 7.18238 6.68131C8.19485 5.59469 8.95406 4.29729 9.40543 2.88232H116.95C117.402 4.29765 118.162 5.59538 119.175 6.68237C120.187 7.76935 121.428 8.61863 122.808 9.16925C122.298 9.68832 121.903 10.3089 121.648 10.9906C121.394 11.6724 121.285 12.4001 121.33 13.1264C121.375 13.8528 121.573 14.5616 121.909 15.2067C122.246 15.8519 122.715 16.419 123.285 16.8713C122.673 17.3578 122.178 17.9763 121.838 18.6807C121.498 19.385 121.322 20.157 121.322 20.9391C121.322 21.7211 121.498 22.4931 121.838 23.1975C122.178 23.9018 122.673 24.5203 123.285 25.0069C122.675 25.4935 122.182 26.1105 121.842 26.8125C121.502 27.5146 121.323 28.2839 121.319 29.064Z" fill="#66297D"/>
<path fill-rule="evenodd" clip-rule="evenodd" d="M58.9029 12.9469C58.9029 13.6426 58.9029 13.6759 58.5956 14.2929C58.4071 14.7093 58.1402 15.0854 57.8094 15.4007C57.5191 15.71 57.1753 15.9642 56.7946 16.1512C56.4493 16.3149 56.0906 16.4488 55.7225 16.5514C55.3566 16.6357 54.9858 16.6978 54.6124 16.7372C54.1477 16.7621 53.6819 16.7526 53.2187 16.7086C52.7708 16.6586 52.0919 16.5609 51.7178 16.4704C51.3438 16.3799 50.3456 16.1202 49.5023 15.87C48.6589 15.6199 47.2558 15.2506 46.391 15.0267C45.5262 14.8028 44.2112 14.505 43.4607 14.3477C42.7103 14.1905 41.5382 13.9618 40.8402 13.8475C40.1422 13.7331 39.0487 13.5473 38.3745 13.4472C37.7003 13.3472 36.5306 13.209 35.754 13.1328C34.9773 13.0565 33.8481 12.9446 33.2501 12.8945C32.6522 12.8445 31.2419 12.8111 30.1531 12.8016C29.0644 12.7921 27.6803 12.8183 26.0436 12.9041V21.7782H29.8339V22.9145H25.9817C25.9817 22.9145 25.9817 30.7524 25.9102 30.9668C25.8847 31.0806 25.8324 31.1868 25.7578 31.2765C25.6175 31.5014 25.4214 31.6861 25.1884 31.8125C24.8168 32.0197 24.7667 32.0269 23.9067 32.0269C23.5227 32.05 23.1374 32.0163 22.7632 31.9268C22.6048 31.8563 22.4526 31.7727 22.3082 31.6767C22.1479 31.5736 22.0125 31.436 21.912 31.2741C21.8114 31.1122 21.7482 30.9299 21.7269 30.7404L21.6912 22.9145H19.69V21.7782H21.6912V17.7282C21.6912 15.5055 21.6912 13.6783 21.6697 13.6783L20.9765 13.8975C20.4903 14.0648 20.0132 14.2572 19.5471 14.474C19.0912 14.6952 18.6489 14.9434 18.2225 15.2173C17.9124 15.4226 17.6213 15.6554 17.353 15.9129C17.1807 16.096 17.0333 16.3011 16.9146 16.5228C16.8227 16.7038 16.7546 16.896 16.7121 17.0945C16.6834 17.273 16.704 17.4559 16.7717 17.6234C16.8324 17.7705 16.928 17.9005 17.0504 18.0022C17.1909 18.0961 17.3581 18.1421 17.5269 18.1332C17.727 18.1255 17.9237 18.0786 18.1058 17.9951C18.2837 17.8998 18.4548 17.7923 18.618 17.6735C18.7527 17.5698 18.9135 17.5054 19.0825 17.4876C19.2524 17.4974 19.4167 17.5517 19.559 17.6449C19.7194 17.7658 19.8525 17.9192 19.9497 18.0951C20.051 18.3319 20.0982 18.5882 20.0879 18.8455C20.0974 19.117 20.0436 19.387 19.9306 19.6341C19.8236 19.8385 19.6907 20.0283 19.5352 20.1987C19.3488 20.3725 19.1366 20.5163 18.9062 20.6251C18.5632 20.7895 18.4298 20.811 17.7985 20.811C17.1671 20.811 17.0385 20.7895 16.6264 20.5965C16.3448 20.4585 16.0874 20.2759 15.864 20.0558C15.7071 19.8942 15.5703 19.7142 15.4566 19.5197C15.3561 19.3014 15.2763 19.0741 15.2184 18.8408C15.1229 18.4928 15.093 18.1301 15.1303 17.7711C15.1586 17.4088 15.2208 17.0498 15.3161 16.6991C15.4247 16.3857 15.5661 16.0847 15.7378 15.801C15.9457 15.5011 16.1801 15.2204 16.4382 14.9624C16.7463 14.6679 17.0795 14.4009 17.434 14.1643C17.8313 13.9053 18.2416 13.6667 18.6632 13.4496C19.1872 13.2054 19.724 12.9899 20.2713 12.804C20.793 12.6349 21.5935 12.4038 22.0461 12.3061C22.4988 12.2084 23.2015 12.0679 23.6184 12.0202C24.0354 11.9726 24.7024 11.8773 25.1193 11.8392C25.5362 11.801 26.513 11.7463 27.2991 11.72C28.1353 11.6915 29.386 11.7034 30.3032 11.7558C31.1656 11.7963 32.5164 11.8987 33.3049 11.9773C34.0935 12.056 35.349 12.1989 36.0922 12.299C36.8355 12.399 38.1077 12.5896 38.9177 12.7278C39.7277 12.8659 41.026 13.0994 41.8098 13.2566C42.5936 13.4139 43.7704 13.6569 44.4303 13.7998C45.0902 13.9427 46.2528 14.2143 47.0509 14.4073C47.849 14.6003 49.195 14.9433 50.0883 15.1792C50.9817 15.415 51.9704 15.6556 52.3063 15.7223C52.8025 15.8024 53.3045 15.8407 53.8071 15.8367C54.2433 15.8494 54.6796 15.8134 55.1079 15.7295C55.3653 15.6586 55.6163 15.5661 55.8583 15.4531C56.2821 15.2526 56.6201 14.9069 56.8112 14.4788C56.8885 14.2819 56.9312 14.0732 56.9375 13.8617C56.9431 13.7675 56.93 13.6731 56.8989 13.584C56.8678 13.4948 56.8194 13.4127 56.7564 13.3424C56.6358 13.2067 56.4812 13.1055 56.3086 13.0494C56.0558 12.9944 55.7942 12.9944 55.5415 13.0494C55.1365 13.1161 54.9983 13.1089 54.8077 13.0232C54.6385 12.9404 54.5061 12.7978 54.4361 12.6229C54.3646 12.4815 54.3163 12.3295 54.2931 12.1727C54.3088 12.0023 54.3415 11.8339 54.3908 11.67C54.482 11.407 54.6236 11.1642 54.8077 10.9553C54.951 10.784 55.1188 10.6347 55.3056 10.5122C55.4599 10.4451 55.6192 10.3902 55.7821 10.3478C55.9392 10.314 56.0984 10.2901 56.2585 10.2764C56.4508 10.2868 56.6415 10.3163 56.8279 10.3645C57.0742 10.4312 57.3135 10.5214 57.5426 10.6337C57.7872 10.768 58.013 10.9338 58.2144 11.1269C58.4158 11.3421 58.5887 11.5823 58.729 11.8415C58.8815 12.1941 58.9029 12.3275 58.9029 12.9469Z" fill="#F6D73B"/>
<path fill-rule="evenodd" clip-rule="evenodd" d="M44.8542 30.2143L44.2229 30.8433C43.9108 31.1952 43.5359 31.4861 43.1175 31.7009C42.8524 31.8257 42.5775 31.9285 42.2956 32.0082C41.9701 32.0648 41.6392 32.084 41.3093 32.0654C40.9096 32.081 40.5135 31.9844 40.1658 31.7867C39.8796 31.6738 39.6363 31.4738 39.4702 31.2149C39.3344 30.9767 39.251 30.7218 39.0985 29.726L38.5982 30.2024C38.3195 30.4407 37.8835 30.8218 37.5977 31.0148C37.2933 31.2331 36.9749 31.4312 36.6447 31.608C36.3518 31.7527 36.0474 31.873 35.7347 31.9677C35.4184 32.0475 35.0936 32.0883 34.7675 32.0892C34.4665 32.082 34.1672 32.0437 33.8741 31.9749C33.6177 31.8896 33.3765 31.7641 33.1594 31.6032C32.9741 31.467 32.8019 31.3139 32.6448 31.1458C32.5273 31.003 32.4265 30.8471 32.3447 30.6813C32.2358 30.4512 32.1473 30.2121 32.0802 29.9666C31.9659 29.5878 31.9444 29.0303 31.9158 24.9066C31.873 20.3802 31.873 20.2682 31.73 20.1681C31.6491 20.1109 31.5547 20.0756 31.4561 20.0657C31.3576 20.0763 31.2617 20.1037 31.1726 20.1467C31.048 20.2157 30.934 20.3024 30.8343 20.404C30.6794 20.5588 30.6413 20.5684 30.4912 20.4826C30.452 20.4622 30.4176 20.4335 30.3905 20.3985C30.3633 20.3636 30.3441 20.3232 30.334 20.2801C30.5069 20.0246 30.7083 19.7896 30.9343 19.5797C31.256 19.2369 31.6359 18.9538 32.0564 18.7435C32.3647 18.5962 32.6894 18.4859 33.0236 18.4148C33.2618 18.3814 33.5168 18.3528 33.593 18.3433C33.6692 18.3338 33.9384 18.3719 34.179 18.4076C34.4504 18.4556 34.7151 18.5356 34.9676 18.6458C35.1648 18.7446 35.3456 18.8731 35.5036 19.027C35.6328 19.1693 35.7404 19.3299 35.8228 19.5035C35.9467 19.7703 35.9539 20.161 35.9872 24.5945C36.0253 29.3281 36.0253 29.3996 36.173 29.5973C36.2621 29.7122 36.372 29.8092 36.497 29.8832C36.6299 29.9423 36.7733 29.9739 36.9187 29.9761C37.1671 29.9418 37.4084 29.8678 37.6334 29.7569C37.9479 29.6045 38.2695 29.3686 39.1295 28.5086V24.4944C39.1295 21.9692 39.1033 20.404 39.0604 20.2896C39.0396 20.2373 39.0075 20.1903 38.9663 20.152C38.9251 20.1137 38.8758 20.085 38.8222 20.0681C38.7152 20.0466 38.6051 20.0466 38.4982 20.0681C38.3492 20.1295 38.2121 20.2166 38.0932 20.3254C37.8549 20.5255 37.8359 20.5302 37.4857 20.3254L37.6906 20.0585C37.8884 19.817 38.1033 19.5901 38.3338 19.3796C38.6172 19.1132 38.9383 18.89 39.2867 18.7173C39.6229 18.5616 39.9788 18.4526 40.3445 18.3933C40.9477 18.3013 41.5646 18.3754 42.1288 18.6077C42.3139 18.7107 42.4865 18.8346 42.6434 18.977C42.7996 19.1261 42.9279 19.302 43.0222 19.4963C43.1604 19.7989 43.1651 20.0061 43.2032 24.9756C43.2295 29.4234 43.2533 30.1453 43.3462 30.2501C43.397 30.2938 43.4561 30.3266 43.52 30.3467C43.5839 30.3668 43.6512 30.3736 43.7178 30.3668C43.9251 30.3668 44.0513 30.3096 44.5278 29.8665L44.8542 30.2143Z" fill="#F6D73B"/>
<path fill-rule="evenodd" clip-rule="evenodd" d="M58.1523 27.0315C58.0414 28.035 57.8012 29.0199 57.4376 29.9617C57.2564 30.4085 57.0372 30.8389 56.7825 31.2482C56.5437 31.607 56.276 31.9456 55.982 32.2606C55.6996 32.5294 55.3978 32.7771 55.0791 33.0015C54.7864 33.194 54.4807 33.3659 54.1643 33.5161C53.8399 33.6542 53.5054 33.7673 53.1637 33.8544C52.8694 33.9295 52.5711 33.9883 52.2704 34.0307C52.1508 34.0611 52.0255 34.0611 51.9059 34.0307C51.8916 33.995 51.863 33.8663 51.8368 33.7472C51.7987 33.5614 51.8201 33.509 51.913 33.4661C52.0059 33.4232 52.1512 33.3732 52.3204 33.3089C52.4939 33.2204 52.6543 33.1081 52.7968 32.9753C52.9464 32.8213 53.0804 32.6529 53.1971 32.4727C53.3354 32.2332 53.4525 31.9821 53.5473 31.7222C53.6758 31.3607 53.7785 30.9905 53.8546 30.6145C53.9261 30.2643 54.0285 29.5853 54.0928 29.1136C54.1524 28.5704 54.1857 27.3555 54.1857 25.7903C54.1857 23.6938 54.1643 23.215 54.0499 22.6075C53.9825 22.2274 53.8886 21.8525 53.7688 21.4854C53.6848 21.2717 53.5717 21.0705 53.4329 20.8875C53.3245 20.7514 53.1845 20.6438 53.0251 20.5741C52.8657 20.5043 52.6917 20.4745 52.5181 20.4873C52.2654 20.4771 52.018 20.5621 51.8249 20.7255C51.6033 20.878 51.3484 21.1472 50.7886 21.9643V26.3263C50.7886 28.7253 50.7504 30.8289 50.7171 31.0076C50.6811 31.1839 50.6159 31.353 50.5241 31.5078C50.3818 31.6547 50.2149 31.7757 50.031 31.8652C49.7094 32.0296 49.5998 32.0439 48.7517 32.0439C47.9798 32.0439 47.7773 32.0224 47.5605 31.9081C47.3979 31.817 47.2447 31.7101 47.1031 31.5888C46.9917 31.4806 46.8963 31.3571 46.8196 31.222C46.7601 31.0909 46.7315 29.4757 46.6672 20.1561L46.4909 19.9703C46.429 19.9001 46.3507 19.8464 46.263 19.8139C46.1752 19.7815 46.0808 19.7714 45.9882 19.7845C45.7201 19.8012 45.4627 19.8956 45.2473 20.0561L45.1044 19.8774C45.0186 19.7678 44.99 19.6749 45.0329 19.6392L45.6761 19.2175C46.0342 18.9858 46.418 18.7964 46.8196 18.6529C47.1243 18.5551 47.4346 18.4756 47.7487 18.4146C48.0508 18.3799 48.3554 18.3727 48.6588 18.3932C48.976 18.3991 49.2894 18.4638 49.5831 18.5838C49.8294 18.6944 50.0488 18.8569 50.2263 19.0602C50.3928 19.2629 50.5233 19.4925 50.6123 19.7392C50.6694 19.9436 50.703 20.1538 50.7123 20.3658C50.7026 20.4685 50.7199 20.5719 50.7624 20.6659C50.7981 20.6826 50.9768 20.5111 51.1673 20.2895C51.424 19.998 51.6993 19.7234 51.9916 19.4676C52.3128 19.1967 52.6627 18.9619 53.0351 18.7672C53.3552 18.6135 53.6906 18.4937 54.0357 18.4099C54.3311 18.3637 54.6311 18.3533 54.929 18.3789C55.2214 18.4154 55.5095 18.4809 55.789 18.5743C56.0271 18.6627 56.2548 18.7769 56.468 18.9149C56.6716 19.0771 56.8555 19.2626 57.0159 19.4676C57.2005 19.7199 57.3601 19.9896 57.4924 20.2728C57.6186 20.552 57.726 20.8394 57.814 21.1329C57.9108 21.4733 57.9903 21.8184 58.0522 22.1668C58.1586 22.9492 58.2096 23.7381 58.2047 24.5277C58.2379 25.3626 58.2204 26.1987 58.1523 27.0315Z" fill="#F6D73B"/>
<path fill-rule="evenodd" clip-rule="evenodd" d="M98.5158 30.1831C98.3789 30.3225 98.196 30.4072 98.0012 30.4213C97.878 30.4227 97.7574 30.3861 97.6558 30.3165C97.601 30.257 97.5843 30.2355 97.5414 30.1855C97.3651 29.9711 97.4985 28.2129 97.4795 25.8116C97.4413 21.9379 97.4199 21.4067 97.3127 21.0946C97.2238 20.8604 97.117 20.6335 96.9935 20.4156C96.8256 20.1561 96.629 19.9164 96.4074 19.7009C96.1132 19.4166 95.7744 19.1825 95.4045 19.0077C95.0619 18.8421 94.7056 18.7066 94.3396 18.6027C94.0823 18.5479 93.6034 18.4597 93.2675 18.4169C92.9316 18.374 92.5028 18.3525 92.3027 18.3525C92.1026 18.3525 91.6881 18.3954 91.3712 18.4312C91.0063 18.4691 90.6448 18.5344 90.2896 18.6265C89.9321 18.7303 89.5851 18.8674 89.2533 19.0363C88.932 19.2005 88.6352 19.409 88.3719 19.6557C88.1628 19.8655 87.9876 20.1067 87.8525 20.3704C87.7463 20.6209 87.678 20.8859 87.65 21.1565C87.6137 21.445 87.638 21.738 87.7215 22.0165C87.794 22.2889 87.9398 22.5361 88.1432 22.7312C88.3182 22.9265 88.5469 23.0657 88.8007 23.1315C89.0212 23.1941 89.2521 23.212 89.4796 23.1839C89.696 23.1512 89.9021 23.0697 90.0824 22.9456C90.2597 22.8359 90.4042 22.6804 90.5006 22.4956C90.597 22.3107 90.6418 22.1032 90.6303 21.895C90.6456 21.7066 90.5988 21.5183 90.4969 21.359C90.3101 21.1852 90.0981 21.0406 89.868 20.9302C89.594 20.7944 89.4511 20.7801 89.3915 20.5872C89.3811 20.5255 89.3841 20.4624 89.4001 20.402C89.4161 20.3416 89.4449 20.2853 89.4844 20.237C89.6679 20.0485 89.8812 19.8916 90.1157 19.7724C90.5588 19.5342 90.7518 19.5127 91.3926 19.5127C92.0335 19.5127 92.1955 19.558 92.4385 19.6938C92.6165 19.7849 92.7776 19.9058 92.9149 20.0511C93.0572 20.2078 93.176 20.3844 93.2675 20.5752C93.3813 20.8222 93.4491 21.0878 93.4676 21.359C93.4874 21.6419 93.46 21.9261 93.3866 22.2C93.3092 22.4517 93.1987 22.6921 93.0579 22.9147C92.9216 23.0945 92.7613 23.2549 92.5814 23.3911C92.0379 23.6573 91.4813 23.8958 90.9138 24.1058C90.1515 24.406 89.2771 24.7776 88.9841 24.942C88.6601 25.1181 88.3495 25.318 88.055 25.54C87.8133 25.7337 87.5929 25.9525 87.3975 26.1927C87.227 26.4245 87.0787 26.6718 86.9544 26.9313C86.8326 27.2296 86.7439 27.5403 86.69 27.858C86.6384 28.2257 86.6264 28.5979 86.6542 28.9681C86.6878 29.3063 86.7533 29.6405 86.8496 29.9663C86.944 30.2421 87.0703 30.506 87.226 30.7525C87.3805 30.9815 87.5657 31.1883 87.7763 31.3671C87.9428 31.5044 88.1196 31.6286 88.3052 31.7388C88.5138 31.8292 88.7288 31.904 88.9484 31.9627C89.6317 32.1151 90.3401 32.1151 91.0234 31.9627C91.3436 31.8668 91.6545 31.7425 91.9525 31.5911C92.3493 31.3628 92.7125 31.0806 93.0317 30.7525L93.6106 30.1831C93.7092 30.5434 93.861 30.8871 94.0608 31.2027C94.214 31.4066 94.4029 31.5809 94.6183 31.7173C94.812 31.8421 95.021 31.9414 95.2401 32.0127C95.5469 32.064 95.8586 32.0808 96.1692 32.0628C96.5245 32.0628 96.8764 31.9941 97.2055 31.8603C97.4395 31.7564 97.6663 31.637 97.8845 31.5029C98.0721 31.3718 98.2497 31.2269 98.4157 31.0693C98.5515 30.9335 98.7707 30.681 98.9136 30.5166L99.1709 30.2045C98.8016 29.9425 98.8016 29.9425 98.5158 30.1831ZM93.451 26.9646C93.4319 28.6322 93.4248 28.6894 93.2461 29.073C93.1454 29.2872 93.0233 29.4908 92.8816 29.6804C92.7338 29.8322 92.5614 29.9578 92.3718 30.0521C92.201 30.1406 92.0152 30.1964 91.8238 30.2165C91.6818 30.2124 91.5412 30.1867 91.4069 30.1402C91.2773 30.0791 91.1577 29.9988 91.052 29.902C90.9235 29.7615 90.8196 29.6005 90.7447 29.4255C90.6463 29.1836 90.5768 28.9309 90.5374 28.6727C90.4894 28.3414 90.4655 28.007 90.4659 27.6722C90.4702 27.312 90.5085 26.9531 90.5803 26.6001C90.6515 26.2787 90.7644 25.9679 90.9162 25.6758C91.0621 25.4158 91.2478 25.1803 91.4665 24.9778C91.6502 24.823 91.8547 24.6947 92.074 24.5966C92.2526 24.5409 92.4375 24.5081 92.6243 24.4989C92.788 24.5001 92.9498 24.5333 93.1008 24.5966C93.1738 24.6336 93.2377 24.6864 93.288 24.751C93.3382 24.8157 93.3735 24.8907 93.3914 24.9706C93.4654 25.6325 93.4853 26.2994 93.451 26.9646Z" fill="#F6D73B"/>
<path fill-rule="evenodd" clip-rule="evenodd" d="M111.233 20.5635C111.233 21.3568 111.171 22.4002 111.106 22.9958C111.042 23.5914 110.897 24.4252 110.799 24.9231C110.701 25.421 110.513 26.1881 110.382 26.6384C110.251 27.0886 109.999 27.8843 109.813 28.3894C109.627 28.8944 109.303 29.6782 109.098 30.107C108.893 30.5358 108.521 31.2434 108.264 31.6698C108.007 32.0962 107.549 32.7871 107.233 33.2088C106.916 33.6305 106.337 34.3046 105.946 34.7096C105.53 35.1373 105.089 35.539 104.624 35.9127C104.111 36.2689 103.573 36.5874 103.014 36.8656C102.473 37.1387 101.916 37.3774 101.346 37.5803C100.974 37.6994 100.279 37.8734 99.807 37.9734C99.3353 38.0735 98.6158 38.1973 98.1989 38.245C97.201 38.3344 96.1987 38.3654 95.1972 38.3379C94.0037 38.362 92.8099 38.3071 91.6237 38.1735C90.8947 38.0878 89.6416 37.9019 88.8364 37.7661C88.0312 37.6304 86.8424 37.4088 86.192 37.2659C85.5417 37.1229 84.2862 36.8347 83.4024 36.6203C82.5185 36.4058 80.0671 35.7269 77.923 35.1146C75.779 34.5024 73.8064 33.964 73.4896 33.9044C73.0287 33.8388 72.5638 33.8054 72.0983 33.8044C71.692 33.7967 71.2858 33.8206 70.8833 33.8758C70.6261 33.9311 70.3748 34.0109 70.1329 34.1141C69.9181 34.2138 69.7157 34.3386 69.5301 34.4857C69.3634 34.6445 69.2263 34.8316 69.1252 35.0384C69.0261 35.2422 68.9525 35.4574 68.906 35.6792C68.8881 35.7714 68.8886 35.8662 68.9075 35.9582C68.9263 36.0501 68.963 36.1375 69.0156 36.2153C69.1275 36.3615 69.2719 36.4797 69.4372 36.5607C69.6755 36.6655 69.7803 36.6655 70.2734 36.6036C70.7189 36.5393 70.8881 36.5393 71.0239 36.6036C71.1579 36.69 71.2724 36.8036 71.3598 36.9371C71.47 37.0938 71.5276 37.2815 71.5241 37.4731C71.5218 37.6553 71.4953 37.8363 71.4455 38.0115C71.367 38.2068 71.2689 38.3936 71.1525 38.569C71.0165 38.7573 70.8469 38.9188 70.6522 39.0455C70.4189 39.1605 70.1725 39.2469 69.9185 39.3027C69.6478 39.3696 69.3649 39.3696 69.0942 39.3027C68.8106 39.2321 68.5369 39.1265 68.2794 38.9883C68.0159 38.8441 67.7751 38.6619 67.5647 38.4475C67.3851 38.2412 67.2323 38.0131 67.1097 37.7685C67.005 37.528 66.9352 37.2737 66.9024 37.0133C66.8779 36.7387 66.8924 36.462 66.9453 36.1914C67.0277 35.8706 67.1451 35.5598 67.2955 35.2647C67.4761 34.9294 67.6969 34.6174 67.953 34.3356C68.1816 34.0929 68.4329 33.8727 68.7035 33.6781C68.9398 33.5325 69.1885 33.4082 69.4468 33.3065C69.6612 33.2255 70.0352 33.1135 70.2687 33.0539C70.6101 32.9779 70.9563 32.9254 71.305 32.8967C71.7706 32.8741 72.2372 32.886 72.701 32.9324C73.1274 32.9825 73.7588 33.0825 74.0923 33.154C74.4258 33.2255 75.2525 33.4542 75.9171 33.6567C76.5818 33.8592 77.7396 34.1974 78.49 34.4071C79.2405 34.6167 80.5579 34.9693 81.4227 35.1837C82.2874 35.3981 83.5667 35.6864 84.2457 35.8365C84.9247 35.9866 86.1396 36.201 86.9282 36.3344C87.7167 36.4678 88.9055 36.6441 89.5725 36.7227C90.2396 36.8013 91.1449 36.9014 91.5713 36.9419C91.9977 36.9824 93.0007 37.0348 93.7892 37.0562C94.6493 37.0848 95.6951 37.0729 96.4098 37.0229C97.0578 36.9728 97.9107 36.8871 98.3037 36.8275C98.6968 36.768 99.3019 36.6584 99.6616 36.5893C100.021 36.5202 100.576 36.3653 100.912 36.2677C101.413 36.0983 101.903 35.9002 102.38 35.6745C102.873 35.4312 103.351 35.1566 103.809 34.8526C104.121 34.6143 104.503 34.3237 104.653 34.1808C104.761 34.0812 104.85 33.9625 104.915 33.8306C104.915 33.7805 104.75 33.1778 104.56 32.506C104.369 31.8342 103.936 30.4691 103.628 29.4828C103.321 28.4966 102.856 27.1172 102.599 26.4097C102.342 25.7021 101.958 24.6563 101.734 24.0845C101.51 23.5128 101.141 22.6551 100.92 22.1787C100.678 21.6775 100.411 21.1893 100.119 20.7159C99.9502 20.432 99.7407 20.1744 99.4973 19.9512C99.3569 19.8531 99.1918 19.7962 99.0208 19.7868C98.7924 19.8059 98.577 19.9006 98.4085 20.056L98.0846 19.6844L98.3013 19.5152C98.4228 19.4152 98.7087 19.2079 98.9446 19.0388C99.2145 18.8679 99.502 18.7265 99.8022 18.6171C100.083 18.5304 100.368 18.4611 100.657 18.4098C100.896 18.3765 101.217 18.3479 101.372 18.3384C101.6 18.3422 101.827 18.3637 102.051 18.4027C102.332 18.4681 102.605 18.5598 102.868 18.6767C103.148 18.8147 103.402 19.0001 103.619 19.2246C103.853 19.492 104.064 19.7798 104.248 20.0846C104.412 20.3633 104.662 20.8398 104.805 21.1567C104.948 21.4735 105.248 22.1763 105.463 22.729C105.677 23.2817 106.032 24.2465 106.246 24.8731C106.461 25.4996 106.878 26.8004 107.171 27.7652C107.464 28.73 107.721 29.5329 107.735 29.5543C107.75 29.5758 107.857 29.3971 107.954 29.1612C108.052 28.9254 108.257 28.4465 108.393 28.0892C108.529 27.7318 108.729 27.1244 108.843 26.7313C108.957 26.3382 109.115 25.695 109.193 25.3019C109.272 24.9088 109.372 24.3013 109.417 23.944C109.462 23.5866 109.486 22.8648 109.486 22.3359C109.49 21.8693 109.464 21.403 109.408 20.9399C109.329 20.5701 109.23 20.205 109.11 19.8464C108.999 19.5699 108.941 19.2748 108.941 18.9768C108.986 18.8271 109.089 18.7013 109.227 18.6266C109.444 18.5188 109.677 18.4449 109.918 18.4075C110.332 18.3265 110.411 18.336 110.668 18.4575C110.855 18.5459 111.007 18.6944 111.099 18.8792C111.225 19.1412 111.254 19.3056 111.233 20.5635Z" fill="#F6D73B"/>
<path d="M87.681 13.0541V13.3329C87.6644 13.8456 87.6022 14.3558 87.4952 14.8576C87.3809 15.5032 87.2165 16.2321 87.0187 17.0445C86.821 17.8569 86.5804 18.7121 86.3041 19.646C86.0277 20.5799 85.7609 21.5114 85.4702 22.4571C85.1796 23.4029 84.8985 24.3153 84.6078 25.2182C84.3172 26.1211 84.0385 26.9549 83.7717 27.7244C83.5048 28.4939 83.2833 29.1538 83.0832 29.7399C82.883 30.3259 82.7377 30.7428 82.6305 31.0263C82.5737 31.2153 82.4733 31.3882 82.3375 31.5314C82.2248 31.6542 82.0854 31.7495 81.9301 31.8101C81.7696 31.8821 81.598 31.9264 81.4227 31.9411C81.2375 31.9598 81.0514 31.9686 80.8652 31.9673C80.5702 31.9755 80.2756 31.9402 79.9909 31.8625C79.7997 31.8049 79.62 31.7147 79.4597 31.5957C79.3384 31.5044 79.2391 31.3872 79.169 31.2526C79.1134 31.1447 79.0648 31.0333 79.0237 30.9191L76.3793 22.2451C76.0887 23.198 75.7933 24.151 75.4931 25.1039C75.1929 26.0568 74.9023 26.8906 74.6307 27.6768C74.3591 28.4629 74.1257 29.1538 73.916 29.747C73.7064 30.3402 73.542 30.7595 73.4229 31.0335C73.3514 31.2244 73.2383 31.3969 73.0917 31.5385C72.9725 31.6602 72.8287 31.7552 72.6701 31.8172C72.5141 31.8881 72.3475 31.9323 72.1769 31.9483C71.9965 31.9667 71.8152 31.9755 71.6338 31.9745C71.3388 31.9827 71.0442 31.9474 70.7594 31.8697C70.5671 31.8131 70.3864 31.7227 70.2258 31.6028C70.1034 31.5059 70 31.3872 69.9209 31.2526C69.8652 31.1447 69.8167 31.0333 69.7756 30.9191L65.0514 15.1339C64.9801 14.8738 64.8827 14.6216 64.7608 14.3811C64.6757 14.1833 64.5489 14.0061 64.3891 13.8617C64.2383 13.7232 64.0559 13.6235 63.8579 13.5711C63.612 13.5036 63.3576 13.4723 63.1027 13.4782C62.8064 13.4881 62.5144 13.5511 62.2403 13.664C61.8946 13.7853 61.5723 13.965 61.2874 14.1953C60.9865 14.4364 60.735 14.7333 60.5465 15.0696C60.3365 15.4359 60.231 15.8529 60.2415 16.275C60.2324 16.5054 60.2689 16.7353 60.3487 16.9516C60.4098 17.0963 60.4989 17.2274 60.6108 17.3375C60.6973 17.4091 60.7968 17.4633 60.9038 17.4972C60.9784 17.5116 61.0542 17.5195 61.1301 17.521C61.3176 17.5283 61.5043 17.4924 61.6757 17.4162C61.8139 17.3375 61.9449 17.2589 62.0592 17.1779L62.3761 16.9397C62.4796 16.8614 62.6061 16.8195 62.7358 16.8206C62.8506 16.8227 62.9635 16.8495 63.067 16.8992C63.1956 16.9496 63.3094 17.0315 63.3981 17.1374C63.5143 17.2592 63.6044 17.4035 63.6625 17.5615C63.739 17.7604 63.7746 17.9727 63.7674 18.1856C63.7773 18.5035 63.7051 18.8186 63.5577 19.1005C63.4289 19.3526 63.2478 19.5743 63.0265 19.7508C62.8044 19.9232 62.5524 20.0533 62.2832 20.1344C62.0164 20.2134 61.7395 20.2535 61.4613 20.2535C61.0694 20.2601 60.6805 20.1838 60.3201 20.0296C60.0032 19.8858 59.7193 19.6782 59.4863 19.4197C59.2597 19.1573 59.0836 18.8552 58.967 18.5287C58.8499 18.1736 58.7912 17.8019 58.7931 17.4281C58.7718 16.6336 58.9377 15.8453 59.2775 15.1268C59.6172 14.4083 60.1213 13.7799 60.749 13.2924C61.3402 12.8279 62.0145 12.4802 62.7358 12.268C63.4814 12.039 64.2572 11.9234 65.0371 11.9249C65.7832 11.8966 66.5259 12.0375 67.2098 12.3371C67.738 12.5727 68.2056 12.9255 68.5772 13.3686C68.9334 13.7949 69.2152 14.2781 69.4111 14.798C69.6159 15.3221 69.7978 15.8399 69.9566 16.3513L73.2728 27.1074C73.4681 26.5857 73.6683 26.0258 73.8827 25.4231C74.0971 24.8204 74.302 24.2034 74.5068 23.5673C74.7117 22.9312 74.9047 22.2713 75.0905 21.6162C75.2763 20.961 75.4574 20.3035 75.6075 19.6651L74.321 15.4484C74.2321 15.2037 74.2364 14.9349 74.3329 14.6932C74.4403 14.4675 74.6118 14.2786 74.8261 14.15C75.0633 13.9909 75.3284 13.8777 75.6075 13.8165C75.925 13.7461 76.2494 13.7109 76.5747 13.7117C76.8369 13.7092 77.0989 13.7267 77.3585 13.7641C77.5646 13.7832 77.766 13.8371 77.954 13.9237C78.1213 14.0039 78.2667 14.1232 78.3781 14.2715C78.5056 14.4379 78.6002 14.6271 78.6568 14.829L82.4685 27.0884C82.6734 26.538 82.8854 25.9472 83.1046 25.3111C83.3238 24.6751 83.5453 24.0175 83.755 23.3457C83.9646 22.6739 84.1719 21.9926 84.3672 21.3041C84.5626 20.6156 84.7293 19.9366 84.8699 19.2744C85.0105 18.6121 85.1367 17.9784 85.213 17.3685C85.2983 16.8167 85.3428 16.2593 85.3464 15.7009C85.3537 15.2123 85.3146 14.7241 85.2296 14.2429C85.1666 13.9126 85.0733 13.5889 84.9509 13.2757C84.8508 13.0089 84.7627 12.7992 84.6841 12.6229C84.609 12.4751 84.5683 12.3122 84.565 12.1465C84.5576 11.9794 84.609 11.815 84.7103 11.6819C84.8104 11.5472 84.9379 11.4352 85.0843 11.3532C85.2344 11.262 85.3999 11.1991 85.5727 11.1673C85.7365 11.1223 85.9055 11.0991 86.0753 11.0983C86.3843 11.0885 86.6919 11.1437 86.9782 11.2603C87.0981 11.3089 87.2061 11.3825 87.2953 11.4761C87.3844 11.5698 87.4526 11.6814 87.4952 11.8034C87.5435 11.9411 87.5786 12.0831 87.6 12.2275C87.629 12.3672 87.6473 12.509 87.6548 12.6515C87.6722 12.785 87.681 12.9195 87.681 13.0541Z" fill="#F6D73B"/>
<path d="M21.6434 39.7031C21.5089 39.7036 21.3753 39.6819 21.2479 39.6387C21.1352 39.6041 21.0301 39.5483 20.9382 39.4744L21.0764 39.2361C21.1557 39.3017 21.246 39.3526 21.3432 39.3862C21.4391 39.4228 21.5408 39.4414 21.6434 39.441C21.7454 39.4473 21.8472 39.4242 21.9364 39.3743C21.9691 39.3546 21.9961 39.3266 22.0145 39.2931C22.0329 39.2596 22.0421 39.2219 22.0412 39.1837C22.0431 39.1496 22.0357 39.1156 22.0198 39.0854C22.0038 39.0552 21.98 39.0299 21.9507 39.0122C21.8451 38.9575 21.7319 38.919 21.6148 38.8978C21.4432 38.8685 21.2804 38.8009 21.1383 38.7001C21.0894 38.6578 21.0508 38.6049 21.0252 38.5455C20.9996 38.4861 20.9878 38.4217 20.9906 38.3571C20.9891 38.2589 21.0192 38.1629 21.0764 38.0831C21.138 38.0006 21.2201 37.9357 21.3146 37.8949C21.4235 37.8473 21.5413 37.8238 21.6601 37.8258C21.7829 37.8251 21.9051 37.8436 22.0222 37.8806C22.1295 37.9139 22.2291 37.9681 22.3152 38.0402L22.1889 38.2927C22.1442 38.2514 22.0937 38.2169 22.0389 38.1903C21.9811 38.1609 21.9204 38.1378 21.8578 38.1212C21.7939 38.1052 21.7283 38.0972 21.6625 38.0974C21.5707 38.0931 21.4797 38.1155 21.4004 38.1617C21.3689 38.1802 21.3428 38.2067 21.3248 38.2385C21.3068 38.2703 21.2976 38.3062 21.298 38.3428C21.2961 38.3786 21.3045 38.4143 21.3222 38.4455C21.34 38.4768 21.3663 38.5023 21.398 38.5191C21.5018 38.5692 21.6114 38.606 21.7244 38.6286C21.8965 38.6563 22.0597 38.724 22.2009 38.8264C22.249 38.8682 22.287 38.9204 22.3121 38.9789C22.3373 39.0375 22.3489 39.101 22.3462 39.1647C22.3486 39.2688 22.3168 39.3709 22.2557 39.4553C22.1957 39.5399 22.1131 39.606 22.0174 39.6459C21.898 39.6903 21.7707 39.7098 21.6434 39.7031Z" fill="#F6D73B"/>
<path d="M23.368 37.5515C23.3073 37.5526 23.2485 37.5304 23.2036 37.4896C23.1818 37.4693 23.1645 37.4445 23.153 37.417C23.1415 37.3895 23.136 37.3598 23.1369 37.33C23.1357 37.3001 23.141 37.2704 23.1526 37.2428C23.1641 37.2152 23.1815 37.1905 23.2036 37.1704C23.2485 37.1295 23.3073 37.1074 23.368 37.1084C23.4278 37.108 23.4857 37.1301 23.53 37.1704C23.552 37.1905 23.5695 37.2152 23.581 37.2428C23.5925 37.2704 23.5979 37.3001 23.5967 37.33C23.5975 37.3598 23.5921 37.3895 23.5805 37.417C23.569 37.4445 23.5518 37.4693 23.53 37.4896C23.4857 37.5299 23.4278 37.552 23.368 37.5515ZM23.2012 39.6504V37.8851H23.5323V39.6504H23.2012Z" fill="#F6D73B"/>
<path d="M24.4854 39.6505V37.8852H24.8165V38.1234C24.8841 38.0275 24.9751 37.9504 25.0809 37.8995C25.1945 37.8499 25.3178 37.8268 25.4416 37.8317C25.5654 37.8367 25.6864 37.8696 25.7956 37.9281C25.8952 37.9844 25.9776 38.0667 26.0339 38.1663C26.0848 38.2608 26.1118 38.3663 26.1125 38.4736V39.6434H25.7813V38.5761C25.7836 38.5169 25.7738 38.4578 25.7525 38.4025C25.7312 38.3472 25.6989 38.2968 25.6574 38.2545C25.5649 38.1714 25.4435 38.1278 25.3192 38.133C25.2311 38.1317 25.1441 38.153 25.0666 38.1949C24.9936 38.2366 24.9334 38.2976 24.8927 38.3712C24.8475 38.451 24.8245 38.5415 24.826 38.6333V39.6434L24.4854 39.6505Z" fill="#F6D73B"/>
<path d="M27.8372 39.7024C27.6643 39.7055 27.4936 39.6636 27.3417 39.5809C27.2014 39.5016 27.0847 39.3865 27.0034 39.2474C26.9219 39.1019 26.88 38.9376 26.8819 38.7709C26.8801 38.6424 26.9053 38.515 26.9558 38.3969C27.0024 38.285 27.0722 38.1843 27.1607 38.1015C27.2497 38.0151 27.3561 37.9485 27.4727 37.9061C27.5974 37.8584 27.73 37.8349 27.8634 37.837C27.9714 37.8359 28.0789 37.8504 28.1827 37.8799C28.2808 37.9103 28.3728 37.9579 28.4543 38.0205L28.2851 38.2778C28.2293 38.2298 28.1645 38.1933 28.0945 38.1706C28.0177 38.1453 27.9372 38.1332 27.8563 38.1348C27.7375 38.1325 27.6199 38.1586 27.5132 38.2111C27.4186 38.2593 27.3406 38.3348 27.2893 38.4279C27.2341 38.5327 27.207 38.6501 27.2107 38.7685C27.2044 38.8557 27.2167 38.9433 27.2466 39.0254C27.2766 39.1075 27.3236 39.1823 27.3846 39.245C27.4481 39.3046 27.5232 39.3505 27.6051 39.38C27.687 39.4095 27.7741 39.4219 27.8611 39.4165C27.9479 39.412 28.0329 39.3901 28.1112 39.3522C28.1837 39.323 28.2494 39.2792 28.3042 39.2236L28.4757 39.4761C28.3827 39.5456 28.28 39.601 28.1708 39.6405C28.064 39.6803 27.9512 39.7013 27.8372 39.7024Z" fill="#F6D73B"/>
<path d="M30.0172 39.703C29.8448 39.7068 29.6743 39.6666 29.5217 39.5862C29.3816 39.5116 29.2658 39.3983 29.1882 39.2599C29.1046 39.1109 29.0627 38.9422 29.0667 38.7715C29.0659 38.6436 29.0894 38.5167 29.1358 38.3975C29.1797 38.2851 29.2462 38.183 29.3311 38.0973C29.4152 38.0138 29.5147 37.9475 29.6241 37.9019C29.8652 37.8068 30.1335 37.8068 30.3746 37.9019C30.4829 37.9496 30.5784 38.0223 30.6533 38.114C30.7283 38.208 30.7827 38.3168 30.8129 38.4332C30.8447 38.5626 30.8511 38.6968 30.832 38.8287H29.4026C29.3965 38.9366 29.4213 39.044 29.474 39.1384C29.5266 39.2274 29.6046 39.2988 29.698 39.3432C29.8064 39.3952 29.9256 39.4205 30.0458 39.4171C30.1437 39.4178 30.2411 39.4025 30.3341 39.3718C30.4211 39.3403 30.5017 39.2935 30.5723 39.2336L30.7128 39.4719C30.651 39.5217 30.5819 39.5619 30.508 39.591C30.4313 39.6242 30.3515 39.6497 30.2697 39.6672C30.1869 39.6874 30.1023 39.6993 30.0172 39.703ZM29.4145 38.5761H30.4937C30.4946 38.5119 30.4829 38.4481 30.4592 38.3885C30.4355 38.3288 30.4003 38.2744 30.3555 38.2283C30.251 38.1396 30.1159 38.0951 29.9791 38.1044C29.8376 38.0983 29.6984 38.1421 29.586 38.2283C29.5341 38.2712 29.4913 38.3241 29.4602 38.3838C29.4291 38.4436 29.4103 38.509 29.405 38.5761H29.4145Z" fill="#F6D73B"/>
<path d="M32.783 39.6505V39.4003L33.2022 39.0168C33.3333 38.8953 33.4405 38.7929 33.5191 38.7095C33.5868 38.6387 33.6438 38.5585 33.6882 38.4712C33.7225 38.4084 33.7406 38.338 33.7407 38.2664C33.7438 38.2214 33.7361 38.1763 33.7183 38.1349C33.7004 38.0934 33.673 38.0568 33.6382 38.0281C33.5563 37.9682 33.456 37.9387 33.3547 37.9448C33.2731 37.9461 33.1924 37.9622 33.1165 37.9924C33.0392 38.0223 32.9692 38.0686 32.9116 38.1282L32.783 37.8638C32.8658 37.7898 32.962 37.7324 33.0665 37.6946C33.1743 37.6564 33.2879 37.6371 33.4024 37.6374C33.5268 37.6345 33.6504 37.6589 33.7645 37.7089C33.8616 37.7546 33.944 37.8263 34.0027 37.9162C34.0613 38.0078 34.0911 38.1148 34.0885 38.2235C34.0874 38.3051 34.0712 38.3859 34.0408 38.4617C33.9983 38.558 33.9413 38.6472 33.8717 38.7262C33.7632 38.8516 33.6479 38.9709 33.5262 39.0835L33.2618 39.3217H34.1385V39.6267L32.783 39.6505Z" fill="#F6D73B"/>
<path d="M35.5275 39.691C35.4109 39.6936 35.2954 39.6676 35.1912 39.6152C35.087 39.5629 34.9971 39.4859 34.9295 39.3909C34.8576 39.2931 34.8036 39.1834 34.7699 39.0669C34.733 38.9383 34.7146 38.8052 34.7151 38.6714C34.7144 38.5384 34.7329 38.4061 34.7699 38.2783C34.8036 38.161 34.8576 38.0505 34.9295 37.952C34.9968 37.8606 35.084 37.7856 35.1844 37.7328C35.291 37.6811 35.4079 37.6543 35.5263 37.6543C35.6447 37.6543 35.7616 37.6811 35.8681 37.7328C35.9686 37.7856 36.0558 37.8606 36.1231 37.952C36.195 38.0505 36.249 38.161 36.2827 38.2783C36.3197 38.4061 36.3381 38.5384 36.3375 38.6714C36.338 38.8052 36.3195 38.9383 36.2827 39.0669C36.249 39.1834 36.1949 39.2931 36.1231 39.3909C36.0557 39.4856 35.9662 39.5624 35.8624 39.6147C35.7586 39.667 35.6437 39.6932 35.5275 39.691ZM35.5275 39.3742C35.5934 39.3757 35.6584 39.3593 35.7157 39.3265C35.7746 39.2929 35.8244 39.2455 35.861 39.1884C35.9045 39.1213 35.936 39.0471 35.9539 38.9692C35.9781 38.8718 35.9893 38.7717 35.9873 38.6714C35.9901 38.5436 35.9707 38.4162 35.9301 38.295C35.8996 38.2019 35.8435 38.1193 35.7681 38.0568C35.708 38.0095 35.6353 37.9809 35.559 37.9746C35.4828 37.9682 35.4064 37.9844 35.3393 38.021C35.2799 38.054 35.2299 38.1016 35.1939 38.1592C35.1486 38.2256 35.1163 38.3 35.0987 38.3784C35.0758 38.4752 35.0646 38.5743 35.0653 38.6738C35.0618 38.8026 35.082 38.931 35.1249 39.0526C35.1551 39.1452 35.2103 39.2276 35.2845 39.2908C35.3534 39.3459 35.4393 39.3754 35.5275 39.3742Z" fill="#F6D73B"/>
<path d="M36.8735 39.6505V39.4004L37.2952 39.0168C37.4254 38.8961 37.5303 38.7937 37.6097 38.7095C37.6772 38.6381 37.7348 38.558 37.7812 38.4713C37.8155 38.4084 37.8335 38.338 37.8336 38.2664C37.8367 38.2214 37.829 38.1763 37.8112 38.1349C37.7934 38.0935 37.766 38.0569 37.7312 38.0282C37.6493 37.9682 37.549 37.9387 37.4477 37.9448C37.366 37.9461 37.2853 37.9623 37.2094 37.9924C37.1321 38.0223 37.0622 38.0686 37.0046 38.1282L36.8759 37.8638C36.9588 37.7899 37.055 37.7325 37.1594 37.6946C37.2665 37.6566 37.3793 37.6373 37.4929 37.6375C37.6174 37.6343 37.7411 37.6588 37.855 37.7089C37.9523 37.7543 38.0349 37.8261 38.0933 37.9162C38.1519 38.0078 38.1817 38.1148 38.179 38.2235C38.1779 38.3052 38.1618 38.3859 38.1314 38.4618C38.0889 38.558 38.0319 38.6472 37.9623 38.7262C37.8532 38.851 37.7379 38.9703 37.6168 39.0835L37.3524 39.3218H38.2291V39.6267L36.8735 39.6505Z" fill="#F6D73B"/>
<path d="M39.4061 39.6908C39.2866 39.6918 39.1676 39.6741 39.0535 39.6384C38.9532 39.6103 38.8599 39.5616 38.7795 39.4954L38.8891 39.2072C38.9583 39.2667 39.0396 39.3106 39.1274 39.3358C39.2138 39.3662 39.3049 39.3816 39.3966 39.3811C39.4716 39.3823 39.5461 39.3686 39.6157 39.3406C39.6743 39.3152 39.7246 39.2739 39.7611 39.2215C39.7956 39.164 39.813 39.0979 39.8111 39.0309C39.8119 38.9685 39.7927 38.9076 39.7563 38.857C39.7188 38.8072 39.6686 38.7685 39.611 38.745C39.5428 38.718 39.4699 38.705 39.3966 38.7069C39.3421 38.7067 39.2878 38.7122 39.2346 38.7236C39.1754 38.7386 39.1173 38.7577 39.0607 38.7807L38.913 38.6187L39.0154 37.6968H40.1065V38.0112H39.2679L39.2131 38.4663C39.256 38.4521 39.2997 38.4409 39.3441 38.4329C39.3878 38.4306 39.4315 38.4306 39.4752 38.4329C39.596 38.4304 39.7158 38.4556 39.8254 38.5068C39.9237 38.5539 40.0064 38.6284 40.0636 38.7212C40.1252 38.8212 40.1559 38.9373 40.1518 39.0547C40.1554 39.1734 40.1239 39.2906 40.0611 39.3915C39.9984 39.4923 39.9073 39.5724 39.7992 39.6217C39.6751 39.6743 39.5407 39.6979 39.4061 39.6908Z" fill="#F6D73B"/>
</svg>
