<svg width="52" height="52" viewBox="0 0 52 52" fill="none" xmlns="http://www.w3.org/2000/svg">
<path d="M22.8454 0.194735C23.2693 0.148915 23.8879 0.0859125 24.2201 0.057275C24.5523 0.034365 25.2855 0.0057275 25.8525 0C26.4196 0 27.2329 0.02291 27.6568 0.0515475C28.0806 0.0859125 28.768 0.148915 29.1746 0.200463C29.5813 0.246283 30.2687 0.349378 30.6925 0.429563C31.1164 0.50402 31.8266 0.658663 32.2677 0.767485C32.7087 0.876308 33.4419 1.0825 33.9001 1.23141C34.3583 1.3746 35.0915 1.63807 35.5325 1.80989C35.9736 1.98744 36.7984 2.354 37.3654 2.62892C37.9325 2.89812 38.7458 3.33341 39.1697 3.58542C39.5935 3.84315 40.2007 4.22117 40.5157 4.43309C40.8308 4.645 41.3176 4.99438 41.604 5.2063C41.8904 5.42394 42.3773 5.81342 42.6923 6.07115C43.0073 6.33462 43.6374 6.9131 44.0899 7.35411C44.5424 7.79513 45.1954 8.4767 45.5448 8.8719C45.8884 9.2671 46.4612 9.97158 46.8163 10.447C47.1657 10.9166 47.6068 11.5409 47.7901 11.8216C47.9733 12.1022 48.3056 12.6463 48.5232 13.0243C48.7466 13.4024 49.1246 14.124 49.3709 14.628C49.6115 15.1321 49.9666 15.9282 50.1556 16.4036C50.3447 16.8732 50.5738 17.509 50.6712 17.8068C50.7685 18.1046 50.9232 18.6201 51.0205 18.9523C51.1122 19.2845 51.2497 19.8 51.3127 20.0978C51.3814 20.3956 51.4845 20.9111 51.5475 21.2433C51.6105 21.5755 51.6964 22.1139 51.748 22.4461C51.7938 22.7783 51.8683 23.5515 51.9141 24.1643C51.9599 24.7772 52 25.6019 52 25.9971C52 26.3923 51.9599 27.2171 51.9141 27.8299C51.8683 28.4428 51.7938 29.216 51.748 29.5482C51.6964 29.8804 51.6105 30.4188 51.5475 30.751C51.4845 31.0832 51.3814 31.5986 51.3127 31.8965C51.2497 32.1943 51.1122 32.7098 51.0205 33.042C50.9232 33.3742 50.7685 33.8896 50.6712 34.1875C50.5738 34.4853 50.3447 35.1153 50.1556 35.5907C49.9666 36.0604 49.6115 36.8622 49.3709 37.3662C49.1246 37.8703 48.7466 38.5919 48.5232 38.9699C48.3056 39.3479 47.9733 39.8863 47.7901 40.1727C47.6068 40.4591 47.1657 41.0719 46.8163 41.5473C46.4612 42.017 45.8884 42.7272 45.5448 43.1224C45.1954 43.5176 44.5424 44.1991 44.0899 44.6402C43.6374 45.0812 43.0073 45.6597 42.6923 45.9231C42.3773 46.1809 41.8904 46.5703 41.604 46.788C41.3176 46.9999 40.8308 47.3493 40.5157 47.5612C40.2007 47.7731 39.5935 48.1511 39.1697 48.4089C38.7458 48.6609 37.9325 49.0962 37.3654 49.3653C36.7984 49.6403 35.9736 50.0068 35.5325 50.1844C35.0915 50.3562 34.3583 50.6197 33.9001 50.7629C33.4419 50.9118 32.7087 51.118 32.2677 51.2268C31.8266 51.3356 31.1164 51.4902 30.6925 51.5647C30.2687 51.6449 29.5813 51.748 29.1746 51.7938C28.768 51.8454 28.0806 51.9084 27.6568 51.9427C27.2329 51.9714 26.4826 52 25.9957 52C25.5088 52 24.7585 51.9714 24.3346 51.9427C23.9108 51.9084 23.2234 51.8396 22.8168 51.7938C22.4101 51.7423 21.7342 51.6449 21.3275 51.5704C20.9209 51.496 20.3481 51.3814 20.0674 51.3127C19.7867 51.2497 19.2827 51.118 18.9505 51.0206C18.6183 50.9232 18.1028 50.7686 17.8049 50.6712C17.5071 50.5738 16.877 50.3447 16.4016 50.1557C15.9319 49.9667 15.1415 49.6231 14.6546 49.3883C14.1678 49.1534 13.469 48.7869 13.1081 48.5807C12.7473 48.3688 12.1516 48.0022 11.7907 47.7616C11.4299 47.5268 10.8342 47.1087 10.4733 46.8395C10.1125 46.5703 9.56832 46.1465 9.27047 45.8945C8.97263 45.6482 8.35402 45.0812 7.90153 44.6402C7.44903 44.1991 6.80178 43.529 6.46957 43.1453C6.13736 42.7673 5.59894 42.1086 5.28391 41.6848C4.96315 41.2609 4.52211 40.6481 4.30446 40.3159C4.08107 39.9837 3.71449 39.3938 3.48538 38.9986C3.25626 38.6034 2.93551 38.0134 2.7694 37.6812C2.60329 37.349 2.33981 36.782 2.18516 36.4212C2.02478 36.0604 1.7613 35.4017 1.5952 34.9607C1.43482 34.5197 1.19998 33.8094 1.07397 33.3856C0.947954 32.9618 0.770392 32.2917 0.684474 31.8965C0.592829 31.5013 0.478273 30.9629 0.426722 30.6937C0.375172 30.4245 0.289255 29.8346 0.226249 29.3764C0.163243 28.9182 0.0830534 27.9674 0.0429586 27.2572C-0.0143195 26.2148 -0.0143195 25.7279 0.0429586 24.7084C0.0830534 24.0154 0.163243 23.0761 0.226249 22.6179C0.289255 22.1597 0.375172 21.5698 0.426722 21.3006C0.478273 21.0314 0.592829 20.493 0.684474 20.0978C0.770392 19.7026 0.947954 19.0325 1.07397 18.6087C1.19998 18.1848 1.43482 17.4746 1.5952 17.0336C1.7613 16.5926 2.02478 15.9339 2.18516 15.5731C2.33981 15.2122 2.60329 14.6452 2.7694 14.313C2.93551 13.9808 3.25626 13.3909 3.48538 12.9957C3.71449 12.6005 4.08107 12.0106 4.30446 11.6784C4.52211 11.3462 4.96315 10.7333 5.28391 10.3095C5.59894 9.88567 6.13736 9.22701 6.46957 8.84899C6.80178 8.46525 7.44903 7.79513 7.90153 7.35411C8.35402 6.9131 8.97263 6.34607 9.27047 6.09979C9.56832 5.84778 10.1125 5.42394 10.4733 5.15475C10.8342 4.88556 11.4299 4.46745 11.7907 4.23262C12.1516 3.99207 12.7473 3.62551 13.1081 3.41359C13.469 3.2074 14.1678 2.84084 14.6546 2.60601C15.1415 2.37119 15.9262 2.02754 16.4016 1.83853C16.8713 1.64952 17.5071 1.42042 17.8049 1.32305C18.1028 1.22569 18.6183 1.07104 18.9505 0.973675C19.2827 0.876308 19.7867 0.744575 20.0674 0.681573C20.3481 0.612843 20.9209 0.498293 21.3275 0.423835C21.7342 0.349378 22.4215 0.246283 22.8454 0.194735Z" fill="#680082"/>
<path fill-rule="evenodd" clip-rule="evenodd" d="M24 20.2274C24 20.5471 24 20.5625 23.8526 20.8461C23.7622 21.0374 23.6342 21.2103 23.4756 21.3552C23.3364 21.4973 23.1715 21.6142 22.9889 21.7001C22.8233 21.7754 22.6513 21.8369 22.4747 21.8841C22.2992 21.9228 22.1214 21.9513 21.9423 21.9695C21.7195 21.9809 21.4961 21.9765 21.274 21.9563C21.0592 21.9333 20.7336 21.8884 20.5542 21.8468C20.3748 21.8052 19.8961 21.6859 19.4916 21.5709C19.0872 21.4559 18.4142 21.2862 17.9995 21.1833C17.5848 21.0804 16.9541 20.9435 16.5942 20.8712C16.2343 20.799 15.6722 20.6939 15.3375 20.6413C15.0027 20.5888 14.4783 20.5033 14.155 20.4574C13.8316 20.4114 13.2706 20.3479 12.8982 20.3128C12.5257 20.2778 11.9842 20.2263 11.6974 20.2033C11.4106 20.1803 10.7343 20.165 10.2121 20.1606C9.69001 20.1563 9.02621 20.1683 8.2413 20.2077V24.2863H10.059V24.8086H8.21159C8.21159 24.8086 8.21159 28.411 8.17732 28.5095C8.16506 28.5618 8.14 28.6106 8.1042 28.6519C8.03695 28.7552 7.94286 28.8401 7.83114 28.8982C7.6529 28.9935 7.62891 28.9968 7.21646 28.9968C7.0323 29.0074 6.8475 28.9919 6.66806 28.9508C6.59209 28.9184 6.51909 28.8799 6.44984 28.8358C6.37296 28.7884 6.30805 28.7252 6.25983 28.6508C6.21161 28.5763 6.18129 28.4926 6.17106 28.4055L6.15393 24.8086H5.19421V24.2863H6.15393V22.425C6.15393 21.4034 6.15393 20.5636 6.14364 20.5636L5.81117 20.6643C5.57803 20.7412 5.34922 20.8296 5.12566 20.9293C4.90702 21.031 4.6949 21.145 4.49042 21.2709C4.34168 21.3653 4.20211 21.4723 4.07341 21.5906C3.99077 21.6748 3.92009 21.769 3.86318 21.8709C3.81911 21.9541 3.78647 22.0425 3.76607 22.1337C3.75229 22.2157 3.76216 22.2998 3.79463 22.3768C3.82373 22.4444 3.86962 22.5041 3.92831 22.5509C3.99571 22.594 4.07586 22.6152 4.15681 22.6111C4.2528 22.6076 4.34713 22.586 4.43444 22.5476C4.51977 22.5038 4.60184 22.4544 4.68008 22.3998C4.74468 22.3521 4.8218 22.3226 4.90287 22.3144C4.98433 22.3189 5.06312 22.3438 5.13138 22.3866C5.20831 22.4422 5.27216 22.5127 5.31875 22.5936C5.36735 22.7024 5.38999 22.8202 5.38501 22.9385C5.3896 23.0633 5.36378 23.1874 5.30961 23.3009C5.25828 23.3949 5.19453 23.4821 5.11995 23.5604C5.03058 23.6403 4.92883 23.7064 4.81833 23.7564C4.6538 23.8319 4.58982 23.8418 4.28706 23.8418C3.98429 23.8418 3.9226 23.8319 3.72494 23.7433C3.58991 23.6798 3.46645 23.5959 3.35934 23.4947C3.28406 23.4205 3.21846 23.3377 3.16397 23.2483C3.11575 23.148 3.0775 23.0435 3.04971 22.9363C3.00393 22.7763 2.98959 22.6096 3.00744 22.4447C3.02102 22.2781 3.05086 22.1132 3.09656 21.9519C3.14867 21.8079 3.21645 21.6696 3.29878 21.5392C3.39851 21.4013 3.51092 21.2723 3.63468 21.1537C3.78245 21.0184 3.94225 20.8957 4.11225 20.7869C4.30279 20.6679 4.49956 20.5582 4.70179 20.4585C4.95306 20.3462 5.2105 20.2472 5.47299 20.1617C5.7232 20.084 6.10708 19.9778 6.32416 19.9329C6.54124 19.888 6.87828 19.8234 7.07822 19.8015C7.27816 19.7796 7.59806 19.7358 7.798 19.7183C7.99794 19.7008 8.46637 19.6756 8.8434 19.6635C9.24443 19.6504 9.84425 19.6559 10.2841 19.68C10.6977 19.6986 11.3455 19.7457 11.7237 19.7818C12.1019 19.8179 12.704 19.8836 13.0604 19.9296C13.4169 19.9756 14.027 20.0632 14.4154 20.1267C14.8039 20.1902 15.4266 20.2975 15.8025 20.3698C16.1783 20.442 16.7427 20.5537 17.0592 20.6194C17.3757 20.6851 17.9332 20.8099 18.316 20.8986C18.6987 20.9873 19.3443 21.145 19.7727 21.2534C20.2011 21.3618 20.6753 21.4724 20.8364 21.503C21.0743 21.5398 21.3151 21.5574 21.5562 21.5556C21.7654 21.5614 21.9746 21.5449 22.18 21.5063C22.3034 21.4737 22.4238 21.4312 22.5399 21.3793C22.7431 21.2871 22.9052 21.1283 22.9969 20.9315C23.0339 20.841 23.0544 20.745 23.0574 20.6479C23.0601 20.6046 23.0538 20.5612 23.0389 20.5202C23.024 20.4792 23.0008 20.4415 22.9706 20.4092C22.9128 20.3468 22.8386 20.3003 22.7558 20.2745C22.6346 20.2493 22.5091 20.2493 22.3879 20.2745C22.1937 20.3052 22.1274 20.3019 22.036 20.2625C21.9549 20.2244 21.8914 20.1589 21.8578 20.0785C21.8235 20.0135 21.8004 19.9436 21.7892 19.8716C21.7968 19.7933 21.8125 19.7159 21.8361 19.6405C21.8798 19.5196 21.9477 19.4081 22.036 19.3121C22.1047 19.2333 22.1852 19.1647 22.2748 19.1084C22.3488 19.0776 22.4252 19.0523 22.5033 19.0328C22.5787 19.0173 22.655 19.0063 22.7318 19C22.824 19.0048 22.9155 19.0184 23.0049 19.0405C23.123 19.0712 23.2378 19.1126 23.3476 19.1642C23.4649 19.226 23.5732 19.3022 23.6698 19.3909C23.7664 19.4898 23.8493 19.6002 23.9166 19.7194C23.9897 19.8814 24 19.9427 24 20.2274Z" fill="#F6D73B"/>
<path fill-rule="evenodd" clip-rule="evenodd" d="M17 28.1817L16.6957 28.4562C16.5452 28.6098 16.3645 28.7368 16.1628 28.8305C16.035 28.885 15.9024 28.9298 15.7665 28.9646C15.6096 28.9894 15.4501 28.9977 15.2911 28.9896C15.0984 28.9964 14.9074 28.9543 14.7398 28.868C14.6018 28.8187 14.4845 28.7314 14.4044 28.6184C14.339 28.5144 14.2988 28.4032 14.2253 27.9686L13.9841 28.1765C13.8497 28.2805 13.6395 28.4469 13.5017 28.5311C13.355 28.6263 13.2015 28.7128 13.0423 28.79C12.9011 28.8531 12.7544 28.9056 12.6036 28.947C12.4511 28.9818 12.2946 28.9996 12.1373 29C11.9922 28.9968 11.8479 28.9801 11.7066 28.9501C11.583 28.9129 11.4668 28.8581 11.3621 28.7879C11.2728 28.7284 11.1897 28.6616 11.114 28.5883C11.0574 28.5259 11.0088 28.4579 10.9693 28.3855C10.9169 28.2851 10.8742 28.1807 10.8418 28.0736C10.7867 27.9083 10.7764 27.665 10.7626 25.8652C10.7419 23.8896 10.7419 23.8408 10.673 23.7971C10.634 23.7721 10.5885 23.7567 10.5409 23.7524C10.4935 23.757 10.4473 23.769 10.4043 23.7877C10.3442 23.8179 10.2893 23.8557 10.2412 23.9C10.1665 23.9676 10.1482 23.9718 10.0758 23.9343C10.0569 23.9254 10.0403 23.9129 10.0272 23.8977C10.0142 23.8824 10.0049 23.8648 10 23.846C10.0833 23.7345 10.1804 23.6319 10.2894 23.5403C10.4445 23.3907 10.6277 23.2671 10.8304 23.1753C10.979 23.111 11.1355 23.0629 11.2966 23.0318C11.4115 23.0173 11.5344 23.0048 11.5711 23.0006C11.6079 22.9965 11.7377 23.0131 11.8537 23.0287C11.9845 23.0497 12.1121 23.0846 12.2338 23.1327C12.3289 23.1758 12.416 23.2319 12.4922 23.2991C12.5545 23.3612 12.6063 23.4312 12.6461 23.507C12.7058 23.6235 12.7093 23.794 12.7253 25.7289C12.7437 27.7949 12.7437 27.8261 12.8149 27.9124C12.8578 27.9626 12.9108 28.0049 12.9711 28.0372C13.0352 28.063 13.1043 28.0768 13.1744 28.0777C13.2942 28.0628 13.4105 28.0305 13.5189 27.9821C13.6705 27.9155 13.8256 27.8126 14.2402 27.4373V25.6853C14.2402 24.5831 14.2276 23.9 14.2069 23.8501C14.1969 23.8273 14.1814 23.8068 14.1615 23.79C14.1417 23.7733 14.1179 23.7608 14.092 23.7534C14.0405 23.7441 13.9874 23.7441 13.9358 23.7534C13.864 23.7802 13.7979 23.8182 13.7406 23.8657C13.6258 23.9531 13.6166 23.9551 13.4477 23.8657L13.5465 23.7493C13.6419 23.6439 13.7455 23.5448 13.8566 23.4529C13.9932 23.3367 14.148 23.2393 14.316 23.1639C14.4781 23.0959 14.6496 23.0484 14.8259 23.0225C15.1167 22.9823 15.4141 23.0147 15.6861 23.1161C15.7754 23.161 15.8586 23.2151 15.9342 23.2772C16.0095 23.3423 16.0713 23.4191 16.1168 23.5039C16.1834 23.6359 16.1857 23.7264 16.2041 25.8953C16.2167 27.8365 16.2282 28.1516 16.273 28.1973C16.2975 28.2164 16.326 28.2307 16.3568 28.2395C16.3876 28.2482 16.4201 28.2512 16.4522 28.2483C16.5521 28.2483 16.613 28.2233 16.8427 28.0299L17 28.1817Z" fill="#F6D73B"/>
<path fill-rule="evenodd" clip-rule="evenodd" d="M23.9636 26.8668C23.9048 27.3146 23.7775 27.754 23.5848 28.1743C23.4887 28.3736 23.3726 28.5657 23.2376 28.7483C23.1111 28.9084 22.9692 29.0595 22.8133 29.2001C22.6637 29.32 22.5037 29.4305 22.3348 29.5306C22.1797 29.6165 22.0177 29.6932 21.85 29.7602C21.678 29.8218 21.5008 29.8723 21.3197 29.9112C21.1637 29.9447 21.0056 29.9709 20.8462 29.9898C20.7828 30.0034 20.7164 30.0034 20.653 29.9898C20.6455 29.9739 20.6303 29.9165 20.6164 29.8633C20.5962 29.7804 20.6076 29.7571 20.6568 29.7379C20.7061 29.7188 20.7831 29.6965 20.8727 29.6678C20.9647 29.6283 21.0497 29.5782 21.1252 29.5189C21.2045 29.4502 21.2755 29.3751 21.3374 29.2947C21.4107 29.1878 21.4728 29.0758 21.523 28.9598C21.5911 28.7985 21.6455 28.6333 21.6858 28.4655C21.7237 28.3093 21.778 28.0063 21.8121 27.7959C21.8437 27.5535 21.8613 27.0114 21.8613 26.313C21.8613 25.3776 21.85 25.1639 21.7894 24.8929C21.7536 24.7233 21.7039 24.556 21.6404 24.3922C21.5958 24.2968 21.5359 24.2071 21.4624 24.1254C21.4049 24.0647 21.3307 24.0167 21.2462 23.9856C21.1617 23.9545 21.0695 23.9412 20.9775 23.9468C20.8436 23.9423 20.7124 23.9802 20.6101 24.0531C20.4927 24.1212 20.3576 24.2413 20.0609 24.6059V26.5522C20.0609 27.6226 20.0407 28.5612 20.023 28.6409C20.0039 28.7196 19.9694 28.7951 19.9207 28.8642C19.8453 28.9297 19.7568 28.9837 19.6594 29.0236C19.4889 29.0969 19.4308 29.1033 18.9814 29.1033C18.5723 29.1033 18.465 29.0938 18.3501 29.0427C18.2639 29.0021 18.1827 28.9544 18.1076 28.9003C18.0486 28.852 17.998 28.7969 17.9574 28.7366C17.9258 28.6781 17.9107 27.9574 17.8766 23.7991L17.7831 23.7162C17.7504 23.6848 17.7089 23.6609 17.6624 23.6464C17.6159 23.6319 17.5658 23.6274 17.5167 23.6333C17.3747 23.6407 17.2382 23.6828 17.1241 23.7544L17.0483 23.6747C17.0029 23.6258 16.9877 23.5844 17.0104 23.5684L17.3513 23.3803C17.5411 23.2769 17.7445 23.1924 17.9574 23.1283C18.1189 23.0847 18.2833 23.0492 18.4498 23.022C18.6099 23.0065 18.7713 23.0033 18.9321 23.0125C19.1002 23.0151 19.2663 23.044 19.422 23.0975C19.5525 23.1469 19.6688 23.2194 19.7629 23.3101C19.8511 23.4005 19.9203 23.503 19.9674 23.6131C19.9977 23.7042 20.0155 23.798 20.0205 23.8926C20.0153 23.9384 20.0245 23.9846 20.047 24.0266C20.0659 24.034 20.1606 23.9575 20.2616 23.8586C20.3976 23.7285 20.5436 23.606 20.6985 23.4919C20.8687 23.371 21.0542 23.2662 21.2515 23.1794C21.4212 23.1108 21.5989 23.0573 21.7818 23.0199C21.9384 22.9993 22.0974 22.9947 22.2553 23.0061C22.4103 23.0224 22.5629 23.0516 22.7111 23.0933C22.8372 23.1327 22.9579 23.1837 23.0709 23.2453C23.1788 23.3177 23.2763 23.4004 23.3613 23.4919C23.4591 23.6044 23.5437 23.7248 23.6138 23.8512C23.6807 23.9757 23.7377 24.1039 23.7843 24.2349C23.8356 24.3868 23.8777 24.5408 23.9105 24.6962C23.9669 25.0453 23.9939 25.3973 23.9913 25.7496C24.009 26.1222 23.9997 26.4952 23.9636 26.8668Z" fill="#F6D73B"/>
<path fill-rule="evenodd" clip-rule="evenodd" d="M42.6863 28.172C42.6208 28.233 42.5332 28.27 42.4399 28.2762C42.381 28.2768 42.3232 28.2608 42.2745 28.2304C42.2483 28.2043 42.2403 28.1949 42.2198 28.1731C42.1354 28.0793 42.1993 27.3107 42.1901 26.2609C42.1719 24.5674 42.1616 24.3352 42.1103 24.1988C42.0677 24.0964 42.0166 23.9972 41.9574 23.9019C41.8771 23.7885 41.7829 23.6837 41.6768 23.5895C41.536 23.4652 41.3737 23.3628 41.1966 23.2864C41.0326 23.214 40.862 23.1548 40.6867 23.1094C40.5636 23.0854 40.3343 23.0469 40.1734 23.0281C40.0126 23.0094 39.8073 23 39.7115 23C39.6157 23 39.4172 23.0187 39.2655 23.0344C39.0908 23.051 38.9177 23.0795 38.7476 23.1198C38.5764 23.1651 38.4103 23.2251 38.2514 23.2989C38.0976 23.3707 37.9555 23.4618 37.8294 23.5697C37.7293 23.6614 37.6454 23.7669 37.5807 23.8821C37.5299 23.9917 37.4972 24.1075 37.4838 24.2258C37.4664 24.352 37.478 24.48 37.518 24.6018C37.5527 24.7209 37.6225 24.8289 37.7199 24.9143C37.8037 24.9996 37.9132 25.0605 38.0347 25.0892C38.1403 25.1166 38.2508 25.1244 38.3598 25.1121C38.4634 25.0978 38.5621 25.0622 38.6484 25.008C38.7333 24.96 38.8025 24.8921 38.8486 24.8112C38.8948 24.7304 38.9162 24.6397 38.9107 24.5487C38.9181 24.4663 38.8956 24.384 38.8469 24.3144C38.7574 24.2383 38.6559 24.1751 38.5457 24.1269C38.4146 24.0675 38.3461 24.0613 38.3176 23.9769C38.3126 23.95 38.314 23.9224 38.3217 23.896C38.3294 23.8696 38.3431 23.845 38.3621 23.8238C38.4499 23.7414 38.5521 23.6728 38.6644 23.6207C38.8765 23.5166 38.9689 23.5072 39.2757 23.5072C39.5826 23.5072 39.6601 23.527 39.7765 23.5864C39.8617 23.6262 39.9389 23.679 40.0046 23.7426C40.0728 23.8111 40.1296 23.8883 40.1734 23.9717C40.2279 24.0797 40.2604 24.1958 40.2693 24.3144C40.2787 24.438 40.2656 24.5623 40.2305 24.682C40.1934 24.7921 40.1405 24.8971 40.0731 24.9944C40.0078 25.0731 39.9311 25.1432 39.8449 25.2027C39.5847 25.3191 39.3182 25.4234 39.0465 25.5152C38.6815 25.6464 38.2628 25.8089 38.1225 25.8808C37.9674 25.9577 37.8187 26.0451 37.6777 26.1422C37.562 26.2268 37.4564 26.3225 37.3629 26.4275C37.2812 26.5289 37.2102 26.6369 37.1507 26.7504C37.0924 26.8808 37.0499 27.0167 37.0241 27.1555C36.9994 27.3163 36.9937 27.479 37.007 27.6409C37.0231 27.7887 37.0544 27.9348 37.1005 28.0773C37.1457 28.1978 37.2062 28.3132 37.2807 28.4209C37.3547 28.5211 37.4434 28.6115 37.5442 28.6896C37.6239 28.7497 37.7086 28.804 37.7975 28.8521C37.8973 28.8916 38.0003 28.9244 38.1054 28.95C38.4326 29.0167 38.7718 29.0167 39.0989 28.95C39.2523 28.9081 39.4011 28.8537 39.5438 28.7875C39.7338 28.6877 39.9077 28.5644 40.0605 28.4209L40.3377 28.172C40.3849 28.3296 40.4576 28.4798 40.5533 28.6178C40.6266 28.7069 40.7171 28.7831 40.8202 28.8427C40.913 28.8973 41.013 28.9407 41.1179 28.9719C41.2648 28.9943 41.4141 29.0016 41.5628 28.9938C41.7329 28.9938 41.9014 28.9637 42.059 28.9052C42.171 28.8598 42.2796 28.8076 42.384 28.749C42.4739 28.6917 42.5589 28.6283 42.6384 28.5595C42.7034 28.5001 42.8084 28.3897 42.8768 28.3178L43 28.1814C42.8232 28.0668 42.8232 28.0668 42.6863 28.172ZM40.2613 26.765C40.2522 27.494 40.2487 27.519 40.1632 27.6867C40.115 27.7804 40.0565 27.8693 39.9887 27.9523C39.9179 28.0186 39.8354 28.0735 39.7446 28.1147C39.6628 28.1535 39.5738 28.1778 39.4822 28.1866C39.4142 28.1848 39.3469 28.1736 39.2826 28.1533C39.2205 28.1265 39.1633 28.0914 39.1126 28.0491C39.0511 27.9877 39.0014 27.9173 38.9655 27.8408C38.9184 27.7351 38.8851 27.6246 38.8663 27.5117C38.8433 27.3669 38.8318 27.2207 38.832 27.0743C38.8341 26.9169 38.8524 26.7599 38.8868 26.6056C38.9209 26.4651 38.975 26.3293 39.0476 26.2015C39.1175 26.0879 39.2064 25.9849 39.3111 25.8964C39.3991 25.8287 39.497 25.7726 39.602 25.7297C39.6875 25.7054 39.776 25.6911 39.8655 25.687C39.9438 25.6876 40.0213 25.7021 40.0936 25.7297C40.1286 25.7459 40.1592 25.769 40.1832 25.7973C40.2073 25.8255 40.2242 25.8583 40.2328 25.8933C40.2682 26.1826 40.2777 26.4742 40.2613 26.765Z" fill="#F6D73B"/>
<path fill-rule="evenodd" clip-rule="evenodd" d="M48.9969 24.0588C48.9969 24.4363 48.9676 24.9329 48.9371 25.2163C48.9067 25.4997 48.8379 25.8965 48.7916 26.1334C48.7454 26.3703 48.6562 26.7354 48.5942 26.9496C48.5322 27.1639 48.4126 27.5425 48.3246 27.7829C48.2366 28.0232 48.0832 28.3962 47.9862 28.6002C47.8891 28.8043 47.7132 29.141 47.5913 29.3439C47.4695 29.5468 47.2529 29.8756 47.1029 30.0762C46.9528 30.2769 46.6787 30.5977 46.4937 30.7904C46.2968 30.9939 46.0877 31.1851 45.8676 31.3629C45.6247 31.5325 45.3698 31.684 45.105 31.8164C44.8492 31.9463 44.5854 32.0599 44.3154 32.1565C44.1394 32.2132 43.81 32.2959 43.5866 32.3435C43.3633 32.3912 43.0226 32.4501 42.8252 32.4728C42.3526 32.5153 41.878 32.5301 41.4038 32.517C40.8386 32.5285 40.2734 32.5023 39.7116 32.4388C39.3665 32.398 38.7731 32.3095 38.3918 32.2449C38.0105 32.1803 37.4476 32.0749 37.1396 32.0069C36.8316 31.9388 36.2371 31.8017 35.8186 31.6996C35.4001 31.5976 34.2393 31.2745 33.224 30.9832C32.2087 30.6918 31.2747 30.4356 31.1246 30.4073C30.9064 30.3761 30.6863 30.3602 30.4658 30.3597C30.2735 30.356 30.0811 30.3674 29.8905 30.3937C29.7687 30.42 29.6497 30.4579 29.5352 30.507C29.4335 30.5545 29.3377 30.6139 29.2498 30.6839C29.1708 30.7594 29.1059 30.8485 29.058 30.9469C29.0111 31.0439 28.9762 31.1463 28.9542 31.2518C28.9458 31.2957 28.946 31.3408 28.9549 31.3846C28.9638 31.4283 28.9812 31.4699 29.0061 31.5069C29.0591 31.5765 29.1275 31.6327 29.2058 31.6713C29.3186 31.7212 29.3682 31.7212 29.6017 31.6917C29.8127 31.6611 29.8928 31.6611 29.9571 31.6917C30.0206 31.7328 30.0748 31.7869 30.1161 31.8504C30.1684 31.925 30.1956 32.0143 30.194 32.1055C30.1928 32.1922 30.1803 32.2783 30.1567 32.3617C30.1196 32.4546 30.0731 32.5435 30.018 32.627C29.9536 32.7166 29.8733 32.7934 29.7811 32.8537C29.6706 32.9084 29.5539 32.9495 29.4336 32.9761C29.3055 33.008 29.1715 33.008 29.0433 32.9761C28.909 32.9425 28.7794 32.8922 28.6575 32.8265C28.5327 32.7579 28.4187 32.6712 28.3191 32.5691C28.234 32.471 28.1617 32.3624 28.1036 32.2461C28.054 32.1316 28.021 32.0106 28.0055 31.8867C27.9939 31.756 28.0007 31.6243 28.0258 31.4956C28.0648 31.3429 28.1204 31.195 28.1916 31.0546C28.2771 30.895 28.3817 30.7466 28.503 30.6125C28.6112 30.497 28.7302 30.3922 28.8583 30.2996C28.9702 30.2303 29.088 30.1711 29.2103 30.1227C29.3118 30.0842 29.4889 30.0309 29.5995 30.0026C29.7612 29.9664 29.9251 29.9414 30.0902 29.9277C30.3107 29.917 30.5316 29.9227 30.7513 29.9447C30.9532 29.9685 31.2521 30.0162 31.4101 30.0502C31.568 30.0842 31.9594 30.193 32.2742 30.2894C32.5889 30.3857 33.1372 30.5467 33.4925 30.6465C33.8478 30.7462 34.4717 30.914 34.8812 31.016C35.2907 31.1181 35.8965 31.2552 36.218 31.3267C36.5395 31.3981 37.1148 31.5001 37.4882 31.5636C37.8616 31.6271 38.4245 31.711 38.7404 31.7484C39.0562 31.7858 39.4849 31.8334 39.6868 31.8527C39.8888 31.8719 40.3637 31.8969 40.7371 31.9071C41.1443 31.9207 41.6395 31.915 41.978 31.8912C42.2848 31.8674 42.6887 31.8266 42.8748 31.7983C43.0609 31.7699 43.3475 31.7178 43.5178 31.6849C43.6882 31.652 43.951 31.5783 44.1101 31.5319C44.3469 31.4513 44.5789 31.357 44.805 31.2496C45.0386 31.1338 45.2647 31.0032 45.4818 30.8585C45.6296 30.7451 45.8101 30.6068 45.8812 30.5388C45.9324 30.4914 45.9745 30.4349 46.0052 30.3721C46.0052 30.3483 45.9274 30.0615 45.8372 29.7418C45.7469 29.4221 45.5416 28.7725 45.3961 28.3032C45.2506 27.8339 45.0306 27.1775 44.9087 26.8408C44.7869 26.5041 44.6053 26.0064 44.4992 25.7344C44.3932 25.4623 44.2184 25.0542 44.1134 24.8274C43.9992 24.589 43.8727 24.3566 43.7344 24.1314C43.6545 23.9963 43.5553 23.8737 43.44 23.7675C43.3735 23.7208 43.2953 23.6937 43.2144 23.6893C43.1062 23.6983 43.0042 23.7434 42.9244 23.8174L42.771 23.6405L42.8737 23.56C42.9312 23.5124 43.0666 23.4138 43.1783 23.3333C43.3061 23.252 43.4422 23.1847 43.5844 23.1326C43.7172 23.0914 43.8525 23.0584 43.9893 23.034C44.1022 23.0181 44.2544 23.0045 44.3278 23C44.4356 23.0018 44.5431 23.0121 44.6493 23.0306C44.7821 23.0617 44.9116 23.1054 45.0362 23.161C45.1687 23.2267 45.2889 23.3149 45.3916 23.4217C45.5028 23.549 45.6024 23.6859 45.6894 23.831C45.7672 23.9636 45.8857 24.1903 45.9534 24.3411C46.021 24.4919 46.1632 24.8263 46.2647 25.0893C46.3662 25.3523 46.5343 25.8115 46.6358 26.1096C46.7374 26.4078 46.9348 27.0267 47.0735 27.4859C47.2123 27.945 47.3341 28.327 47.3409 28.3372C47.3477 28.3474 47.3984 28.2624 47.4447 28.1502C47.4909 28.0379 47.5879 27.8101 47.6522 27.64C47.7165 27.47 47.8113 27.1809 47.8655 26.9938C47.9196 26.8068 47.9941 26.5007 48.0313 26.3137C48.0685 26.1266 48.1159 25.8375 48.1373 25.6675C48.1588 25.4974 48.17 25.1539 48.17 24.9023C48.172 24.6802 48.1596 24.4583 48.1328 24.2379C48.0955 24.062 48.0485 23.8883 47.9918 23.7176C47.9392 23.586 47.912 23.4456 47.9117 23.3038C47.9333 23.2325 47.9819 23.1727 48.0471 23.1372C48.1502 23.0858 48.2605 23.0507 48.3742 23.0329C48.5705 22.9943 48.6077 22.9989 48.7296 23.0567C48.818 23.0987 48.8899 23.1694 48.9338 23.2573C48.9935 23.382 49.0071 23.4603 48.9969 24.0588Z" fill="#F6D73B"/>
<path d="M38 19.9373V20.0708C37.992 20.3164 37.9618 20.5608 37.91 20.8011C37.8545 21.1103 37.7749 21.4595 37.6791 21.8486C37.5832 22.2377 37.4666 22.6473 37.3327 23.0946C37.1988 23.5419 37.0695 23.988 36.9287 24.441C36.7878 24.894 36.6516 25.331 36.5107 25.7635C36.3699 26.1959 36.2348 26.5953 36.1055 26.9638C35.9762 27.3324 35.8688 27.6485 35.7719 27.9292C35.6749 28.2098 35.6045 28.4095 35.5525 28.5453C35.525 28.6358 35.4763 28.7187 35.4105 28.7872C35.3559 28.846 35.2884 28.8917 35.2131 28.9207C35.1353 28.9552 35.0522 28.9764 34.9672 28.9835C34.8774 28.9924 34.7873 28.9966 34.6971 28.996C34.5541 28.9999 34.4113 28.983 34.2734 28.9458C34.1807 28.9182 34.0936 28.875 34.0159 28.818C33.9572 28.7743 33.909 28.7182 33.8751 28.6537C33.8481 28.602 33.8246 28.5487 33.8047 28.494L32.5232 24.3394C32.3823 24.7959 32.2392 25.2523 32.0937 25.7087C31.9483 26.1651 31.8074 26.5645 31.6758 26.941C31.5442 27.3176 31.4311 27.6485 31.3295 27.9326C31.2279 28.2167 31.1482 28.4175 31.0905 28.5487C31.0559 28.6402 31.0011 28.7228 30.93 28.7906C30.8722 28.8489 30.8026 28.8944 30.7257 28.9241C30.6501 28.9581 30.5693 28.9793 30.4867 28.9869C30.3993 28.9957 30.3114 28.9999 30.2235 28.9994C30.0805 29.0034 29.9378 28.9865 29.7998 28.9492C29.7066 28.9221 29.619 28.8789 29.5412 28.8214C29.4819 28.775 29.4318 28.7182 29.3934 28.6537C29.3665 28.602 29.3429 28.5487 29.323 28.494L27.0337 20.9334C26.9991 20.8089 26.9519 20.6881 26.8928 20.5729C26.8516 20.4781 26.7902 20.3933 26.7127 20.3241C26.6396 20.2578 26.5513 20.21 26.4553 20.1849C26.3361 20.1526 26.2129 20.1376 26.0893 20.1404C25.9458 20.1452 25.8042 20.1753 25.6714 20.2294C25.5039 20.2875 25.3477 20.3736 25.2096 20.4839C25.0638 20.5994 24.9419 20.7416 24.8506 20.9026C24.7488 21.0781 24.6977 21.2778 24.7028 21.48C24.6984 21.5903 24.7161 21.7005 24.7548 21.8041C24.7843 21.8733 24.8275 21.9362 24.8817 21.9889C24.9237 22.0232 24.9719 22.0491 25.0237 22.0654C25.0599 22.0723 25.0966 22.0761 25.1334 22.0768C25.2243 22.0803 25.3147 22.0631 25.3978 22.0266C25.4648 21.9889 25.5283 21.9512 25.5837 21.9125L25.7372 21.7984C25.7874 21.7609 25.8487 21.7408 25.9115 21.7413C25.9671 21.7423 26.0219 21.7551 26.072 21.779C26.1343 21.8031 26.1895 21.8423 26.2325 21.8931C26.2888 21.9514 26.3324 22.0205 26.3606 22.0962C26.3977 22.1914 26.4149 22.2931 26.4114 22.3951C26.4163 22.5474 26.3813 22.6983 26.3098 22.8333C26.2474 22.954 26.1596 23.0602 26.0524 23.1448C25.9447 23.2274 25.8226 23.2896 25.6922 23.3285C25.5629 23.3663 25.4287 23.3855 25.2939 23.3855C25.104 23.3887 24.9155 23.3522 24.7409 23.2783C24.5873 23.2094 24.4497 23.11 24.3368 22.9862C24.227 22.8605 24.1417 22.7158 24.0852 22.5594C24.0284 22.3894 24 22.2113 24.0009 22.0323C23.9905 21.6517 24.071 21.2742 24.2356 20.93C24.4003 20.5859 24.6446 20.2849 24.9487 20.0514C25.2352 19.8289 25.562 19.6624 25.9115 19.5608C26.2729 19.4511 26.6488 19.3957 27.0268 19.3965C27.3883 19.3829 27.7482 19.4504 28.0796 19.5939C28.3356 19.7067 28.5622 19.8757 28.7423 20.0879C28.9149 20.2921 29.0515 20.5236 29.1464 20.7726C29.2456 21.0236 29.3338 21.2716 29.4107 21.5165L31.0178 26.6683C31.1124 26.4184 31.2094 26.1503 31.3133 25.8616C31.4172 25.5729 31.5165 25.2774 31.6158 24.9727C31.7151 24.6681 31.8086 24.352 31.8986 24.0382C31.9887 23.7244 32.0764 23.4095 32.1491 23.1037L31.5257 21.0841C31.4827 20.9669 31.4847 20.8381 31.5315 20.7224C31.5835 20.6143 31.6667 20.5238 31.7705 20.4622C31.8855 20.386 32.0139 20.3318 32.1491 20.3024C32.303 20.2687 32.4602 20.2519 32.6179 20.2522C32.7449 20.2511 32.8719 20.2595 32.9977 20.2773C33.0976 20.2865 33.1952 20.3123 33.2863 20.3538C33.3673 20.3922 33.4378 20.4494 33.4918 20.5204C33.5536 20.6001 33.5994 20.6907 33.6269 20.7874L35.474 26.6592C35.5733 26.3956 35.6761 26.1126 35.7823 25.808C35.8885 25.5033 35.9958 25.1884 36.0974 24.8666C36.199 24.5448 36.2995 24.2185 36.3941 23.8887C36.4888 23.559 36.5696 23.2338 36.6377 22.9166C36.7058 22.5994 36.767 22.2958 36.804 22.0037C36.8453 21.7394 36.8669 21.4725 36.8686 21.205C36.8722 20.971 36.8532 20.7372 36.8121 20.5067C36.7815 20.3485 36.7363 20.1934 36.677 20.0434C36.6285 19.9156 36.5858 19.8152 36.5477 19.7308C36.5113 19.66 36.4916 19.582 36.49 19.5026C36.4864 19.4226 36.5113 19.3438 36.5604 19.2801C36.6089 19.2156 36.6707 19.1619 36.7416 19.1226C36.8144 19.079 36.8946 19.0488 36.9783 19.0336C37.0577 19.012 37.1396 19.0009 37.2219 19.0005C37.3716 18.9959 37.5207 19.0223 37.6594 19.0781C37.7175 19.1014 37.7699 19.1366 37.8131 19.1815C37.8563 19.2264 37.8893 19.2798 37.91 19.3383C37.9334 19.4042 37.9504 19.4722 37.9607 19.5414C37.9748 19.6083 37.9836 19.6762 37.9873 19.7445C37.9957 19.8084 38 19.8728 38 19.9373Z" fill="#F6D73B"/>
</svg>
