<svg width="352" height="277" viewBox="0 0 352 277" fill="none" xmlns="http://www.w3.org/2000/svg">
<path d="M206.054 100.819C184.367 100.947 162.343 99.9441 141.743 94.26C121.143 88.5758 102.924 77.8506 86.3609 65.3249C75.5174 57.1717 65.6573 50.6902 51.5788 51.6676C37.8135 52.3866 24.6469 57.4909 14.0275 66.2251C-3.88117 81.8115 -1.16381 110.618 5.97895 130.885C16.7449 161.415 49.5084 182.608 77.329 196.42C109.497 212.392 144.823 221.677 180.252 227.001C211.308 231.682 251.188 235.103 278.077 214.938C302.792 196.446 309.572 154.162 303.517 125.613C302.043 117.18 297.525 109.572 290.81 104.214C273.444 91.6108 247.565 100.021 228.052 100.458C220.935 100.613 213.456 100.793 206.054 100.819Z" fill="#F2F2F2"/>
<path d="M100.309 1V12.0596" stroke="#CFCFCF" stroke-width="0.85" stroke-linecap="round" stroke-linejoin="round"/>
<path d="M94.7461 6.53027H105.874" stroke="#CFCFCF" stroke-width="0.85" stroke-linecap="round" stroke-linejoin="round"/>
<path d="M311.438 221.447V232.506" stroke="#CFCFCF" stroke-width="0.85" stroke-linecap="round" stroke-linejoin="round"/>
<path d="M305.875 226.975H317.003" stroke="#CFCFCF" stroke-width="0.85" stroke-linecap="round" stroke-linejoin="round"/>
<path d="M16.2276 173.683C17.6283 173.683 18.7638 172.555 18.7638 171.163C18.7638 169.771 17.6283 168.642 16.2276 168.642C14.8269 168.642 13.6914 169.771 13.6914 171.163C13.6914 172.555 14.8269 173.683 16.2276 173.683Z" fill="#CFCFCF"/>
<path d="M232.169 12.4195C233.57 12.4195 234.705 11.2911 234.705 9.89899C234.705 8.50692 233.57 7.37842 232.169 7.37842C230.768 7.37842 229.633 8.50692 229.633 9.89899C229.633 11.2911 230.768 12.4195 232.169 12.4195Z" fill="#CFCFCF"/>
<path d="M161.877 277C214.331 277 256.855 274.374 256.855 271.136C256.855 267.897 214.331 265.271 161.877 265.271C109.422 265.271 66.8984 267.897 66.8984 271.136C66.8984 274.374 109.422 277 161.877 277Z" fill="#F2F2F2"/>
<path d="M88.7132 31.0405H226.651C230.083 31.0405 233.374 32.3954 235.801 34.8071C238.228 37.2189 239.591 40.4899 239.591 43.9005V206.991C239.591 210.402 238.228 213.673 235.801 216.085C233.374 218.496 230.083 219.851 226.651 219.851H71.0374C67.6056 219.851 64.3143 218.496 61.8876 216.085C59.461 213.673 58.0977 210.402 58.0977 206.991V61.776L88.7132 31.0405Z" fill="white" stroke="#BABABA" stroke-linecap="round" stroke-linejoin="round"/>
<path d="M238.976 110.514H96.7422V221.419H238.976V110.514Z" fill="#D2D2D2"/>
<path d="M58.0977 61.776H83.175C84.6462 61.7692 86.0548 61.1836 87.0927 60.1473C88.1306 59.111 88.7132 57.7083 88.7132 56.2462V31.0405L58.0977 61.776Z" fill="white" stroke="#BABABA" stroke-linecap="round" stroke-linejoin="round"/>
<path d="M238.273 75.0986H97.5916C92.1174 75.0986 87.6797 79.509 87.6797 84.9494V114.862C87.6797 120.302 92.1174 124.713 97.5916 124.713H238.273C243.747 124.713 248.185 120.302 248.185 114.862V84.9494C248.185 79.509 243.747 75.0986 238.273 75.0986Z" fill="white" stroke="#BABABA" stroke-linecap="round" stroke-linejoin="round"/>
<path d="M115.007 108.56C119.781 108.56 123.651 104.714 123.651 99.9699C123.651 95.2255 119.781 91.3794 115.007 91.3794C110.233 91.3794 106.363 95.2255 106.363 99.9699C106.363 104.714 110.233 108.56 115.007 108.56Z" fill="#D2D2D2"/>
<path d="M142.179 108.56C146.953 108.56 150.823 104.714 150.823 99.9699C150.823 95.2255 146.953 91.3794 142.179 91.3794C137.405 91.3794 133.535 95.2255 133.535 99.9699C133.535 104.714 137.405 108.56 142.179 108.56Z" fill="#D2D2D2"/>
<path d="M169.331 108.56C174.105 108.56 177.975 104.714 177.975 99.9699C177.975 95.2255 174.105 91.3794 169.331 91.3794C164.557 91.3794 160.688 95.2255 160.688 99.9699C160.688 104.714 164.557 108.56 169.331 108.56Z" fill="#D2D2D2"/>
<path d="M238.273 130.089H97.5916C92.1174 130.089 87.6797 134.5 87.6797 139.94V169.853C87.6797 175.293 92.1174 179.703 97.5916 179.703H238.273C243.747 179.703 248.185 175.293 248.185 169.853V139.94C248.185 134.5 243.747 130.089 238.273 130.089Z" fill="white" stroke="#BABABA" stroke-linecap="round" stroke-linejoin="round"/>
<path d="M115.007 163.576C119.781 163.576 123.651 159.73 123.651 154.986C123.651 150.242 119.781 146.396 115.007 146.396C110.233 146.396 106.363 150.242 106.363 154.986C106.363 159.73 110.233 163.576 115.007 163.576Z" fill="#D2D2D2"/>
<path d="M142.179 163.576C146.953 163.576 150.823 159.73 150.823 154.986C150.823 150.242 146.953 146.396 142.179 146.396C137.405 146.396 133.535 150.242 133.535 154.986C133.535 159.73 137.405 163.576 142.179 163.576Z" fill="#D2D2D2"/>
<path d="M169.331 163.576C174.105 163.576 177.975 159.73 177.975 154.986C177.975 150.242 174.105 146.396 169.331 146.396C164.557 146.396 160.688 150.242 160.688 154.986C160.688 159.73 164.557 163.576 169.331 163.576Z" fill="#D2D2D2"/>
<path d="M238.273 185.105H97.5916C92.1174 185.105 87.6797 189.516 87.6797 194.956V224.869C87.6797 230.309 92.1174 234.719 97.5916 234.719H238.273C243.747 234.719 248.185 230.309 248.185 224.869V194.956C248.185 189.516 243.747 185.105 238.273 185.105Z" fill="white" stroke="#BABABA" stroke-linecap="round" stroke-linejoin="round"/>
<path d="M115.007 218.566C119.781 218.566 123.651 214.72 123.651 209.975C123.651 205.231 119.781 201.385 115.007 201.385C110.233 201.385 106.363 205.231 106.363 209.975C106.363 214.72 110.233 218.566 115.007 218.566Z" fill="#D2D2D2"/>
<path d="M142.179 218.566C146.953 218.566 150.823 214.72 150.823 209.975C150.823 205.231 146.953 201.385 142.179 201.385C137.405 201.385 133.535 205.231 133.535 209.975C133.535 214.72 137.405 218.566 142.179 218.566Z" fill="#D2D2D2"/>
<path d="M169.331 218.566C174.105 218.566 177.975 214.72 177.975 209.975C177.975 205.231 174.105 201.385 169.331 201.385C164.557 201.385 160.688 205.231 160.688 209.975C160.688 214.72 164.557 218.566 169.331 218.566Z" fill="#D2D2D2"/>
<path d="M251.004 137.753C280.633 137.753 304.652 113.882 304.652 84.4358C304.652 54.9893 280.633 31.1182 251.004 31.1182C221.375 31.1182 197.355 54.9893 197.355 84.4358C197.355 113.882 221.375 137.753 251.004 137.753Z" fill="white" stroke="#BABABA" stroke-linecap="round" stroke-linejoin="round"/>
<path d="M289.102 123.12L303.387 137.317" stroke="#BABABA" stroke-linecap="round" stroke-linejoin="round"/>
<path d="M301.793 130.423L297.358 135.034C295.363 137.108 295.438 140.397 297.525 142.38L336.061 178.992C338.148 180.974 341.457 180.9 343.452 178.826L347.887 174.215C349.882 172.141 349.808 168.853 347.721 166.87L309.185 130.258C307.098 128.275 303.789 128.349 301.793 130.423Z" fill="white" stroke="#BABABA" stroke-linecap="round" stroke-linejoin="round"/>
</svg>
