<svg width="115" height="89" viewBox="0 0 115 89" fill="none" xmlns="http://www.w3.org/2000/svg">
<path fill-rule="evenodd" clip-rule="evenodd" d="M12.2637 40.9414L81.3529 33.8832L81.6243 36.5405C81.641 36.7036 81.7867 36.8222 81.9497 36.8056C82.1128 36.7889 82.2315 36.6432 82.2148 36.4802L81.9434 33.8229L108.516 31.1082L110.024 45.8708C105.459 46.3373 102.135 50.4167 102.602 54.9825C103.068 59.5483 107.148 62.8715 111.713 62.405L113.222 77.1677L16.9691 87.0009L15.461 72.2382C20.0268 71.7718 23.3499 67.6923 22.8835 63.1266C22.417 58.5608 18.3376 55.2376 13.7718 55.7041L12.2637 40.9414ZM82.372 40.9391C82.209 40.9558 82.0903 41.1015 82.1069 41.2645L82.4689 44.8076C82.4856 44.9706 82.6312 45.0893 82.7943 45.0727C82.9574 45.056 83.0761 44.9103 83.0594 44.7472L82.6974 41.2042C82.6808 41.0411 82.5351 40.9225 82.372 40.9391ZM82.9515 49.5316C82.9348 49.3686 83.0535 49.2229 83.2166 49.2062C83.3797 49.1895 83.5254 49.3082 83.542 49.4713L83.904 53.0143C83.9206 53.1774 83.8019 53.3231 83.6389 53.3397C83.4758 53.3564 83.3301 53.2377 83.3135 53.0747L82.9515 49.5316ZM84.0612 57.4733C83.8981 57.4899 83.7794 57.6356 83.7961 57.7987L84.158 61.3417C84.1747 61.5048 84.3204 61.6235 84.4834 61.6068C84.6465 61.5902 84.7652 61.4445 84.7485 61.2814L84.3866 57.7384C84.3699 57.5753 84.2242 57.4566 84.0612 57.4733ZM85.4852 74.3329C85.4686 74.1698 85.5872 74.0241 85.7503 74.0074C85.9134 73.9908 86.0591 74.1095 86.0757 74.2725L86.4377 77.8156C86.4543 77.9786 86.3357 78.1243 86.1726 78.141C86.0095 78.1576 85.8638 78.039 85.8472 77.8759L85.4852 74.3329ZM84.9057 65.7404C84.7427 65.757 84.624 65.9027 84.6406 66.0658L85.0026 69.6088C85.0193 69.7719 85.165 69.8906 85.328 69.8739C85.4911 69.8572 85.6098 69.7116 85.5931 69.5485L85.2311 66.0055C85.2145 65.8424 85.0688 65.7237 84.9057 65.7404Z" stroke="#E0E2E5" stroke-width="2.5" stroke-linejoin="round"/>
<path d="M8.8252 61.0121L1.77734 47.9531L8.04567 44.5702M26.0658 34.9885L62.8936 14.9691L64.1622 17.3198C64.24 17.464 64.4201 17.5178 64.5643 17.44C64.7086 17.3621 64.7624 17.1821 64.6845 17.0379L63.4159 14.6872L86.9222 2.00109L93.97 15.0601C89.9311 17.2399 88.424 22.2811 90.6038 26.32C91.0866 27.1061 91.1582 27.3472 92.3751 29.0719M66.4175 21.4987C66.3396 21.3544 66.3935 21.1744 66.5377 21.0965C66.682 21.0187 66.862 21.0725 66.9399 21.2167L68.6313 24.3509C68.7092 24.4952 68.6554 24.6752 68.5111 24.753C68.3669 24.8309 68.1868 24.7771 68.109 24.6328L66.4175 21.4987ZM70.4845 28.4096C70.3403 28.4874 70.2864 28.6675 70.3643 28.8117L71.2368 30.4284C71.3146 30.5726 71.4947 30.6264 71.6389 30.5486C71.7832 30.4707 71.837 30.2907 71.7591 30.1464L70.8867 28.5298C70.8088 28.3855 70.6288 28.3317 70.4845 28.4096Z" stroke="#E0E2E5" stroke-width="2.5" stroke-linecap="round" stroke-linejoin="round"/>
</svg>
