<svg width="152" height="182" viewBox="0 0 152 182" fill="none" xmlns="http://www.w3.org/2000/svg">
<path d="M2 151.634C0.895426 151.634 0 150.738 0 149.634V117.946C0 117.567 0.107993 117.195 0.311363 116.874L73.8959 0.928317C74.2628 0.350237 74.8999 0 75.5846 0H102.936C104.041 0 104.936 0.895431 104.936 2V44.5199C104.936 45.6245 104.041 46.5199 102.936 46.5199H88.372C87.6855 46.5199 87.047 46.872 86.6806 47.4525L43.849 115.32C43.7379 115.496 43.679 115.7 43.679 115.908C43.679 116.517 44.1723 117.01 44.7808 117.01H149.545C150.649 117.01 151.545 117.905 151.545 119.01V149.634C151.545 150.738 150.649 151.634 149.545 151.634H75.7724H2ZM89.8018 181.818C88.6973 181.818 87.8018 180.923 87.8018 179.818V141.158L88.6896 126.154V2C88.6896 0.895433 89.5851 0 90.6896 0H127.794C128.899 0 129.794 0.89543 129.794 2V179.818C129.794 180.923 128.899 181.818 127.794 181.818H89.8018Z" fill="#83109F"/>
</svg>
