<svg width="298" height="96" viewBox="0 0 298 96" fill="none" xmlns="http://www.w3.org/2000/svg">
<path fill-rule="evenodd" clip-rule="evenodd" d="M297.981 12C291.363 11.9895 286.002 6.62306 286 0.00394415C285.351 0 284.652 0 283.893 0H14.1065C13.3484 0 12.6485 0 12 0.00394436C11.9979 6.62305 6.63663 11.9895 0.0194803 12C0 13.154 0 14.4729 0 16V84C6.62742 84 12 89.3726 12 96L14 96C14 95.4477 14.391 95 14.8734 95H18.3442C18.8266 95 19.2176 95.4477 19.2176 96L29.6187 96C29.6187 95.4477 30.0097 95 30.4921 95H37.4337C37.9161 95 38.3071 95.4477 38.3071 96H48.7082C48.7082 95.4477 49.0992 95 49.5816 95L56.5232 95C57.0056 95 57.3966 95.4477 57.3966 96H67.7977C67.7977 95.4477 68.1888 95 68.6711 95H75.6128C76.0951 95 76.4861 95.4477 76.4861 96H86.8872C86.8872 95.4477 87.2783 95 87.7606 95H94.7023C95.1846 95 95.5756 95.4477 95.5756 96H105.977C105.977 95.4477 106.368 95 106.85 95H113.792C114.274 95 114.665 95.4477 114.665 96H125.066C125.066 95.4477 125.457 95 125.94 95H132.881C133.364 95 133.755 95.4477 133.755 96H144.156C144.156 95.4477 144.547 95 145.029 95H151.971C152.453 95 152.844 95.4477 152.844 96H163.245C163.245 95.4477 163.636 95 164.119 95H171.06C171.543 95 171.934 95.4477 171.934 96H182.335C182.335 95.4477 182.726 95 183.208 95H190.15C190.632 95 191.023 95.4477 191.023 96H201.424C201.424 95.4477 201.815 95 202.298 95H209.239C209.722 95 210.113 95.4477 210.113 96H220.514C220.514 95.4477 220.905 95 221.387 95L228.329 95C228.811 95 229.202 95.4477 229.202 96H239.603C239.603 95.4477 239.994 95 240.477 95H247.418C247.901 95 248.292 95.4477 248.292 96H258.693C258.693 95.4477 259.084 95 259.566 95H266.508C266.99 95 267.381 95.4477 267.381 96L277.782 96C277.782 95.4477 278.173 95 278.656 95H282.127C282.609 95 283 95.4477 283 96L286 96C286 89.3726 291.373 84 298 84L298 16C298 14.4729 298 13.154 297.981 12Z" fill="#680082"/>
</svg>
