<svg width="40" height="40" viewBox="0 0 40 40" fill="none" xmlns="http://www.w3.org/2000/svg">
<circle cx="19.9995" cy="20" r="15.4545" fill="#9DDBDA"/>
<circle cx="20" cy="20" r="19" stroke="#9DDBDA" stroke-width="2"/>
<path fill-rule="evenodd" clip-rule="evenodd" d="M20.0126 10.9123C19.9947 10.9222 19.9907 10.9659 19.9987 11.0791L20.0106 11.234C19.8713 11.234 19.7838 11.244 19.7261 11.2579C19.6405 11.2777 19.5888 11.2758 19.4137 11.246C19.2187 11.2122 19.1948 11.2122 19.0953 11.24C19.0356 11.2579 18.9679 11.2837 18.948 11.2976C18.9281 11.3115 18.9162 11.3353 18.9222 11.3493C18.9321 11.3671 18.9739 11.3691 19.0694 11.3612C19.1709 11.3532 19.2147 11.3572 19.2445 11.3791C19.2823 11.4049 19.2784 11.4088 19.1868 11.4347C19.1311 11.4506 19.0615 11.4863 19.0316 11.5181C18.9898 11.5578 18.9799 11.5797 18.9958 11.6015C19.0137 11.6273 19.0256 11.6254 19.0893 11.5916C19.1311 11.5697 19.1908 11.5459 19.2246 11.5399C19.2624 11.534 19.342 11.5499 19.4336 11.5817C19.5152 11.6095 19.6027 11.6313 19.6266 11.6313C19.6525 11.6313 19.7281 11.6095 19.7957 11.5817C19.8654 11.5539 19.945 11.532 19.9748 11.532C20.0226 11.532 20.0325 11.5419 20.0385 11.5976C20.0445 11.6313 20.0524 11.7227 20.0584 11.8002L20.0683 11.9392C19.9072 11.963 19.8415 11.9829 19.8156 11.9988C19.7917 12.0147 19.7719 12.0465 19.7719 12.0683C19.7719 12.1001 19.7898 12.11 19.8694 12.1239C19.9529 12.1359 19.9649 12.1418 19.945 12.1657C19.931 12.1815 19.8634 12.3663 19.7917 12.5729C19.6843 12.8847 19.6544 12.9523 19.6226 12.9562C19.6007 12.9582 19.5052 12.9642 19.4077 12.9701C19.2883 12.9781 19.2346 12.99 19.2346 13.0079C19.2346 13.0218 19.2744 13.0377 19.3281 13.0476C19.3818 13.0556 19.4654 13.0615 19.5171 13.0615C19.5709 13.0615 19.6127 13.0635 19.6127 13.0675C19.6127 13.0695 19.5589 13.2065 19.4933 13.3694C19.4276 13.5343 19.3102 13.7925 19.2366 13.9455C19.147 14.1242 19.0714 14.2514 19.0197 14.303C18.9759 14.3467 18.8863 14.4123 18.8187 14.448C18.753 14.4818 18.6913 14.5235 18.6854 14.5374C18.6794 14.5493 18.6854 14.5712 18.6993 14.5851C18.7152 14.599 18.8306 14.6169 18.9639 14.6248L19.1988 14.6407C19.1808 14.7797 19.1689 14.9347 19.1629 15.0777C19.157 15.2207 19.149 15.3717 19.143 15.4154L19.1351 15.4948C18.7729 15.5187 18.6774 15.5326 18.6615 15.5485C18.6456 15.5624 18.6376 15.5961 18.6416 15.624C18.6456 15.6597 18.6655 15.6796 18.7172 15.6974C18.755 15.7114 18.8485 15.7213 18.9261 15.7213L19.0654 15.7233C19.0435 15.8842 19.0296 16.1801 19.0217 16.4821L19.0057 17.0323C18.9182 16.9489 18.8764 16.8932 18.8565 16.8555C18.8366 16.8178 18.8147 16.7522 18.8087 16.7105C18.7968 16.637 18.7968 16.637 18.8764 16.6271C18.9401 16.6191 18.956 16.6092 18.956 16.5774C18.956 16.5516 18.9401 16.5337 18.9102 16.5278C18.8863 16.5218 18.8485 16.5178 18.8266 16.5178C18.7908 16.5178 18.7849 16.498 18.7669 16.3112C18.757 16.196 18.7351 16.0908 18.7212 16.0768C18.7033 16.057 18.6834 16.057 18.6436 16.0709C18.6137 16.0828 18.5739 16.1245 18.55 16.1702C18.5202 16.2278 18.5083 16.2854 18.5083 16.3847V16.5178H17.6526C17.6765 16.3708 17.6824 16.2775 17.6824 16.2139V16.1007C18.3073 16.1007 18.359 16.0967 18.359 16.0709C18.359 16.055 18.3292 16.0312 18.2933 16.0212C18.2595 16.0093 18.0625 15.9855 17.8556 15.9656C17.6327 15.9457 17.4854 15.9239 17.4894 15.912C17.4934 15.9001 17.5272 15.8762 17.565 15.8583C17.6009 15.8385 17.7222 15.8047 17.8317 15.7809C17.977 15.7511 18.0625 15.7431 18.1501 15.7531C18.2157 15.761 18.3132 15.7829 18.369 15.8047C18.4227 15.8266 18.552 15.908 18.6535 15.9875C18.8028 16.1027 18.8426 16.1245 18.8625 16.1047C18.8804 16.0848 18.8744 16.057 18.8266 15.9676C18.7928 15.906 18.7351 15.8325 18.6973 15.8007C18.6595 15.7709 18.5779 15.7253 18.5182 15.6974C18.4585 15.6716 18.359 15.6379 18.2993 15.6259C18.2396 15.614 18.1003 15.6021 17.9909 15.6021C17.8814 15.6001 17.7461 15.61 17.6924 15.624C17.6367 15.6359 17.5471 15.6696 17.4934 15.6955C17.4377 15.7233 17.3601 15.7789 17.3183 15.8186C17.2765 15.8583 17.2287 15.9179 17.2108 15.9517C17.1949 15.9835 17.187 16.0312 17.1929 16.057C17.2049 16.0967 17.2148 16.1007 17.3641 16.1007C17.4576 16.1007 17.5233 16.1086 17.5233 16.1205C17.5233 16.1325 17.5113 16.2258 17.4974 16.3291L17.4735 16.5178C17.2307 16.5178 17.1969 16.5258 17.1651 16.5576C17.1293 16.5933 17.1293 16.6032 17.1531 16.643C17.175 16.6807 17.1989 16.6867 17.3123 16.6926C17.384 16.6946 17.4437 16.7045 17.4437 16.7165C17.4437 16.7284 17.4297 16.7681 17.4138 16.8058C17.3979 16.8436 17.3462 16.9032 17.2984 16.935C17.2526 16.9687 17.2088 16.9946 17.1989 16.9946C17.1909 16.9946 17.185 16.9548 17.185 16.9052C17.185 16.8515 17.173 16.8039 17.1551 16.786C17.1392 16.7701 17.1054 16.7562 17.0795 16.7562C17.0516 16.7562 17.0039 16.7939 16.9462 16.8595C16.8964 16.9151 16.793 17.0283 16.7173 17.1098C16.6397 17.1892 16.5203 17.2945 16.4487 17.3422C16.3771 17.3879 16.2537 17.4594 16.1741 17.4991C16.0965 17.5388 16.0249 17.5706 16.0149 17.5706C16.0069 17.5706 15.995 17.5468 15.987 17.517C15.9791 17.4852 15.9691 17.4475 15.9612 17.4316C15.9532 17.4077 15.9751 17.3998 16.0806 17.3879C16.1681 17.3759 16.2139 17.362 16.2199 17.3422C16.2258 17.3243 16.1741 17.2587 16.0766 17.1694C15.993 17.0899 15.8497 16.931 15.7562 16.8158C15.6647 16.7006 15.5771 16.6013 15.5612 16.5933C15.5453 16.5834 15.5194 16.5893 15.5015 16.6032C15.4756 16.6231 15.4736 16.6489 15.4836 16.7463L15.4975 16.8654C15.3742 16.9727 15.2587 17.0522 15.1612 17.1118C15.0657 17.1713 14.9563 17.2409 14.9205 17.2667C14.8846 17.2925 14.8568 17.3303 14.8568 17.3521C14.8568 17.374 14.8767 17.4018 14.9006 17.4137C14.9304 17.4276 15.002 17.4316 15.0995 17.4236L15.2548 17.4117C15.2548 17.666 15.2448 17.8427 15.2329 17.9679C15.2189 18.1049 15.1911 18.2519 15.1632 18.3354C15.1374 18.4128 15.1075 18.4804 15.0995 18.4883C15.0916 18.4963 15.0199 18.5062 14.9404 18.5082C14.8249 18.5122 14.7871 18.5221 14.7573 18.5539C14.7374 18.5757 14.7075 18.6433 14.6916 18.7028C14.6737 18.7664 14.6259 18.8558 14.5802 18.9174C14.5344 18.973 14.4687 19.0385 14.4329 19.0604C14.3872 19.0902 14.3354 19.1001 14.2399 19.1001C14.1106 19.0981 14.1106 19.0981 14.021 19.0028C13.9713 18.9492 13.9136 18.8816 13.8917 18.8518C13.8638 18.8121 13.8419 18.8002 13.8161 18.8081C13.7922 18.8181 13.7822 18.8439 13.7822 18.9015C13.7822 18.9452 13.7962 19.0147 13.8141 19.0564C13.83 19.0961 13.8718 19.1597 13.9076 19.1955C13.9434 19.2332 14.0071 19.2809 14.0509 19.3027C14.0966 19.3266 14.1862 19.3484 14.2598 19.3544C14.3314 19.3603 14.4329 19.3524 14.4886 19.3405C14.5424 19.3266 14.6319 19.2928 14.6876 19.265C14.7593 19.2292 14.8508 19.2074 15.016 19.1875C15.1413 19.1716 15.4239 19.1418 15.6428 19.12C15.8617 19.0981 16.3094 19.0644 16.6377 19.0405C16.9661 19.0187 17.6367 18.979 18.1302 18.9511C18.6217 18.9233 19.0276 18.9035 19.0296 18.9074C19.0296 18.9094 19.0376 18.9531 19.0435 19.0048L19.0555 19.1001C18.8465 19.116 18.6177 19.1398 18.4088 19.1617C18.1998 19.1835 17.9093 19.2193 17.762 19.2392C17.6148 19.261 17.4655 19.2868 17.4337 19.2948C17.3999 19.3047 17.374 19.3246 17.374 19.3405C17.374 19.3603 17.4058 19.3703 17.4974 19.3723C17.567 19.3762 17.6227 19.3802 17.6227 19.3822C17.6227 19.3862 17.6108 19.4279 17.5949 19.4775C17.581 19.5272 17.5491 19.6066 17.5233 19.6563C17.4994 19.706 17.4417 19.7834 17.3959 19.8291C17.3223 19.9046 17.3183 19.9165 17.3442 19.9443C17.3621 19.9642 17.4058 19.9761 17.4576 19.9741C17.5053 19.9741 17.567 19.9622 17.5969 19.9463C17.6287 19.9304 17.6725 19.8967 17.6944 19.8708C17.7183 19.847 17.7541 19.7934 17.772 19.7556C17.7919 19.7179 17.8257 19.6106 17.8496 19.5173L17.8934 19.3484C18.1381 19.3286 18.55 19.3107 18.9659 19.2988C19.3977 19.2849 19.9609 19.2809 20.2793 19.2868C20.5857 19.2948 20.8902 19.3047 20.9558 19.3087C21.0215 19.3127 21.3061 19.3286 21.5866 19.3425L22.0981 19.3683C22.114 19.4597 22.118 19.4895 22.114 19.4934C22.112 19.4954 21.8632 19.4775 21.5628 19.4537C21.0971 19.416 20.8723 19.41 20.0405 19.408C19.3639 19.408 18.9918 19.416 18.8266 19.4338C18.6953 19.4477 18.5023 19.4736 18.3988 19.4895C18.2953 19.5053 18.1939 19.5232 18.174 19.5272C18.156 19.5332 18.1401 19.551 18.1401 19.5669C18.1401 19.5868 18.168 19.6007 18.2237 19.6066C18.2715 19.6126 18.6316 19.6066 19.0256 19.5947C19.4356 19.5828 20.0047 19.5788 20.3589 19.5848C20.6972 19.5927 21.2484 19.6066 21.5827 19.6186L22.1896 19.6384C22.2811 19.7238 22.3627 19.7675 22.4284 19.7934C22.494 19.8172 22.5955 19.849 22.6512 19.8609C22.7216 19.8768 22.764 19.8781 22.7786 19.8649C22.7905 19.853 22.7945 19.8331 22.7886 19.8212C22.7826 19.8073 22.7308 19.7755 22.6751 19.7517C22.5836 19.7119 22.5617 19.6881 22.4761 19.5471L22.3806 19.3881C22.5398 19.3782 22.5577 19.3723 22.5518 19.3444C22.5498 19.3166 22.504 19.2988 22.3786 19.267C22.2851 19.2431 22.0622 19.2054 21.8812 19.1835C21.7001 19.1597 21.4354 19.1319 21.2941 19.12C21.1528 19.1061 21.0335 19.0942 21.0315 19.0922C21.0275 19.0922 21.0354 19.0227 21.0454 18.9412C21.0553 18.8598 21.0733 18.5519 21.0872 18.2559C21.1011 17.944 21.1051 17.513 21.0971 17.227L21.0852 16.7363H21.2842C21.2603 17.0065 21.2543 17.2349 21.2563 17.4216C21.2563 17.6481 21.2683 17.8249 21.2921 17.958C21.312 18.0672 21.3399 18.1765 21.3558 18.2003C21.3717 18.2261 21.4016 18.246 21.4235 18.246C21.4454 18.246 21.4732 18.2281 21.4832 18.2062C21.4931 18.1844 21.519 18.101 21.5369 18.0215C21.5628 17.9103 21.5707 17.7891 21.5687 17.4614C21.5667 17.2309 21.5588 16.9767 21.5468 16.8952C21.5369 16.8138 21.5329 16.7423 21.5369 16.7363C21.5429 16.7304 21.8792 16.7244 22.2851 16.7204C22.693 16.7184 23.0671 16.7145 23.1189 16.7105L23.2144 16.7065C23.1985 16.7979 23.1865 16.8952 23.1746 16.9787C23.1646 17.0641 23.1547 17.2508 23.1547 17.3918C23.1547 17.5746 23.1666 17.7097 23.1965 17.8547C23.2184 17.9659 23.2502 18.0811 23.2661 18.1109C23.282 18.1427 23.3059 18.1625 23.3179 18.1606C23.3318 18.1566 23.3597 18.1268 23.3776 18.095C23.3975 18.0632 23.4273 17.9699 23.4452 17.8884C23.4631 17.801 23.479 17.6342 23.481 17.4892L23.483 17.2369C23.5825 17.3263 23.684 17.3879 23.7716 17.4316C23.9248 17.507 23.9308 17.513 23.9148 17.5646C23.9069 17.5964 23.9009 17.6818 23.9029 17.7593C23.9049 17.8408 23.9228 17.9599 23.9507 18.0473C23.9745 18.1288 24.0123 18.2321 24.0322 18.2758C24.0541 18.3195 24.0701 18.3552 24.0701 18.3552C24.0701 18.3552 23.9745 18.3612 23.8571 18.3691C23.7377 18.3751 23.5925 18.3989 23.5328 18.4188C23.4651 18.4406 23.4233 18.4665 23.4233 18.4843C23.4233 18.5082 23.4552 18.5161 23.5626 18.5181C23.6382 18.5221 23.9845 18.538 24.3287 18.5539C24.673 18.5717 25.0491 18.5896 25.1645 18.5956L25.3734 18.6075C25.453 18.8717 25.4968 18.9631 25.5426 19.0207L25.6122 19.1081C25.5048 19.0862 25.3197 19.0524 25.1347 19.0207C24.9476 18.9889 24.6849 18.9492 24.5476 18.9333C24.4103 18.9154 24.1596 18.8876 23.9905 18.8717C23.8213 18.8558 23.4412 18.8339 23.1447 18.824C22.8482 18.8121 22.303 18.7982 21.9309 18.7902C21.3319 18.7783 21.2464 18.7823 21.1787 18.8101C21.121 18.8339 21.1071 18.8518 21.1091 18.8856C21.115 18.9293 21.127 18.9313 21.3041 18.9452C21.4076 18.9531 21.8772 18.969 22.3488 18.979C23.0393 18.9968 23.3577 19.0127 23.9905 19.0703C24.4223 19.1081 25.0411 19.1637 25.3635 19.1915C25.6859 19.2193 26.0142 19.2392 26.0938 19.2352C26.1993 19.2312 26.251 19.2193 26.2928 19.1875C26.3226 19.1657 26.3664 19.116 26.3863 19.0783C26.4115 19.0332 26.4195 18.9922 26.4102 18.9551C26.4042 18.9233 26.3843 18.9015 26.3624 18.9015C26.3445 18.8995 26.3007 18.9293 26.2689 18.967C26.2351 19.0028 26.1873 19.0485 26.1595 19.0664C26.1316 19.0862 26.0918 19.1001 26.0699 19.1001C26.048 19.1021 26.0082 19.0842 25.9804 19.0644C25.9525 19.0425 25.9047 18.973 25.8729 18.9094C25.8411 18.8439 25.7993 18.7108 25.7774 18.6135C25.7575 18.5161 25.7257 18.4208 25.7097 18.4049C25.6878 18.383 25.6301 18.3751 25.467 18.3751H25.254C25.2043 17.9897 25.1824 17.7613 25.1745 17.6203L25.1605 17.362C25.256 17.3382 25.2839 17.3243 25.2839 17.3124C25.2839 17.3005 25.254 17.2766 25.2182 17.2568C25.1844 17.2369 25.1207 17.1892 25.0769 17.1515C25.0332 17.1118 24.9675 17.0204 24.9237 16.929C24.8799 16.8456 24.8461 16.7542 24.8461 16.7264C24.8461 16.6867 24.8362 16.6767 24.7964 16.6767C24.7586 16.6767 24.7108 16.7184 24.6014 16.8376C24.5238 16.927 24.4044 17.0422 24.3387 17.0939C24.273 17.1455 24.2034 17.1932 24.1835 17.1992C24.1656 17.2071 24.1516 17.225 24.1556 17.2369C24.1596 17.2508 24.1835 17.2726 24.2113 17.2866C24.2372 17.3005 24.3009 17.3163 24.3526 17.3223L24.4481 17.3322C24.4481 17.5329 24.4442 17.5905 24.4382 17.5905C24.4322 17.5905 24.3646 17.5587 24.2889 17.5209C24.2113 17.4832 24.0979 17.4196 24.0342 17.3779C23.9725 17.3382 23.877 17.2687 23.8233 17.225C23.7676 17.1793 23.6741 17.074 23.6144 16.9906C23.5527 16.9072 23.483 16.8058 23.4572 16.7681L23.4134 16.6966C23.9148 16.6867 23.9606 16.6807 23.9606 16.6569C23.9606 16.637 23.9334 16.6238 23.879 16.6171C23.8352 16.6112 23.7815 16.5933 23.7596 16.5794C23.7397 16.5635 23.688 16.5178 23.6462 16.4801C23.6044 16.4404 23.5447 16.3589 23.5149 16.2993C23.483 16.2397 23.4532 16.1662 23.4452 16.1345L23.4333 16.0808H23.0154C23.0572 15.9497 23.089 15.8782 23.1129 15.8365C23.1507 15.769 23.1527 15.759 23.1248 15.7074C23.1089 15.6776 23.0711 15.6259 23.0413 15.5922C23.0114 15.5564 22.9458 15.4988 22.896 15.4611C22.8463 15.4233 22.7547 15.3737 22.691 15.3498C22.6294 15.326 22.5139 15.2982 22.4383 15.2863C22.3448 15.2724 22.2513 15.2724 22.1538 15.2863C22.0762 15.2982 21.9707 15.32 21.921 15.3359C21.8712 15.3538 21.7836 15.3995 21.7239 15.4412C21.6662 15.4809 21.5926 15.5505 21.5608 15.5942L21.5031 15.6736C21.5767 15.8881 21.6026 15.9755 21.6105 16.0053L21.6225 16.061C21.3916 16.061 21.32 16.0689 21.314 16.0808C21.3081 16.0927 21.318 16.1166 21.3339 16.1345C21.3578 16.1642 21.3578 16.1861 21.3399 16.2497C21.328 16.2934 21.3041 16.351 21.2862 16.3768C21.2683 16.4026 21.2145 16.4543 21.1648 16.492C21.115 16.5278 21.0732 16.5556 21.0713 16.5536C21.0693 16.5496 21.0534 16.3728 21.0354 16.1603C21.0175 15.9477 21.0016 15.759 20.9996 15.7431C20.9956 15.7193 21.0335 15.7094 21.1727 15.6935C21.2842 15.6816 21.3538 15.6637 21.3578 15.6478C21.3618 15.6359 21.3339 15.614 21.2981 15.6041C21.2643 15.5922 21.1648 15.5763 21.0812 15.5683L20.928 15.5544C20.9101 15.2306 20.8961 15.034 20.8842 14.9089C20.8743 14.7837 20.8603 14.6665 20.8563 14.6506C20.8484 14.6248 20.8842 14.6208 21.1091 14.6208C21.2643 14.6208 21.3737 14.6129 21.3777 14.601C21.3817 14.589 21.3299 14.5354 21.2603 14.4798C21.1887 14.4222 21.0832 14.307 21.0155 14.2116C20.9499 14.1203 20.8365 13.9296 20.7648 13.7865C20.6932 13.6455 20.6016 13.4369 20.5618 13.3237C20.522 13.2125 20.4882 13.1112 20.4882 13.1012C20.4882 13.0893 20.522 13.0814 20.5618 13.0814C20.6036 13.0814 20.6733 13.0714 20.7171 13.0615C20.7608 13.0496 20.8006 13.0377 20.8066 13.0317C20.8126 13.0258 20.8066 13.0119 20.7967 13.0019C20.7867 12.99 20.7011 12.9741 20.6096 12.9662L20.4424 12.9523C20.2912 12.4298 20.2295 12.2392 20.2076 12.1915L20.1698 12.1081C20.3529 12.0902 20.3688 12.0822 20.3688 12.0485C20.3688 12.0266 20.3529 12.0008 20.333 11.9909C20.3151 11.9809 20.2634 11.965 20.2196 11.9591L20.14 11.9452C20.1639 11.818 20.1738 11.6373 20.1798 11.4625C20.1897 11.1903 20.1858 11.1308 20.1559 11.0473C20.136 10.9937 20.1022 10.9381 20.0803 10.9242C20.0564 10.9103 20.0266 10.9043 20.0126 10.9123ZM19.9848 12.7934C20.0166 12.7139 20.0465 12.6523 20.0524 12.6603C20.0604 12.6682 20.0843 12.7338 20.1499 12.9423H19.931L19.9848 12.7934ZM19.8813 13.1052C19.8893 13.0854 19.933 13.0794 20.1937 13.0913L20.2673 13.2999C20.3091 13.4131 20.3668 13.5661 20.3967 13.6376C20.4265 13.7071 20.4842 13.8144 20.522 13.8759C20.5599 13.9355 20.6275 14.0289 20.6733 14.0845C20.7171 14.1381 20.8166 14.2474 21.0335 14.4718H20.7111C20.534 14.4718 20.3768 14.4758 20.3629 14.4818C20.3469 14.4897 20.327 14.45 20.3032 14.3626C20.2833 14.2911 20.2494 14.1977 20.2275 14.154C20.2056 14.1103 20.1678 14.0547 20.144 14.0329C20.1201 14.011 20.0723 13.9931 20.0385 13.9951C19.9967 13.9951 19.9589 14.017 19.8992 14.0785C19.8455 14.1362 19.7977 14.2176 19.7559 14.3268C19.7201 14.4162 19.6903 14.4997 19.6903 14.5116C19.6903 14.5215 19.6783 14.5255 19.6604 14.5215C19.6445 14.5155 19.5032 14.5056 19.0634 14.4858L19.1231 14.446C19.157 14.4222 19.2465 14.3407 19.3221 14.2633C19.4077 14.1779 19.4913 14.0686 19.5351 13.9832C19.5768 13.9077 19.6684 13.6852 19.74 13.4886C19.8116 13.2919 19.8753 13.1191 19.8813 13.1052ZM19.933 14.4063C19.9549 14.3209 19.9768 14.2533 19.9808 14.2533C19.9868 14.2533 19.9887 14.3547 19.9887 14.7102L19.935 14.7043C19.8853 14.7003 19.8813 14.6923 19.8853 14.6308C19.8893 14.591 19.9092 14.4917 19.933 14.4063ZM20.0942 14.3626L20.1201 14.4917C20.136 14.5612 20.1479 14.6407 20.1479 14.6645C20.1479 14.6923 20.138 14.7102 20.1181 14.7102C20.0942 14.7102 20.0902 14.6784 20.0922 14.5354L20.0942 14.3626ZM20.3569 14.6169C20.3489 14.5712 20.3529 14.5672 20.3927 14.5771C20.4166 14.5851 20.5021 14.597 20.5817 14.6049C20.6952 14.6169 20.723 14.6268 20.7171 14.6506C20.7111 14.6665 20.6991 14.7341 20.6872 14.7996C20.6753 14.8652 20.6653 15.0082 20.6653 15.1174C20.6673 15.2267 20.6733 15.3478 20.6832 15.3856C20.6932 15.4233 20.7051 15.475 20.7131 15.5008C20.725 15.5425 20.721 15.5445 20.6116 15.5445C20.5479 15.5445 20.4763 15.5405 20.4524 15.5346C20.4086 15.5246 20.4066 15.5167 20.4066 15.2823C20.4066 15.1472 20.3987 14.9545 20.3867 14.8532C20.3768 14.7499 20.3629 14.6447 20.3569 14.6169ZM19.3082 14.6308H19.6604V15.5048H19.3719V15.3419C19.3719 15.2505 19.3639 15.0856 19.354 14.9724C19.346 14.8612 19.3301 14.738 19.3221 14.7003L19.3082 14.6308ZM19.8514 14.8532C19.8534 14.8493 19.8833 14.8493 19.9808 14.8592L19.9907 15.5246H19.935C19.9052 15.5246 19.8534 15.5187 19.7619 15.5008L19.8057 15.179C19.8276 15.0022 19.8495 14.8552 19.8514 14.8532ZM20.0823 15.1413C20.0942 14.8612 20.0982 14.8493 20.138 14.8493C20.1758 14.8473 20.1838 14.8711 20.2255 15.1313C20.2494 15.2863 20.2753 15.4392 20.2793 15.469C20.2892 15.5246 20.2892 15.5246 20.1698 15.5246C20.0564 15.5246 20.0504 15.5226 20.0584 15.4789C20.0644 15.4551 20.0743 15.3022 20.0823 15.1413ZM22.11 15.5048C22.1538 15.4948 22.2274 15.4869 22.2732 15.4869C22.3209 15.4849 22.4224 15.4988 22.502 15.5167C22.5816 15.5326 22.7129 15.5803 22.7925 15.62C22.8741 15.6597 22.9477 15.7014 22.9577 15.7133C22.9696 15.7253 22.9577 15.7451 22.9259 15.767C22.8781 15.8007 22.8681 15.8007 22.701 15.761C22.5637 15.7272 22.4463 15.7173 22.1299 15.7114C21.911 15.7054 21.7299 15.6974 21.7259 15.6935C21.724 15.6875 21.7458 15.6657 21.7757 15.6438C21.8055 15.624 21.8752 15.5862 21.9309 15.5624C21.9846 15.5385 22.0662 15.5127 22.11 15.5048ZM19.4176 15.7173C19.4754 15.7133 19.8116 15.7094 20.8066 15.7034L20.7927 15.9457C20.7847 16.0808 20.7768 16.8019 20.7768 17.5507C20.7768 18.4704 20.7827 18.9372 20.8205 19.0703H19.2704L19.2823 18.9809C19.2903 18.9313 19.3022 18.7386 19.3102 18.5539C19.3182 18.3671 19.3221 17.654 19.3142 15.7233L19.4176 15.7173ZM21.8254 15.8464C21.8155 15.8285 21.8931 15.8226 22.1697 15.8226C22.3667 15.8226 22.5955 15.8285 22.8283 15.8524L22.7886 15.9418C22.7567 16.0153 22.7527 16.061 22.7587 16.2C22.7647 16.3093 22.7826 16.4006 22.8482 16.5476L22.3289 16.5397C22.0443 16.5357 21.8075 16.5317 21.8055 16.5297C21.8035 16.5297 21.8135 16.4821 21.8294 16.4284C21.8433 16.3728 21.8632 16.2834 21.8692 16.2298C21.8772 16.1742 21.8732 16.0729 21.8593 16.0014C21.8473 15.9299 21.8314 15.8603 21.8254 15.8464ZM21.5628 16.2139C21.5608 16.196 21.5687 16.1801 21.5767 16.1801C21.5847 16.1801 21.6026 16.1861 21.6145 16.194C21.6284 16.204 21.6404 16.2775 21.6503 16.5377H21.4016L21.4493 16.4721C21.4772 16.4364 21.513 16.3728 21.5309 16.3291C21.5488 16.2854 21.5628 16.2338 21.5628 16.2139ZM22.9935 16.2556C23.0074 16.2159 23.0234 16.2099 23.1308 16.204C23.2283 16.2 23.2522 16.206 23.2522 16.2298C23.2522 16.2457 23.2701 16.2934 23.29 16.3331C23.3119 16.3748 23.3696 16.4463 23.5109 16.5774H23.4373C23.3955 16.5774 23.2741 16.5695 22.9736 16.5476L22.9756 16.4245C22.9776 16.3569 22.9856 16.2814 22.9935 16.2556ZM17.7362 16.6708C17.7879 16.6668 17.9909 16.6628 18.5461 16.6569L18.6157 16.7999C18.6615 16.8932 18.7311 16.9926 18.8147 17.08C18.8863 17.1535 18.96 17.219 18.9799 17.223C19.0097 17.2309 19.0137 17.2627 19.0137 17.7692L18.9102 17.7593C18.8525 17.7534 18.5461 17.7295 18.2277 17.7077C17.8794 17.6818 17.569 17.6699 17.4417 17.6759C17.3282 17.6818 17.2168 17.6938 17.1949 17.7037C17.1571 17.7176 17.1571 17.7136 17.1691 17.5905C17.177 17.519 17.183 17.3958 17.183 17.3163C17.183 17.1932 17.1889 17.1733 17.2188 17.1733C17.2367 17.1733 17.2884 17.1614 17.3322 17.1475C17.376 17.1336 17.4437 17.0919 17.4835 17.0541C17.5292 17.0104 17.569 16.9469 17.5869 16.8853C17.6048 16.8297 17.6227 16.7602 17.6287 16.7304C17.6407 16.6827 17.6506 16.6767 17.7362 16.6708ZM24.6869 17.0085C24.6849 17.0005 24.6909 16.9946 24.6949 16.9946C24.7009 16.9946 24.7606 17.0502 24.8302 17.1177C24.9297 17.215 24.9436 17.2369 24.9038 17.227C24.878 17.221 24.7844 17.2111 24.5456 17.1932L24.6173 17.1078C24.6551 17.0621 24.6869 17.0164 24.6869 17.0085ZM16.8527 17.3243C16.8964 17.2866 16.9323 17.2607 16.9362 17.2687C16.9402 17.2766 16.9442 17.3879 16.9482 17.517C16.9541 17.7474 16.9541 17.7534 16.9104 17.7712C16.8845 17.7812 16.8686 17.799 16.8726 17.8129C16.8745 17.8268 16.8984 17.8408 16.9223 17.8427C16.9641 17.8487 16.9641 17.8566 16.974 18.4049H16.7213C16.582 18.4049 16.4527 18.4108 16.4348 18.4188C16.4049 18.4327 16.4049 18.4267 16.4368 18.3552C16.4567 18.3115 16.4925 18.2122 16.5184 18.1367C16.5442 18.0593 16.58 17.8825 16.5999 17.7434C16.6358 17.4912 16.6377 17.4892 16.7054 17.4415C16.7452 17.4157 16.8109 17.362 16.8527 17.3243ZM24.5914 17.3322H24.9536L24.9476 17.6342C24.9416 17.8288 24.9496 17.9778 24.9655 18.0473C24.9774 18.1069 25.0113 18.2062 25.0371 18.2658C25.063 18.3254 25.0849 18.3771 25.0849 18.3791C25.0829 18.383 24.9775 18.385 24.6153 18.385L24.6312 18.3115C24.6392 18.2698 24.6571 18.1188 24.669 17.9778C24.6849 17.7812 24.6849 17.6858 24.667 17.5805C24.6551 17.5031 24.6312 17.4157 24.6173 17.3859L24.5914 17.3322ZM15.5731 17.3918H15.806L15.798 17.7057C15.794 17.8765 15.7861 18.1149 15.7721 18.4446L15.6866 18.4545C15.6408 18.4585 15.5314 18.4685 15.2846 18.4863L15.3622 18.4009C15.406 18.3552 15.4577 18.2758 15.4796 18.2261C15.4995 18.1784 15.5294 18.0791 15.5453 18.0076C15.5592 17.9381 15.5712 17.7692 15.5712 17.6362L15.5731 17.3918ZM16.4348 17.5587L16.4427 17.6977C16.4487 17.7752 16.4427 17.9123 16.4308 18.0017C16.4189 18.093 16.385 18.2241 16.2995 18.4248H16.1701C16.1005 18.4248 16.0209 18.4307 15.9512 18.4545L15.9851 18.3552C16.005 18.2897 16.0189 18.1566 16.0348 17.6739L16.2358 17.6163L16.4348 17.5587ZM24.08 17.6044C24.074 17.5885 24.1118 17.5944 24.2054 17.6242C24.279 17.6481 24.3626 17.6679 24.4481 17.6699L24.4581 17.9023C24.4641 18.0314 24.472 18.1884 24.4879 18.3652H24.3486C24.2332 18.3652 24.2074 18.3592 24.1994 18.3294C24.1954 18.3115 24.1676 18.1467 24.1397 17.9619C24.1118 17.7792 24.086 17.6183 24.08 17.6044ZM18.6177 17.8467C18.6774 17.8408 18.7331 17.8328 18.7411 17.8308C18.751 17.8308 18.757 17.8328 18.757 17.8388C18.757 17.8447 18.7351 17.8825 18.7072 17.9222C18.6794 17.9639 18.6515 18.0235 18.6456 18.0573C18.6356 18.1149 18.6316 18.1129 18.5083 17.8586L18.6177 17.8467ZM18.8863 17.8268H18.95C19.0137 17.8288 19.0157 17.8308 19.0157 17.9123C19.0137 17.9858 19.0117 17.9917 18.9918 17.958C18.9799 17.9361 18.952 17.8964 18.9281 17.8725L18.8863 17.8268ZM17.3143 17.8467H17.4735C17.6029 17.8467 17.6287 17.8507 17.6088 17.8706C17.5949 17.8864 17.567 17.946 17.5093 18.1149L17.4795 18.0255C17.4596 17.9659 17.4297 17.9222 17.382 17.8924L17.3143 17.8467ZM17.8237 17.8467H18.1998L18.1063 17.9818C18.0565 18.0553 18.0128 18.1169 18.0128 18.1208C18.0108 18.1228 17.969 18.0632 17.9173 17.9858L17.8237 17.8467ZM17.6984 17.9162C17.7043 17.9063 17.7302 17.9421 17.7561 17.9957C17.78 18.0513 17.8317 18.1645 17.9411 18.4029H17.5432L17.573 18.3493C17.5889 18.3175 17.6208 18.2142 17.6426 18.1149C17.6665 18.0175 17.6904 17.9282 17.6984 17.9162ZM18.3172 17.9599C18.3491 17.9242 18.3511 17.9242 18.3749 17.9599C18.3869 17.9798 18.4167 18.0672 18.4406 18.1546C18.4625 18.242 18.4963 18.3413 18.5481 18.4347L18.359 18.4267C18.2555 18.4228 18.1421 18.4128 18.0446 18.393L18.164 18.1943C18.2297 18.0851 18.2993 17.9798 18.3172 17.9599ZM18.8446 17.9361L18.9341 18.1248C18.9938 18.2519 19.0256 18.3493 19.0336 18.4228C19.0416 18.5122 19.0376 18.53 19.0137 18.5201C18.9998 18.5122 18.9281 18.4963 18.8565 18.4843C18.7849 18.4704 18.7072 18.4565 18.6376 18.4426L18.6774 18.389C18.6993 18.3572 18.747 18.244 18.7809 18.1347L18.8446 17.9361ZM17.2427 18.0295C17.2606 18.0036 17.2805 17.9917 17.2865 17.9997C17.2944 18.0076 17.3143 18.0553 17.3342 18.1049C17.3521 18.1546 17.3939 18.242 17.4835 18.4029H17.2845C17.0994 18.4029 17.0855 18.4009 17.0855 18.3632C17.0855 18.3413 17.1153 18.2678 17.1492 18.2003C17.183 18.1308 17.2248 18.0553 17.2427 18.0295ZM16.4885 18.6035C16.7034 18.5956 17.0198 18.5856 17.1949 18.5837C17.37 18.5837 17.8178 18.5916 18.1899 18.6015C18.562 18.6135 18.9062 18.6274 19.0356 18.6413V18.82H18.7928C18.6595 18.82 18.2854 18.83 17.961 18.8399C17.6387 18.8498 17.187 18.8677 16.9561 18.8796C16.7273 18.8916 16.4129 18.9094 16.2597 18.9213C16.1064 18.9313 15.802 18.9631 15.5831 18.9889C15.3642 19.0167 15.1234 19.0485 14.9065 19.0902L14.9603 18.9591C14.9881 18.8876 15.018 18.7982 15.0259 18.7604C15.0379 18.6929 15.0398 18.6909 15.1612 18.677C15.2309 18.6691 15.4697 18.6532 15.6925 18.6413C15.9174 18.6293 16.2756 18.6115 16.4885 18.6035ZM18.2595 28.8115V29.0896H18.3789V28.5335H18.2595V28.8115Z" fill="#E6B34F"/>
<path fill-rule="evenodd" clip-rule="evenodd" d="M12.3804 20.0955C12.5078 20.0935 12.5576 20.1015 12.6292 20.1372C12.6949 20.171 12.7307 20.2067 12.7645 20.2723C12.7944 20.3319 12.8163 20.4292 12.8322 20.5703C12.8501 20.7272 12.8501 20.8583 12.8322 21.1066C12.8202 21.2874 12.7904 21.5734 12.7685 21.7423C12.7446 21.9111 12.7008 22.2071 12.669 22.3978C12.6372 22.5885 12.5655 22.9779 12.4123 23.7784L12.4521 23.987C12.472 24.1022 12.5118 24.275 12.5396 24.3744C12.5655 24.4737 12.6431 24.7141 12.7088 24.9107C12.7765 25.1074 12.858 25.3239 12.8899 25.3914C12.9217 25.463 12.9675 25.5265 12.9934 25.5384C13.0292 25.5563 13.0451 25.5524 13.0829 25.5126C13.1108 25.4848 13.1426 25.4073 13.1665 25.308C13.1904 25.2107 13.2063 25.0796 13.2063 24.9703C13.2063 24.871 13.2182 24.716 13.2342 24.6227C13.2501 24.5293 13.2879 24.3863 13.3177 24.3048C13.3476 24.2234 13.4033 24.1022 13.4411 24.0367C13.4809 23.9711 13.5625 23.8698 13.6222 23.8102C13.6839 23.7506 13.7874 23.6672 13.853 23.6235C13.9187 23.5778 14.0302 23.5142 14.1018 23.4805C14.1734 23.4467 14.2491 23.4149 14.2709 23.4089C14.3048 23.399 14.3147 23.3692 14.3366 23.1904C14.3505 23.0772 14.3744 22.8627 14.3903 22.7157C14.4063 22.5687 14.4202 22.3799 14.4202 22.2985C14.4202 22.2111 14.4102 22.1336 14.3963 22.1118C14.3724 22.078 14.3625 22.078 14.2908 22.1018C14.2431 22.1177 14.1695 22.1714 14.1058 22.2329C14.0381 22.3005 13.9744 22.3958 13.9227 22.5011C13.8789 22.5925 13.8212 22.7514 13.7953 22.8547C13.7695 22.958 13.7396 23.1368 13.7277 23.252C13.7177 23.3672 13.7038 23.4725 13.6978 23.4844C13.6899 23.4983 13.66 23.5103 13.6302 23.5103C13.5983 23.5103 13.5307 23.4884 13.4749 23.4646C13.4192 23.4387 13.3416 23.3791 13.2998 23.3295C13.258 23.2818 13.2123 23.2023 13.1963 23.1527C13.1804 23.103 13.1625 23.0136 13.1546 22.954C13.1486 22.8944 13.1526 22.7911 13.1645 22.7256C13.1764 22.66 13.2182 22.5389 13.258 22.4574C13.3098 22.3482 13.3675 22.2707 13.471 22.1674C13.5506 22.0899 13.672 21.9946 13.7436 21.9568C13.8152 21.9171 13.9346 21.8654 14.0122 21.8416C14.0899 21.8198 14.2192 21.7939 14.3008 21.788C14.4202 21.778 14.4779 21.784 14.5893 21.8178C14.6968 21.8496 14.7485 21.8794 14.8182 21.9449C14.8679 21.9926 14.9296 22.082 14.9595 22.1495C14.9893 22.2151 15.0271 22.3362 15.0451 22.4177C15.063 22.4991 15.0868 22.7455 15.0968 22.964C15.1067 23.1825 15.1247 23.6294 15.1366 23.9572C15.1465 24.285 15.1704 24.6465 15.1863 24.7617C15.2023 24.8769 15.2341 25.0279 15.254 25.0994C15.2759 25.1709 15.3157 25.2524 15.3436 25.2822C15.3734 25.314 15.4172 25.3378 15.445 25.3378C15.4729 25.3378 15.5147 25.3279 15.5406 25.314C15.5644 25.3021 15.6162 25.2663 15.654 25.2345C15.6918 25.2047 15.7396 25.1789 15.7595 25.1789C15.7794 25.1789 15.7933 25.1948 15.7933 25.2186C15.7933 25.2405 15.7794 25.2921 15.7615 25.3319C15.7455 25.3736 15.7018 25.4411 15.6679 25.4828C15.6321 25.5265 15.5525 25.5861 15.4848 25.6179C15.3893 25.6636 15.3396 25.6755 15.2361 25.6755C15.1645 25.6755 15.055 25.6616 14.9933 25.6457C14.9296 25.6298 14.8421 25.598 14.7983 25.5762C14.7545 25.5543 14.6869 25.5086 14.5794 25.4173L14.5495 25.461C14.5316 25.4868 14.4759 25.5504 14.4242 25.604C14.3724 25.6576 14.2948 25.7232 14.251 25.751C14.2073 25.7788 14.1356 25.8126 14.0918 25.8285C14.0481 25.8444 13.9545 25.8563 13.8829 25.8563C13.8113 25.8563 13.7137 25.8424 13.664 25.8265C13.6142 25.8106 13.5346 25.7609 13.3953 25.6398L13.3416 25.7212C13.3118 25.7669 13.258 25.8324 13.2222 25.8682C13.1864 25.902 13.1128 25.9536 13.057 25.9794C13.0033 26.0073 12.9138 26.0371 12.858 26.049C12.8043 26.0609 12.7187 26.0629 12.669 26.0549C12.6192 26.047 12.5436 26.0231 12.4998 26.0033C12.4561 25.9834 12.3625 25.9059 12.2909 25.8344C12.2133 25.753 12.1297 25.6437 12.0819 25.5504C12.0382 25.4689 12.0003 25.4014 11.9984 25.4034C11.9964 25.4054 11.9705 25.4868 11.9426 25.5861C11.9128 25.6854 11.8571 25.8364 11.8153 25.9238C11.7755 26.0112 11.7018 26.1264 11.6501 26.1821C11.6004 26.2357 11.5068 26.3112 11.4431 26.345C11.3775 26.3807 11.276 26.4185 11.2163 26.4284C11.1486 26.4403 11.069 26.4403 11.0073 26.4284C10.9536 26.4185 10.868 26.3906 10.8183 26.3668C10.7685 26.343 10.6651 26.2615 10.5894 26.1821C10.5138 26.1046 10.4103 25.9735 10.3606 25.8901C10.3108 25.8066 10.269 25.7391 10.2651 25.7411C10.2631 25.7431 10.2472 25.8662 10.2312 26.0132C10.2153 26.1602 10.1875 26.3847 10.1695 26.5098C10.1516 26.635 10.1158 26.8217 10.0899 26.921C10.0641 27.0223 10.0123 27.1654 9.97453 27.2389C9.93871 27.3144 9.86707 27.4157 9.81533 27.4673C9.76558 27.521 9.67205 27.5865 9.61036 27.6143C9.51086 27.66 9.47504 27.666 9.34569 27.66C9.2243 27.654 9.16858 27.6382 9.05714 27.5845C8.95565 27.5349 8.87008 27.4673 8.74669 27.3461C8.65117 27.2528 8.53177 27.1078 8.47804 27.0263C8.4263 26.9449 8.34073 26.7879 8.28899 26.6787C8.23725 26.5694 8.16362 26.3767 8.12382 26.2516C8.08203 26.1205 8.04223 25.9377 8.0283 25.8245C8.01238 25.6715 8.01238 25.5881 8.03029 25.4669C8.04223 25.3795 8.07606 25.2405 8.10392 25.159C8.13178 25.0776 8.19148 24.9485 8.23725 24.871C8.28302 24.7935 8.38252 24.6664 8.46013 24.5869C8.53575 24.5055 8.63724 24.4181 8.685 24.3922C8.73077 24.3664 8.78251 24.3446 8.79843 24.3446C8.81435 24.3446 8.83625 24.3644 8.8462 24.3883C8.85615 24.4141 8.87406 24.5055 8.886 24.5929C8.89794 24.6803 8.9258 24.9028 8.94968 25.0895C8.97157 25.2762 9.00739 25.5384 9.02928 25.6755C9.05117 25.8126 9.09694 26.049 9.12878 26.2019C9.16261 26.3549 9.22231 26.5734 9.25813 26.6886C9.29594 26.8038 9.35365 26.9449 9.38549 27.0005C9.42529 27.0707 9.46708 27.115 9.51086 27.1336C9.55265 27.1515 9.58648 27.1554 9.61036 27.1435C9.62827 27.1336 9.66409 27.0879 9.68598 27.0402C9.70986 26.9945 9.74568 26.8893 9.76558 26.8078C9.78548 26.7264 9.81533 26.5694 9.83125 26.4602C9.84717 26.3509 9.87503 26.1264 9.89095 25.9636C9.90687 25.7987 9.93075 25.5265 9.96458 25.0498L9.87304 24.7121C9.82329 24.5253 9.75165 24.2353 9.71384 24.0665C9.67603 23.8976 9.62827 23.6513 9.60638 23.5202C9.5825 23.3891 9.55066 23.1745 9.53474 23.0434C9.51683 22.9123 9.49693 22.6441 9.49096 22.4475C9.483 22.219 9.48897 22.0045 9.50489 21.8515C9.51683 21.7204 9.55066 21.5277 9.57653 21.4245C9.6024 21.3212 9.66011 21.1622 9.70389 21.0709C9.75563 20.9676 9.82528 20.8643 9.89891 20.7868C9.9606 20.7193 10.0621 20.6358 10.1218 20.6001C10.1815 20.5643 10.281 20.5206 10.3407 20.5027C10.4004 20.4848 10.484 20.4709 10.5258 20.4709C10.5656 20.4709 10.6253 20.4848 10.6591 20.5007C10.6929 20.5166 10.7407 20.5683 10.7685 20.614C10.7964 20.6616 10.8322 20.7709 10.8481 20.8583C10.8641 20.9457 10.876 21.1066 10.878 21.2159C10.878 21.3251 10.87 21.5079 10.8581 21.6231C10.8461 21.7383 10.8243 21.931 10.8063 22.0502C10.7904 22.1694 10.7447 22.4336 10.7068 22.6362C10.669 22.8388 10.6093 23.1428 10.5715 23.3116C10.5078 23.6036 10.5059 23.6255 10.5297 23.7387C10.5437 23.8043 10.5715 23.9254 10.5894 24.0069C10.6073 24.0883 10.6591 24.281 10.7029 24.434C10.7466 24.5869 10.8262 24.8293 10.878 24.9703C10.9317 25.1114 11.0173 25.3219 11.067 25.4371C11.1188 25.5524 11.1785 25.6775 11.2004 25.7152C11.2242 25.753 11.266 25.8086 11.2939 25.8404C11.3218 25.8702 11.3616 25.894 11.3815 25.894C11.3994 25.894 11.4372 25.8642 11.463 25.8285C11.4889 25.7947 11.5347 25.7073 11.5625 25.6358C11.5924 25.5643 11.6382 25.4272 11.664 25.3279C11.6919 25.2286 11.7257 25.0875 11.7416 25.01C11.7695 24.8789 11.7695 24.863 11.7317 24.7419C11.7098 24.6704 11.67 24.5333 11.6421 24.434C11.6163 24.3346 11.5725 24.1559 11.5466 24.0367C11.5188 23.9175 11.479 23.7069 11.4571 23.5698C11.4352 23.4328 11.4053 23.2282 11.3914 23.113C11.3755 22.9878 11.3655 22.6779 11.3655 22.3382C11.3655 21.9807 11.3755 21.6986 11.3914 21.5734C11.4073 21.4642 11.4372 21.2894 11.4591 21.1861C11.481 21.0828 11.5267 20.9219 11.5586 20.8285C11.5904 20.7351 11.6441 20.61 11.678 20.5504C11.7118 20.4908 11.7715 20.4014 11.8113 20.3537C11.8511 20.3061 11.9227 20.2385 11.9725 20.2067C12.0222 20.173 12.0979 20.1352 12.1416 20.1213C12.1854 20.1074 12.2929 20.0955 12.3804 20.0955ZM12.2989 20.749C12.2829 20.8305 12.261 21.049 12.2491 21.2357C12.2352 21.4423 12.2312 21.7482 12.2392 22.0204C12.2471 22.2667 12.261 22.517 12.267 22.5766L12.2829 22.6859C12.3347 22.4078 12.3685 22.2032 12.3904 22.0502C12.4103 21.8972 12.4441 21.637 12.462 21.4741C12.4799 21.3092 12.4959 21.0411 12.4959 20.8782C12.4979 20.6875 12.4899 20.5603 12.474 20.5246C12.46 20.4948 12.4362 20.4709 12.4202 20.4709C12.4043 20.4709 12.3765 20.5007 12.3586 20.5345C12.3406 20.5703 12.3128 20.6676 12.2989 20.749ZM10.3904 20.8782C10.3745 20.9318 10.3506 21.1066 10.3387 21.2655C10.3248 21.4423 10.3208 21.7304 10.3287 22.0105C10.3367 22.2608 10.3486 22.4952 10.3566 22.5269C10.3646 22.5726 10.3765 22.5289 10.4024 22.3581C10.4223 22.2329 10.4581 21.9727 10.482 21.782C10.5098 21.5635 10.5258 21.3152 10.5277 21.1126C10.5297 20.8484 10.5238 20.7848 10.4999 20.759C10.474 20.7332 10.4641 20.7312 10.4442 20.753C10.4322 20.7669 10.4064 20.8225 10.3904 20.8782ZM14.0958 24.0665C14.058 24.1479 14.0122 24.2731 13.9943 24.3446C13.9764 24.4161 13.9565 24.5631 13.9506 24.6723C13.9426 24.7915 13.9466 24.9306 13.9605 25.02C13.9744 25.1014 14.0003 25.1988 14.0182 25.2365C14.0361 25.2742 14.068 25.314 14.0859 25.3259C14.1117 25.3438 14.1336 25.3378 14.1754 25.306C14.2053 25.2822 14.269 25.1928 14.3127 25.1074L14.3963 24.9504C14.3386 24.6267 14.3107 24.4161 14.2988 24.275C14.2869 24.134 14.2789 23.9612 14.2849 23.8917C14.2889 23.8241 14.2908 23.7685 14.2889 23.7685C14.2849 23.7685 14.257 23.8023 14.2252 23.842C14.1913 23.8837 14.1336 23.985 14.0958 24.0665ZM30.3402 23.0057C30.39 23.0116 30.4357 23.0196 30.4457 23.0236C30.4536 23.0295 30.4596 23.0633 30.4596 23.0971C30.4596 23.1328 30.4337 23.2381 30.4019 23.3315C30.3701 23.4248 30.2328 23.7784 30.0974 24.1161C29.9601 24.4538 29.789 24.8988 29.7154 25.1034C29.6437 25.31 29.5621 25.5643 29.5343 25.6696C29.5064 25.7768 29.4845 25.904 29.4845 25.9536C29.4845 26.0033 29.4945 26.0549 29.5084 26.0688C29.5223 26.0827 29.5601 26.0927 29.594 26.0927C29.6278 26.0927 29.6895 26.0688 29.7353 26.039C29.781 26.0073 29.8606 25.9338 29.9124 25.8742C29.9661 25.8146 30.0656 25.6795 30.1313 25.5762C30.1989 25.4729 30.3183 25.2703 30.3959 25.1292C30.4735 24.9882 30.6089 24.7141 30.6964 24.5234C30.786 24.3327 30.8815 24.1261 30.9133 24.0665C30.9432 24.0069 31.0327 23.8917 31.1163 23.8062C31.2238 23.697 31.3014 23.6374 31.3949 23.5937C31.4666 23.5619 31.572 23.5242 31.6297 23.5122C31.6855 23.5003 31.781 23.4904 31.8387 23.4904C31.9083 23.4884 31.9501 23.4983 31.968 23.5202C31.982 23.5381 31.9879 23.5758 31.98 23.6135C31.974 23.6493 31.9501 23.7367 31.9282 23.8082C31.9063 23.8797 31.771 24.2373 31.6277 24.6028C31.4865 24.9683 31.3113 25.4073 31.2417 25.5762C31.17 25.745 31.0327 26.041 30.9372 26.2317C30.8397 26.4224 30.7044 26.6648 30.6367 26.7681C30.5691 26.8714 30.4616 27.0184 30.3999 27.0958C30.3362 27.1733 30.2188 27.2985 30.1392 27.3779C30.0576 27.4554 29.9502 27.5547 29.8984 27.5964C29.8487 27.6382 29.7313 27.7156 29.6417 27.7712C29.5502 27.8249 29.3989 27.8984 29.3054 27.9341C29.2119 27.9679 29.0567 28.0116 28.9572 28.0275C28.8597 28.0454 28.7044 28.0593 28.6149 28.0593C28.5233 28.0593 28.3801 28.0454 28.2965 28.0275C28.2109 28.0096 28.0875 27.9719 28.0219 27.9401C27.9443 27.9043 27.8627 27.8428 27.793 27.7673C27.7313 27.7037 27.6597 27.6024 27.6298 27.5428C27.6 27.4832 27.5622 27.3799 27.5463 27.3144C27.5283 27.2488 27.5144 27.1475 27.5144 27.0899C27.5144 27.0343 27.5283 26.9548 27.5443 26.9171C27.5662 26.8674 27.5861 26.8475 27.6199 26.8475C27.6438 26.8475 27.7751 26.9032 27.9124 26.9687C28.0497 27.0363 28.2368 27.1197 28.3303 27.1554C28.4238 27.1912 28.5691 27.2349 28.6547 27.2528C28.7383 27.2707 28.8815 27.2846 28.9731 27.2846C29.0666 27.2846 29.19 27.2707 29.2656 27.2488C29.3373 27.2309 29.4467 27.1833 29.5124 27.1455C29.5761 27.1078 29.6775 27.0223 29.7412 26.9568C29.8029 26.8912 29.9124 26.7482 29.986 26.639C30.0596 26.5297 30.1551 26.3648 30.1969 26.2715C30.2407 26.1781 30.2825 26.0808 30.2905 26.0529C30.3004 26.0192 30.2527 26.0589 30.1392 26.1801C30.0477 26.2774 29.9144 26.4006 29.8427 26.4542C29.7711 26.5078 29.6596 26.5774 29.594 26.6092C29.5283 26.6409 29.4208 26.6747 29.3552 26.6846C29.2895 26.6966 29.192 26.6966 29.1363 26.6886C29.0825 26.6807 29.0009 26.6568 28.9572 26.635C28.9134 26.6131 28.8457 26.5595 28.8079 26.5158C28.7701 26.4721 28.7204 26.3847 28.6985 26.3191C28.6666 26.2258 28.6587 26.1503 28.6587 25.9437C28.6587 25.8026 28.6706 25.6239 28.6865 25.5464C28.7005 25.4689 28.7422 25.2822 28.7801 25.1292C28.8199 24.9763 28.9134 24.6584 28.991 24.424C29.0686 24.1896 29.1701 23.9175 29.2159 23.8182C29.2636 23.7188 29.3452 23.5818 29.3989 23.5103C29.4527 23.4387 29.5462 23.3394 29.6059 23.2898C29.6656 23.2401 29.7532 23.1745 29.8029 23.1467C29.8527 23.1189 29.9323 23.0812 29.982 23.0633C30.0318 23.0454 30.1114 23.0236 30.1611 23.0136C30.2109 23.0037 30.2905 23.0017 30.3402 23.0057Z" fill="#0099DE"/>
<path fill-rule="evenodd" clip-rule="evenodd" d="M17.9118 13.7368C17.9277 13.7368 18.0033 13.8202 18.0789 13.9216C18.1545 14.0209 18.2878 14.2195 18.3774 14.3625C18.4848 14.5353 18.5306 14.6267 18.5187 14.6406C18.5041 14.6539 18.4855 14.6532 18.463 14.6386C18.445 14.6267 18.3018 14.4281 18.1466 14.1977C17.9894 13.9653 17.866 13.7686 17.872 13.7567C17.8799 13.7448 17.8978 13.7368 17.9118 13.7368V13.7368ZM17.6829 13.9553C17.6949 13.9553 17.7545 13.997 17.8162 14.0487C17.8779 14.1023 17.9953 14.2195 18.0769 14.3129C18.1585 14.4062 18.2739 14.5532 18.3296 14.6406C18.3873 14.728 18.5028 14.9247 18.5863 15.0776C18.6699 15.2306 18.7376 15.3756 18.7376 15.3994C18.7376 15.4312 18.7256 15.4451 18.6978 15.4451C18.6719 15.4451 18.6301 15.4074 18.5824 15.3398C18.5386 15.2842 18.3774 15.0399 18.2202 14.7995C18.065 14.5592 17.872 14.2771 17.7904 14.1738C17.7108 14.0705 17.6491 13.9792 17.6551 13.9692C17.661 13.9613 17.673 13.9553 17.6829 13.9553ZM17.3725 14.2334C17.3844 14.2334 17.4481 14.2652 17.5138 14.3049C17.5794 14.3427 17.6789 14.4082 17.7327 14.4499C17.7884 14.4916 17.8978 14.591 17.9794 14.6724C18.059 14.7538 18.1645 14.8671 18.2122 14.9227C18.262 14.9823 18.2958 15.0419 18.2898 15.0578C18.2819 15.0836 18.2739 15.0836 18.2361 15.0578C18.2102 15.0399 17.9953 14.8611 17.7585 14.6605C17.5197 14.4579 17.3227 14.2851 17.3207 14.2771C17.3188 14.2672 17.3247 14.2533 17.3347 14.2473C17.3446 14.2394 17.3605 14.2334 17.3725 14.2334ZM18.1008 16.1642C18.1704 16.1701 18.1704 16.1701 18.1764 16.2734C18.1804 16.3628 18.1744 16.3827 18.1366 16.4085C18.1088 16.4264 18.0749 16.4323 18.051 16.4244C18.0292 16.4184 18.0053 16.4025 17.9973 16.3906C17.9894 16.3787 17.9794 16.333 17.9774 16.2873C17.9754 16.2377 17.9834 16.1979 18.0013 16.184C18.0172 16.1701 18.063 16.1602 18.1008 16.1642ZM21.9552 16.9389C22.1045 16.9448 22.1224 16.9488 22.1801 17.0044C22.2179 17.0402 22.2398 17.0799 22.2358 17.1037C22.2318 17.1296 22.2119 17.1454 22.1801 17.1494C22.1522 17.1514 22.1105 17.1415 22.0428 17.0958L22.0289 17.4871C22.0229 17.7016 22.011 17.9182 22.003 17.9678C21.9931 18.0393 21.9831 18.0572 21.9513 18.0572C21.9234 18.0572 21.9035 18.0353 21.8836 17.9777C21.8637 17.9221 21.8538 17.7791 21.8478 17.505C21.8418 17.1216 21.8418 17.1137 21.802 17.1335C21.7801 17.1454 21.7403 17.1534 21.7125 17.1534C21.6786 17.1534 21.6587 17.1395 21.6508 17.1077C21.6428 17.0839 21.6428 17.0521 21.6508 17.0382C21.6568 17.0263 21.6926 16.9965 21.7284 16.9746C21.7821 16.9389 21.8179 16.9329 21.9552 16.9389ZM22.7552 16.9349C22.8328 16.9349 22.8945 16.9488 22.9542 16.9786C23.0039 17.0044 23.0537 17.0402 23.0636 17.058C23.0795 17.0819 23.0776 17.1057 23.0596 17.1474C23.0358 17.1971 23.0258 17.2011 22.8965 17.1733V17.4176C22.8945 17.5507 22.8865 17.7533 22.8766 17.8685C22.8626 18.0056 22.8467 18.087 22.8268 18.1069C22.8069 18.1267 22.791 18.1307 22.7791 18.1168C22.7691 18.1049 22.7512 18.0612 22.7373 18.0175C22.7253 17.9738 22.7114 17.795 22.7054 17.6202C22.6995 17.4454 22.6915 17.2646 22.6875 17.217C22.6776 17.1415 22.6736 17.1355 22.6378 17.1534C22.6159 17.1653 22.5801 17.1733 22.5582 17.1733C22.5363 17.1733 22.5144 17.1594 22.5084 17.1435C22.5025 17.1276 22.5064 17.0938 22.5144 17.07C22.5244 17.0441 22.5582 17.0044 22.588 16.9806C22.6318 16.9448 22.6696 16.9349 22.7552 16.9349ZM22.389 17.4315C22.405 17.4315 22.4328 17.4454 22.4487 17.4613C22.4647 17.4772 22.4846 17.5248 22.4945 17.5666C22.5025 17.6063 22.5084 17.7354 22.5084 17.8526C22.5084 18.0155 22.5005 18.0731 22.4786 18.0969C22.4567 18.1208 22.4288 18.1267 22.3851 18.1188C22.3333 18.1088 22.3154 18.093 22.2975 18.0413C22.2856 18.0075 22.2716 17.9062 22.2657 17.8188C22.2597 17.7314 22.2597 17.6262 22.2677 17.5844C22.2736 17.5447 22.2975 17.4931 22.3194 17.4712C22.3413 17.4494 22.3731 17.4315 22.389 17.4315ZM22.5084 18.1585C22.7492 18.1645 22.992 18.1744 23.0497 18.1823C23.1054 18.1903 23.1651 18.2062 23.179 18.2201C23.193 18.234 23.1989 18.2578 23.191 18.2757C23.177 18.3015 23.0756 18.3055 22.3552 18.2995C21.7204 18.2976 21.5354 18.2896 21.5294 18.2697C21.5254 18.2578 21.5513 18.238 21.5891 18.228C21.6229 18.2161 21.7204 18.1982 21.802 18.1883C21.8836 18.1764 21.9791 18.1625 22.011 18.1585C22.0428 18.1525 22.2677 18.1545 22.5084 18.1585ZM22.5184 18.4088C22.8268 18.4068 22.9999 18.4128 23.0756 18.4306C23.1353 18.4445 23.2109 18.4704 23.2427 18.4863C23.2746 18.5021 23.3044 18.526 23.3084 18.5379C23.3124 18.5518 23.2905 18.5737 23.2606 18.5856C23.2208 18.5995 22.9621 18.5975 21.5433 18.5538V18.5081C21.5433 18.4843 21.5593 18.4584 21.5792 18.4505C21.5971 18.4445 21.7165 18.4326 21.8418 18.4247C21.9672 18.4167 22.2716 18.4108 22.5184 18.4088ZM15.5537 28.5354H15.7328C15.9099 28.5354 15.9119 28.5354 15.9119 28.585C15.9119 28.6327 15.9079 28.6347 15.6532 28.6347V28.6943C15.6532 28.7539 15.6552 28.7539 15.7627 28.7539C15.8661 28.7539 15.8721 28.7559 15.8721 28.8035C15.8721 28.8512 15.8661 28.8532 15.6532 28.8532V28.9624C15.6532 29.0657 15.6512 29.0717 15.5537 29.0717V28.5354ZM16.5347 28.5354C16.5725 28.5334 16.5905 28.5691 16.672 28.7876C16.7238 28.9267 16.7616 29.0479 16.7576 29.0558C16.7516 29.0657 16.7258 29.0717 16.6979 29.0717C16.6647 29.0717 16.6448 29.0585 16.6382 29.032C16.6303 28.9982 16.6123 28.9922 16.5288 28.9922C16.4452 28.9922 16.4273 28.9982 16.4193 29.032C16.4127 29.0585 16.3928 29.0717 16.3596 29.0717C16.3318 29.0717 16.3099 29.0637 16.3099 29.0538C16.3079 29.0439 16.3437 28.9386 16.3875 28.8194C16.4293 28.7022 16.4711 28.589 16.479 28.5691C16.487 28.5513 16.5109 28.5354 16.5347 28.5354ZM16.5128 28.7837C16.5009 28.8274 16.489 28.8691 16.489 28.877C16.489 28.887 16.5109 28.8929 16.5387 28.8929C16.5666 28.8929 16.5885 28.881 16.5865 28.8671C16.5865 28.8552 16.5745 28.8115 16.5606 28.7737L16.5367 28.7042L16.5128 28.7837ZM17.2451 28.5354H17.2989C17.3486 28.5354 17.3625 28.5513 17.4939 28.8174L17.5575 28.6764C17.6172 28.5473 17.6272 28.5354 17.7426 28.5354V29.0717H17.6232V28.8035L17.5735 28.887C17.5456 28.9366 17.5078 28.9724 17.4879 28.9724C17.468 28.9724 17.4362 28.9406 17.3665 28.8035L17.3645 29.0717H17.2451V28.5354ZM18.8968 28.5354H19.0162V28.9724H19.1355C19.249 28.9724 19.2549 28.9744 19.2549 29.022C19.2549 29.0717 19.2529 29.0717 18.8968 29.0717V28.5354ZM19.6967 28.5354C19.7325 28.5354 19.7544 28.5572 19.842 28.738L19.8917 28.6367C19.9295 28.5592 19.9514 28.5354 19.9852 28.5354C20.0131 28.5354 20.031 28.5473 20.031 28.5652C20.031 28.5811 19.9992 28.6565 19.9614 28.734C19.9096 28.8373 19.8917 28.8989 19.8917 28.9724C19.8917 29.0657 19.8877 29.0717 19.842 29.0717C19.7942 29.0717 19.7922 29.0657 19.7922 28.9724C19.7922 28.8989 19.7743 28.8373 19.7226 28.734C19.6848 28.6565 19.6529 28.5811 19.6529 28.5652C19.6529 28.5473 19.6708 28.5354 19.6967 28.5354ZM21.1056 28.5354H21.2448C21.3722 28.5354 21.3881 28.5393 21.4438 28.595C21.4777 28.6287 21.5035 28.6764 21.5035 28.7042C21.5035 28.732 21.4777 28.7797 21.4458 28.8135C21.4001 28.8611 21.3702 28.8731 21.2249 28.8731V28.9724C21.2249 29.0697 21.223 29.0717 21.1056 29.0717V28.5354ZM21.2787 28.7737C21.3085 28.7737 21.3463 28.7658 21.3603 28.7578C21.3742 28.7499 21.3841 28.7221 21.3802 28.6943C21.3742 28.6526 21.3623 28.6426 21.3006 28.6387C21.2289 28.6327 21.2269 28.6347 21.2249 28.7022C21.2249 28.7678 21.2289 28.7737 21.2787 28.7737ZM22.1363 28.5393C22.1781 28.5453 22.194 28.5751 22.2716 28.7837C22.3194 28.9148 22.3592 29.034 22.3592 29.0459C22.3592 29.0598 22.3373 29.0717 22.3094 29.0717C22.2763 29.0717 22.2564 29.0585 22.2498 29.032C22.2418 28.9982 22.2219 28.9922 22.1403 28.9922C22.0567 28.9922 22.0388 28.9982 22.0309 29.032C22.0242 29.0585 22.0043 29.0717 21.9712 29.0717C21.9433 29.0717 21.9174 29.0657 21.9135 29.0558C21.9075 29.0479 21.9453 28.9267 21.995 28.7876C22.0806 28.5513 22.0906 28.5334 22.1363 28.5393ZM22.0806 28.877C22.0806 28.887 22.1065 28.8929 22.1403 28.8929C22.198 28.8929 22.2 28.8909 22.1761 28.8274C22.1642 28.7936 22.1483 28.7578 22.1423 28.7499C22.1363 28.742 22.1184 28.7638 22.1045 28.7996C22.0925 28.8333 22.0806 28.8691 22.0806 28.877ZM22.8368 28.5354H22.986C23.1174 28.5354 23.1412 28.5413 23.185 28.585C23.2149 28.6168 23.2348 28.6565 23.2348 28.6943C23.2348 28.728 23.2149 28.7737 23.1452 28.8472L23.189 28.9406C23.2149 28.9903 23.2308 29.0419 23.2248 29.0518C23.2188 29.0618 23.195 29.0717 23.1691 29.0717C23.1353 29.0717 23.1134 29.0498 23.0756 28.9724C23.0437 28.9088 23.0119 28.8731 22.99 28.8731C22.9621 28.8731 22.9562 28.8909 22.9562 28.9724C22.9562 29.0697 22.9542 29.0717 22.8368 29.0717V28.5354ZM23.0099 28.7737C23.0397 28.7737 23.0776 28.7658 23.0915 28.7578C23.1054 28.7499 23.1154 28.7221 23.1114 28.6943C23.1054 28.6526 23.0935 28.6426 23.0318 28.6387C22.9601 28.6327 22.9582 28.6347 22.9562 28.7022C22.9562 28.7678 22.9601 28.7737 23.0099 28.7737ZM23.7521 28.5354H23.8019C23.8496 28.5354 23.8516 28.5413 23.8616 28.7539L23.9511 28.6446C24.0128 28.5672 24.0526 28.5354 24.0785 28.5393C24.1004 28.5433 24.1203 28.5572 24.1242 28.5691C24.1262 28.583 24.1024 28.6248 24.0705 28.6585C24.0387 28.6943 24.0108 28.736 24.0108 28.7479C24.0108 28.7618 24.0427 28.8274 24.0805 28.8929C24.1183 28.9585 24.1501 29.026 24.1501 29.0419C24.1501 29.0598 24.1302 29.0717 24.1004 29.0717C24.0606 29.0717 24.0387 29.0498 23.9213 28.8333L23.8874 28.877C23.8675 28.9029 23.8516 28.9565 23.8516 28.9962C23.8516 29.0637 23.8457 29.0717 23.7521 29.0717V28.5354Z" fill="#E6B34F"/>
<path d="M24.0921 20.0343C24.1637 20.0105 24.2751 19.9847 24.3408 19.9747C24.4065 19.9668 24.5099 19.9648 24.5696 19.9688C24.6293 19.9747 24.7288 19.9926 24.7885 20.0085C24.8482 20.0244 24.9517 20.0661 25.0154 20.0999C25.083 20.1376 25.1845 20.2191 25.2582 20.2985C25.3457 20.3879 25.4114 20.4833 25.4631 20.5945C25.5069 20.6859 25.5626 20.8309 25.5885 20.9183C25.6283 21.0573 25.6342 21.1229 25.6342 21.4347C25.6342 21.7148 25.6263 21.8201 25.5984 21.9214C25.5805 21.9929 25.5288 22.122 25.487 22.2094C25.4432 22.2968 25.3696 22.4081 25.3218 22.4557C25.2741 22.5014 25.1965 22.565 25.1467 22.5928C25.097 22.6226 25.0015 22.6663 24.9318 22.6901C24.8642 22.716 24.7726 22.7358 24.7288 22.7358C24.6851 22.7358 24.6433 22.7239 24.6373 22.71C24.6313 22.6981 24.6532 22.5789 24.6851 22.4478C24.7189 22.3167 24.7587 22.12 24.7766 22.0108C24.7945 21.9015 24.8184 21.7367 24.8283 21.6433C24.8403 21.5499 24.8542 21.3314 24.8622 21.1566C24.8681 20.958 24.8642 20.7852 24.8502 20.6938C24.8383 20.6163 24.8104 20.517 24.7905 20.4753C24.7686 20.4356 24.7249 20.3859 24.691 20.3661C24.6572 20.3482 24.6015 20.3323 24.5696 20.3323C24.5259 20.3323 24.4841 20.3581 24.4085 20.4257C24.3488 20.4852 24.2791 20.5786 24.2314 20.67C24.1896 20.7514 24.1239 20.9044 24.0861 21.0077C24.0483 21.111 23.9886 21.2977 23.9548 21.4188C23.9209 21.542 23.8652 21.7665 23.8314 21.9154C23.7976 22.0664 23.7538 22.2789 23.7339 22.3882C23.714 22.4974 23.6821 22.6901 23.6642 22.8153C23.6483 22.9404 23.6205 23.1947 23.6026 23.3814C23.5866 23.5681 23.5687 23.9197 23.5628 24.166C23.5528 24.5355 23.5548 24.6467 23.5827 24.8017C23.6026 24.9049 23.6344 25.0281 23.6563 25.0738C23.6762 25.1215 23.718 25.1811 23.7478 25.2089C23.7797 25.2367 23.8314 25.2645 23.8632 25.2704C23.899 25.2784 23.9488 25.2704 23.9866 25.2506C24.0224 25.2327 24.0742 25.189 24.1 25.1532C24.1279 25.1195 24.1756 25.0321 24.2095 24.9606C24.2433 24.8891 24.293 24.746 24.3209 24.6427C24.3488 24.5395 24.3846 24.3746 24.4005 24.2753C24.4164 24.1759 24.4343 24.0667 24.4403 24.0309C24.4483 23.9872 24.4642 23.9614 24.5 23.9475C24.5378 23.9316 24.5696 23.9356 24.6333 23.9634C24.6811 23.9833 24.7487 24.0329 24.7826 24.0727C24.8184 24.1124 24.8701 24.1898 24.898 24.2455C24.9258 24.3011 24.9617 24.4004 24.9796 24.4679C25.0015 24.5534 25.0074 24.6249 24.9975 24.6924C24.9895 24.746 24.9617 24.8493 24.9358 24.9208C24.9079 24.9923 24.8403 25.1115 24.7826 25.189C24.7268 25.2645 24.6234 25.3698 24.5537 25.4214C24.4741 25.483 24.3846 25.5307 24.295 25.5565C24.2214 25.5803 24.1 25.6061 24.0224 25.6181C23.9249 25.632 23.8433 25.632 23.7478 25.6181C23.6742 25.6061 23.5667 25.5783 23.511 25.5565C23.4533 25.5366 23.3518 25.483 23.2862 25.4413C23.2205 25.3996 23.119 25.3122 23.0593 25.2466C23.0016 25.183 22.918 25.0718 22.8762 25.0003C22.8344 24.9288 22.7728 24.7957 22.7389 24.7023C22.7051 24.609 22.6573 24.4302 22.6355 24.3051C22.5996 24.1124 22.5937 23.9972 22.5937 23.5602C22.5937 23.0973 22.5976 23.006 22.6474 22.6862C22.6772 22.4895 22.723 22.2213 22.7509 22.0902C22.7787 21.9591 22.8325 21.7446 22.8723 21.6135C22.9101 21.4824 22.9638 21.3175 22.9916 21.246C23.0195 21.1745 23.0892 21.0275 23.1449 20.9183C23.2006 20.809 23.3001 20.6481 23.3658 20.5607C23.4314 20.4753 23.5429 20.3561 23.6145 20.2985C23.6861 20.2409 23.7936 20.1674 23.8533 20.1356C23.913 20.1039 24.0204 20.0582 24.0921 20.0343Z" fill="#0099DE"/>
<path d="M18.8487 20.1674C18.9024 20.1396 18.9621 20.1138 18.978 20.1078C18.9939 20.1019 19.0695 20.0959 19.1471 20.0959C19.2486 20.0939 19.3024 20.1039 19.3461 20.1297C19.378 20.1495 19.4257 20.2052 19.4516 20.2528C19.4894 20.3243 19.4954 20.3601 19.4834 20.4316C19.4775 20.4813 19.4496 20.5627 19.4237 20.6144C19.3979 20.668 19.3163 20.7693 19.1113 20.9779L19.2128 20.964C19.2884 20.952 19.3203 20.954 19.3282 20.9739C19.3362 20.9878 19.3143 21.0196 19.2745 21.0514C19.2367 21.0831 19.171 21.1288 19.1272 21.1547C19.0835 21.1825 19.0019 21.2123 18.9482 21.2262C18.8725 21.2421 18.8248 21.2421 18.7492 21.2222C18.6835 21.2063 18.6238 21.1745 18.578 21.1268C18.5362 21.0891 18.4945 21.0236 18.4825 20.9779C18.4706 20.9342 18.4606 20.8547 18.4606 20.7991C18.4606 20.7455 18.4746 20.6501 18.4925 20.5905C18.5104 20.5309 18.5462 20.4495 18.5701 20.4117C18.5959 20.374 18.6457 20.3144 18.6815 20.2787C18.7193 20.2449 18.7929 20.1932 18.8487 20.1674Z" fill="#0099DE"/>
<path d="M26.4959 20.7196C26.5317 20.6998 26.5854 20.6779 26.6153 20.668C26.6451 20.66 26.7247 20.6521 26.7924 20.6521C26.874 20.6501 26.9436 20.662 26.9894 20.6859C27.0292 20.7037 27.0789 20.7474 27.0988 20.7792C27.1187 20.813 27.1366 20.8766 27.1366 20.9242C27.1366 20.9779 27.1167 21.0474 27.0789 21.1229C27.0471 21.1844 26.9993 21.2579 26.9735 21.2858C26.9476 21.3136 26.8779 21.3791 26.7088 21.5261L26.8282 21.5221C26.9078 21.5182 26.9496 21.5241 26.9516 21.54C26.9555 21.5539 26.9018 21.5996 26.8322 21.6433C26.7645 21.687 26.663 21.7347 26.6093 21.7466C26.5317 21.7625 26.4839 21.7625 26.4004 21.7406C26.3407 21.7267 26.265 21.691 26.2332 21.6632C26.2014 21.6354 26.1656 21.5917 26.1516 21.5638C26.1377 21.536 26.1218 21.4804 26.1138 21.4407C26.1078 21.397 26.1158 21.3036 26.1317 21.2222C26.1496 21.1427 26.1874 21.0335 26.2173 20.9799C26.2471 20.9262 26.3068 20.8547 26.3506 20.819C26.3944 20.7832 26.4601 20.7375 26.4959 20.7196Z" fill="#0099DE"/>
<path d="M28.4798 20.8031C28.5236 20.7812 28.6032 20.7514 28.6589 20.7375C28.7126 20.7236 28.828 20.7117 28.9116 20.7117C28.9972 20.7097 29.0808 20.7137 29.0967 20.7196C29.1146 20.7256 29.1265 20.7534 29.1265 20.7852C29.1265 20.815 29.0549 20.9739 28.9673 21.1368C28.8818 21.3016 28.7305 21.6274 28.633 21.8618C28.5355 22.0962 28.442 22.3246 28.3942 22.4478L28.7743 22.5153C28.9853 22.5511 29.2599 22.6127 29.3852 22.6504C29.5106 22.6881 29.6837 22.7517 29.7693 22.7914C29.8548 22.8312 29.9205 22.8749 29.9165 22.8848C29.9125 22.8947 29.8747 22.9106 29.831 22.9186C29.7892 22.9285 29.4807 22.9285 29.1464 22.9205C28.8121 22.9106 28.4738 22.9047 28.243 22.9047L28.1177 23.2721C28.046 23.4747 27.9445 23.7906 27.8908 23.9773C27.8351 24.164 27.7515 24.4719 27.7038 24.6626C27.656 24.8533 27.5983 25.1215 27.5764 25.2585C27.5525 25.3956 27.5326 25.5684 27.5306 25.6459C27.5286 25.7233 27.5346 25.8048 27.5406 25.8306C27.5485 25.8544 27.5704 25.8783 27.5883 25.8842C27.6082 25.8902 27.6441 25.8803 27.6679 25.8644C27.6938 25.8485 27.7435 25.7869 27.7814 25.7313C27.8192 25.6737 27.8809 25.5545 27.9187 25.4671C27.9565 25.3797 28.0281 25.1969 28.0779 25.0599C28.1256 24.9228 28.1754 24.7838 28.1853 24.752C28.1953 24.7202 28.2171 24.6904 28.2331 24.6864C28.249 24.6845 28.3007 24.7143 28.3485 24.756C28.4002 24.8017 28.4579 24.8811 28.4977 24.9606C28.5534 25.0778 28.5594 25.1076 28.5594 25.2784C28.5594 25.4512 28.5534 25.479 28.4937 25.6061C28.4559 25.6836 28.3843 25.7968 28.3346 25.8604C28.2828 25.9259 28.1953 26.0114 28.1415 26.0531C28.0858 26.0948 27.9943 26.1524 27.9366 26.1802C27.8809 26.208 27.7734 26.2458 27.6978 26.2636C27.6102 26.2855 27.5167 26.2914 27.4252 26.2855C27.3476 26.2795 27.2321 26.2537 27.1665 26.2279C27.0988 26.2021 27.0133 26.1484 26.9675 26.1027C26.9098 26.0471 26.8759 25.9875 26.8501 25.9041C26.8282 25.8385 26.8063 25.6995 26.7983 25.5962C26.7904 25.4929 26.7924 25.3002 26.8003 25.1691C26.8103 25.038 26.8362 24.8195 26.86 24.6825C26.8819 24.5454 26.9237 24.3349 26.9496 24.2157C26.9774 24.0965 27.0531 23.8323 27.1167 23.6297C27.1824 23.4271 27.266 23.1768 27.3038 23.0735C27.3555 22.9325 27.3675 22.8808 27.3495 22.8709C27.3356 22.8629 27.2242 22.855 27.1008 22.855C26.9794 22.855 26.856 22.8451 26.8282 22.8351C26.8003 22.8252 26.7685 22.7974 26.7585 22.7755C26.7446 22.7457 26.7486 22.708 26.7784 22.6325C26.7983 22.5749 26.8421 22.4915 26.874 22.4478C26.9038 22.4041 26.9655 22.3505 27.0093 22.3286C27.073 22.2968 27.1207 22.2909 27.2759 22.2968C27.3794 22.3008 27.4948 22.3048 27.6003 22.3087L27.7236 22.0108C27.7893 21.8479 27.8928 21.6195 27.9505 21.5043C28.0082 21.389 28.0898 21.2381 28.1316 21.1666C28.1734 21.0951 28.251 20.9938 28.3047 20.9401C28.3564 20.8865 28.436 20.8249 28.4798 20.8031Z" fill="#0099DE"/>
<path d="M18.6198 21.5579C18.6696 21.5241 18.7591 21.4804 18.8188 21.4625C18.8785 21.4427 18.984 21.4268 19.0516 21.4268C19.1471 21.4248 19.179 21.4327 19.1869 21.4546C19.1929 21.4705 19.1969 21.5201 19.1969 21.5638C19.1969 21.6075 19.1611 21.9274 19.1193 22.273C19.0755 22.6206 19.0297 23.0517 19.0158 23.2324C19.0019 23.4132 18.9899 23.8065 18.9899 24.1064C18.988 24.4064 18.9939 24.6944 19.0019 24.748C19.0178 24.8354 19.0218 24.8414 19.0775 24.8414C19.1233 24.8414 19.1531 24.8215 19.2068 24.758C19.2447 24.7103 19.3043 24.6328 19.3402 24.5851C19.376 24.5355 19.4178 24.4938 19.4297 24.4898C19.4436 24.4858 19.4616 24.5077 19.4675 24.5395C19.4735 24.5692 19.4675 24.6467 19.4576 24.7123C19.4456 24.7778 19.4118 24.8811 19.382 24.9407C19.3521 25.0003 19.2864 25.0897 19.2367 25.1393C19.185 25.189 19.0815 25.2585 19.0059 25.2963C18.9302 25.332 18.8288 25.3678 18.779 25.3737C18.7293 25.3777 18.6536 25.3717 18.6099 25.3578C18.5661 25.3419 18.4945 25.2943 18.4487 25.2506C18.4049 25.2049 18.3412 25.1115 18.3074 25.04C18.2736 24.9685 18.2318 24.8533 18.2159 24.7818C18.198 24.7103 18.1741 24.5454 18.1602 24.4143C18.1442 24.2514 18.1403 23.9892 18.1482 23.58C18.1542 23.2523 18.1741 22.851 18.192 22.6862C18.2099 22.5233 18.2417 22.3028 18.2636 22.1995C18.2835 22.0962 18.3273 21.9572 18.3572 21.8916C18.387 21.8261 18.4387 21.7367 18.4706 21.695C18.5044 21.6532 18.5701 21.5897 18.6198 21.5579Z" fill="#0099DE"/>
<path d="M20.4406 21.5003C20.4844 21.4884 20.5699 21.4725 20.6296 21.4625C20.6893 21.4546 20.8008 21.4506 20.8784 21.4566C20.956 21.4606 21.0674 21.4784 21.1271 21.4963C21.1868 21.5142 21.2803 21.5559 21.3341 21.5897C21.3878 21.6254 21.4714 21.6969 21.5191 21.7526C21.5689 21.8062 21.6306 21.8956 21.6564 21.9512C21.6823 22.0048 21.7181 22.1002 21.734 22.1598C21.7499 22.2194 21.7639 22.3366 21.7639 22.418C21.7639 22.4994 21.7499 22.6206 21.734 22.6862C21.7161 22.7517 21.6783 22.859 21.6465 22.9245C21.6107 23 21.545 23.0854 21.4714 23.153C21.3957 23.2265 21.3161 23.2781 21.2405 23.3079C21.1788 23.3317 21.1032 23.3516 21.0714 23.3516C21.0415 23.3516 21.0077 23.3436 20.9978 23.3317C20.9845 23.3198 20.9865 23.2622 21.0037 23.1589C21.0177 23.0735 21.0336 22.8391 21.0415 22.6365C21.0495 22.3981 21.0455 22.2233 21.0296 22.1399C21.0177 22.0684 20.9878 21.979 20.9619 21.9413C20.9361 21.9035 20.8983 21.8698 20.8784 21.8658C20.8565 21.8618 20.8187 21.8737 20.7928 21.8916C20.7689 21.9075 20.7212 21.981 20.6873 22.0545C20.6515 22.13 20.5998 22.2889 20.5679 22.4081C20.5381 22.5272 20.4963 22.7338 20.4764 22.8649C20.4485 23.0576 20.4406 23.2265 20.4426 23.7389C20.4426 24.2594 20.4485 24.4103 20.4764 24.5732C20.4963 24.6825 20.5321 24.8156 20.556 24.8692C20.5819 24.9268 20.6177 24.9725 20.6436 24.9824C20.6694 24.9923 20.7092 24.9923 20.7331 24.9844C20.759 24.9745 20.7988 24.9407 20.8246 24.9089C20.8505 24.8771 20.8863 24.7977 20.9082 24.7321C20.9281 24.6666 20.9619 24.4779 20.9858 24.315C21.0097 24.1501 21.0376 23.9833 21.0475 23.9416C21.0594 23.9018 21.0774 23.8681 21.0873 23.8681C21.0973 23.8681 21.1371 23.88 21.1709 23.8959C21.2067 23.9098 21.2684 23.9535 21.3062 23.9892C21.344 24.027 21.4017 24.1064 21.4316 24.166C21.4614 24.2256 21.4952 24.3249 21.5052 24.3845C21.5211 24.462 21.5211 24.5275 21.5052 24.6129C21.4932 24.6785 21.4495 24.7937 21.4097 24.8712C21.3679 24.9486 21.2883 25.0559 21.2266 25.1155C21.1649 25.1751 21.0634 25.2466 20.9978 25.2784C20.9321 25.3082 20.8286 25.3439 20.7689 25.3578C20.7013 25.3737 20.6018 25.3797 20.5102 25.3717C20.3968 25.3618 20.3292 25.3439 20.2217 25.2903C20.1302 25.2466 20.0446 25.183 19.971 25.1056C19.9113 25.042 19.8357 24.9447 19.8038 24.891C19.772 24.8354 19.7262 24.7341 19.7023 24.6626C19.6785 24.5911 19.6426 24.4342 19.6227 24.315C19.5929 24.1402 19.5849 23.9892 19.5849 23.5602C19.5849 23.0934 19.5909 22.9921 19.6287 22.7855C19.6526 22.6544 19.6964 22.4716 19.7242 22.3783C19.7541 22.2849 19.8177 22.1339 19.8655 22.0406C19.9133 21.9472 19.9909 21.828 20.0366 21.7744C20.0844 21.7188 20.1759 21.6413 20.2416 21.5996C20.3073 21.5559 20.3968 21.5122 20.4406 21.5003Z" fill="#0099DE"/>
<path d="M16.2916 21.8241C16.3852 21.7784 16.5225 21.7247 16.6001 21.7029C16.6929 21.6777 16.809 21.6652 16.9483 21.6652C17.1095 21.6632 17.1732 21.6711 17.2269 21.6989C17.2707 21.7208 17.2985 21.7486 17.3005 21.7764C17.3045 21.8022 17.2926 21.8499 17.2766 21.8817C17.2607 21.9135 17.1632 22.0088 17.0617 22.0922C16.9622 22.1757 16.8389 22.2889 16.7891 22.3445C16.7394 22.4021 16.6677 22.5014 16.6279 22.567C16.5861 22.6325 16.5324 22.7398 16.5045 22.8053C16.4767 22.8709 16.4309 23.004 16.4031 23.1033C16.3752 23.2026 16.3394 23.3615 16.3215 23.4608C16.3056 23.5602 16.2857 23.733 16.2797 23.8482C16.2717 23.9654 16.2777 24.1521 16.2896 24.2753C16.3036 24.3944 16.3314 24.5653 16.3533 24.6527C16.3752 24.7401 16.417 24.8632 16.4468 24.9288C16.4767 24.9923 16.5165 25.0599 16.5384 25.0778C16.5603 25.0976 16.606 25.1095 16.6578 25.1076C16.7035 25.1076 16.7652 25.0877 16.7991 25.0658C16.8309 25.044 16.8787 24.9963 16.9025 24.9586C16.9264 24.9208 16.9642 24.8295 16.9881 24.752C17.01 24.6745 17.0378 24.5136 17.0518 24.3944C17.0697 24.2236 17.0697 24.0488 17.0478 23.5999C17.0239 23.0775 17.0259 23.0119 17.0558 22.8987C17.0737 22.8312 17.1075 22.7338 17.1314 22.6802C17.1552 22.6286 17.2329 22.5272 17.3045 22.4557C17.408 22.3524 17.4597 22.3167 17.5453 22.2909C17.605 22.271 17.6746 22.2611 17.6985 22.267C17.7244 22.273 17.7522 22.2968 17.7642 22.3187C17.7761 22.3405 17.794 22.4637 17.8059 22.5908C17.8159 22.7199 17.8278 23.29 17.8298 23.8581C17.8338 24.8454 17.8318 24.901 17.79 25.1294C17.7662 25.2605 17.7224 25.4472 17.6945 25.5465C17.6667 25.6459 17.6109 25.8048 17.5711 25.9041C17.5313 26.0034 17.4517 26.1683 17.392 26.2716C17.3343 26.3749 17.2309 26.5258 17.1672 26.6033C17.1015 26.6828 16.9781 26.8019 16.8926 26.8695C16.809 26.935 16.6578 27.0304 16.5603 27.078C16.4628 27.1257 16.3095 27.1833 16.222 27.2052C16.1185 27.231 15.9971 27.2449 15.8737 27.2449C15.7683 27.2449 15.631 27.231 15.5653 27.2151C15.4996 27.1972 15.3982 27.1595 15.3385 27.1297C15.2808 27.0999 15.1892 27.0284 15.1355 26.9708C15.0818 26.9152 15.0201 26.8258 14.9962 26.7721C14.9743 26.7205 14.9504 26.6291 14.9445 26.5695C14.9325 26.4722 14.9365 26.4583 14.9743 26.4345C15.0061 26.4166 15.1514 26.4106 15.5195 26.4126C15.9255 26.4146 16.0548 26.4086 16.1822 26.3808C16.2697 26.363 16.3812 26.3312 16.4309 26.3133C16.4807 26.2954 16.5642 26.2537 16.62 26.2219C16.6737 26.1901 16.7553 26.1325 16.7971 26.0928C16.8408 26.0551 16.9105 25.9696 16.9523 25.9041C16.9941 25.8385 17.0498 25.7174 17.0757 25.6359C17.1015 25.5545 17.1294 25.4294 17.1373 25.3578C17.1533 25.2307 17.1533 25.2287 17.1135 25.2585C17.0896 25.2744 17.0339 25.3161 16.9861 25.3499C16.9383 25.3837 16.8528 25.4274 16.7991 25.4492C16.7294 25.475 16.6518 25.487 16.5404 25.485C16.423 25.485 16.3493 25.4711 16.2618 25.4373C16.1722 25.4035 16.1086 25.3578 16.0011 25.2506C15.8857 25.1354 15.8399 25.0718 15.7583 24.901C15.6986 24.7778 15.635 24.611 15.6071 24.4938C15.5792 24.3845 15.5474 24.2256 15.5375 24.1402C15.5255 24.0568 15.5096 23.874 15.5036 23.733C15.4957 23.582 15.4996 23.3814 15.5156 23.2324C15.5275 23.0954 15.5593 22.8987 15.5872 22.7954C15.6151 22.6822 15.6748 22.5233 15.7384 22.3981C15.82 22.2352 15.8737 22.1598 15.9832 22.0485C16.0867 21.9432 16.1643 21.8876 16.2916 21.8241Z" fill="#0099DE"/>
<path d="M26.074 22.1796C26.1158 22.1538 26.1874 22.12 26.2312 22.1081C26.275 22.0942 26.3964 22.0823 26.4999 22.0823C26.6033 22.0823 26.7028 22.0883 26.7187 22.1002C26.7426 22.1141 26.7446 22.1379 26.7327 22.2134C26.7247 22.265 26.6292 22.5988 26.5198 22.9543C26.4103 23.3099 26.277 23.7787 26.2233 23.9972C26.1675 24.2157 26.0939 24.5514 26.0561 24.7421C26.0163 24.9328 25.9765 25.1691 25.9626 25.2685C25.9506 25.3678 25.9447 25.4591 25.9506 25.4711C25.9566 25.485 25.9785 25.4969 25.9964 25.4969C26.0163 25.4969 26.076 25.475 26.1317 25.4492C26.1855 25.4254 26.2849 25.3598 26.3506 25.3042C26.4163 25.2486 26.4899 25.195 26.5138 25.1811C26.5496 25.1652 26.5615 25.1652 26.5715 25.183C26.5795 25.1969 26.5795 25.2267 26.5735 25.2486C26.5675 25.2704 26.5178 25.3559 26.464 25.4373C26.4103 25.5187 26.3208 25.628 26.265 25.6796C26.2073 25.7333 26.1138 25.7968 26.0561 25.8246C26.0004 25.8525 25.8949 25.8842 25.8233 25.8962C25.7158 25.916 25.674 25.914 25.5845 25.8882C25.5029 25.8644 25.4552 25.8346 25.3935 25.771C25.3477 25.7213 25.294 25.6359 25.2681 25.5664C25.2442 25.5009 25.2144 25.3757 25.2044 25.2883C25.1905 25.183 25.1925 25.0519 25.2064 24.895C25.2164 24.7679 25.2402 24.5752 25.2582 24.4679C25.2741 24.3627 25.3099 24.168 25.3378 24.0369C25.3656 23.9058 25.4293 23.6376 25.479 23.441C25.5288 23.2443 25.6004 22.996 25.6362 22.8888C25.674 22.7835 25.7377 22.6286 25.7775 22.5431C25.8193 22.4597 25.885 22.3544 25.9248 22.3107C25.9626 22.265 26.0302 22.2074 26.074 22.1796Z" fill="#0099DE"/>
<path fill-rule="evenodd" clip-rule="evenodd" d="M19.8525 15.912C19.9022 15.9199 19.9739 15.9338 20.0117 15.9457C20.0495 15.9557 20.1171 15.9894 20.1609 16.0192C20.2047 16.049 20.2644 16.1126 20.2962 16.1623C20.3261 16.2119 20.3599 16.3033 20.3718 16.3788C20.3838 16.4503 20.3898 16.5754 20.3838 16.6569C20.3778 16.7383 20.3539 16.8555 20.332 16.9151C20.3102 16.9767 20.2664 17.0482 20.2326 17.08C20.1987 17.1098 20.147 17.1396 20.1171 17.1455C20.0853 17.1535 20.0316 17.1535 19.9977 17.1455C19.9619 17.1396 19.9002 17.1038 19.8604 17.0681C19.8187 17.0303 19.7749 16.9608 19.751 16.8992C19.7311 16.8436 19.7072 16.7224 19.7012 16.6311C19.6913 16.5099 19.6953 16.4404 19.7211 16.353C19.743 16.2715 19.7789 16.2139 19.8425 16.1444C19.9122 16.0709 19.9361 16.055 19.956 16.0749C19.9778 16.0947 19.9759 16.1325 19.948 16.2735C19.9281 16.3688 19.9062 16.5059 19.9002 16.5774C19.8943 16.6489 19.8963 16.7423 19.9082 16.786C19.9201 16.8297 19.946 16.8853 19.9659 16.9091C19.9858 16.935 20.0236 16.9568 20.0515 16.9588C20.0913 16.9648 20.1052 16.9528 20.1251 16.8952C20.137 16.8575 20.149 16.7224 20.151 16.5973C20.151 16.4721 20.141 16.3192 20.1291 16.2596C20.1171 16.2 20.0933 16.1305 20.0754 16.1047C20.0535 16.0749 20.0137 16.057 19.9619 16.049C19.9181 16.0451 19.8545 16.0312 19.8226 16.0212C19.7908 16.0113 19.749 15.9894 19.7331 15.9716C19.7072 15.9418 19.7072 15.9358 19.7331 15.9199C19.749 15.91 19.8027 15.906 19.8525 15.912ZM22.3757 15.9438C22.3876 15.9418 22.4314 15.9557 22.4692 15.9716C22.507 15.9875 22.5468 16.0232 22.5588 16.051C22.572 16.0841 22.572 16.1172 22.5588 16.1503C22.5468 16.1782 22.507 16.2139 22.4692 16.2298C22.4314 16.2457 22.3657 16.2596 22.3259 16.2596C22.2583 16.2576 22.2523 16.2616 22.2802 16.2894C22.3001 16.3106 22.3034 16.3278 22.2901 16.341C22.2802 16.353 22.2523 16.3569 22.2304 16.351C22.2085 16.345 22.1667 16.3073 22.1369 16.2656C22.107 16.2238 22.0812 16.1662 22.0812 16.1345C22.0812 16.1007 22.1011 16.0629 22.1369 16.0312C22.1667 16.0034 22.2264 15.9736 22.2702 15.9636C22.314 15.9537 22.3618 15.9457 22.3757 15.9438ZM18.0317 16.935C18.0755 16.935 18.1233 16.9449 18.1372 16.9588C18.1531 16.9747 18.1611 17.0402 18.1611 17.1336C18.1611 17.215 18.169 17.3164 18.177 17.3581C18.1909 17.4276 18.1949 17.4316 18.2665 17.4316C18.3123 17.4316 18.3402 17.4415 18.3402 17.4554C18.3402 17.4693 18.3123 17.4872 18.2765 17.4971C18.2407 17.5051 18.1252 17.511 18.0218 17.511C17.9183 17.509 17.7969 17.5031 17.7531 17.4951C17.6875 17.4832 17.6715 17.4713 17.6656 17.4316C17.6596 17.3819 17.6596 17.3819 17.9024 17.4117L17.8984 17.1972C17.8944 17.0343 17.9004 16.9767 17.9223 16.9588C17.9382 16.9449 17.9859 16.935 18.0317 16.935ZM19.9977 17.3918C20.0276 17.3918 20.0674 17.4077 20.0873 17.4256C20.1052 17.4455 20.145 17.4931 20.1729 17.5309C20.2027 17.5686 20.2743 17.6858 20.4395 17.9778L20.4375 18.3453C20.4375 18.5837 20.4296 18.7326 20.4136 18.7664C20.3997 18.7982 20.3758 18.822 20.3599 18.822C20.344 18.822 20.3261 18.8161 20.3221 18.8061C20.3161 18.7982 20.3042 18.7346 20.2922 18.6631C20.2823 18.5916 20.2684 18.4248 20.2505 18.0473H19.8127L19.8286 18.2718C19.8366 18.393 19.8425 18.5757 19.8425 18.677C19.8425 18.7763 19.8465 18.8558 19.8525 18.8518C19.8585 18.8479 20.0097 18.8538 20.1908 18.8618C20.3718 18.8697 20.543 18.8876 20.5748 18.8995C20.6067 18.9134 20.6266 18.9333 20.6246 18.9531C20.6186 18.9829 20.5609 18.9869 20.0515 18.9909C19.7391 18.9929 19.4625 18.9909 19.4366 18.9829C19.4107 18.977 19.3849 18.9591 19.3809 18.9452C19.3789 18.9333 19.3928 18.9134 19.4147 18.9015C19.4366 18.8896 19.5122 18.8757 19.7132 18.8518L19.7032 18.7922C19.6973 18.7605 19.6833 18.675 19.6734 18.6035C19.6614 18.532 19.6475 18.3671 19.6416 18.236C19.6316 18.0473 19.6356 17.9719 19.6614 17.8686C19.6794 17.7971 19.7152 17.6997 19.7391 17.6501C19.7629 17.6024 19.8187 17.5229 19.8644 17.4772C19.9201 17.4177 19.9619 17.3918 19.9977 17.3918ZM19.948 17.7355C19.8803 17.8964 19.8783 17.8984 19.9201 17.9103C19.944 17.9162 20.0276 17.9282 20.1072 17.9341C20.1987 17.944 20.2505 17.9401 20.2505 17.9282C20.2505 17.9162 20.1987 17.8328 20.1331 17.7414L20.0176 17.5746L19.948 17.7355Z" fill="#E6B34F"/>
</svg>
