<svg width="24" height="24" viewBox="0 0 24 24" fill="none" xmlns="http://www.w3.org/2000/svg">
<path fill-rule="evenodd" clip-rule="evenodd" d="M6.05554 6.1C6.05554 4.52599 7.33153 3.25 8.90554 3.25C10.4796 3.25 11.7555 4.52599 11.7555 6.1C11.7555 7.6684 10.4886 8.9409 8.92237 8.94995H8.88871C7.32245 8.9409 6.05554 7.6684 6.05554 6.1ZM5.62388 8.95547C4.95848 8.19141 4.55554 7.19276 4.55554 6.1C4.55554 3.69756 6.5031 1.75 8.90554 1.75C11.308 1.75 13.2555 3.69756 13.2555 6.1C13.2555 7.19277 12.8526 8.19143 12.1872 8.95551C14.0677 9.05969 15.5606 10.6176 15.5606 12.5242V13.2555C15.5606 14.3793 14.9812 15.3692 14.1749 16.0269C13.2717 16.7637 12.8572 17.4405 12.6451 18.0233C12.5082 18.3993 12.4483 18.7491 12.4097 19.1021L12.403 19.1988C12.4008 19.2303 12.3967 19.2613 12.3908 19.2915C12.3834 19.3727 12.3765 19.4543 12.3695 19.5367C12.3633 19.6112 12.3569 19.6865 12.35 19.7626C12.3019 20.2947 12.2228 21.0471 11.6061 21.5799C11.022 22.0845 10.1235 22.25 8.90528 22.25C7.68689 22.25 6.78836 22.0845 6.20418 21.5799C5.58749 21.0471 5.50837 20.2947 5.4603 19.7626C5.45342 19.6865 5.44709 19.6113 5.44082 19.5368C5.43389 19.4544 5.42701 19.3727 5.41954 19.2915C5.41364 19.2613 5.40953 19.2303 5.40734 19.1988L5.4006 19.1016C5.36208 18.7488 5.30219 18.3991 5.16539 18.0232C4.95331 17.4405 4.53886 16.7637 3.63567 16.0269C2.8294 15.3692 2.25 14.3793 2.25 13.2555V12.5242C2.25 10.6174 3.74308 9.05941 5.62388 8.95547ZM8.88475 10.45H5.82426C4.67868 10.45 3.75 11.3786 3.75 12.5242V13.2555C3.75 13.8487 4.05973 14.437 4.58385 14.8646C4.78656 15.03 4.97178 15.1954 5.141 15.3607L5.07606 14.4248C5.04739 14.0116 5.35913 13.6533 5.77235 13.6247C6.18556 13.596 6.54379 13.9077 6.57246 14.321L6.89379 18.9515C6.91262 19.1227 6.92558 19.2822 6.93732 19.4267C6.94304 19.4972 6.94852 19.5646 6.95421 19.6276C7.00608 20.2017 7.07695 20.3516 7.18477 20.4448C7.3251 20.566 7.72561 20.75 8.90528 20.75C10.0848 20.75 10.4852 20.566 10.6255 20.4448C10.7334 20.3516 10.8042 20.2016 10.8561 19.6276C10.8618 19.5646 10.8673 19.4977 10.873 19.4272C10.8847 19.2829 10.8977 19.123 10.9165 18.9519L11.2379 14.321C11.2666 13.9077 11.6248 13.596 12.038 13.6247C12.4512 13.6533 12.763 14.0116 12.7343 14.4248L12.6693 15.3608C12.8386 15.1955 13.0239 15.03 13.2267 14.8646C13.7508 14.437 14.0606 13.8487 14.0606 13.2555V12.5242C14.0606 11.3786 13.1319 10.45 11.9863 10.45H8.92633L8.90554 10.45L8.88475 10.45ZM18.3771 8.9555C19.042 8.19188 19.4456 7.19314 19.4456 6.1C19.4456 3.69756 17.498 1.75 15.0956 1.75C14.8963 1.75 14.6999 1.76344 14.5071 1.78956C14.0966 1.84516 13.8089 2.22298 13.8645 2.63345C13.9201 3.04391 14.298 3.33158 14.7084 3.27598C14.8347 3.25888 14.9639 3.25 15.0956 3.25C16.6696 3.25 17.9456 4.52599 17.9456 6.1C17.9456 7.08477 17.4467 7.95331 16.6845 8.46639C16.3409 8.69769 16.2499 9.16376 16.4812 9.50737C16.4892 9.51937 16.4976 9.53105 16.5062 9.54242C16.4954 9.59322 16.4897 9.64592 16.4897 9.69995C16.4897 10.1142 16.8254 10.45 17.2397 10.45H18.1763C19.3219 10.45 20.2506 11.3786 20.2506 12.5242V13.2555C20.2506 13.8487 19.9408 14.437 19.4167 14.8646C19.2141 15.0299 19.0288 15.1954 18.8594 15.3608L18.9243 14.4248C18.953 14.0116 18.6412 13.6533 18.228 13.6247C17.8148 13.596 17.4566 13.9077 17.4279 14.321L17.106 18.9604C17.0841 19.162 17.0717 19.3182 17.0607 19.4564C17.0472 19.6256 17.0359 19.7678 17.012 19.933C16.975 20.1901 16.9254 20.3104 16.8743 20.3811C16.7979 20.4867 16.5106 20.75 15.0953 20.75C14.999 20.75 14.9072 20.7488 14.8197 20.7464C14.4057 20.7353 14.061 21.062 14.05 21.4761C14.0389 21.8902 14.3656 22.2348 14.7796 22.2459C14.8814 22.2486 14.9866 22.25 15.0953 22.25C16.5303 22.25 17.5405 22.0195 18.0898 21.2601C18.3515 20.8982 18.4468 20.4932 18.4967 20.1473C18.5232 19.9633 18.5439 19.7206 18.5631 19.4949C18.569 19.4251 18.5749 19.3565 18.5807 19.2922C18.5867 19.2617 18.5908 19.2306 18.593 19.1988L18.6003 19.0943C18.6513 18.6364 18.7423 18.1705 18.9806 17.6796C19.2206 17.1852 19.6292 16.6271 20.3649 16.0269C21.1712 15.3692 21.7506 14.3793 21.7506 13.2555V12.5242C21.7506 10.6176 20.2577 9.05963 18.3771 8.9555Z" fill="#212121"/>
</svg>
