<svg width="148" height="100" viewBox="0 0 148 100" fill="none" xmlns="http://www.w3.org/2000/svg">
<path d="M15.7132 57.2764C1.01586 64.2901 -4.31929 80.2831 3.78662 93L57 67.5959C48.8941 54.8789 30.4106 50.2627 15.7132 57.2764Z" fill="#FEC031"/>
<path d="M82.9789 1.14731C83.133 3.1868 83.0988 5.24118 82.8762 7.26579C82.842 7.51887 82.8248 7.77194 82.7735 8.01013C82.7564 8.12923 82.7393 8.24833 82.7221 8.36742C82.705 8.54606 82.7735 8.08458 82.7221 8.35254C82.705 8.42697 82.705 8.51629 82.6879 8.59072C82.6023 9.09688 82.4996 9.60302 82.3969 10.1092C82.1743 11.1215 81.8833 12.1338 81.5409 13.1163C81.3697 13.5778 81.1985 14.0393 81.0101 14.5008C80.9074 14.7241 80.8218 14.9474 80.7019 15.1707C80.6848 15.2154 80.6163 15.2898 80.6163 15.3494C80.6163 15.2005 80.7191 15.1558 80.6506 15.26C80.5821 15.3791 80.5308 15.4982 80.4623 15.6173C80.0514 16.4063 79.5549 17.1655 79.0071 17.8801C78.8872 18.0439 78.7503 18.2076 78.6134 18.3714C78.5449 18.4607 78.4592 18.55 78.3907 18.6393C78.3565 18.6691 78.3223 18.7138 78.3051 18.7435C78.4763 18.4756 78.3736 18.6691 78.3223 18.7287C78.0141 19.0711 77.6718 19.4135 77.3294 19.741C76.987 20.0536 76.6445 20.3513 76.2679 20.6491C76.0967 20.783 75.9084 20.917 75.7201 21.051C75.6345 21.1105 75.5489 21.1701 75.4633 21.2297C75.3263 21.319 75.7201 21.051 75.5146 21.1999C75.4461 21.2445 75.3948 21.2743 75.3263 21.319C74.8812 21.6018 74.4189 21.8698 73.9395 22.108C73.4602 22.3462 72.9638 22.5248 72.4673 22.7481C72.4844 22.7332 72.7583 22.6439 72.5699 22.7035C72.5015 22.7332 72.433 22.7481 72.3646 22.7779C72.2276 22.8225 72.0906 22.8672 71.9366 22.9119C71.6798 22.9863 71.4229 23.0607 71.149 23.1203C70.6183 23.2543 70.0705 23.3436 69.5226 23.4031C69.2316 23.4329 68.8892 23.7009 68.7522 23.9093C68.6153 24.1326 68.5639 24.3708 68.5982 24.6238C68.6838 25.1598 69.2145 25.5915 69.865 25.5915C71.1148 25.5766 72.3645 25.5766 73.6143 25.651C73.9053 25.6659 74.1792 25.6957 74.4703 25.7255C74.4874 25.7255 74.7956 25.7701 74.5902 25.7404C74.3676 25.7106 74.6757 25.7553 74.7099 25.7553C74.864 25.7701 75.0181 25.7999 75.1722 25.8297C75.7885 25.9339 76.3877 26.0679 76.9698 26.2316C77.0725 26.2614 77.1924 26.3061 77.2951 26.3358C77.3464 26.3507 77.4149 26.3805 77.4663 26.3954C77.569 26.4252 77.6717 26.5145 77.3978 26.3656C77.6033 26.4847 77.8601 26.5443 78.0826 26.6485C78.5106 26.842 78.9215 27.0504 79.2982 27.2886C79.4009 27.3481 79.5036 27.4077 79.6063 27.4821C79.6405 27.5119 79.6919 27.5417 79.7262 27.5566C79.8974 27.6608 79.6577 27.5119 79.6406 27.497C79.8118 27.6459 80.0343 27.7799 80.2226 27.9138C80.5993 28.2116 80.9587 28.5093 81.3011 28.8368C81.4552 28.9857 81.6093 29.1346 81.7463 29.2834C81.8148 29.3579 81.8833 29.4323 81.9689 29.5216C82.0716 29.6407 81.7805 29.2983 81.9346 29.477C81.986 29.5365 82.0202 29.5812 82.0715 29.6407C82.3626 29.9831 82.6194 30.3404 82.8762 30.6977C83.133 31.0698 83.3727 31.4569 83.5953 31.844C83.698 32.0375 83.8007 32.231 83.9034 32.4245C83.9205 32.4692 83.9376 32.5139 83.9719 32.5436C83.8349 32.2608 83.9205 32.4245 83.9547 32.499C84.0061 32.6181 84.0575 32.7223 84.1089 32.8414C84.5026 33.7346 84.7936 34.6427 85.0162 35.5657C85.0847 35.8336 85.136 36.0867 85.1874 36.3547C85.2045 36.4589 85.2216 36.578 85.2559 36.6822C85.273 36.7715 85.2901 36.8459 85.2901 36.9353C85.2901 36.8906 85.273 36.8459 85.273 36.8013C85.273 36.8608 85.2901 36.9055 85.2901 36.965C85.3586 37.501 85.4271 38.022 85.4613 38.5579C85.6497 41.0143 85.4785 43.4855 85.2901 45.9269C85.2559 46.4777 85.8037 46.9541 86.4029 47.0285C87.0364 47.103 87.6184 46.7606 87.8067 46.2247C89.1592 42.4881 89.3305 38.543 90.3405 34.7469C90.5631 33.8983 90.8199 33.0498 91.1623 32.2161C91.2307 32.0375 91.3164 31.8588 91.3849 31.6951C91.4191 31.6058 91.4876 31.5165 91.5218 31.4123C91.5218 31.4271 91.4019 31.6653 91.4875 31.5016C91.5046 31.4569 91.539 31.3974 91.5561 31.3527C91.7444 30.9954 91.9327 30.653 92.1381 30.3106C92.549 29.6258 93.0283 28.9708 93.5591 28.3605C93.5933 28.3307 93.6275 28.286 93.6447 28.2562C93.4735 28.4795 93.5248 28.3902 93.5762 28.3307C93.6447 28.2562 93.7132 28.1818 93.7817 28.1074C93.9186 27.9585 94.0726 27.8096 94.2267 27.6608C94.5178 27.3779 94.826 27.11 95.1341 26.8718C95.3225 26.7229 95.4936 26.5889 95.6991 26.4549C95.7333 26.4252 95.7676 26.4103 95.8189 26.3805C95.5108 26.5889 95.7333 26.44 95.7847 26.3954C95.8874 26.3358 95.973 26.2763 96.0757 26.2167C96.4524 25.9934 96.8461 25.785 97.257 25.6064C97.3597 25.5617 97.4795 25.5171 97.5823 25.4724C97.6336 25.4575 97.6679 25.4426 97.7193 25.4277C97.9589 25.3384 97.4624 25.517 97.685 25.4426C97.9076 25.3682 98.1301 25.2938 98.3698 25.2342C98.6095 25.1747 98.832 25.1151 99.0717 25.0704C99.1744 25.0556 99.2943 25.0258 99.397 25.0109C99.4997 24.996 99.979 24.9365 99.5339 24.9811C99.8763 24.9365 100.202 24.8918 100.441 24.6536C100.63 24.475 100.75 24.2666 100.801 24.0135C100.886 23.5073 100.51 22.897 99.8763 22.7928C99.3798 22.7034 98.8834 22.5992 98.3869 22.4652C98.1644 22.4057 97.9589 22.3313 97.7363 22.2717C97.6165 22.2271 97.4967 22.1824 97.3769 22.1526C97.7706 22.2866 97.3254 22.1229 97.2227 22.0931C96.3154 21.7209 95.4423 21.2743 94.6377 20.7533C94.6034 20.7235 94.552 20.6937 94.5178 20.6788C94.3466 20.5597 94.5863 20.7235 94.6034 20.7384C94.5178 20.6639 94.398 20.6044 94.2953 20.53C94.0898 20.3811 93.9014 20.2471 93.7131 20.0983C93.3365 19.8005 92.9599 19.4879 92.6175 19.1455C92.2751 18.818 91.9498 18.4905 91.6245 18.1481C91.5903 18.1034 91.556 18.0588 91.5047 18.0141C91.5218 18.029 91.693 18.2225 91.5561 18.0736C91.4705 17.9843 91.4019 17.895 91.3163 17.8057C91.1622 17.627 91.0082 17.4335 90.8713 17.2549C90.3063 16.5254 89.8098 15.7513 89.3647 14.9623C89.2619 14.7688 89.1593 14.5901 89.0565 14.3966C89.0223 14.3519 89.0052 14.2924 88.9881 14.2477C88.9025 14.084 89.0223 14.3073 89.0223 14.3222C88.9709 14.1882 88.9024 14.0691 88.8511 13.95C88.6627 13.548 88.4915 13.1312 88.3203 12.7144C87.6013 10.8833 87.0706 8.99267 86.6426 7.08716C86.4029 6.03019 86.1804 4.95834 85.9921 3.88649C85.9065 3.38033 85.8209 2.88907 85.7353 2.38292C85.701 2.12984 85.6496 1.89165 85.6154 1.63858C85.5983 1.54926 85.5298 1.13242 85.5983 1.50459C85.5812 1.37061 85.5641 1.25152 85.5469 1.11754C85.4956 0.804916 85.4271 0.551832 85.1703 0.32853C84.9477 0.135001 84.5882 -0.0138603 84.2629 0.00102653C83.9377 0.0159134 83.5781 0.105227 83.3555 0.32853C83.133 0.566719 82.9276 0.864456 82.9789 1.14731C83.5781 5.06254 84.263 9.02244 85.6497 12.7888C86.985 16.3765 89.1593 19.8005 92.5661 22.1973C94.5007 23.552 96.7263 24.5941 99.1745 24.996C99.2943 24.2666 99.397 23.5371 99.5169 22.8077C98.4554 22.9267 97.4796 23.1649 96.4866 23.5371C95.6135 23.8646 94.8088 24.3112 94.0555 24.8323C92.5832 25.8297 91.3677 27.1248 90.409 28.5093C89.3989 29.9533 88.6627 31.5462 88.1663 33.1838C87.5671 35.1191 87.2247 37.1139 86.8823 39.0939C86.5056 41.3269 86.1119 43.5599 85.3243 45.7185C86.1632 45.8227 87.0021 45.912 87.841 46.0162C88.1663 41.6097 88.4573 36.9948 86.7453 32.7521C85.3244 29.209 82.5338 25.8892 78.4763 24.4005C75.7543 23.4031 72.7754 23.3734 69.865 23.4031C69.9849 24.1326 70.0876 24.862 70.2074 25.5915C74.5217 25.0704 78.2024 22.6439 80.7191 19.6665C83.5096 16.3617 84.7252 12.2082 85.3073 8.18879C85.6497 5.85155 85.7181 3.49942 85.5298 1.16219C85.4784 0.581602 84.9648 0.0159025 84.2458 0.0456761C83.5952 0.060563 82.9276 0.522059 82.9789 1.14731Z" fill="#231F20"/>
<path d="M35.4364 31.4121C35.7274 32.5286 35.9842 33.66 36.2068 34.7914C36.3266 35.3422 36.4294 35.893 36.515 36.4438C36.5664 36.7267 36.6177 36.9946 36.6519 37.2775C36.6691 37.3966 36.6861 37.5306 36.7033 37.6497C36.7375 37.8581 36.7033 37.6645 36.7033 37.6348C36.7204 37.7241 36.7375 37.8134 36.7375 37.9176C37.0799 40.1655 37.2853 42.4135 37.3881 44.6763C37.4394 45.6439 37.4395 46.5967 37.371 47.5643C37.3539 47.7876 37.3367 48.0109 37.3025 48.2342C37.2853 48.3533 37.2683 48.4724 37.2511 48.5915C37.234 48.7106 37.2854 48.7999 37.2511 48.5617C37.2683 48.6362 37.2169 48.7255 37.2169 48.7999C37.1313 49.2614 37.0285 49.708 36.8745 50.1546C36.806 50.3779 36.7204 50.5863 36.6348 50.8096C36.6006 50.8989 36.5321 51.0032 36.515 51.0925C36.5835 50.8692 36.5834 50.9734 36.5492 51.0329C36.515 51.1074 36.4807 51.1669 36.4465 51.2413C36.2068 51.6731 35.9329 52.075 35.6076 52.4621C35.522 52.5514 35.4535 52.6556 35.3679 52.7449C35.3851 52.7151 35.5392 52.5514 35.4022 52.7003C35.368 52.7449 35.3337 52.7896 35.2823 52.8193C35.1111 53.0129 34.9228 53.2064 34.7345 53.3999C34.3749 53.7572 33.9812 54.1145 33.5875 54.4569C33.1595 54.8291 32.7143 55.1715 32.2521 55.5139C32.0124 55.6925 31.7727 55.8711 31.5159 56.0349C31.4646 56.0796 31.3961 56.1242 31.3447 56.154C31.3105 56.1689 31.1051 56.3178 31.2591 56.2136C31.4303 56.1093 31.1907 56.2582 31.1735 56.2731C31.1051 56.3178 31.0195 56.3624 30.951 56.422C29.9238 57.077 28.8624 57.6873 27.7838 58.2679C27.3216 58.521 27.0134 59.0569 27.2017 59.5333C27.3729 59.9799 27.8694 60.3819 28.4343 60.3521C29.5129 60.2925 30.5915 60.2479 31.6871 60.2925C32.4062 60.3223 33.1252 60.3819 33.8271 60.4563C34.2209 60.4861 34.5975 60.5158 34.9913 60.5456C35.1111 60.5456 35.231 60.5605 35.3508 60.5754C35.385 60.5754 35.4022 60.5754 35.4364 60.5903C35.5734 60.6052 35.5391 60.6052 35.3337 60.5754C35.3679 60.5903 35.4536 60.5903 35.4878 60.5903C35.7617 60.6349 36.0356 60.6796 36.3095 60.754C36.5492 60.8136 36.7889 60.888 37.0115 60.9625C37.08 60.9773 37.1313 61.0071 37.1998 61.022C37.371 61.0815 36.8916 60.9029 37.1484 61.0071C37.2854 61.0667 37.4052 61.1113 37.5422 61.1709C38.0216 61.3793 38.4667 61.6175 38.8947 61.8854C38.946 61.9152 38.9974 61.9599 39.0487 61.9896C39.2371 62.1087 38.9974 61.9599 38.9803 61.945C39.0316 62.0194 39.2199 62.1087 39.2884 62.1683C39.511 62.332 39.7164 62.4958 39.9219 62.6595C40.3156 62.9871 40.7094 63.3443 41.0518 63.7016C41.223 63.8803 41.3942 64.0589 41.5483 64.2376C41.3771 64.0291 41.7366 64.446 41.5483 64.2376C41.5825 64.2822 41.6168 64.312 41.651 64.3566C41.7537 64.4757 41.8564 64.5948 41.942 64.7139C42.2673 65.1159 42.5754 65.5178 42.8665 65.9346C43.4999 66.8427 44.082 67.7955 44.6127 68.7483C44.9038 69.2693 45.1948 69.8052 45.4687 70.3263C45.5372 70.4454 45.5886 70.5645 45.6571 70.6836C45.6913 70.7431 45.7256 70.8175 45.7598 70.8771C45.8454 71.0706 45.7598 70.892 45.7427 70.8473C45.8967 71.145 46.0166 71.4428 46.1535 71.7405C47.2663 74.182 48.1223 76.6978 48.7215 79.2733C48.8414 79.8241 49.5433 80.1367 50.1254 80.0771C50.8102 80.0027 51.1697 79.5412 51.2382 78.9755C51.8374 74.4946 50.5362 70.0434 50.8444 65.5476C50.8615 65.1903 50.9129 64.833 50.9471 64.4906C50.9642 64.4013 50.9814 64.312 50.9814 64.2227C50.9985 64.0738 50.93 64.5353 50.9643 64.312C50.9643 64.2673 50.9814 64.2376 50.9814 64.1929C51.0156 63.9994 51.0498 63.8058 51.084 63.6123C51.2381 62.8531 51.4436 62.0938 51.6832 61.3644C51.8202 60.9773 51.9572 60.5903 52.1112 60.2032C52.1797 60.0246 52.2483 59.8608 52.3339 59.6971C52.3681 59.6078 52.4194 59.5184 52.4536 59.4291C52.5392 59.2654 52.4194 59.5035 52.4023 59.5184C52.4366 59.4589 52.4537 59.3993 52.4879 59.3398C52.8474 58.6401 53.2583 57.9553 53.7548 57.3152C53.8746 57.1514 54.0116 56.9877 54.1486 56.8239C54.1657 56.7941 54.3197 56.6304 54.1656 56.7941C54.0287 56.9579 54.1828 56.7792 54.2171 56.7495C54.2855 56.675 54.354 56.6006 54.4396 56.5262C54.7306 56.2284 55.0559 55.9456 55.3983 55.6925C55.4839 55.6181 55.5866 55.5585 55.6722 55.499C55.7921 55.4097 55.4326 55.6478 55.5695 55.5734C55.6209 55.5436 55.6722 55.5139 55.7236 55.4692C55.9119 55.365 56.0831 55.2608 56.2886 55.1566C56.4769 55.0673 56.6652 54.9779 56.8535 54.9035C56.8878 54.8886 57.0932 54.8142 56.8706 54.8886C56.6652 54.9631 56.8364 54.9035 56.8878 54.8886C57.0076 54.844 57.1274 54.8142 57.2472 54.7844C57.7608 54.6356 58.2231 54.2038 58.1888 53.7126C58.1546 53.2064 57.8122 52.8045 57.2472 52.6407C55.0559 52.0006 52.7619 51.7326 50.5534 51.1222C50.2966 51.0478 50.0398 50.9734 49.783 50.8841C49.7316 50.8692 49.6802 50.8543 49.6288 50.8394C49.5946 50.8245 49.3721 50.7203 49.5604 50.8096C49.7487 50.8989 49.5262 50.7947 49.4919 50.7799C49.4234 50.7501 49.3379 50.7203 49.2694 50.6905C48.7729 50.497 48.3106 50.2588 47.8655 49.9908C47.797 49.9462 47.7285 49.9015 47.66 49.8718C47.506 49.7824 47.6944 49.9164 47.7286 49.9164C47.6772 49.9313 47.4546 49.7229 47.4032 49.6782C47.1807 49.4996 46.9582 49.321 46.7527 49.1274C46.5815 48.9637 46.4103 48.785 46.2391 48.6064C46.1535 48.5171 46.0679 48.4277 45.9823 48.3384C46.2049 48.5617 46.068 48.4277 46.0166 48.3682C45.9652 48.3086 45.9139 48.2342 45.8454 48.1747C45.2291 47.4452 44.7154 46.6711 44.2532 45.8672C44.1334 45.6588 44.0306 45.4653 43.9279 45.2568C43.8766 45.1675 43.8252 45.0782 43.791 44.974C43.7568 44.9293 43.7396 44.8698 43.7054 44.8251C43.6027 44.6167 43.8081 45.0335 43.7054 44.84C43.5 44.4083 43.3116 43.9617 43.1233 43.53C42.3529 41.684 41.7537 39.7785 41.086 37.9027C40.1615 35.372 39.083 32.8859 37.6791 30.5338C37.371 30.0127 36.4808 29.8192 35.9158 30.1318C35.2995 30.4742 35.1283 31.0995 35.4535 31.6652C35.7959 32.2309 36.1213 32.8114 36.4294 33.392C36.5664 33.66 36.7204 33.928 36.8403 34.1959C36.8232 34.1661 36.7375 33.9726 36.8231 34.1662C36.8574 34.2257 36.8916 34.3001 36.9259 34.3597C36.9944 34.5085 37.0628 34.6574 37.1313 34.7914C37.6106 35.8335 38.0386 36.8904 38.4324 37.9623C39.1514 39.8827 39.7678 41.8329 40.5211 43.7384C41.2401 45.5546 42.1132 47.3559 43.363 48.9488C44.0307 49.7973 44.7839 50.6608 45.7084 51.3158C46.7013 52.0452 47.7971 52.5663 49.0126 52.9682C51.4436 53.787 54.0801 54.0252 56.5454 54.7398C56.5454 54.0252 56.5454 53.3106 56.5454 52.5812C52.8132 53.6232 50.6732 56.8537 49.4919 59.8906C48.8756 61.4537 48.499 63.0913 48.3107 64.7288C48.071 66.8427 48.2421 68.9865 48.4476 71.1004C48.6873 73.7056 48.9783 76.3108 48.6359 78.916C49.4748 78.8118 50.3137 78.7225 51.1526 78.6182C50.6048 76.281 49.8343 73.9735 48.8756 71.7405C47.8997 69.4926 46.7527 67.2745 45.366 65.1903C44.1847 63.4337 42.7638 61.7217 40.9491 60.4265C39.9561 59.7268 38.9289 59.1611 37.7305 58.7592C36.669 58.387 35.5563 58.2828 34.4263 58.1935C33.6046 58.1339 32.8 58.0446 31.9782 58C30.7627 57.9404 29.5643 57.9851 28.3487 58.0446C28.5713 58.7443 28.7767 59.4291 28.9993 60.1288C31.0194 59.042 32.9882 57.8511 34.7516 56.4369C36.4978 55.0226 38.1243 53.3999 38.9974 51.4498C39.8363 49.574 39.9732 47.475 39.9219 45.4652C39.8705 43.1876 39.665 40.9099 39.3569 38.662C38.9973 36.0121 38.4837 33.3623 37.8161 30.7571C37.662 30.1914 36.8745 29.8043 36.2411 29.9829C35.6419 30.236 35.2652 30.8017 35.4364 31.4121Z" fill="#231F20"/>
<path d="M102.786 61.3943C103.026 62.213 103.214 63.0318 103.351 63.8804C103.334 63.7762 103.317 63.6868 103.3 63.5826C103.557 65.2351 103.591 66.9322 103.334 68.5846C103.351 68.4804 103.368 68.3911 103.386 68.2869C103.18 69.6267 102.786 70.9367 102.187 72.1723C102.239 72.083 102.273 71.9937 102.324 71.9044C102.033 72.4999 101.708 73.0804 101.314 73.6312C101.126 73.9141 100.903 74.1969 100.681 74.4649C100.578 74.584 100.475 74.7031 100.373 74.8222C100.646 74.5096 100.424 74.7626 100.355 74.8371C100.287 74.9115 100.218 74.9859 100.15 75.0455C99.6706 75.5516 99.1228 76.0131 98.5578 76.4449C98.4209 76.5491 98.2668 76.6533 98.1298 76.7575C98.0442 76.817 97.7532 77.0106 98.1127 76.7724C98.0271 76.817 97.9586 76.8766 97.873 76.9361C97.5478 77.1445 97.2054 77.3381 96.863 77.5316C96.2124 77.874 95.5618 78.1717 94.8599 78.4248C94.9626 78.3801 95.0653 78.3504 95.168 78.3057C94.6716 78.4844 94.1751 78.663 93.6786 78.8565C93.3362 78.9905 93.011 79.1096 92.7542 79.3329C92.1721 79.8093 92.2748 80.6281 92.874 81.03C93.1821 81.2384 93.5931 81.298 93.9526 81.3873C94.5689 81.551 95.1852 81.7446 95.7844 81.9679C95.6816 81.9232 95.579 81.8934 95.4762 81.8488C97.1026 82.4591 98.6777 83.2184 100.081 84.1413C100.116 84.1711 100.15 84.186 100.184 84.2158C99.8932 84.0223 100.013 84.1116 100.081 84.1413C100.167 84.2009 100.236 84.2456 100.321 84.3051C100.475 84.4093 100.629 84.5284 100.766 84.6326C101.023 84.841 101.28 85.0494 101.52 85.2876C101.639 85.3918 101.742 85.5109 101.862 85.63C101.913 85.6896 101.965 85.7491 102.016 85.8087C102.067 85.8682 102.153 85.9724 101.913 85.7045C101.948 85.7491 101.982 85.7789 102.016 85.8236C102.221 86.0618 102.427 86.3148 102.598 86.5828C103.043 87.1932 103.403 87.8482 103.745 88.5181C103.694 88.4288 103.66 88.3394 103.608 88.2501C104.841 90.8106 105.406 93.5647 105.954 96.289C106.091 97.0185 106.245 97.7479 106.399 98.4774C106.45 98.7305 106.741 99.0282 106.981 99.1473C107.238 99.2664 107.512 99.311 107.803 99.2813C108.436 99.2068 108.898 98.7453 108.915 98.1796C108.967 96.944 109.018 95.7084 109.069 94.4579C109.121 93.267 109.121 92.0611 109.309 90.8702C109.292 90.9744 109.275 91.0637 109.258 91.1679C109.429 90.1407 109.686 89.1135 109.994 88.1161C110.148 87.6249 110.319 87.1336 110.49 86.6423C110.644 86.2404 110.782 85.8236 110.97 85.4216C110.918 85.5109 110.884 85.6003 110.833 85.6896C111.072 85.2132 111.381 84.7666 111.74 84.3498C111.792 84.2902 111.843 84.2307 111.894 84.1562C112.014 84.0223 111.672 84.3944 111.86 84.186C111.98 84.052 112.1 83.9329 112.22 83.7989C112.442 83.5608 112.682 83.3375 112.921 83.1142C113.435 82.6527 113.983 82.2061 114.548 81.7743C114.685 81.6701 114.822 81.5808 114.959 81.4766C115.027 81.4319 115.096 81.3873 115.164 81.3277C115.198 81.298 115.233 81.2682 115.284 81.2533C115.233 81.2831 115.027 81.4319 115.181 81.3128C115.455 81.1342 115.746 80.9556 116.02 80.7769C116.585 80.4494 117.167 80.1368 117.801 79.9135C117.698 79.9581 117.595 79.9879 117.493 80.0326C117.544 80.0177 117.595 80.0028 117.647 79.973C117.955 79.8688 118.246 79.72 118.417 79.4669C118.554 79.2436 118.605 79.0054 118.571 78.7523C118.485 78.2015 117.955 77.7847 117.304 77.7847C117.013 77.7847 116.722 77.7698 116.448 77.74C116.568 77.7549 116.671 77.7698 116.791 77.7847C116.226 77.7102 115.661 77.5763 115.13 77.3827C115.233 77.4274 115.335 77.4572 115.438 77.5018C115.113 77.3827 114.805 77.2487 114.514 77.085C114.36 77.0106 114.223 76.9212 114.069 76.8468C114 76.8021 113.914 76.7575 113.846 76.7128C113.812 76.6979 113.777 76.6681 113.743 76.6533C113.726 76.6384 113.709 76.6235 113.692 76.6235C113.572 76.5342 113.863 76.7426 113.846 76.7277C113.264 76.3109 112.716 75.8643 112.202 75.373C112.083 75.239 111.946 75.1199 111.826 74.9859C111.774 74.9264 111.706 74.852 111.655 74.7924C111.518 74.6435 111.792 74.9413 111.74 74.8817C111.706 74.8371 111.672 74.8073 111.637 74.7626C111.381 74.4798 111.158 74.1821 110.918 73.8843C110.439 73.2591 110.011 72.6041 109.617 71.9341C109.155 71.16 108.727 70.3561 108.333 69.5522C108.385 69.6416 108.419 69.7309 108.47 69.8202C107.323 67.4532 106.433 64.982 105.697 62.481C105.526 61.9004 105.372 61.3347 105.217 60.7541C105.063 60.1884 104.276 59.8014 103.642 59.98C102.992 60.2182 102.615 60.7839 102.786 61.3943C103.146 62.749 103.54 64.1037 104.002 65.4435C104.533 67.0066 105.149 68.5697 105.851 70.0882C106.604 71.6811 107.443 73.2591 108.505 74.718C109.446 76.028 110.576 77.3083 111.963 78.2759C112.63 78.7374 113.332 79.1691 114.12 79.4669C114.993 79.7944 115.849 80.0028 116.808 80.0772C116.996 80.0921 117.184 80.0921 117.356 80.0921C117.236 79.3627 117.133 78.6332 117.013 77.9038C115.609 78.3801 114.394 79.1245 113.23 79.9433C112.065 80.762 110.97 81.685 110.045 82.7122C109.583 83.2184 109.155 83.7245 108.813 84.3051C108.419 84.9899 108.162 85.7342 107.905 86.4637C107.289 88.2352 106.792 90.0365 106.638 91.8825C106.553 92.9246 106.536 93.9815 106.501 95.0236C106.467 96.0955 106.416 97.1524 106.382 98.2243C107.22 98.1201 108.059 98.0308 108.898 97.9266C108.282 94.9641 107.82 91.9569 106.724 89.0987C106.159 87.6546 105.457 86.2106 104.43 84.9601C103.916 84.32 103.334 83.7245 102.684 83.1886C101.93 82.5931 101.092 82.0572 100.236 81.5808C99.294 81.0449 98.301 80.5685 97.2738 80.1666C96.6918 79.9284 96.0926 79.72 95.4762 79.5264C94.9798 79.3776 94.4832 79.2585 93.9868 79.1245C94.0895 79.1692 94.1923 79.1989 94.295 79.2436C94.4491 79.3776 94.586 79.4966 94.74 79.6306C94.7914 79.72 94.8257 79.8093 94.877 79.8986C94.8942 80.0028 94.9112 80.0921 94.9284 80.1963C94.9112 80.3005 94.8942 80.3899 94.877 80.4941C94.8257 80.5834 94.7914 80.6727 94.74 80.762C94.6373 80.896 94.5004 81.0598 94.3463 81.1193C94.3805 81.1044 94.3977 81.0896 94.4319 81.0747C94.5175 81.03 94.6031 81.0002 94.6887 80.9556C94.9284 80.8514 95.1852 80.762 95.442 80.6727C95.3392 80.7174 95.2366 80.7472 95.1338 80.7918C95.8358 80.5387 96.5548 80.2857 97.2396 79.973C98.0271 79.6158 98.7632 79.1989 99.4652 78.7374C100.955 77.74 102.239 76.564 103.249 75.1944C105.2 72.5892 106.056 69.4332 106.073 66.3516C106.073 64.5056 105.782 62.6448 105.269 60.8583C105.098 60.2926 104.344 59.8907 103.694 60.0842C103.009 60.2182 102.598 60.7839 102.786 61.3943Z" fill="#231F20"/>
<path d="M120.129 21.8994C120.266 22.4502 120.386 23.001 120.489 23.5518C120.54 23.8198 120.591 24.1026 120.643 24.3855C120.66 24.4748 120.745 24.8917 120.677 24.5642C120.711 24.7279 120.728 24.8917 120.745 25.0405C120.899 26.1719 121.019 27.3182 121.088 28.4645C121.225 30.772 121.207 33.0943 121.019 35.3869C120.968 35.9526 120.916 36.5183 120.865 37.0989C120.831 37.3519 120.814 37.6199 120.78 37.873C120.762 37.9921 120.745 38.1112 120.728 38.2451C120.728 38.3047 120.711 38.3643 120.711 38.4089C120.694 38.4982 120.711 38.4536 120.728 38.2749C120.728 38.3196 120.711 38.3643 120.711 38.4089C120.557 39.3617 120.317 40.2995 120.026 41.2225C119.872 41.684 119.701 42.1455 119.513 42.5921C119.41 42.8154 119.324 43.0387 119.222 43.262C119.204 43.3216 119.17 43.3662 119.153 43.4258C119.256 43.1429 119.204 43.3067 119.17 43.3811C119.102 43.5002 119.05 43.6342 118.982 43.7533C118.52 44.6316 117.989 45.4653 117.356 46.2691C117.184 46.4925 116.996 46.7158 116.808 46.9242C116.756 46.9837 116.654 47.0582 116.859 46.8646C116.808 46.9242 116.739 46.9837 116.688 47.0433C116.585 47.1475 116.499 47.2517 116.397 47.3559C116.003 47.7578 115.592 48.13 115.147 48.5022C114.924 48.6808 114.702 48.8595 114.462 49.0381C114.342 49.1274 114.205 49.2019 114.103 49.2912C114.325 49.0977 114.24 49.2019 114.154 49.2614C114.086 49.3061 114.017 49.3507 113.932 49.3954C113.435 49.708 112.904 50.0058 112.357 50.2588C111.877 50.4821 111.603 51.0627 111.774 51.5242C111.843 51.7029 111.946 51.8815 112.1 52.0155C112.288 52.1941 112.716 52.3728 113.007 52.343C114.154 52.2239 115.301 52.1643 116.448 52.1941C117.013 52.209 117.561 52.2388 118.126 52.2834C118.263 52.2983 118.417 52.3132 118.554 52.3281C118.657 52.343 119.17 52.4025 118.725 52.343C119.016 52.3876 119.307 52.4174 119.598 52.4621C120.711 52.6258 121.824 52.864 122.902 53.1618C123.45 53.3106 123.998 53.4744 124.529 53.6679C124.649 53.7126 124.751 53.7423 124.871 53.787C124.94 53.8168 125.008 53.8317 125.077 53.8614C124.717 53.7423 124.957 53.8168 125.042 53.8466C125.316 53.9508 125.573 54.055 125.847 54.1592C126.891 54.5909 127.901 55.0673 128.86 55.6032C129.34 55.8712 129.802 56.1391 130.247 56.4369C130.367 56.5113 130.487 56.5857 130.606 56.6602C130.658 56.7048 130.726 56.7346 130.778 56.7793C130.504 56.6006 130.623 56.6751 130.692 56.7197C130.949 56.8984 131.188 57.0621 131.428 57.2408C132.284 57.866 133.106 58.5508 133.859 59.2654C134.253 59.6375 134.63 60.0246 135.006 60.4265C135.075 60.5159 135.16 60.5903 135.229 60.6796C134.955 60.3968 135.28 60.7392 135.331 60.8136C135.503 61.022 135.674 61.2304 135.845 61.4388C136.564 62.3469 137.215 63.2997 137.763 64.2822C137.9 64.5353 138.036 64.7884 138.156 65.0266C138.259 65.235 138.036 64.7735 138.139 64.9968C138.173 65.0712 138.208 65.1605 138.242 65.235C138.293 65.3541 138.345 65.4732 138.396 65.5923C138.636 66.1282 138.841 66.679 139.012 67.2298C139.201 67.7955 139.937 68.1975 140.587 68.0039C140.896 67.9146 141.204 67.7509 141.358 67.4978C141.529 67.2149 141.546 66.947 141.495 66.6343C141.495 66.6195 141.443 66.3366 141.478 66.5152C141.512 66.6939 141.46 66.4259 141.46 66.411C141.443 66.3068 141.426 66.2026 141.409 66.0984C141.375 65.8602 141.341 65.622 141.323 65.3839C141.289 65.0117 141.255 64.6395 141.238 64.2673C141.221 63.6868 141.238 63.0913 141.221 62.5107C141.221 61.7812 141.169 61.0667 141.084 60.3372C141.015 59.7864 140.93 59.2356 140.844 58.6848C140.793 58.3573 140.741 58.0298 140.69 57.6874C140.673 57.6278 140.673 57.5683 140.656 57.5087C140.604 57.2259 140.69 57.6874 140.656 57.5087C140.639 57.345 140.604 57.1961 140.587 57.0323C140.433 55.9754 140.296 54.9035 140.262 53.8317C140.245 53.2809 140.245 52.7449 140.296 52.1941C140.313 51.941 140.331 51.6731 140.382 51.42C140.313 51.7326 140.416 51.2711 140.416 51.2116C140.45 51.0627 140.468 50.9287 140.502 50.7799C140.604 50.3184 140.759 49.8718 140.93 49.4401C140.998 49.2465 141.084 49.053 141.169 48.8595C141.204 48.7701 141.238 48.6808 141.289 48.6064C141.306 48.5468 141.341 48.5022 141.358 48.4426C141.478 48.2044 141.306 48.5617 141.358 48.4575C141.769 47.6685 142.231 46.9093 142.779 46.1947C142.933 46.0012 143.155 45.7928 143.292 45.5844C143.275 45.5992 143.104 45.7928 143.241 45.6439C143.292 45.5844 143.344 45.5397 143.395 45.4802C143.481 45.3908 143.566 45.3015 143.652 45.2122C144.011 44.8549 144.388 44.5125 144.799 44.185C145.004 44.0212 145.227 43.8575 145.449 43.6937C145.621 43.5746 145.398 43.7384 145.381 43.7384C145.449 43.7086 145.501 43.6491 145.569 43.6193C145.689 43.5449 145.809 43.4704 145.912 43.396C146.374 43.1132 146.853 42.875 147.367 42.6517C147.846 42.4432 148.12 41.8329 147.949 41.3863C147.761 40.895 147.298 40.5973 146.716 40.5675C146.117 40.5377 145.518 40.4931 144.919 40.4335C144.782 40.4186 144.645 40.4037 144.508 40.3888C144.439 40.3888 144.371 40.3591 144.302 40.3591C144.645 40.3442 144.422 40.374 144.319 40.3591C144.011 40.3144 143.703 40.2846 143.412 40.24C142.248 40.0613 141.101 39.838 139.988 39.5552C139.423 39.4063 138.875 39.2575 138.327 39.0788C138.071 38.9895 137.814 38.9151 137.54 38.8257C137.506 38.8108 137.146 38.6917 137.146 38.6917C137.198 38.7066 137.249 38.7364 137.3 38.7513C137.249 38.7364 137.198 38.7066 137.146 38.6917C137.078 38.662 136.992 38.6322 136.924 38.6024C135.845 38.1856 134.818 37.7092 133.825 37.1584C133.328 36.8756 132.832 36.5927 132.37 36.2801C132.318 36.2503 132.284 36.2205 132.233 36.1908C132.284 36.2354 132.524 36.3694 132.233 36.1908C132.13 36.1163 132.01 36.0419 131.907 35.9675C131.668 35.8037 131.445 35.6251 131.223 35.4464C130.795 35.104 130.367 34.7467 129.973 34.3746C129.562 33.9875 129.203 33.5707 128.809 33.1836C129.048 33.4218 128.757 33.1241 128.706 33.0496C128.621 32.9454 128.535 32.8561 128.449 32.7519C128.261 32.5286 128.09 32.3053 127.919 32.082C127.576 31.6354 127.268 31.1739 126.96 30.7124C126.361 29.7894 125.83 28.8367 125.333 27.8541C125.316 27.8095 125.282 27.7648 125.265 27.7202C125.248 27.6755 125.214 27.6308 125.197 27.5862C125.265 27.735 125.282 27.7499 125.231 27.6457C125.162 27.5117 125.094 27.3629 125.025 27.2289C124.905 26.9609 124.786 26.693 124.666 26.425C124.426 25.8742 124.186 25.3085 123.964 24.7577C123.502 23.6114 123.074 22.4651 122.646 21.3188C122.44 20.768 121.738 20.3512 121.071 20.5447C120.386 20.7085 119.906 21.3039 120.129 21.8994C121.67 26.0826 123.279 30.3998 126.275 33.9875C127.799 35.8186 129.631 37.3966 131.788 38.6917C133.825 39.9125 136.102 40.8355 138.447 41.5054C141.118 42.2646 143.909 42.6814 146.716 42.8154C146.494 42.1157 146.288 41.4309 146.066 40.7313C142.18 42.4135 139.475 45.763 138.293 49.3507C137.574 51.5391 137.608 53.8168 137.899 56.0498C137.985 56.6751 138.071 57.2854 138.173 57.9107C138.191 58.0595 138.225 58.1935 138.242 58.3424C138.259 58.4019 138.259 58.4615 138.276 58.521C138.328 58.8039 138.242 58.3424 138.276 58.5359C138.328 58.8188 138.362 59.1165 138.413 59.3993C138.533 60.2777 138.653 61.156 138.67 62.0343C138.687 62.7042 138.67 63.3741 138.687 64.044C138.721 65.101 138.858 66.158 139.029 67.2149C139.851 67.0214 140.673 66.813 141.512 66.6195C140.194 62.5702 137.454 58.9081 133.859 56.1242C130.264 53.3255 125.813 51.286 121.088 50.4375C118.451 49.9611 115.712 49.8122 113.041 50.11C113.264 50.8096 113.469 51.4944 113.692 52.1941C117.903 50.1844 120.745 46.5669 122.235 42.6665C123.005 40.6419 123.348 38.5429 123.536 36.4141C123.758 34.062 123.827 31.7098 123.724 29.3577C123.604 26.6632 123.279 23.9687 122.646 21.3337C122.509 20.768 121.704 20.3809 121.071 20.5596C120.334 20.7233 119.992 21.289 120.129 21.8994Z" fill="#231F20"/>
</svg>
