<svg width="24" height="24" viewBox="0 0 24 24" fill="none" xmlns="http://www.w3.org/2000/svg">
<path d="M17 3H7C4.79086 3 3 4.79086 3 7V17C3 19.2091 4.79086 21 7 21H17C19.2091 21 21 19.2091 21 17V7C21 4.79086 19.2091 3 17 3Z" stroke="#212121" stroke-width="1.5" stroke-linecap="round" stroke-linejoin="round"/>
<path d="M11.9975 12.62C13.5494 12.62 14.8075 11.3619 14.8075 9.81C14.8075 8.25808 13.5494 7 11.9975 7C10.4456 7 9.1875 8.25808 9.1875 9.81C9.1875 11.3619 10.4456 12.62 11.9975 12.62Z" stroke="#212121" stroke-width="1.5" stroke-linecap="round" stroke-linejoin="round"/>
<path d="M5 20.429C5.52505 18.9835 6.48235 17.7346 7.74187 16.8521C9.00139 15.9695 10.5021 15.4961 12.04 15.4961C13.5779 15.4961 15.0786 15.9695 16.3381 16.8521C17.5976 17.7346 18.555 18.9835 19.08 20.429" stroke="#212121" stroke-width="1.5" stroke-linecap="round" stroke-linejoin="round"/>
</svg>
