<svg width="160" height="160" viewBox="0 0 160 160" fill="none" xmlns="http://www.w3.org/2000/svg">
<path fill-rule="evenodd" clip-rule="evenodd" d="M60.9524 0H91.4286V15.2289H99.0476V22.8433H91.4286V15.2289H83.8095V7.61443H76.1905V22.8433H83.8095V30.4577H76.1905V45.6866H83.8095V38.0721H91.4286V30.4577H99.0476V60.9154H106.667V68.5299H114.286V83.7587H99.0476V76.1443H91.4286V60.9154H76.1905V68.5299H83.8095C83.8095 68.5299 83.8095 77.8115 83.8095 83.7587C86.785 83.7587 91.4286 83.7587 91.4286 83.7587V91.3731H83.8095C83.8095 91.3731 83.8095 86.7323 83.8095 83.7587C74.8833 83.7587 60.9524 83.7587 60.9524 83.7587V91.3731H68.5714V98.9875H99.0476V106.602H129.524V121.831H137.143V129.445H144.762V121.831H160V129.445H144.762V159.903H114.286V152.289H99.0476V144.674H106.667V137.06H114.286V129.445H106.667V121.831H99.0476V137.06H83.8095V129.445H68.5714V137.06H60.9524V98.9875H45.7143V91.3731H30.4762V98.9875H22.8571V91.3731H30.4762V76.1443H15.2381V91.3731H7.61905V98.9875H0V91.3731H7.61905V83.7587H0V60.9154H7.61905V68.5299H22.8571V60.9154H68.5714V53.301H60.9524V45.6866H68.5714V38.0721H60.9524V30.4577H76.1905V22.8433H60.9524V0ZM0 0H53.3333V53.301H0V0ZM106.667 0H160V53.301H106.667V0ZM121.905 60.9154H129.524V68.5299H137.143V60.9154H160V68.5299H144.762V83.7587H137.143V76.1443H129.524V83.7587H121.905V60.9154ZM137.143 91.3731H160V114.216H152.381V98.9875H144.762V114.216H137.143V91.3731ZM0 106.602H53.3333V159.903H0V106.602ZM68.5714 144.674H76.1905V152.289H91.4286V159.903H60.9524V152.289H68.5714V144.674Z" fill="black"/>
<path d="M7.61905 45.6866V7.61442H45.7143V45.6866H7.61905Z" fill="white"/>
<path d="M114.286 45.6866V7.61442H152.381V45.6866H114.286Z" fill="white"/>
<path d="M68.5714 53.301V45.6866H76.1905V53.301L68.5714 53.301Z" fill="white"/>
<path d="M83.8095 53.301L83.8095 45.6866L91.4286 45.6866V53.301H83.8095Z" fill="white"/>
<path d="M45.7143 76.1443V68.5298H68.5714V76.1443H45.7143V83.7587H53.3333V91.3731L45.7143 91.3731L45.7143 83.7587H38.0952V76.1443H45.7143Z" fill="white"/>
<path d="M99.0476 76.1443V68.5298L106.667 68.5299L106.667 76.1443L99.0476 76.1443Z" fill="white"/>
<path d="M76.1905 114.216V106.602H91.4286V114.216H76.1905Z" fill="white"/>
<path d="M7.61905 152.289V114.216H45.7143V152.289H7.61905Z" fill="white"/>
<path d="M106.667 121.831L106.667 114.216H114.286V121.831L106.667 121.831Z" fill="white"/>
<path d="M15.2381 38.0721V15.2288H38.0952V38.0721H15.2381Z" fill="black"/>
<path d="M121.905 38.0721V15.2288H144.762V38.0721H121.905Z" fill="black"/>
<path d="M15.2381 144.674V121.831H38.0952V144.674H15.2381Z" fill="black"/>
<path d="M125.738 160V152.386H133.357V160H125.738Z" fill="white"/>
</svg>
