<svg width="24" height="24" viewBox="0 0 24 24" fill="none" xmlns="http://www.w3.org/2000/svg">
<path fill-rule="evenodd" clip-rule="evenodd" d="M12.4712 4.66816C12.4712 3.34909 14.0097 2.6285 15.023 3.47295L20.5379 8.06863C22.1538 9.42298 22.1538 11.9623 20.5379 13.3167L15.0263 17.9357C14.0138 18.7843 12.4712 18.0644 12.4712 16.7433V14.673C7.88134 14.4771 4.90358 18.0799 3.87302 20.4386C3.73914 20.745 3.41861 20.9258 3.08714 20.8819C2.75568 20.8379 2.49335 20.5798 2.44397 20.2491C1.703 15.2862 3.1658 11.8016 5.45541 9.61997C7.54422 7.62962 10.2744 6.77109 12.4712 6.8281V4.66816ZM13.9738 4.64644C13.9728 4.64954 13.9712 4.65627 13.9712 4.66816V7.33165C13.9712 7.959 13.4246 8.40791 12.842 8.35217C10.9936 8.17532 8.42338 8.86383 6.49016 10.7059C4.93807 12.1848 3.7587 14.4455 3.74967 17.6982C5.51554 15.2907 8.65064 12.7956 13.0525 13.2098C13.5785 13.2593 13.9712 13.7027 13.9712 14.2205V16.7433C13.9712 16.7552 13.9729 16.7619 13.9738 16.765C13.9744 16.7671 13.9752 16.7689 13.9761 16.7706C13.9766 16.7716 13.9771 16.7725 13.9778 16.7734C13.9815 16.779 13.9897 16.7874 14.0034 16.7938C14.0172 16.8002 14.0289 16.8011 14.0355 16.8004C14.0385 16.8001 14.0413 16.7994 14.0445 16.798C14.0475 16.7968 14.0537 16.7937 14.0629 16.786L19.5743 12.1671C20.4747 11.4125 20.475 9.97392 19.5751 9.2189C19.5749 9.21868 19.5746 9.21846 19.5743 9.21825L14.0627 4.62528C14.0536 4.61767 14.0474 4.61462 14.0444 4.61337C14.0412 4.61203 14.0384 4.61134 14.0354 4.61102C14.0287 4.61031 14.017 4.6112 14.0033 4.61762C13.9896 4.62403 13.9815 4.63244 13.9778 4.63802C13.9761 4.64054 13.9748 4.64315 13.9738 4.64644Z" fill="#33383E"/>
</svg>
