<svg width="24" height="24" viewBox="0 0 24 24" fill="none" xmlns="http://www.w3.org/2000/svg">
<path fill-rule="evenodd" clip-rule="evenodd" d="M20.336 5.06603C20.428 4.4832 19.842 4.02726 19.2997 4.2597L3.11834 11.1946C2.91009 11.2838 2.91846 11.5819 3.13139 11.6593L6.25663 12.7958C6.64591 12.9373 6.84672 13.3676 6.70517 13.7569C6.56361 14.1462 6.13329 14.347 5.74402 14.2054L2.61877 13.069C1.12826 12.527 1.0697 10.4406 2.52746 9.81585L18.7088 2.88098C20.3358 2.18368 22.0937 3.55147 21.8176 5.29997L19.6375 19.1071C19.3704 20.7991 17.3858 21.5839 16.0337 20.5323L10.3811 16.1358C9.31283 15.3049 9.21451 13.7257 10.1715 12.7688L13.47 9.47027C13.7629 9.17737 14.2378 9.17737 14.5307 9.47027C14.8235 9.76316 14.8235 10.238 14.5307 10.5309L11.2322 13.8294C10.9132 14.1484 10.9459 14.6748 11.302 14.9518L16.9546 19.3482C17.4053 19.6988 18.0668 19.4372 18.1559 18.8732L20.336 5.06603Z" fill="#83109F"/>
</svg>
