<svg width="24" height="24" viewBox="0 0 24 24" fill="none" xmlns="http://www.w3.org/2000/svg">
<path fill-rule="evenodd" clip-rule="evenodd" d="M8.75 6.5C8.75 3.60051 11.1005 1.25 14 1.25H17.5C17.9142 1.25 18.25 1.58579 18.25 2V6C18.25 6.41421 17.9142 6.75 17.5 6.75H15.25C14.6977 6.75 14.25 7.19772 14.25 7.75V9.25H17.5C17.731 9.25 17.949 9.3564 18.0912 9.53844C18.2333 9.72048 18.2836 9.95785 18.2276 10.1819L17.2276 14.1819C17.1441 14.5158 16.8442 14.75 16.5 14.75H14.25V22C14.25 22.4142 13.9142 22.75 13.5 22.75H9.5C9.08579 22.75 8.75 22.4142 8.75 22V14.75H7C6.58579 14.75 6.25 14.4142 6.25 14V10C6.25 9.58579 6.58579 9.25 7 9.25H8.75V6.5ZM14 2.75C11.9289 2.75 10.25 4.42893 10.25 6.5V10C10.25 10.4142 9.91421 10.75 9.5 10.75H7.75V13.25H9.5C9.91421 13.25 10.25 13.5858 10.25 14V21.25H12.75V14C12.75 13.5858 13.0858 13.25 13.5 13.25H15.9144L16.5394 10.75H13.5C13.0858 10.75 12.75 10.4142 12.75 10V7.75C12.75 6.36929 13.8693 5.25 15.25 5.25H16.75V2.75H14Z" fill="#33383E"/>
</svg>
