<svg width="24" height="24" viewBox="0 0 24 24" fill="none" xmlns="http://www.w3.org/2000/svg">
<path fill-rule="evenodd" clip-rule="evenodd" d="M19.5085 8.3624C18.7243 4.8345 15.2571 2.94857 11.6604 3.1109L11.649 3.11141L11.6375 3.11158C10.6413 3.12608 9.65987 3.35442 8.75957 3.78113C7.86719 4.20409 7.07519 4.81217 6.43617 5.56482C5.33715 7.08227 4.68975 8.87986 4.56906 10.75L4.56821 10.7631L4.5669 10.7762C4.27192 13.728 4.91158 17.1665 7.05454 19.043C8.49131 20.2475 10.3076 20.9055 12.1827 20.9007L12.1939 20.9006L12.2052 20.9009C14.1218 20.9535 15.9824 20.2506 17.3855 18.9438L17.3871 18.9423C18.0753 18.3053 18.5073 17.439 18.602 16.5061C18.6965 15.5762 18.4494 14.6438 17.9071 13.8827C17.5786 13.4488 17.1947 13.15 16.7305 12.8882C16.6015 13.5749 16.3979 14.2339 16.172 14.8174L16.1633 14.84L16.1531 14.8621C15.7187 15.7992 14.9659 16.5517 14.0286 16.9856C13.1011 17.415 12.0525 17.5048 11.066 17.2401C10.1578 17.0637 9.35357 16.5401 8.82487 15.7799L8.81748 15.7692L8.81046 15.7584C8.18757 14.7932 8.06651 13.3239 8.93351 12.1633C9.81371 10.985 11.5373 10.3426 14.1652 10.6054C14.5587 10.6447 14.9452 10.6945 15.3274 10.7711C15.227 10.096 14.9588 9.51722 14.4748 9.07432C14.1468 8.77993 13.763 8.55428 13.3462 8.41074C12.9285 8.26687 12.4861 8.2084 12.0453 8.2388C11.6046 8.26919 11.1744 8.38784 10.7804 8.58769C10.3864 8.78753 10.0365 9.06451 9.75163 9.40217C9.48452 9.71875 9.01134 9.75884 8.69476 9.49173C8.37818 9.22461 8.33809 8.75143 8.60521 8.43485C9.0197 7.94361 9.52866 7.54066 10.1019 7.24992C10.6751 6.95918 11.3009 6.78657 11.9421 6.74235C12.5834 6.69813 13.2269 6.78319 13.8346 6.99249C14.4423 7.20179 15.0018 7.53106 15.4798 7.96074L15.4842 7.96466C16.4843 8.87796 16.8434 10.0927 16.8719 11.2752C17.6643 11.6518 18.4576 12.1203 19.1107 12.9874L19.1161 12.9946L19.1214 13.002C19.8801 14.0614 20.2261 15.3613 20.0944 16.6577C19.9627 17.9537 19.3627 19.1571 18.407 20.0422C16.7187 21.6142 14.4811 22.4609 12.1754 22.4007C9.94766 22.4038 7.7903 21.6199 6.08426 20.187L6.07871 20.1823L6.07325 20.1775C3.39029 17.8343 2.76131 13.788 3.07304 10.6402C3.21482 8.48208 3.96598 6.40841 5.23938 4.6601L5.25498 4.63868L5.27206 4.61842C6.05244 3.69219 7.02268 2.9444 8.11712 2.42567C9.2081 1.90858 10.3971 1.63113 11.6042 1.61192C15.6702 1.43276 19.9818 3.57899 20.9727 8.03692C21.0626 8.44127 20.8077 8.84192 20.4034 8.93179C19.999 9.02167 19.5984 8.76674 19.5085 8.3624ZM15.3077 12.3033C14.9161 12.2064 14.494 12.1457 14.016 12.0979C11.6439 11.8607 10.5675 12.4823 10.1352 13.061C9.69283 13.6532 9.74294 14.4273 10.064 14.9343C10.3734 15.3732 10.8423 15.6736 11.3707 15.7711L11.4029 15.777L11.4344 15.7858C12.0875 15.9662 12.7835 15.9091 13.3984 15.6244C14.0063 15.343 14.4959 14.8573 14.7823 14.2523C15.0177 13.64 15.2112 12.9687 15.3077 12.3033Z" fill="#83109F"/>
</svg>
