<svg width="24" height="24" viewBox="0 0 24 24" fill="none" xmlns="http://www.w3.org/2000/svg">
<path fill-rule="evenodd" clip-rule="evenodd" d="M12.0025 1.75C9.84381 1.75 8.01678 3.34418 7.7243 5.48297L7.68719 5.75428C7.64661 5.75143 7.60582 5.75 7.56487 5.75H6.63191C4.00567 5.75 2.00798 8.10818 2.43974 10.6987L3.77307 18.6987C4.11462 20.748 5.88768 22.25 7.96525 22.25H16.0353C18.1129 22.25 19.886 20.748 20.2275 18.6987L21.5609 10.6987C21.9926 8.10819 19.9949 5.75 17.3687 5.75H16.4357C16.3962 5.75 16.3568 5.75134 16.3176 5.75399L16.2801 5.47852L16.2799 5.47702C15.9847 3.34091 14.1589 1.75 12.0025 1.75ZM15.1435 8.25014L15.2599 9.10539C15.3158 9.51582 15.6938 9.80325 16.1042 9.74738C16.5146 9.69152 16.8021 9.31351 16.7462 8.90308L16.5212 7.25H17.3687C19.068 7.25 20.3606 8.77589 20.0813 10.4521L18.7479 18.4521C18.5269 19.7781 17.3797 20.75 16.0353 20.75H7.96525C6.62094 20.75 5.47367 19.7781 5.25266 18.4521L3.91933 10.4521C3.63996 8.77588 4.93258 7.25 6.63191 7.25H7.48265L7.25723 8.89838C7.20111 9.30878 7.4883 9.68696 7.8987 9.74308C8.30909 9.79921 8.68728 9.51201 8.7434 9.10162L8.85964 8.2516C9.42336 8.57544 10.0666 8.75 10.7277 8.75H13.2729C13.935 8.75 14.5792 8.57492 15.1435 8.25014ZM14.9113 6.54447L14.794 5.68232L14.7939 5.68179C14.6011 4.28799 13.4096 3.25 12.0025 3.25C10.5937 3.25 9.40134 4.29039 9.21046 5.6862L9.09264 6.5478L9.1506 6.60476C9.57138 7.01828 10.1377 7.25 10.7277 7.25H13.2729C13.8629 7.25 14.4292 7.01828 14.85 6.60475L14.9113 6.54447ZM12.0003 11C12.4145 11 12.7503 11.3358 12.7503 11.75V14H15.0003C15.4145 14 15.7503 14.3358 15.7503 14.75C15.7503 15.1642 15.4145 15.5 15.0003 15.5H12.7503V17.75C12.7503 18.1642 12.4145 18.5 12.0003 18.5C11.5861 18.5 11.2503 18.1642 11.2503 17.75V15.5H9.0003C8.58609 15.5 8.2503 15.1642 8.2503 14.75C8.2503 14.3358 8.58609 14 9.0003 14H11.2503V11.75C11.2503 11.3358 11.5861 11 12.0003 11Z" fill="white"/>
</svg>
