<svg width="17" height="18" viewBox="0 0 17 18" fill="none" xmlns="http://www.w3.org/2000/svg">
<path d="M2.46243 7.59639C6.22052 5.76182 8.72653 4.55234 9.98036 3.96797C13.5604 2.2995 14.3043 2.00968 14.7892 2.0001C14.8958 1.998 15.1343 2.02761 15.2887 2.16804C15.4192 2.28662 15.455 2.4468 15.4722 2.55921C15.4894 2.67164 15.5108 2.92774 15.4938 3.12784C15.2998 5.41186 14.4603 10.9546 14.0333 13.5127C13.8526 14.5951 13.4968 14.958 13.1523 14.9936C12.4037 15.0708 11.8351 14.4392 11.1101 13.9067C9.97549 13.0733 9.33451 12.5545 8.23315 11.7413C6.96038 10.8015 7.78547 10.285 8.51082 9.44087C8.70068 9.21995 11.9992 5.8583 12.063 5.55335C12.0709 5.51521 12.0784 5.37304 12.0029 5.29797C11.9276 5.2229 11.8164 5.24857 11.7361 5.26899C11.6223 5.29793 9.8097 6.64025 6.29841 9.29611C5.78392 9.69188 5.31792 9.8848 4.9004 9.87469C4.4401 9.86353 3.5547 9.58307 2.89648 9.34337C2.08916 9.04927 1.44752 8.89383 1.50339 8.39445C1.53249 8.13437 1.85217 7.86835 2.46243 7.59639Z" fill="#CACCD1"/>
</svg>
