<svg width="21" height="20" viewBox="0 0 21 20" fill="none" xmlns="http://www.w3.org/2000/svg">
<path fill-rule="evenodd" clip-rule="evenodd" d="M3 4.64286C3 4.07454 3.22576 3.52949 3.62763 3.12763C4.02949 2.72576 4.57454 2.5 5.14286 2.5H6.12286C6.73714 2.5 7.27286 2.91857 7.42214 3.51429L8.21143 6.67357C8.27539 6.92928 8.26247 7.19818 8.17429 7.44659C8.08611 7.69499 7.92659 7.91185 7.71571 8.07L6.79214 8.76286C6.69571 8.835 6.675 8.94071 6.70214 9.01429C7.10527 10.1106 7.74185 11.1062 8.56782 11.9322C9.39378 12.7581 10.3894 13.3947 11.4857 13.7979C11.5593 13.825 11.6643 13.8043 11.7371 13.7079L12.43 12.7843C12.5881 12.5734 12.805 12.4139 13.0534 12.3257C13.3018 12.2375 13.5707 12.2246 13.8264 12.2886L16.9857 13.0779C17.5814 13.2271 18 13.7629 18 14.3779V15.3571C18 15.9255 17.7742 16.4705 17.3724 16.8724C16.9705 17.2742 16.4255 17.5 15.8571 17.5H14.25C8.03714 17.5 3 12.4629 3 6.25V4.64286Z" fill="#C9C9C9"/>
</svg>
