<svg width="298" height="392" viewBox="0 0 298 292" fill="none" xmlns="http://www.w3.org/2000/svg">
<g clip-path="url(#clip0_3383_638)">
<path fill-rule="evenodd" clip-rule="evenodd" d="M14 -0.999989H12C12 5.62743 6.62742 11 0 11L5.16734e-05 -0.999989H0V11V283.7C0 288.284 3.94731 292 8.81656 292H289.183C294.053 292 298 288.284 298 283.7V11C291.373 11 286 5.62743 286 -0.999989L283 -0.999978C283 -0.4477 282.609 1.0655e-05 282.127 1.05954e-05L278.656 1.02974e-05C278.173 1.02378e-05 277.782 -0.4477 277.782 -0.999979L267.381 -0.999979C267.381 -0.447701 266.99 9.34373e-06 266.508 9.28412e-06L259.566 8.74768e-06C259.084 8.68808e-06 258.693 -0.447702 258.693 -0.99998L248.292 -0.999981C248.292 -0.447702 247.901 7.7344e-06 247.418 7.7344e-06L240.477 7.13835e-06C239.994 7.13835e-06 239.603 -0.447703 239.603 -0.999982L229.202 -0.999983C229.202 -0.447704 228.811 6.18468e-06 228.329 6.12508e-06L221.387 5.58863e-06C220.905 5.52903e-06 220.514 -0.447705 220.514 -0.999983L210.113 -0.999984C210.113 -0.447706 209.722 4.63496e-06 209.239 4.57535e-06L202.298 3.97931e-06C201.815 3.97931e-06 201.424 -0.447706 201.424 -0.999985L191.023 -0.999986C191.023 -0.447707 190.632 3.02563e-06 190.15 2.96603e-06L183.208 2.42959e-06C182.726 2.36998e-06 182.335 -0.447708 182.335 -0.999987L171.934 -0.999987C171.934 -0.447709 171.543 1.47591e-06 171.06 1.41631e-06L164.119 8.20262e-07C163.636 8.20262e-07 163.245 -0.447709 163.245 -0.999989H152.844C152.844 -0.44771 152.453 -1.33412e-07 151.971 -1.93017e-07L145.029 -7.29458e-07C144.547 -7.89063e-07 144.156 -0.447711 144.156 -0.999989H133.755C133.755 -0.447712 133.364 -1.68313e-06 132.881 -1.74274e-06L125.94 -2.33878e-06C125.457 -2.33878e-06 125.066 -0.447713 125.066 -0.999991L114.665 -0.999992C114.665 -0.447714 114.274 -3.29246e-06 113.792 -3.35206e-06L106.85 -3.8885e-06C106.368 -3.94811e-06 105.977 -0.447714 105.977 -0.999993L95.5756 -0.999994C95.5756 -0.447715 95.1846 -4.84218e-06 94.7023 -4.90178e-06L87.7606 -5.49783e-06C87.2783 -5.49783e-06 86.8872 -0.447716 86.8872 -0.999994L76.4861 -0.999995C76.4861 -0.447717 76.0951 -6.4515e-06 75.6128 -6.51111e-06L68.6711 -7.04755e-06C68.1888 -7.10716e-06 67.7977 -0.447717 67.7977 -0.999996L57.3966 -0.999997C57.3966 -0.447718 57.0056 -8.00123e-06 56.5232 -8.06083e-06L49.5816 -8.65688e-06C49.0992 -8.65688e-06 48.7082 -0.447719 48.7082 -0.999998L38.3071 -0.999998C38.3071 -0.44772 37.9161 -9.61055e-06 37.4337 -9.61055e-06L30.4921 -1.02066e-05C30.0097 -1.02662e-05 29.6187 -0.447721 29.6187 -0.999999L19.2176 -1C19.2176 -0.447721 18.8266 -1.11603e-05 18.3442 -1.12199e-05L14.8734 -1.15179e-05C14.391 -1.15179e-05 14 -0.447716 14 -0.999989Z" fill="white"/>
</g>
<defs>
<clipPath id="clip0_3383_638">
<rect width="298" height="392" fill="white"/>
</clipPath>
</defs>
</svg>
