<svg width="298" height="96" viewBox="0 0 298 96" fill="none" xmlns="http://www.w3.org/2000/svg">
<path d="M283.894 0C284.652 0 285.351 0.000938556 286 0.00488281C286.003 6.62323 291.363 11.988 297.979 11.999C297.999 13.1533 298 14.4725 298 16V84C291.373 84 286 89.3726 286 96H283C283 95.4822 282.656 95.056 282.216 95.0049L282.127 95H278.656C278.268 95 277.939 95.2897 277.825 95.6904C277.798 95.7879 277.782 95.8919 277.782 96H267.381C267.381 95.4824 267.038 95.0563 266.598 95.0049L266.508 95H259.566C259.295 95 259.053 95.142 258.893 95.3643C258.768 95.5371 258.693 95.7584 258.693 96H248.292C248.292 95.4823 247.948 95.0561 247.508 95.0049L247.418 95H240.477C239.994 95.0001 239.604 95.4478 239.604 96H229.202C229.202 95.4821 228.858 95.056 228.418 95.0049L228.329 95H221.388C221.177 95 220.983 95.0859 220.832 95.2285C220.638 95.4119 220.514 95.6893 220.514 96H210.112C210.112 95.4824 209.769 95.0563 209.329 95.0049L209.239 95H202.298C201.816 95 201.424 95.4477 201.424 96H191.023C191.023 95.4823 190.68 95.0561 190.239 95.0049L190.149 95H183.208C182.726 95.0001 182.335 95.4478 182.335 96H171.934C171.934 95.4821 171.59 95.056 171.149 95.0049L171.061 95H164.119C163.908 95 163.714 95.0859 163.563 95.2285C163.369 95.4119 163.245 95.6893 163.245 96H152.844C152.844 95.4824 152.501 95.0563 152.061 95.0049L151.971 95H145.029C144.547 95 144.155 95.4477 144.155 96H133.755C133.755 95.4823 133.411 95.0561 132.971 95.0049L132.881 95H125.939C125.457 95.0001 125.066 95.4478 125.066 96H114.665C114.665 95.4821 114.321 95.056 113.881 95.0049L113.792 95H106.85C106.639 95.0001 106.446 95.086 106.295 95.2285C106.101 95.4119 105.977 95.6893 105.977 96H95.5752C95.5752 95.4824 95.2322 95.0563 94.792 95.0049L94.7021 95H87.7607C87.2784 95 86.8867 95.4477 86.8867 96H76.4863C76.4863 95.4823 76.1425 95.0561 75.7021 95.0049L75.6123 95H68.6709C68.1886 95.0001 67.7979 95.4478 67.7979 96H57.3965C57.3965 95.4821 57.0528 95.056 56.6123 95.0049L56.5234 95H49.582C49.3711 95 49.1773 95.0859 49.0264 95.2285C48.8322 95.4119 48.708 95.6893 48.708 96H38.3066C38.3066 95.4824 37.9637 95.0563 37.5234 95.0049L37.4336 95H30.4922C30.0098 95 29.6191 95.4477 29.6191 96H19.2178C19.2178 95.4823 18.874 95.0561 18.4336 95.0049L18.3438 95H14.873C14.3908 95.0002 14 95.4478 14 96H12C12 89.4761 6.79392 84.1681 0.30957 84.0039L0 84V16C0 14.4725 3.47402e-05 13.1533 0.0195312 11.999C6.63634 11.9885 11.9964 6.62354 11.999 0.00488281C12.6478 0.000932588 13.348 0 14.1064 0H283.894Z" fill="#83109F"/>
</svg>
