<svg width="406" height="100" viewBox="0 0 406 100" fill="none" xmlns="http://www.w3.org/2000/svg">
<path fill-rule="evenodd" clip-rule="evenodd" d="M10 0C4.47715 0 0 4.47715 0 10V95.4023H17.5802C18.7147 98.1033 21.3848 100 24.498 100C27.6112 100 30.2814 98.1033 31.4159 95.4023H43.5802C44.7147 98.1033 47.3848 100 50.498 100C53.6112 100 56.2814 98.1033 57.4159 95.4023H68.5802C69.7147 98.1033 72.3848 100 75.498 100C78.6112 100 81.2814 98.1033 82.4159 95.4023H94.58C95.7145 98.1033 98.3847 100 101.498 100C104.611 100 107.281 98.1033 108.416 95.4023H119.58C120.715 98.1033 123.385 100 126.498 100C129.611 100 132.281 98.1033 133.416 95.4023H145.58C146.715 98.1033 149.385 100 152.498 100C155.611 100 158.281 98.1033 159.416 95.4023H170.58C171.715 98.1033 174.385 100 177.498 100C180.611 100 183.282 98.1033 184.416 95.4023H196.58C197.715 98.1033 200.385 100 203.498 100C206.611 100 209.281 98.1033 210.416 95.4023H221.58C222.715 98.1033 225.385 100 228.498 100C231.611 100 234.281 98.1033 235.416 95.4023H247.58C248.715 98.1033 251.385 100 254.498 100C257.611 100 260.281 98.1033 261.416 95.4023H272.58C273.715 98.1033 276.385 100 279.498 100C282.611 100 285.281 98.1033 286.416 95.4023H298.58C299.715 98.1033 302.385 100 305.498 100C308.611 100 311.281 98.1033 312.416 95.4023H323.58C324.715 98.1033 327.385 100 330.498 100C333.611 100 336.282 98.1033 337.416 95.4023H349.58C350.715 98.1033 353.385 100 356.498 100C359.611 100 362.281 98.1033 363.416 95.4023H374.58C375.715 98.1033 378.385 100 381.498 100C384.611 100 387.281 98.1033 388.416 95.4023H406V10C406 4.47715 401.523 0 396 0H10Z" fill="#680082"/>
</svg>
