<svg width="18" height="18" viewBox="0 0 18 18" fill="none" xmlns="http://www.w3.org/2000/svg">
<path d="M2.25 7.5V6C2.25 5.40326 2.48705 4.83097 2.90901 4.40901C3.33097 3.98705 3.90326 3.75 4.5 3.75H13.5C14.0967 3.75 14.669 3.98705 15.091 4.40901C15.5129 4.83097 15.75 5.40326 15.75 6V7.5H15C14.6022 7.5 14.2206 7.65804 13.9393 7.93934C13.658 8.22064 13.5 8.60218 13.5 9C13.5 9.39782 13.658 9.77936 13.9393 10.0607C14.2206 10.342 14.6022 10.5 15 10.5H15.75V12C15.75 12.5967 15.5129 13.169 15.091 13.591C14.669 14.0129 14.0967 14.25 13.5 14.25H4.5C3.90326 14.25 3.33097 14.0129 2.90901 13.591C2.48705 13.169 2.25 12.5967 2.25 12V10.5H3C3.39782 10.5 3.77936 10.342 4.06066 10.0607C4.34196 9.77936 4.5 9.39782 4.5 9C4.5 8.60218 4.34196 8.22064 4.06066 7.93934C3.77936 7.65804 3.39782 7.5 3 7.5H2.25Z" stroke="#212121" stroke-linecap="round" stroke-linejoin="round"/>
<path d="M10.5 8.0364V7.39561C10.5 7.22438 10.4207 7.06017 10.2795 6.93909C10.1383 6.81802 9.94685 6.75 9.74719 6.75H8.25281C8.05315 6.75 7.86167 6.81802 7.72049 6.93909C7.57931 7.06017 7.5 7.22438 7.5 7.39561V7.7136C7.5 7.81389 7.52744 7.91279 7.58013 8.00233C7.63283 8.09187 7.70929 8.16955 7.80337 8.22912L10.1966 9.77088C10.2907 9.83045 10.3672 9.90813 10.4199 9.99767C10.4726 10.0872 10.5 10.1861 10.5 10.2864V10.6044C10.5 10.7756 10.4207 10.9398 10.2795 11.0609C10.1383 11.182 9.94685 11.25 9.74719 11.25H8.25281C8.05315 11.25 7.86167 11.182 7.72049 11.0609C7.57931 10.9398 7.5 10.7756 7.5 10.6044V9.9636" stroke="#212121" stroke-linecap="round" stroke-linejoin="round"/>
<path d="M9 6V12" stroke="#212121" stroke-linecap="round" stroke-linejoin="round"/>
</svg>
