<svg width="16" height="15" viewBox="0 0 16 15" fill="none" xmlns="http://www.w3.org/2000/svg">
<path d="M15.8 2.37C15.2263 2.64862 14.6206 2.82276 13.9831 2.92724C14.6206 2.50931 15.1306 1.84758 15.3538 1.04653C14.7481 1.42964 14.0788 1.70826 13.3456 1.8824C12.7719 1.22067 11.9431 0.802734 11.0506 0.802734C9.32938 0.802734 7.92688 2.33517 7.92688 4.21588C7.92688 4.49451 7.95875 4.7383 8.0225 4.9821C5.44063 4.84279 3.11375 3.48449 1.55188 1.39481C1.29688 1.91723 1.1375 2.47448 1.1375 3.10138C1.1375 4.28554 1.67938 5.33038 2.54 5.95728C2.03 5.92245 1.55187 5.78314 1.10563 5.53935V5.57417C1.10563 7.24592 2.18938 8.63904 3.62375 8.95249C3.36875 9.02215 3.08188 9.05698 2.795 9.05698C2.60375 9.05698 2.38063 9.02215 2.18938 8.98732C2.60375 10.3456 3.75125 11.3556 5.12187 11.3556C4.03813 12.2612 2.69938 12.8184 1.23313 12.8184C0.978125 12.8184 0.723125 12.8184 0.5 12.7836C1.9025 13.7588 3.52813 14.316 5.31313 14.316C11.0825 14.316 14.2381 9.0918 14.2381 4.56416C14.2381 4.42485 14.2381 4.25071 14.2381 4.1114C14.8438 3.65863 15.3856 3.06656 15.8 2.37Z" fill="#CACCD1"/>
</svg>
