<svg width="24" height="24" viewBox="0 0 24 24" fill="none" xmlns="http://www.w3.org/2000/svg">
<path d="M2.88785 5.38192C3.25234 4.99509 4.60374 3.62719 5.88224 2.34338L8.21495 0.00560617L13.4467 0C17.7252 0 18.785 0.0168185 19.3065 0.0840925C19.6486 0.128942 20.1364 0.229853 20.3832 0.313945C20.6299 0.392432 21.0224 0.560617 21.2523 0.678346C21.4822 0.796076 21.8467 1.03714 22.0598 1.21654C22.2785 1.39594 22.5981 1.71549 22.7776 1.93413C22.9626 2.14716 23.2037 2.51717 23.3271 2.74702C23.4449 2.97687 23.6075 3.35809 23.686 3.58795C23.7645 3.8178 23.8654 4.30554 23.9103 4.66433C23.9664 5.07919 24 5.75193 24 7.59636L19.0935 12.4961L20.243 13.6622C20.8766 14.3013 21.5271 15.0189 21.6897 15.2488C21.8523 15.4786 22.0374 15.8094 22.1047 15.9776C22.1888 16.2018 22.228 16.4653 22.2505 16.9306C22.2729 17.48 22.2617 17.637 22.1608 17.9678C22.0935 18.1808 21.9533 18.5116 21.8411 18.6966C21.729 18.8816 21.4935 19.1955 21.3196 19.3973C21.1402 19.5936 20.0523 20.7148 16.7944 24L11.0748 23.9944C6.35888 23.9944 5.24299 23.9776 4.71028 23.9103C4.35701 23.8655 3.86355 23.7645 3.61682 23.6804C3.37009 23.602 2.97757 23.4338 2.74766 23.316C2.51776 23.1983 2.13645 22.9404 1.90654 22.7498C1.67664 22.5536 1.35701 22.2341 1.19439 22.0322C1.02617 21.8304 0.796262 21.4772 0.672897 21.2474C0.55514 21.0175 0.392523 20.6363 0.314019 20.4064C0.235514 20.1766 0.134579 19.6889 0.0897196 19.3245C0.0392523 18.9657 0 18.3826 0 17.4071L4.6486 12.754L3.62804 11.7169C3.06729 11.1451 2.46729 10.5004 2.29346 10.2873C2.11963 10.0687 1.91215 9.78276 1.83365 9.64261C1.75514 9.50245 1.6486 9.23896 1.59252 9.05396C1.52523 8.82971 1.49159 8.53259 1.49159 8.15697C1.49159 7.77015 1.52523 7.48423 1.59813 7.23196C1.65981 7.03013 1.82243 6.68816 1.96262 6.47512C2.10841 6.25648 2.52336 5.76875 2.88785 5.38192Z" fill="#7B00FF"/>
<path d="M3.61682 0.313945C3.86355 0.229853 4.31776 0.128942 4.62617 0.0896987C4.96822 0.0448493 5.78131 0.0112123 8.21495 0L8.04673 0.173791C7.95702 0.269091 6.90292 1.32294 5.71422 2.51136L5.71402 2.51156C4.52523 3.70568 3.25234 4.99509 2.88785 5.38192C2.52336 5.76875 2.10841 6.26209 1.96262 6.47512C1.82243 6.68816 1.65981 7.03013 1.59813 7.23196C1.52523 7.48423 1.49159 7.77015 1.49159 8.15697C1.49159 8.53259 1.52523 8.82971 1.59252 9.05396C1.6486 9.23896 1.75514 9.50245 1.83364 9.64261C1.91215 9.78276 2.11963 10.0687 2.29346 10.2873C2.46729 10.5004 3.06729 11.1451 4.6486 12.754L0 17.4071V11.3693C0 6.22845 0.011215 5.22495 0.0897196 4.66994C0.134579 4.30554 0.235514 3.8178 0.314019 3.58795C0.392523 3.35809 0.55514 2.97687 0.672897 2.74702C0.796262 2.51717 1.03738 2.15277 1.21682 1.93973C1.39626 1.72109 1.71028 1.40715 1.91215 1.23896C2.11963 1.06517 2.48411 0.8185 2.72523 0.689559C2.97196 0.566223 3.37009 0.392432 3.61682 0.313945Z" fill="#82F05B"/>
<path d="M19.0935 12.4961L21.5327 10.0463L23.972 7.59636L23.9888 13.0904C24 17.7211 23.9888 18.691 23.9215 19.2572C23.871 19.6272 23.7701 20.1317 23.686 20.3784C23.6075 20.6251 23.4449 21.0175 23.3271 21.2474C23.2037 21.4772 22.957 21.8416 22.7776 22.0603C22.5981 22.2789 22.2841 22.5929 22.0822 22.761C21.8748 22.9292 21.5159 23.1759 21.2692 23.2992C21.028 23.4282 20.6299 23.602 20.3832 23.6804C20.1364 23.7645 19.643 23.8655 19.2897 23.9103C18.9364 23.9552 18.2299 23.9944 16.7944 24L18.8972 21.8809C20.0523 20.7148 21.1402 19.5936 21.3196 19.3973C21.4935 19.1955 21.729 18.8816 21.8411 18.6966C21.9533 18.5116 22.0935 18.1864 22.1607 17.9678C22.2617 17.637 22.2729 17.48 22.2505 16.9306C22.228 16.4653 22.1888 16.2018 22.1047 15.9776C22.0374 15.8094 21.8523 15.4786 21.6897 15.2488C21.5271 15.0189 20.8766 14.3013 19.0935 12.4961Z" fill="#82F05B"/>
<path d="M11.2143 8.46551V6.55942V4.65332H12.7844V8.46551H11.2143Z" fill="#FCFBFB"/>
<path d="M7.55266 6.83412C7.64237 6.80048 7.99004 6.69957 8.32649 6.61548C8.66294 6.52578 8.99938 6.4529 9.19004 6.44729L9.20686 8.44869C9.22929 10.1249 9.24611 10.523 9.33023 10.8762C9.3863 11.106 9.52088 11.4872 9.63303 11.7171C9.75639 11.9806 9.93583 12.2441 10.1153 12.4235C10.2723 12.5748 10.5414 12.771 10.7097 12.8495C10.8779 12.928 11.1527 13.0233 11.3097 13.057C11.4723 13.0906 11.7807 13.1186 11.9994 13.1186C12.2181 13.1186 12.5265 13.0906 12.6835 13.057C12.8461 13.0233 13.1209 12.928 13.2891 12.8495C13.4573 12.771 13.7265 12.5748 13.8835 12.4235C14.0405 12.2665 14.248 11.9806 14.3433 11.7844C14.4442 11.5938 14.5788 11.2294 14.6405 10.9715C14.7527 10.551 14.7639 10.3324 14.7807 8.47673C14.8031 6.58745 14.8087 6.44729 14.8985 6.44729C14.9545 6.44729 15.291 6.52017 15.6442 6.60987C15.9975 6.69957 16.3564 6.80048 16.5975 6.89579L16.5751 8.67294C16.5639 10.1586 16.5414 10.5118 16.4629 10.7921C16.4069 10.9771 16.2779 11.3191 16.1657 11.5489C16.0592 11.7788 15.8517 12.1319 15.7003 12.3338C15.5545 12.5356 15.3078 12.8103 15.162 12.9504C15.0106 13.0906 14.7751 13.2868 14.6349 13.3821C14.4947 13.4774 14.2312 13.6288 14.0461 13.7241C13.8611 13.8138 13.5358 13.9483 13.3171 14.01C13.0985 14.0773 12.7227 14.1502 12.476 14.1782C12.2293 14.2006 11.8031 14.2006 11.5227 14.1726C11.2256 14.1446 10.8162 14.0549 10.5302 13.9596C10.2555 13.8643 9.85733 13.6849 9.63303 13.5559C9.39752 13.4158 9.02742 13.113 8.74705 12.8383C8.4835 12.5748 8.1863 12.2216 8.09097 12.0535C7.99004 11.8853 7.84424 11.5938 7.77135 11.4088C7.69284 11.2237 7.5863 10.921 7.53583 10.736C7.45172 10.4557 7.4349 10.1081 7.40125 6.89579L7.55266 6.83412Z" fill="#FCFBFB"/>
<path d="M5.4835 16.9701C5.47789 16.4038 5.49471 15.9217 5.52275 15.9049C5.55079 15.8825 5.71901 15.8657 6.22368 15.8657V16.3254C6.22368 16.5832 6.2349 16.8019 6.25172 16.8187C6.26854 16.8355 6.37509 16.8019 6.49284 16.7458C6.64985 16.6673 6.80125 16.6505 7.15452 16.6617C7.54144 16.6785 7.64798 16.701 7.87789 16.8467C8.07415 16.9645 8.19191 17.0934 8.29284 17.2952C8.40499 17.5139 8.43864 17.654 8.43864 17.9399C8.43303 18.2034 8.39938 18.3716 8.30966 18.5454C8.24237 18.6743 8.09097 18.8481 7.97882 18.9378C7.86107 19.0219 7.68163 19.1172 7.56948 19.1565C7.46294 19.1957 7.21621 19.2237 7.01995 19.2294C6.82929 19.2294 6.55452 19.2013 6.40312 19.1621C6.21808 19.1172 6.06667 19.0219 5.88163 18.8425C5.67976 18.6407 5.61247 18.523 5.562 18.2931C5.52275 18.1305 5.4891 17.5363 5.4835 16.9701Z" fill="#FCFBFB"/>
<path d="M15.8125 19.1733V17.5195V15.8657H16.4854V16.8187C16.4854 17.4186 16.5078 17.7718 16.5414 17.7718C16.5695 17.7718 16.8162 17.5195 17.5788 16.6449L17.9545 16.6505C18.1676 16.6505 18.3358 16.6673 18.3358 16.6898C18.3358 16.7178 18.1115 16.9981 17.3265 17.9119L17.7358 18.3492C17.9545 18.5903 18.2069 18.8762 18.448 19.1733L17.6349 19.1789L17.091 18.5846C16.7882 18.2595 16.5302 18.0128 16.5134 18.0352C16.4966 18.0633 16.4854 18.3268 16.4854 19.1733H15.8125Z" fill="#FCFBFB"/>
<path d="M9.57695 16.7122C9.67789 16.6898 9.81808 16.6561 9.88537 16.6393C9.95266 16.6225 10.1097 16.6225 10.233 16.6393C10.3564 16.6561 10.519 16.6954 10.5975 16.7346C10.676 16.7739 10.7713 16.8467 10.8106 16.8972C10.8442 16.9476 10.9059 16.9757 10.934 16.9589C10.962 16.942 10.9844 16.8692 10.9788 16.7907C10.9676 16.6449 10.9676 16.6449 11.6742 16.6785L11.6685 17.4634C11.6629 17.9063 11.6854 18.3155 11.7134 18.3996C11.7527 18.5006 11.8143 18.5566 11.8872 18.5566C11.9882 18.5566 11.9994 18.5959 11.9994 19.1733H11.6517C11.3209 19.1677 11.2872 19.1565 10.962 18.7865L10.7938 18.9547C10.7041 19.0444 10.5358 19.1453 10.4293 19.1845C10.3227 19.2181 10.0928 19.235 9.9134 19.2237C9.67789 19.2069 9.5377 19.1621 9.35266 19.0331C9.19191 18.921 9.0592 18.7622 8.95452 18.5566C8.84798 18.338 8.80312 18.1642 8.80312 17.968C8.80312 17.811 8.83116 17.5924 8.8592 17.4746C8.89284 17.3625 9.02181 17.1551 9.15639 17.0149C9.29658 16.8579 9.4648 16.7402 9.57695 16.7122Z" fill="#FCFBFB"/>
<path d="M12.4928 17.9511C12.4872 17.2784 12.5097 16.7066 12.5321 16.6842C12.5601 16.6617 12.734 16.6505 13.2611 16.6785L13.3003 17.071L13.4517 16.9308C13.5358 16.8523 13.7265 16.757 13.8723 16.7122C14.0293 16.6673 14.2424 16.6505 14.377 16.6729C14.5003 16.6898 14.691 16.7626 14.7975 16.8299C14.9041 16.9028 15.0442 17.0317 15.1059 17.1158C15.2125 17.2616 15.2237 17.3625 15.2517 19.1733H14.5227V17.6596L14.3545 17.4914C14.2143 17.3513 14.1414 17.3233 13.9003 17.3233C13.6592 17.3233 13.5919 17.3457 13.2891 17.6596V19.1733H12.5041L12.4928 17.9511Z" fill="#FCFBFB"/>
<path d="M6.33537 17.6033C6.36341 17.5416 6.47556 17.4407 6.57649 17.3734H6.57089C6.71107 17.2893 6.82883 17.2669 7.04191 17.2781C7.23257 17.2893 7.37275 17.3342 7.45687 17.4071C7.52976 17.4687 7.61948 17.6033 7.65874 17.7042C7.72042 17.8387 7.72042 17.9396 7.68117 18.1078C7.64752 18.2424 7.56341 18.3769 7.46808 18.4442C7.38397 18.5115 7.22696 18.5731 7.12042 18.5956C7.01388 18.6124 6.82883 18.5956 6.71107 18.5619C6.58771 18.5227 6.45874 18.433 6.39145 18.3321C6.32416 18.2368 6.2793 18.0686 6.2793 17.9396C6.2793 17.8163 6.30173 17.6649 6.33537 17.6033Z" fill="#7B00FF"/>
<path d="M9.68864 17.4855C9.77836 17.4015 9.8849 17.323 9.92976 17.3061C9.97462 17.2893 10.1092 17.2725 10.2214 17.2725C10.3391 17.2669 10.5129 17.3061 10.6027 17.351C10.6924 17.3958 10.8101 17.5136 10.855 17.6033C10.8999 17.6986 10.9391 17.8499 10.9391 17.9396C10.9391 18.0349 10.8943 18.1863 10.8382 18.276C10.7877 18.3713 10.6587 18.4834 10.5578 18.5283C10.4625 18.5731 10.2943 18.6124 10.1933 18.6124C10.098 18.6124 9.92976 18.5619 9.82883 18.5003C9.7335 18.4386 9.61014 18.2928 9.55967 18.1807C9.5092 18.0574 9.48677 17.8948 9.5036 17.7995C9.52042 17.7098 9.60453 17.564 9.68864 17.4855Z" fill="#7B00FF"/>
</svg>
