<svg width="18" height="18" viewBox="0 0 18 18" fill="none" xmlns="http://www.w3.org/2000/svg">
<g clip-path="url(#clip0_4398_1763)">
<path fill-rule="evenodd" clip-rule="evenodd" d="M9 2.15625C5.2203 2.15625 2.15625 5.2203 2.15625 9C2.15625 12.7797 5.2203 15.8438 9 15.8438C12.7797 15.8438 15.8438 12.7797 15.8438 9C15.8438 5.2203 12.7797 2.15625 9 2.15625ZM0.84375 9C0.84375 4.49543 4.49543 0.84375 9 0.84375C13.5046 0.84375 17.1562 4.49543 17.1562 9C17.1562 13.5046 13.5046 17.1562 9 17.1562C4.49543 17.1562 0.84375 13.5046 0.84375 9Z" fill="#F67804"/>
<path fill-rule="evenodd" clip-rule="evenodd" d="M9 8.34375C9.36244 8.34375 9.65625 8.63756 9.65625 9V12C9.65625 12.3624 9.36244 12.6562 9 12.6562C8.63756 12.6562 8.34375 12.3624 8.34375 12V9C8.34375 8.63756 8.63756 8.34375 9 8.34375Z" fill="#F67804"/>
<path fill-rule="evenodd" clip-rule="evenodd" d="M8.34375 6C8.34375 5.63756 8.63756 5.34375 9 5.34375H9.0075C9.36994 5.34375 9.66375 5.63756 9.66375 6C9.66375 6.36244 9.36994 6.65625 9.0075 6.65625H9C8.63756 6.65625 8.34375 6.36244 8.34375 6Z" fill="#F67804"/>
</g>
<defs>
<clipPath id="clip0_4398_1763">
<rect width="18" height="18" fill="white"/>
</clipPath>
</defs>
</svg>
